<svg width="14" height="14" viewBox="0 0 14 14" fill="none" xmlns="http://www.w3.org/2000/svg">
  <circle cx="7" cy="7" r="7" fill="#3883F3"/>
  <path d="M3 4H5.13623C6.13997 4 7.23223 4.22063 7.23223 5.52528C7.23223 6.19484 6.83571 6.6522 6.24532 6.84755V6.8644C6.99739 6.96399 7.49926 7.55082 7.49926 8.32993C7.49926 9.58478 6.36676 10 5.34693 10H3V4ZM4.26272 6.39786H5.1772C5.56568 6.39786 5.97024 6.22855 5.97024 5.74591C5.97024 5.24566 5.51666 5.11849 5.12014 5.11849H4.26272V6.39786ZM4.26272 8.88075H5.39522C5.79174 8.88075 6.23727 8.70301 6.23727 8.17748C6.23727 7.60981 5.63006 7.51711 5.21744 7.51711H4.26638L4.26272 8.88075Z" fill="white"/>
  <path d="M7.90625 8.56076L9.94591 6.73217H7.95527V5.71875H11.3542V6.93807L9.21725 8.81718H11.4025V9.83366H7.90625V8.56076Z" fill="white"/>
</svg>