<svg width="14" height="14" viewBox="0 0 14 14" fill="none" xmlns="http://www.w3.org/2000/svg">
  <circle cx="7" cy="7" r="7" fill="black"/>
  <path fill-rule="evenodd" clip-rule="evenodd" d="M8.89121 4.00883C8.82427 4 8.75732 4 8.69038 4C8.04603 4 7.43515 4.27368 7 4.76806C6.56485 4.2825 5.95397 4 5.31799 4C4.03766 4 3 5.0947 3 6.42777V9.49117H4.24686V6.47191C4.24686 5.91573 4.68201 5.40369 5.19247 5.35072C5.22594 5.35072 5.26778 5.34189 5.30126 5.34189C5.87866 5.34189 6.34728 5.83628 6.34728 6.44543V9.5H7.61925V6.46308C7.61925 5.9069 8.05439 5.39486 8.56485 5.34189C8.59833 5.34189 8.64017 5.33307 8.67364 5.33307C9.25105 5.33307 9.71967 5.82745 9.72803 6.42777V9.49117H11V6.47191C11 5.85393 10.7824 5.27127 10.3975 4.8122C10.0042 4.3443 9.46862 4.0618 8.89121 4.00883Z" fill="white"/>
</svg>