<svg width="15" height="14" viewBox="0 0 15 14" fill="none" xmlns="http://www.w3.org/2000/svg">
  <path fill-rule="evenodd" clip-rule="evenodd" d="M11.0267 2.45649L10.8938 2.35564L10.7285 2.22109L10.5298 2.12L10.3643 2.01915L10.1656 1.91806L9.96669 1.85091L9.76823 1.78352L9.53639 1.71636L9.33794 1.68267L9.10609 1.61527H8.94032L8.74187 1.58158H7.98003L7.74842 1.61527L7.54973 1.64897L7.35128 1.68267L7.15235 1.74982L6.95367 1.81721L6.75521 1.88461L6.55628 1.95176L6.35736 2.05285L6.19206 2.1537L5.99337 2.25479L5.82807 2.35564L5.62914 2.45649L5.46384 2.59127L5.26492 2.72582L5.09962 2.86061L4.93385 3.02861L4.80147 3.16339L4.66885 3.29794L4.50355 3.46618L4.40385 3.60073L4.27147 3.76921L4.13933 3.93746L4.03963 4.072L3.9404 4.24024L3.84118 4.40849L3.74148 4.57673L3.67541 4.74521L3.57617 4.91346L3.5101 5.0817L3.41041 5.28364L3.34433 5.45188L3.27826 5.65382L3.21219 5.85576L3.17903 6.0577L3.11249 6.25964L3.07933 6.42788L3.04618 6.62982L3.01326 6.83176V7.20194L2.98011 7.37018V7.9423L3.01326 8.14424V8.31249L3.04618 8.51443L3.07933 8.71636L3.11249 8.88461L3.17903 9.08655L3.21219 9.28849L3.27826 9.45673L3.34433 9.62497L3.41041 9.79321L3.47695 9.96146L3.54326 10.1297L3.60933 10.2979L3.70856 10.4664L3.7751 10.601L3.87433 10.7695L3.97355 10.9375L4.07278 11.072L4.17224 11.2068L4.27147 11.3413L4.40385 11.4761L4.73492 11.8798L4.96677 12.1156L5.19885 12.3508L5.33099 12.4521L5.46384 12.553L5.59599 12.6538L5.72884 12.7551L5.86099 12.8558L5.99337 12.9566L6.12599 13.024L6.25837 13.1251L6.42414 13.1925L6.85444 13.4281L6.98658 13.4953L7.15235 13.5627L7.31765 13.6298L7.48366 13.6633L7.64896 13.7307L7.81473 13.7646L7.98003 13.7983L8.1458 13.8655L8.3111 13.8992H8.47687L8.64217 13.9326L8.80794 13.9663H8.97371L9.13925 14H9.80139L9.96669 13.9663H10.1325L10.2978 13.9326L10.4635 13.8992L10.6288 13.8655L10.7948 13.8318L10.9606 13.7983L11.1588 13.7646L11.3246 13.697L11.4901 13.6633L11.6228 13.5961L11.7881 13.529L11.9538 13.4618L12.1191 13.3939L12.252 13.2933L12.4173 13.2259L12.5494 13.1251L12.7154 13.0575L12.8476 12.9566L12.9802 12.8558L13.1126 12.7551L13.2452 12.6538L13.3776 12.5193L13.5097 12.4184L13.6426 12.2836L13.7747 12.1828L13.8739 12.048L14.0068 11.9135L14.2386 11.6441L14.3379 11.5098L14.4371 11.3748L14.5368 11.2405L14.6358 11.072L14.7021 10.9375L14.8013 10.7695L14.8679 10.601L14.9671 10.433V10.3988L15 10.3316V10.0286L14.9671 9.96146L14.9339 9.89406V9.82691L14.9008 9.75952L14.8342 9.72606L14.8013 9.69236L14.7682 9.65867L14.735 9.62497L14.6689 9.59127H14.5032L14.47 9.62497L14.4371 9.65867L14.4039 9.69236L14.371 9.72606L14.2718 9.89406L14.2055 10.0286L14.106 10.1971L13.9736 10.3316L13.7747 10.6347L13.6426 10.7695L13.5429 10.8703L13.4107 11.0046L13.2783 11.1396L13.1457 11.2405L13.0133 11.3413L12.8807 11.4761L12.7154 11.577L12.5494 11.6778L12.4173 11.745L12.252 11.8463L12.0862 11.9135L11.9204 11.9806L11.7551 12.048L11.5891 12.1156L11.4238 12.1828L11.2581 12.2165L11.0598 12.2499L10.8938 12.3173H10.6956L10.5298 12.3508H10.3643L10.1985 12.3845H9.70216L9.53639 12.3508H9.37109L9.20532 12.3173H9.04002L8.87425 12.2836L8.70871 12.2165L8.54294 12.1828L8.37765 12.1491L8.21187 12.0819L8.04657 12.0143L7.8808 11.9472L7.7155 11.8798L7.58265 11.8126L7.41735 11.745L7.28473 11.6778L7.15235 11.577L7.02021 11.4761L6.85444 11.4085L6.72159 11.3076L6.58944 11.2068L6.45706 11.1059L6.32444 11.0046L6.22521 10.8703L6.09283 10.7695L5.96022 10.6347L5.86099 10.5001L5.72884 10.3653L5.62914 10.2308L5.39754 9.96146L5.29808 9.82691L5.19885 9.62497L5.066 9.45673L4.96677 9.28849L4.9007 9.08655L4.80147 8.88461L4.73492 8.68267L4.66885 8.51443L4.60278 8.31249L4.56962 8.11055L4.50355 7.90861L4.4704 7.70667L4.43724 7.50473V7.13455L4.40385 6.93261L4.43724 6.73067V6.52873L4.4704 6.32679L4.50355 6.12485L4.53647 5.88945L4.60278 5.68752L4.66885 5.45188L4.73492 5.24994L4.80147 5.0143L4.9007 4.81237L4.99992 4.61066L5.13254 4.40849L5.23176 4.20679L5.36415 4.03831L5.49677 3.87006L5.62914 3.70182L5.76176 3.53358L5.89414 3.39903L6.05991 3.26425L6.22521 3.1297L6.29129 3.06231L6.39098 2.99515L6.45706 2.96146L6.55628 2.89406L6.62236 2.82691L6.72159 2.79321L6.78836 2.72582L6.88735 2.69236L6.98658 2.62497L7.05312 2.59127L7.15235 2.55758L7.21866 2.49019L7.35128 2.45649L7.41735 2.42303L7.54973 2.38933L7.64896 2.35564L7.74842 2.32194L7.84765 2.28825H7.94688L8.04657 2.25479H8.1458L8.24503 2.22109H8.44395L8.34425 2.25479L8.27795 2.28825L8.17896 2.32194L8.11265 2.35564L8.01295 2.38933L7.94688 2.42303L7.84765 2.49019L7.78158 2.52412L7.7155 2.59127L7.61581 2.65867L7.54973 2.69236L7.4505 2.75952L7.41735 2.79321L7.35128 2.86061L7.31765 2.89406L7.28473 2.96146L7.21866 2.99515L7.18551 3.06231L7.15235 3.096L7.08628 3.16339L6.95367 3.33164L6.92051 3.39903L6.82128 3.56727L6.72159 3.73552L6.62236 3.90376L6.55628 4.1057L6.49021 4.27394L6.45706 4.47588L6.39098 4.67782L6.35736 4.84606L6.32444 5.048V5.75467L6.35736 6.12485V6.29333L6.39098 6.46158L6.45706 6.62982L6.49021 6.83176L6.55628 7L6.62236 7.13455L6.68867 7.30279L6.75521 7.47103L6.82128 7.63928L6.88735 7.77382L6.98658 7.9423L7.08628 8.07685L7.18551 8.24533L7.28473 8.37964L7.51658 8.64897L7.64896 8.74982L7.74842 8.88461L7.8808 9.01915L8.01295 9.12024L8.17896 9.25479L8.3111 9.35564L8.47687 9.42303L8.60925 9.52412L8.77502 9.62497L8.94032 9.69236L9.10609 9.75952L9.27139 9.82691L9.43717 9.89406L9.63562 9.96146L9.83455 9.99515L10.0332 10.0623L10.2317 10.0962H10.4306L10.5959 10.1297H11.2917L11.4901 10.0962L11.722 10.0623L11.9204 9.99515L12.1191 9.96146L12.318 9.89406L12.4833 9.79321L12.6823 9.72606L12.8476 9.62497L13.0133 9.52412L13.1786 9.42303L13.3444 9.32218L13.4768 9.1874L13.6757 9.05285L13.8079 8.88461L13.9736 8.71636L14.106 8.51443L14.2386 8.34618L14.3379 8.17794L14.4371 7.976L14.5368 7.77382L14.6029 7.60558L14.6689 7.40388L14.735 7.20194L14.7682 7L14.8342 6.73067L14.8679 6.46158V5.62012L14.8342 5.41818V5.21624L14.7682 4.84606L14.6689 4.47588L14.6358 4.30764L14.5697 4.1394L14.5032 3.93746L14.4371 3.76921L14.371 3.56727L14.3047 3.39903L14.2055 3.23079L14.106 3.06231L14.0397 2.89406L13.9405 2.72582L13.841 2.59127L13.7086 2.42303L13.6094 2.25479L13.5097 2.12L13.3776 1.98546L13.2783 1.85091L13.1457 1.68267L13.0133 1.54812L12.8807 1.41333L12.7483 1.27879L12.583 1.1777L12.4504 1.04315L12.318 0.908606L12.1523 0.807517L11.8212 0.572121L11.6559 0.471032L11.4901 0.370182H11.457L11.4238 0.336486H11.2251L11.192 0.370182L11.1588 0.403639V0.504728L11.192 0.538424V0.572121L11.2251 0.605579V0.639275L11.2581 0.672971H11.2917L11.3246 0.706668L11.3578 0.740364L11.5231 0.841214L11.6888 0.942064L11.8541 1.04315L12.0201 1.1777L12.1854 1.27879L12.318 1.41333L12.4833 1.54812L12.6162 1.68267L12.7483 1.81721L12.8807 1.95176L13.0133 2.08655L13.1126 2.22109L13.2452 2.38933L13.3444 2.55758L13.4436 2.69236L13.5429 2.86061L13.6426 3.02861L13.7418 3.19685L13.9076 3.53358L13.9736 3.73552L14.0397 3.90376L14.106 4.072L14.1389 4.27394L14.2055 4.44218L14.2386 4.61066L14.2718 4.81237L14.3047 4.98085V5.18279L14.3379 5.35103V5.72097L14.3047 5.92291V6.15855L14.2718 6.36049L14.2055 6.59612L14.1389 6.83176L14.0729 7.0337L13.9736 7.2354L13.8739 7.43757L13.7418 7.63928L13.6094 7.84145L13.4436 8.0097L13.2452 8.17794L13.0465 8.34618L12.8476 8.48073L12.6162 8.61527L12.3841 8.74982L12.1854 8.81745L11.987 8.85091L11.7881 8.91806L11.5891 8.952L11.3909 8.9857H10.6956L10.4635 8.952L10.2317 8.88461L10.0003 8.81745L9.76823 8.74982L9.63562 8.71636L9.53639 8.64897L9.40401 8.61527L9.30455 8.54812L9.17217 8.48073L9.07294 8.41357L8.97371 8.34618L8.8411 8.24533L8.74187 8.17794L8.54294 8.0097L8.47687 7.90861L8.67533 8.0097L8.8411 8.07685L9.04002 8.14424L9.27139 8.2114L9.47032 8.24533L9.66901 8.27879H10.2648L10.4635 8.24533H10.6625L10.8278 8.17794L11.0598 8.11055L11.2581 8.04315L11.4238 7.976L11.6228 7.87491L11.8541 7.74036L12.053 7.60558L12.252 7.43757L12.4173 7.26933L12.583 7.10085L12.7154 6.89891L12.8476 6.69697L12.9802 6.49503L13.0794 6.29333L13.1457 6.09139L13.2118 5.85576L13.2783 5.65382L13.3115 5.45188L13.3444 5.21624V4.81237L13.3115 4.61066L13.2783 4.37503L13.2452 4.17285L13.2118 3.97115L13.1457 3.76921L13.0794 3.60073L13.0133 3.39903L12.9141 3.23079L12.8476 3.06231L12.7483 2.89406L12.6491 2.72582L12.5494 2.55758L12.4504 2.42303L12.318 2.25479L12.0862 1.98546L11.987 1.85091L11.8541 1.71636L11.722 1.58158L11.5562 1.44703L11.4238 1.34618L11.2917 1.2114L11.1259 1.11055L10.9606 1.00946L10.7948 0.908606L10.6625 0.807517L10.4635 0.706668L10.2978 0.605579L10.1325 0.538424L9.96669 0.471032L9.80139 0.403639L9.63562 0.336486L9.47032 0.269093L9.27139 0.235397L9.10609 0.168242L8.90717 0.134546L8.74187 0.10085L8.54294 0.0671533H8.37765L8.21187 0.0336961H8.01295L7.84765 0H6.98658L6.82128 0.0336961H6.65551L6.45706 0.0671533L6.29129 0.10085H6.12599L5.96022 0.168242H5.79491L5.59599 0.235397L5.43069 0.269093L5.26492 0.336486L5.09962 0.370182L4.93385 0.437335L4.73492 0.504728L4.56962 0.572121L4.40385 0.639275L4.23855 0.706668L4.07278 0.773821L3.90748 0.87491L3.7751 0.942064L3.60933 1.04315L3.47695 1.11055L3.34433 1.2114L3.17903 1.31249L3.04618 1.41333L2.91403 1.51442L2.78118 1.61527L2.61588 1.71636L2.48374 1.81721L2.35088 1.95176L2.21874 2.05285L1.9869 2.32194L1.85451 2.42303L1.7219 2.55758L1.62267 2.69236L1.48982 2.82691L1.39059 2.96146L1.2916 3.096L1.19237 3.23079L0.927375 3.63467L0.827676 3.80291L0.761603 3.93746L0.662377 4.072L0.596303 4.24024L0.529995 4.37503L0.430299 4.54327L0.364224 4.71152L0.298151 4.87976L0.232078 5.048L0.198454 5.21624L0.13238 5.38449L0.0992262 5.55273L0.033154 5.72097L0 5.88945V6.12485L0.033154 6.19224L0.0992262 6.25964L0.165301 6.29333L0.232078 6.36049L0.298151 6.39418L0.39738 6.42788H0.72845L0.861067 6.39418L0.960294 6.36049L1.05952 6.32679L1.19237 6.29333L1.25844 6.22594L1.35767 6.19224L1.42375 6.12485L1.48982 6.0577L1.5566 5.9903L1.62267 5.88945L1.65559 5.82206V5.75467L1.68874 5.55273L1.7219 5.38449L1.78797 5.21624L1.82089 5.048L1.85451 4.87976L1.92058 4.71152L1.9869 4.54327L2.05297 4.37503L2.11904 4.20679L2.18559 4.072L2.28481 3.90376L2.35088 3.76921L2.45011 3.60073L2.51665 3.46618L2.61588 3.33164L2.71511 3.19685L2.81481 3.06231L2.91403 2.92776L3.14588 2.65867L3.27826 2.52412L3.41041 2.38933L3.54326 2.25479L3.64249 2.1537L3.80826 2.01915L3.9404 1.91806L4.07278 1.81721L4.33778 1.61527L4.50355 1.51442L4.6357 1.44703L4.96677 1.24509L5.13254 1.1777L5.29808 1.11055L5.46384 1.00946L5.62914 0.975999L5.79491 0.908606L5.96022 0.841214L6.12599 0.807517L6.32444 0.740364L6.49021 0.706668L6.65551 0.672971L6.82128 0.639275L7.02021 0.605579H7.18551L7.35128 0.572121H7.54973L7.7155 0.538424H7.91396L8.07973 0.572121H8.44395L8.60925 0.605579L8.8411 0.639275L9.04002 0.672971L9.23824 0.706668L9.43717 0.773821L9.63562 0.841214L9.83455 0.908606L10.0003 0.975999L10.1656 1.04315L10.3643 1.14424L10.5298 1.24509L10.6625 1.34618L10.8278 1.44703L10.9935 1.54812L11.1259 1.64897L11.2917 1.78352L11.4238 1.91806L11.5562 2.05285L11.6888 2.1874L11.7881 2.32194L11.9204 2.45649L12.0201 2.59127L12.1191 2.75952L12.2184 2.92776L12.318 3.096L12.3841 3.26425L12.4833 3.43249L12.5494 3.60073L12.6162 3.80291L12.6491 3.97115L12.6823 4.1394L12.7154 4.30764L12.7483 4.47588V4.81237L12.7154 4.98085V5.14909L12.6491 5.31733L12.6162 5.48558L12.5494 5.65382L12.4833 5.82206L12.3841 5.9903L12.2849 6.15855L12.1854 6.29333L12.053 6.42788L11.9204 6.56243L11.7881 6.69697L11.6228 6.83176L11.457 6.93261L11.2581 7L11.0598 7.10085L10.8609 7.16824L10.6625 7.20194L10.4635 7.2354L10.2978 7.26933H9.93353L9.76823 7.2354L9.56955 7.20194L9.40401 7.16824L9.20532 7.10085L9.04002 7.0337L8.87425 6.93261L8.70871 6.83176L8.54294 6.69697L8.37765 6.59612L8.21187 6.42788L8.07973 6.29333L7.94688 6.15855L7.84765 5.9903L7.7155 5.82206L7.64896 5.65382L7.58265 5.48558L7.51658 5.28364L7.48366 5.0817L7.4505 4.84606V4.50958L7.48366 4.34133L7.51658 4.24024L7.54973 4.1394L7.58265 4.072L7.64896 4.00485L7.68235 3.90376L7.74842 3.76921L7.84765 3.60073L7.98003 3.43249L8.11265 3.29794L8.24503 3.16339L8.37765 3.06231L8.5761 2.92776L8.77502 2.86061L8.97371 2.75952L9.20532 2.72582L9.40401 2.65867H10.0664L10.2978 2.72582L10.5628 2.79321L10.7948 2.92776H10.8278L10.8609 2.96146H11.0598L11.0928 2.92776H11.1259L11.1588 2.89406V2.86061L11.192 2.82691V2.65867L11.1588 2.62497V2.59127L11.1259 2.55758L11.0928 2.52412L11.0598 2.49019L11.0267 2.45649Z" fill="#121212"/>
</svg>