<svg width="12" height="14" viewBox="0 0 12 14" fill="none" xmlns="http://www.w3.org/2000/svg">
  <path d="M0 3.38197C0 3.14787 0.132261 2.93387 0.341641 2.82918L5.10557 0.447213C5.66863 0.165686 6.33137 0.165686 6.89443 0.447214L11.6584 2.82918C11.8677 2.93387 12 3.14787 12 3.38197C12 3.7233 11.7233 4 11.382 4H0.618035C0.276704 4 0 3.7233 0 3.38197Z" fill="#565865"/>
  <rect y="4.5" width="12" height="1" rx="0.5" fill="#565865"/>
  <rect y="12.5" width="12" height="1.5" rx="0.4" fill="#565865"/>
  <rect x="1" y="6" width="1" height="6" rx="0.5" fill="#565865"/>
  <rect x="1" y="6" width="1.25" height="1" rx="0.5" fill="#565865"/>
  <rect x="1" y="11" width="1.25" height="1" rx="0.5" fill="#565865"/>
  <rect x="0.75" y="6" width="1.5" height="1" rx="0.5" fill="#565865"/>
  <rect x="0.75" y="11" width="1.5" height="1" rx="0.5" fill="#565865"/>
  <rect x="4" y="6" width="1" height="6" rx="0.5" fill="#565865"/>
  <rect x="4" y="6" width="1.25" height="1" rx="0.5" fill="#565865"/>
  <rect x="4" y="11" width="1.25" height="1" rx="0.5" fill="#565865"/>
  <rect x="3.75" y="6" width="1.5" height="1" rx="0.5" fill="#565865"/>
  <rect x="3.75" y="11" width="1.5" height="1" rx="0.5" fill="#565865"/>
  <rect x="7" y="6" width="1" height="6" rx="0.5" fill="#565865"/>
  <rect x="7" y="6" width="1.25" height="1" rx="0.5" fill="#565865"/>
  <rect x="7" y="11" width="1.25" height="1" rx="0.5" fill="#565865"/>
  <rect x="6.75" y="6" width="1.5" height="1" rx="0.5" fill="#565865"/>
  <rect x="6.75" y="11" width="1.5" height="1" rx="0.5" fill="#565865"/>
  <rect x="10" y="6" width="1" height="6" rx="0.5" fill="#565865"/>
  <rect x="10" y="6" width="1.25" height="1" rx="0.5" fill="#565865"/>
  <rect x="10" y="11" width="1.25" height="1" rx="0.5" fill="#565865"/>
  <rect x="9.75" y="6" width="1.5" height="1" rx="0.5" fill="#565865"/>
  <rect x="9.75" y="11" width="1.5" height="1" rx="0.5" fill="#565865"/>
</svg>