<svg width="12" height="14" viewBox="0 0 12 14" fill="none" xmlns="http://www.w3.org/2000/svg">
  <path d="M3.41192 13.5265L3.65736 11.9854L3.11064 11.9729H0.5L2.31426 0.600892C2.31989 0.566562 2.3382 0.534552 2.36495 0.51182C2.39169 0.489088 2.42595 0.476562 2.46162 0.476562H6.86353C8.32489 0.476562 9.33338 0.77718 9.85992 1.37053C10.1068 1.64888 10.264 1.93975 10.34 2.25986C10.4198 2.59573 10.4212 2.99702 10.3433 3.48645L10.3377 3.52217V3.83578L10.5845 3.97403C10.7924 4.08305 10.9576 4.20784 11.0843 4.35073C11.2955 4.58872 11.432 4.89119 11.4898 5.2498C11.5494 5.61861 11.5296 6.05747 11.432 6.55433C11.3194 7.12587 11.1373 7.62365 10.8914 8.03097C10.6652 8.40628 10.3771 8.71757 10.035 8.95881C9.70834 9.18798 9.32024 9.36195 8.88146 9.47329C8.45629 9.58277 7.97151 9.63798 7.43981 9.63798H7.09723C6.85227 9.63798 6.61434 9.72519 6.42756 9.88153C6.24032 10.0411 6.11642 10.2592 6.07841 10.4976L6.0526 10.6363L5.61898 13.3526L5.59927 13.4523C5.59411 13.4838 5.58519 13.4996 5.57205 13.5103C5.56032 13.52 5.54342 13.5265 5.527 13.5265H3.41192Z" fill="#253B80"/>
  <path d="M10.8105 3.55859C10.7973 3.64163 10.7823 3.72653 10.7654 3.81375C10.1849 6.76008 8.19887 7.77791 5.66238 7.77791H4.3709C4.0607 7.77791 3.79931 8.00059 3.75098 8.30306L3.08975 12.4486L2.9025 13.6237C2.87106 13.8223 3.02593 14.0013 3.22866 14.0013H5.51925C5.79049 14.0013 6.02091 13.8065 6.06362 13.5421L6.08615 13.427L6.51742 10.7215L6.54511 10.573C6.58734 10.3076 6.81823 10.1128 7.08948 10.1128H7.43206C9.65132 10.1128 11.3886 9.22208 11.8964 6.64456C12.1085 5.56782 11.9987 4.66875 11.4374 4.03643C11.2675 3.84576 11.0568 3.68756 10.8105 3.55859Z" fill="#179BD7"/>
  <path d="M10.21 3.31926C10.1213 3.29374 10.0298 3.27055 9.93597 3.24967C9.84164 3.22926 9.74497 3.21117 9.64548 3.19539C9.29727 3.13972 8.91574 3.11328 8.50699 3.11328H5.0568C4.97186 3.11328 4.89114 3.1323 4.81887 3.16663C4.65978 3.24225 4.54152 3.39117 4.51289 3.57349L3.77893 8.16904L3.75781 8.30311C3.80615 8.00064 4.06754 7.77796 4.37774 7.77796H5.66922C8.20571 7.77796 10.1917 6.75966 10.7722 3.81379C10.7896 3.72658 10.8042 3.64168 10.8173 3.55864C10.6704 3.48163 10.5113 3.41575 10.34 3.35962C10.2978 3.3457 10.2541 3.33225 10.21 3.31926Z" fill="#222D65"/>
  <path d="M4.51172 3.57169C4.54034 3.38937 4.6586 3.24045 4.81769 3.1653C4.89043 3.13097 4.97068 3.11195 5.05562 3.11195H8.50582C8.91457 3.11195 9.29609 3.13839 9.64431 3.19406C9.74379 3.20984 9.84047 3.22793 9.93479 3.24834C10.0287 3.26922 10.1202 3.29241 10.2089 3.31793C10.253 3.33092 10.2966 3.34437 10.3393 3.35782C10.5106 3.41396 10.6697 3.4803 10.8166 3.55684C10.9893 2.46803 10.8152 1.7267 10.2197 1.05541C9.56312 0.316391 8.37817 0 6.8619 0H2.46C2.15027 0 1.88606 0.22268 1.83819 0.525617L0.00468762 12.0145C-0.0314475 12.2418 0.145943 12.4469 0.377771 12.4469H3.09541L3.77775 8.16724L4.51172 3.57169Z" fill="#253B80"/>
</svg>