<svg width="14" height="14" viewBox="0 0 14 14" fill="none" xmlns="http://www.w3.org/2000/svg">
  <circle cx="7" cy="7" r="7" fill="#00AFF0"/>
  <path d="M7.35757 3.00001C6.36755 2.99735 5.41549 3.40036 4.70343 4.12352V3.26094H3.42969V14H4.70343V10.5059C5.41989 11.2198 6.37046 11.616 7.35757 11.6121C9.58782 11.6121 11.2868 9.69791 11.2868 7.33805C11.2868 4.94584 9.58782 3.00001 7.35757 3.00001ZM7.35757 10.3678C5.91701 10.3678 4.73351 9.01216 4.73351 7.33805C4.73351 5.63159 5.91701 4.24715 7.35757 4.24715C8.81387 4.24715 9.99736 5.63446 9.99736 7.33805C9.99736 9.01216 8.81387 10.3678 7.35757 10.3678Z" fill="white"/>
</svg>