<svg width="14" height="14" viewBox="0 0 14 14" fill="none" xmlns="http://www.w3.org/2000/svg">
  <path d="M12.5321 0H0.733729C0.337515 0 0 0.338948 0 0.75158V2.09263C0 2.50526 0.337515 2.84421 0.733729 2.84421H12.5321C12.943 2.84421 13.2658 2.50526 13.2805 2.09263V0.766315C13.2805 0.338947 12.943 0 12.5321 0ZM12.5321 7.44211H0.733729C0.542959 7.44211 0.35219 7.51579 0.220119 7.66316C0.0733728 7.81053 0 7.98737 0 8.19368V9.53473C0 9.94737 0.337515 10.2863 0.733729 10.2863H12.5321C12.943 10.2863 13.2658 9.9621 13.2805 9.53473V8.19368C13.2658 7.76631 12.943 7.44211 12.5321 7.44211ZM7.38131 11.1558H0.733729C0.542959 11.1558 0.35219 11.2295 0.220119 11.3768C0.0880474 11.5242 0 11.7011 0 11.9074V13.2484C0 13.6611 0.337515 14 0.733729 14H7.36663C7.77752 14 8.10036 13.6611 8.10036 13.2632V11.9221C8.11504 11.48 7.7922 11.1411 7.38131 11.1558ZM13.2805 3.71368H0.733729C0.542959 3.71368 0.35219 3.78737 0.220119 3.93474C0.0880474 4.0821 0 4.25895 0 4.46526V5.80632C0 6.21895 0.337515 6.5579 0.733729 6.5579H13.2658C13.6767 6.5579 13.9995 6.21895 13.9995 5.80632V4.46526C14.0142 4.05263 13.6767 3.72842 13.2805 3.71368Z" fill="#00C3F7"/>
</svg>