<svg width="14" height="14" viewBox="0 0 14 14" fill="none" xmlns="http://www.w3.org/2000/svg">
  <path d="M11.6606 0H2.33943C1.04725 0 0 1.04726 0 2.33943V11.6606C0 12.9527 1.04725 14 2.33943 14H11.6606C12.9527 14 14 12.9527 14 11.6606V2.33943C14 1.04726 12.9527 0 11.6606 0ZM11.4551 10.7161C11.4551 11.1243 11.1243 11.4551 10.7161 11.4551H3.28393C2.87573 11.4551 2.54494 11.1243 2.54494 10.7161V3.28393C2.54494 2.87573 2.87573 2.54494 3.28393 2.54494H10.7161C11.1243 2.54494 11.4551 2.87573 11.4551 3.28393V10.7161ZM5.51498 8.90026C5.27991 8.90026 5.09129 8.71024 5.09129 8.47517V5.50794C5.09129 5.27287 5.27991 5.08144 5.51498 5.08144H8.48643C8.72009 5.08144 8.91011 5.27147 8.91011 5.50794V8.47376C8.91011 8.70883 8.72009 8.89885 8.48643 8.89885H5.51498V8.90026Z" fill="#1A1A1A"/>
</svg>