<svg width="14" height="14" viewBox="0 0 14 14" fill="none" xmlns="http://www.w3.org/2000/svg">
  <rect width="14" height="14" rx="3" fill="#285AA3"/>
  <path d="M5.80498 8.38013L9.00505 8.20545L8.25401 7.36699L10.7863 4.49644C10.922 4.34259 10.9969 4.14448 10.9969 3.93933V3.73365C10.9514 3.31981 10.6218 3.10564 10.4009 3.02649C10.3423 3.00549 10.2798 3 10.2175 3H4.17674C4.08727 3 3.99595 3.01014 3.91832 3.05461C3.68083 3.19066 3.61719 3.43329 3.61719 3.52404V4.15288C3.65475 4.45428 3.78457 4.62928 3.89503 4.71682C3.96349 4.77109 4.05351 4.78173 4.14087 4.78173H7.56828L6.68663 5.79487L5.80498 4.95641V8.38013Z" fill="white"/>
  <path d="M3.64996 10.9985H10.4269C10.5233 10.9985 10.6222 10.9847 10.6959 10.9226C10.7956 10.8384 10.9114 10.6854 10.9644 10.4396V9.67097C10.9556 9.58593 10.888 9.40889 10.6954 9.27048C10.5994 9.20154 10.4789 9.18187 10.3607 9.18187H6.42558L6.94803 8.6229H5.47862V7.05078L3.13488 9.65857C3.06599 9.73523 3.01717 9.82926 3.00722 9.93184C2.93705 10.6552 3.39542 10.9441 3.64996 10.9985Z" fill="white"/>
</svg>