<svg width="20" height="20" viewBox="0 0 20 20" fill="none" xmlns="http://www.w3.org/2000/svg">
  <rect width="20" height="20" rx="4" fill="white"/>
  <path fill-rule="evenodd" clip-rule="evenodd" d="M8.98206 7.16295C8.98206 6.56358 9.49327 6.33171 10.3193 6.33171C11.6864 6.36052 13.0278 6.69917 14.2377 7.32088V3.70281C12.9901 3.2245 11.6596 2.98606 10.3193 3.00063C7.13543 3.00063 5 4.62767 5 7.34451C5 11.5952 10.983 10.9048 10.983 12.7371C10.983 13.4537 10.3552 13.6759 9.47175 13.6759C8.16906 13.6759 6.48655 13.1501 5.16682 12.4501V16.1154C6.52556 16.6922 7.99042 16.9932 9.4722 17C12.7444 17 15 15.4228 15 12.6587C15 8.07118 8.98206 8.89061 8.98206 7.16382V7.16295Z" fill="#6772E5"/>
</svg>