<svg width="15" height="14" viewBox="0 0 15 14" fill="none" xmlns="http://www.w3.org/2000/svg">
  <path d="M7.91468 0H4.01849L0 7L4.01849 14L4.81345 12.6211L1.58992 7L4.81345 1.3877H7.11972L7.91468 0Z" fill="#5470DE"/>
  <path d="M5.17657 4.75058L5.9628 3.38045L4.8184 1.38672L4.02344 2.75686L5.17657 4.75058Z" fill="#4D71F7"/>
  <path d="M9.68427 1.38672L10.4792 2.76564L4.8184 12.6201L4.02344 11.2412L9.68427 1.38672Z" fill="#4D71F7"/>
  <path d="M6.59375 14L7.37998 12.6211H9.68624L12.9098 7L9.68624 1.3877L10.4812 0L14.4997 7L10.4812 14H6.59375Z" fill="#5470DE"/>
  <path d="M9.30278 9.21875L8.50781 10.5977L9.67842 12.6177L10.4734 11.2476L9.30278 9.21875Z" fill="#4D71F7"/>
</svg>