<svg width="13" height="14" viewBox="0 0 13 14" fill="none" xmlns="http://www.w3.org/2000/svg">
  <path d="M11.667 5.33317V8.44428C11.667 9.89318 11.667 10.6176 11.4463 11.1944C11.1088 12.0763 10.4141 12.7732 9.53492 13.1118C8.95997 13.3332 8.23779 13.3332 6.79342 13.3332C6.03594 13.3332 5.65719 13.3332 5.30471 13.2554C4.76696 13.1369 4.267 12.8861 3.84978 12.5257C3.57631 12.2895 3.34907 11.9855 2.89457 11.3776L0.891911 8.699C0.584192 8.28742 0.593042 7.71913 0.913426 7.31739C1.33214 6.79235 2.11284 6.74898 2.58679 7.22442L3.66772 8.30875V5.99984V2.99984C3.66772 2.44755 4.11544 1.99984 4.66772 1.99984C5.22001 1.99984 5.66772 2.44755 5.66772 2.99984M5.66772 2.99984V1.6665C5.66772 1.11422 6.11544 0.666504 6.66772 0.666504C7.22001 0.666504 7.66772 1.11422 7.66772 1.6665V2.99984M5.66772 2.99984V5.99984M7.66772 2.99984C7.66772 2.44755 8.11544 1.99984 8.66772 1.99984C9.22001 1.99984 9.66772 2.44755 9.66772 2.99984V4.33317M7.66772 2.99984V5.99984M11.6677 5.99984V4.33317C11.6677 3.78089 11.22 3.33317 10.6677 3.33317C10.1154 3.33317 9.66772 3.78089 9.66772 4.33317M9.66772 4.33317V5.99984" stroke="#16896B" stroke-linecap="round" stroke-linejoin="round"/>
</svg>