
<svg width="14" height="14" viewBox="0 0 14 14" fill="none" xmlns="http://www.w3.org/2000/svg">
  <path d="M13.333 6.99984C13.333 4.01428 13.333 2.52149 12.4055 1.594C11.478 0.666504 9.98524 0.666504 6.99967 0.666504C4.01411 0.666504 2.52133 0.666504 1.59384 1.594C0.666342 2.52149 0.666342 4.01428 0.666342 6.99984C0.666342 9.9854 0.666342 11.4782 1.59384 12.4057C2.52133 13.3332 4.01411 13.3332 6.99967 13.3332C9.98524 13.3332 11.478 13.3332 12.4055 12.4057C13.333 11.4782 13.333 9.9854 13.333 6.99984Z" stroke="#565865" stroke-linecap="round" stroke-linejoin="round"/>
  <path d="M0.666342 8H3.95012C4.51152 8 4.95262 8.46906 5.20004 8.96482C5.46883 9.50341 6.0071 10 6.99968 10C7.99226 10 8.53052 9.50341 8.79931 8.96482C9.04673 8.46906 9.48783 8 10.0492 8H13.333" stroke="#565865" stroke-linejoin="round"/>
</svg>