
<svg width="16" height="14" viewBox="0 0 16 14" fill="none" xmlns="http://www.w3.org/2000/svg">
  <path d="M3.54748 5.45512C5.1566 2.60783 5.96116 1.18418 7.06518 0.817711C7.67255 0.616102 8.3268 0.616102 8.93417 0.817711C10.0382 1.18418 10.8428 2.60783 12.4519 5.45512C14.061 8.30242 14.8655 9.72606 14.6242 10.8861C14.4914 11.5242 14.1643 12.1031 13.6897 12.5396C12.827 13.3332 11.2179 13.3332 7.99967 13.3332C4.78144 13.3332 3.17232 13.3332 2.30965 12.5396C1.83506 12.1031 1.50793 11.5242 1.37516 10.8861C1.1338 9.72606 1.93836 8.30242 3.54748 5.45512Z" stroke="#C72F08"/>
  <path d="M7.99401 9.6665H8" stroke="#C72F08" stroke-linecap="round" stroke-linejoin="round"/>
  <path d="M8 7.6665L8 4.99984" stroke="#C72F08" stroke-linecap="round" stroke-linejoin="round"/>
</svg>