
<svg width="16" height="16" viewBox="0 0 16 16" fill="none" xmlns="http://www.w3.org/2000/svg">
  <path d="M14.877 2.94079L14.3366 4.95777C14.2858 5.147 14.0264 5.1693 13.9443 4.99148C13.1188 3.35829 11.6283 2.0703 9.72209 1.55954C6.16747 0.607079 2.51337 2.71803 1.56043 6.27447C0.877456 8.82335 1.7673 11.423 3.63487 13.042" stroke="#0171DB" stroke-linecap="round" stroke-linejoin="round"/>
  <path d="M6.44532 14.4851C6.14467 14.4046 5.85419 14.3052 5.57483 14.1886M14.8437 7.53301C14.8476 7.80817 14.8351 8.08189 14.8072 8.35299M14.1518 10.7097C14.0375 10.9552 13.9102 11.1945 13.7707 11.4264M12.2245 13.2703C12.0101 13.4568 11.785 13.6313 11.5503 13.7925M9.3286 14.8164C9.06589 14.8858 8.79722 14.9402 8.52337 14.9786" stroke="#0171DB" stroke-linecap="round" stroke-linejoin="round"/>
</svg>