<svg width="18" height="20" viewBox="0 0 18 20" fill="none" xmlns="http://www.w3.org/2000/svg">
  <path d="M16.4523 14.0292C15.9053 10.7385 14.2027 8.28812 12.7225 6.84884C12.2917 6.43003 12.0764 6.22062 11.6007 6.02681C11.1249 5.83301 10.716 5.83301 9.89815 5.83301H8.10185C7.284 5.83301 6.87508 5.83301 6.39935 6.02681C5.92362 6.22062 5.70825 6.43003 5.27753 6.84884C3.79735 8.28812 2.09467 10.7385 1.54772 14.0292C1.14077 16.4775 3.39939 18.333 5.9236 18.333H12.0764C14.6006 18.333 16.8592 16.4775 16.4523 14.0292Z" stroke="#4B2AA5" stroke-width="1.5" stroke-linecap="round"/>
  <path d="M9.67746 9.1665C9.67746 8.75229 9.34167 8.4165 8.92746 8.4165C8.51324 8.4165 8.17746 8.75229 8.17746 9.1665L9.67746 9.1665ZM8.17745 14.9998C8.17745 15.4141 8.51324 15.7498 8.92745 15.7498C9.34167 15.7498 9.67745 15.4141 9.67745 14.9998H8.17745ZM9.72178 10.8704C9.97244 11.2001 10.443 11.2643 10.7727 11.0136C11.1025 10.7629 11.1666 10.2924 10.916 9.96265L9.72178 10.8704ZM8.03928 13.3252C7.73062 13.049 7.25648 13.0753 6.98024 13.3839C6.70401 13.6926 6.73029 14.1667 7.03895 14.4429L8.03928 13.3252ZM8.92745 11.2493C8.3961 11.2493 8.18111 11.1616 8.1146 11.1168C8.10808 11.1124 8.10392 11.109 8.10152 11.1069C8.09914 11.1048 8.09809 11.1036 8.0979 11.1034C8.09772 11.1032 8.09788 11.1034 8.09812 11.1037C8.09835 11.1041 8.09822 11.104 8.09778 11.103C8.09669 11.1007 8.08325 11.0711 8.08325 10.991H6.58325C6.58325 11.5077 6.77235 12.0212 7.27654 12.3608C7.71728 12.6577 8.29939 12.7493 8.92745 12.7493V11.2493ZM8.08325 10.991C8.08325 10.9605 8.09839 10.8713 8.24547 10.7628C8.39232 10.6545 8.63098 10.5648 8.92745 10.5648V9.06478C8.34348 9.06478 7.78504 9.23842 7.35489 9.5558C6.92499 9.87299 6.58325 10.3719 6.58325 10.991H8.08325ZM9.91659 13.1755C9.91659 13.2655 9.8971 13.3103 9.88341 13.3336C9.86854 13.3589 9.83865 13.3952 9.77102 13.4358C9.6199 13.5266 9.33952 13.6018 8.92745 13.6018V15.1018C9.47589 15.1018 10.0651 15.009 10.5434 14.7217C11.0672 14.407 11.4166 13.8778 11.4166 13.1755H9.91659ZM8.92745 12.7493C9.46486 12.7493 9.71857 12.833 9.82209 12.9005C9.86007 12.9253 9.87346 12.9447 9.88286 12.9641C9.89503 12.9893 9.91659 13.0506 9.91659 13.1755H11.4166C11.4166 12.5559 11.1852 11.9987 10.6415 11.6441C10.1653 11.3336 9.54947 11.2493 8.92745 11.2493V12.7493ZM9.67745 9.81478L9.67746 9.1665L8.17746 9.1665L8.17745 9.81478L9.67745 9.81478ZM8.17745 14.3518V14.9998H9.67745V14.3518H8.17745ZM8.92745 10.5648C9.34276 10.5648 9.61945 10.7357 9.72178 10.8704L10.916 9.96265C10.4724 9.37914 9.70745 9.06478 8.92745 9.06478V10.5648ZM8.92745 13.6018C8.50748 13.6018 8.1937 13.4634 8.03928 13.3252L7.03895 14.4429C7.51947 14.873 8.21315 15.1018 8.92745 15.1018V13.6018Z" fill="#4B2AA5"/>
  <path d="M5.0471 3.70223C4.87518 3.45199 4.62598 3.11233 5.14075 3.03488C5.66985 2.95526 6.21926 3.31746 6.75704 3.31001C7.24356 3.30328 7.49142 3.0875 7.75735 2.7794C8.03736 2.45498 8.47094 1.6665 8.99992 1.6665C9.5289 1.6665 9.96247 2.45498 10.2425 2.77941C10.5084 3.0875 10.7563 3.30328 11.2428 3.31001C11.7806 3.31746 12.33 2.95526 12.8591 3.03488C13.3739 3.11233 13.1247 3.45199 12.9527 3.70223L12.1754 4.8337C11.8428 5.31772 11.6766 5.55973 11.3286 5.69645C10.9807 5.83317 10.531 5.83317 9.63175 5.83317H8.36809C7.46881 5.83317 7.01916 5.83317 6.67122 5.69645C6.32327 5.55973 6.157 5.31772 5.82446 4.8337L5.0471 3.70223Z" stroke="#4B2AA5" stroke-width="1.5"/>
</svg>