<!-- <svg width="22" height="20" viewBox="0 0 22 20" fill="none" xmlns="http://www.w3.org/2000/svg">
<g id="elements">
<path id="Rectangle 2104" d="M1 14C1 16.2109 1 17.3164 1.70187 18.0544C1.81413 18.1725 1.93785 18.2817 2.07164 18.3807C2.90809 19 4.16095 19 6.66667 19H7.33333C9.83905 19 11.0919 19 11.9284 18.3807C12.0621 18.2817 12.1859 18.1725 12.2981 18.0544C13 17.3164 13 16.2109 13 14C13 11.7891 13 10.6836 12.2981 9.94556C12.1859 9.82752 12.0621 9.71835 11.9284 9.61929C11.0919 9 9.83905 9 7.33333 9H6.66667C4.16095 9 2.90809 9 2.07164 9.61929C1.93785 9.71835 1.81413 9.82752 1.70187 9.94556C1 10.6836 1 11.7891 1 14Z" stroke="#4B2AA5" stroke-width="1.5" stroke-linecap="round" stroke-linejoin="round"/>
<path id="Rectangle 2105" d="M9 5.99999C9 3.78907 9 2.6836 9.70187 1.94556C9.81413 1.82751 9.93785 1.71834 10.0716 1.61929C10.9081 0.999993 12.1609 0.999993 14.6667 0.999993H15.3333C17.8391 0.999993 19.0919 0.999993 19.9284 1.61929C20.0621 1.71834 20.1859 1.82751 20.2981 1.94556C21 2.6836 21 3.78907 21 5.99999C21 8.21092 21 9.31639 20.2981 10.0544C20.1859 10.1725 20.0621 10.2816 19.9284 10.3807C19.1696 10.9425 18.0683 10.9946 16 10.9995" stroke="#4B2AA5" stroke-width="1.5" stroke-linecap="round" stroke-linejoin="round"/>
<path id="Vector 4524" d="M1 13L13 13" stroke="#4B2AA5" stroke-width="1.5" stroke-linecap="round"/>
<path id="Vector 4525" d="M9 5L21 5" stroke="#4B2AA5" stroke-width="1.5" stroke-linecap="round"/>
<path id="Vector" d="M1 7C1 3.68286 3.68286 1 7 1L6.14286 2.71429" stroke="#4B2AA5" stroke-width="1.5" stroke-linecap="round" stroke-linejoin="round"/>
<path id="Vector_2" d="M21 13C21 16.3171 18.3171 19 15 19L15.8571 17.2857" stroke="#4B2AA5" stroke-width="1.5" stroke-linecap="round" stroke-linejoin="round"/>
</g>
</svg> -->


<svg width="20" height="18" viewBox="0 0 20 18" fill="none" xmlns="http://www.w3.org/2000/svg">
  <path d="M1.66675 12.3333C1.66675 14.1758 1.66675 15.097 2.25164 15.712C2.34519 15.8104 2.44829 15.9014 2.55978 15.9839C3.25682 16.5 4.30087 16.5 6.38897 16.5H6.94453C9.03262 16.5 10.0767 16.5 10.7737 15.9839C10.8852 15.9014 10.9883 15.8104 11.0819 15.712C11.6667 15.097 11.6667 14.1758 11.6667 12.3333C11.6667 10.4909 11.6667 9.56967 11.0819 8.95464C10.9883 8.85626 10.8852 8.76529 10.7737 8.68275C10.0767 8.16667 9.03262 8.16667 6.94453 8.16667H6.38897C4.30087 8.16667 3.25682 8.16667 2.55978 8.68275C2.44829 8.76529 2.34519 8.85626 2.25164 8.95464C1.66675 9.56967 1.66675 10.4909 1.66675 12.3333Z" stroke="#0158AA" stroke-width="1.5" stroke-linecap="round" stroke-linejoin="round"/>
  <path d="M8.3335 5.66676C8.3335 3.82432 8.3335 2.9031 8.91839 2.28806C9.01193 2.18969 9.11504 2.09871 9.22653 2.01617C9.92357 1.50009 10.9676 1.50009 13.0557 1.50009H13.6113C15.6994 1.50009 16.7434 1.50009 17.4405 2.01617C17.552 2.09871 17.6551 2.18969 17.7486 2.28806C18.3335 2.9031 18.3335 3.82432 18.3335 5.66676C18.3335 7.5092 18.3335 8.43041 17.7486 9.04545C17.6551 9.14382 17.552 9.2348 17.4405 9.31734C16.8082 9.78547 15.8904 9.82897 14.1668 9.83301" stroke="#0158AA" stroke-width="1.5" stroke-linecap="round" stroke-linejoin="round"/>
  <path d="M1.66675 11.5L11.6667 11.5" stroke="#0158AA" stroke-width="1.5" stroke-linecap="round"/>
  <path d="M8.3335 4.8335L18.3335 4.8335" stroke="#0158AA" stroke-width="1.5" stroke-linecap="round"/>
  <path d="M1.66675 6.5C1.66675 3.73571 3.90246 1.5 6.66675 1.5L5.95246 2.92857" stroke="#0158AA" stroke-width="1.5" stroke-linecap="round" stroke-linejoin="round"/>
  <path d="M18.3335 11.5C18.3335 14.2643 16.0978 16.5 13.3335 16.5L14.0478 15.0714" stroke="#0158AA" stroke-width="1.5" stroke-linecap="round" stroke-linejoin="round"/>
</svg>