<svg width="14" height="14" viewBox="0 0 14 14" fill="none" xmlns="http://www.w3.org/2000/svg">
  <path d="M5.09601 0.666504C3.32466 0.707004 2.29003 0.876209 1.58312 1.58312C0.876209 2.29003 0.707004 3.32466 0.666504 5.09601M8.90366 0.666504C10.675 0.707004 11.7096 0.876209 12.4166 1.58312C13.1235 2.29003 13.2927 3.32466 13.3332 5.09601M8.90366 13.3332C10.675 13.2927 11.7096 13.1235 12.4166 12.4166C13.1235 11.7096 13.2927 10.675 13.3332 8.90365M5.09601 13.3332C3.32466 13.2927 2.29003 13.1235 1.58312 12.4166C0.876209 11.7096 0.707004 10.675 0.666504 8.90366" stroke="#565865" stroke-width="1.25" stroke-linecap="round" stroke-linejoin="round"/>
  <path d="M4.33288 4.33301H4.33887" stroke="#565865" stroke-width="1.5" stroke-linecap="round" stroke-linejoin="round"/>
  <path d="M9.66638 9.6665H9.67236" stroke="#565865" stroke-width="1.5" stroke-linecap="round" stroke-linejoin="round"/>
  <path d="M4.33301 9.66634L9.66634 4.33301" stroke="#565865" stroke-width="1.25" stroke-linecap="round"/>
</svg>
