<svg width="16" height="14" viewBox="0 0 16 14" fill="none" xmlns="http://www.w3.org/2000/svg">
  <path d="M1.3335 9.66667C1.3335 11.1406 1.3335 11.8776 1.80141 12.3696C1.87625 12.4483 1.95873 12.5211 2.04792 12.5871C2.60556 13 3.44079 13 5.11127 13H5.55572C7.2262 13 8.06144 13 8.61907 12.5871C8.70826 12.5211 8.79075 12.4483 8.86558 12.3696C9.3335 11.8776 9.3335 11.1406 9.3335 9.66667C9.3335 8.19271 9.3335 7.45574 8.86558 6.96371C8.79075 6.88501 8.70826 6.81223 8.61907 6.7462C8.06144 6.33333 7.2262 6.33333 5.55572 6.33333H5.11127C3.44079 6.33333 2.60556 6.33333 2.04792 6.7462C1.95873 6.81223 1.87625 6.88501 1.80141 6.96371C1.3335 7.45574 1.3335 8.19271 1.3335 9.66667Z" stroke="#565865" stroke-width="1.25" stroke-linecap="round" stroke-linejoin="round"/>
  <path d="M6.66699 4.3335C6.66699 2.85955 6.66699 2.12257 7.1349 1.63054C7.20974 1.55185 7.29223 1.47907 7.38142 1.41303C7.93905 1.00017 8.77429 1.00017 10.4448 1.00017H10.8892C12.5597 1.00017 13.3949 1.00017 13.9526 1.41303C14.0418 1.47907 14.1242 1.55185 14.1991 1.63054C14.667 2.12257 14.667 2.85955 14.667 4.3335C14.667 5.80745 14.667 6.54443 14.1991 7.03646C14.1242 7.11516 14.0418 7.18794 13.9526 7.25397C13.4467 7.62847 12.7125 7.66327 11.3337 7.6665" stroke="#565865" stroke-width="1.25" stroke-linecap="round" stroke-linejoin="round"/>
  <path d="M1.3335 9L9.3335 9" stroke="#565865" stroke-width="1.25" stroke-linecap="round"/>
  <path d="M6.66699 3.6665L14.667 3.6665" stroke="#565865" stroke-width="1.25" stroke-linecap="round"/>
  <path d="M1.3335 5C1.3335 2.78857 3.12207 1 5.3335 1L4.76207 2.14286" stroke="#565865" stroke-width="1.25" stroke-linecap="round" stroke-linejoin="round"/>
  <path d="M14.667 9C14.667 11.2114 12.8784 13 10.667 13L11.2384 11.8571" stroke="#565865" stroke-width="1.25" stroke-linecap="round" stroke-linejoin="round"/>
</svg>
