<svg width="14" height="14" viewBox="0 0 14 14" fill="none" xmlns="http://www.w3.org/2000/svg">
  <path d="M0.666504 6.99984C0.666504 4.18002 0.666504 2.77011 1.46515 1.83501C1.57856 1.70223 1.70223 1.57856 1.83501 1.46515C2.77011 0.666504 4.18002 0.666504 6.99984 0.666504C9.81966 0.666504 11.2296 0.666504 12.1647 1.46515C12.2974 1.57856 12.4211 1.70223 12.5345 1.83501C13.3332 2.77011 13.3332 4.18002 13.3332 6.99984C13.3332 9.81966 13.3332 11.2296 12.5345 12.1647C12.4211 12.2974 12.2974 12.4211 12.1647 12.5345C11.2296 13.3332 9.81966 13.3332 6.99984 13.3332C4.18002 13.3332 2.77011 13.3332 1.83501 12.5345C1.70223 12.4211 1.57856 12.2974 1.46515 12.1647C0.666504 11.2296 0.666504 9.81966 0.666504 6.99984Z" stroke="#565865" stroke-width="1.25"/>
  <path d="M8.20833 5.7517C8.20833 6.09687 8.48816 6.3767 8.83333 6.3767C9.17851 6.3767 9.45833 6.09687 9.45833 5.7517H8.20833ZM5.625 8.24827C5.625 7.90309 5.34518 7.62327 5 7.62327C4.65482 7.62327 4.375 7.90309 4.375 8.24827H5.625ZM7.625 3.6665C7.625 3.32133 7.34518 3.0415 7 3.0415C6.65482 3.0415 6.375 3.32133 6.375 3.6665L7.625 3.6665ZM6.375 10.3332C6.375 10.6783 6.65482 10.9582 7 10.9582C7.34518 10.9582 7.625 10.6783 7.625 10.3332H6.375ZM7 6.27896C6.37318 6.27896 6.06713 6.178 5.93103 6.08688C5.84845 6.0316 5.79167 5.96148 5.79167 5.7517H4.54167C4.54167 6.28435 4.73489 6.79037 5.23564 7.1256C5.68287 7.42501 6.29349 7.52896 7 7.52896V6.27896ZM5.79167 5.7517C5.79167 5.62745 5.85905 5.46219 6.07322 5.30515C6.28701 5.14838 6.61264 5.03239 7 5.03239V3.78239C6.37483 3.78239 5.7838 3.96733 5.33406 4.29711C4.88469 4.62661 4.54167 5.13351 4.54167 5.7517H5.79167ZM7 5.03239C7.38736 5.03239 7.71299 5.14838 7.92678 5.30515C8.14095 5.46219 8.20833 5.62745 8.20833 5.7517H9.45833C9.45833 5.13351 9.11531 4.62661 8.66594 4.29711C8.2162 3.96733 7.62517 3.78239 7 3.78239V5.03239ZM8.375 8.24827C8.375 8.49137 8.28189 8.63161 8.09386 8.74385C7.86789 8.87874 7.49595 8.96757 7 8.96757V10.2176C7.60862 10.2176 8.23668 10.1144 8.73456 9.81716C9.2704 9.4973 9.625 8.96538 9.625 8.24827H8.375ZM7 8.96757C6.55493 8.96757 6.18005 8.84521 5.93444 8.68012C5.68492 8.51241 5.625 8.34789 5.625 8.24827H4.375C4.375 8.89108 4.76279 9.39872 5.23713 9.71755C5.71538 10.039 6.3405 10.2176 7 10.2176V8.96757ZM7 7.52896C7.63181 7.52896 7.98162 7.62484 8.16007 7.7405C8.28168 7.81933 8.375 7.93608 8.375 8.24827H9.625C9.625 7.60023 9.38498 7.04483 8.83993 6.69156C8.35171 6.37512 7.70152 6.27896 7 6.27896V7.52896ZM7.625 4.40739L7.625 3.6665L6.375 3.6665L6.375 4.40739L7.625 4.40739ZM6.375 9.59257V10.3332H7.625V9.59257H6.375Z" fill="#565865"/>
</svg>
