<svg width="12" height="16" viewBox="0 0 12 16" fill="none" xmlns="http://www.w3.org/2000/svg">
  <path d="M10.6455 6.90305C10.4024 5.55485 9.64562 4.55092 8.98776 3.96125C8.79633 3.78966 8.70062 3.70386 8.48918 3.62446C8.27774 3.54506 8.096 3.54506 7.73251 3.54506H6.93416C6.57067 3.54506 6.38892 3.54506 6.17749 3.62446C5.96605 3.70386 5.87034 3.78966 5.6789 3.96125C5.02104 4.55092 4.2643 5.55485 4.02121 6.90305C3.84034 7.90615 4.84417 8.66634 5.96605 8.66634H8.70062C9.82249 8.66634 10.8263 7.90615 10.6455 6.90305Z" stroke="#565865" stroke-width="1.25"/>
  <path d="M0.666504 9.33301H2.26305C2.45915 9.33301 2.65255 9.37719 2.82795 9.46205L4.18927 10.1207C4.36466 10.2056 4.55807 10.2498 4.75417 10.2498H5.44925C6.12152 10.2498 6.6665 10.7771 6.6665 11.4277C6.6665 11.454 6.64849 11.4771 6.62236 11.4843L4.92842 11.9526C4.62455 12.0367 4.29917 12.0074 4.0165 11.8706L2.56124 11.1665M6.6665 10.9997L9.72835 10.059C10.2711 9.88983 10.8579 10.0904 11.1979 10.5612C11.4437 10.9016 11.3436 11.3891 10.9855 11.5958L5.97509 14.4867C5.65642 14.6706 5.28046 14.7154 4.92994 14.6114L0.666504 13.3463" stroke="#565865" stroke-width="1.25" stroke-linecap="round" stroke-linejoin="round"/>
</svg>
