<svg width="16" height="16" viewBox="0 0 16 16" fill="none" xmlns="http://www.w3.org/2000/svg">
  <path d="M13.344 1.3335C12.6017 1.3335 12 3.12436 12 5.3335H13.344C13.9918 5.3335 14.3156 5.3335 14.5161 5.10986C14.7166 4.88622 14.6817 4.59172 14.6119 4.0027C14.4276 2.44779 13.9295 1.3335 13.344 1.3335Z" stroke="#565865" stroke-width="1.25"/>
  <path d="M12.0002 5.36967V12.4307C12.0002 13.4385 12.0002 13.9424 11.6922 14.1407C11.1889 14.4649 10.4109 13.7851 10.0196 13.5383C9.69626 13.3344 9.5346 13.2325 9.35518 13.2266C9.16131 13.2202 8.99678 13.318 8.64741 13.5383L7.37349 14.3417C7.02986 14.5585 6.85802 14.6668 6.66683 14.6668C6.47563 14.6668 6.3038 14.5585 5.96016 14.3417L4.68625 13.5383C4.36293 13.3344 4.20127 13.2325 4.02185 13.2266C3.82797 13.2202 3.66345 13.318 3.31408 13.5383C2.92279 13.7851 2.14475 14.4649 1.64147 14.1407C1.3335 13.9424 1.3335 13.4385 1.3335 12.4307V5.36967C1.3335 3.467 1.3335 2.51566 1.91928 1.92458C2.50507 1.3335 3.44788 1.3335 5.3335 1.3335H13.3335" stroke="#565865" stroke-width="1.25" stroke-linecap="round" stroke-linejoin="round"/>
  <path d="M6.66683 5.33366C5.93045 5.33366 5.3335 5.78137 5.3335 6.33366C5.3335 6.88594 5.93045 7.33366 6.66683 7.33366C7.40321 7.33366 8.00016 7.78137 8.00016 8.33366C8.00016 8.88594 7.40321 9.33366 6.66683 9.33366M6.66683 5.33366C7.24737 5.33366 7.74125 5.61193 7.92429 6.00033M6.66683 5.33366V4.66699M6.66683 9.33366C6.08629 9.33366 5.5924 9.05539 5.40937 8.66699M6.66683 9.33366V10.0003" stroke="#565865" stroke-width="1.25" stroke-linecap="round"/>
</svg>
