<svg width="16" height="16" viewBox="0 0 16 16" fill="none" xmlns="http://www.w3.org/2000/svg">
  <path d="M10.667 9.3335C10.667 9.88578 11.1147 10.3335 11.667 10.3335C12.2193 10.3335 12.667 9.88578 12.667 9.3335C12.667 8.78121 12.2193 8.3335 11.667 8.3335C11.1147 8.3335 10.667 8.78121 10.667 9.3335Z" stroke="#565865" stroke-width="1.25"/>
  <path d="M12.6003 5.3335C12.644 5.11809 12.667 4.89514 12.667 4.66683C12.667 2.82588 11.1746 1.3335 9.33366 1.3335C7.49271 1.3335 6.00033 2.82588 6.00033 4.66683C6.00033 4.89514 6.02328 5.11809 6.067 5.3335" stroke="#565865" stroke-width="1.25"/>
  <path d="M4.66683 5.32915H10.6668C12.5524 5.32915 13.4953 5.32915 14.081 5.91522C14.6668 6.50129 14.6668 7.44455 14.6668 9.33108V10.6651C14.6668 12.5516 14.6668 13.4949 14.081 14.0809C13.4953 14.667 12.5524 14.667 10.6668 14.667H6.66683C4.15267 14.667 2.89559 14.667 2.11454 13.8856C1.3335 13.1041 1.3335 11.8465 1.3335 9.33108V7.99711C1.3335 5.48173 1.3335 4.22405 2.11454 3.44262C2.74327 2.81359 3.68045 2.69092 5.3335 2.66699H6.66683" stroke="#565865" stroke-width="1.25" stroke-linecap="round"/>
</svg>
