<svg width="16" height="16" viewBox="0 0 16 16" fill="none" xmlns="http://www.w3.org/2000/svg">
  <path d="M9.33333 12.0002C12.2789 12.0002 14.6667 9.61235 14.6667 6.66683C14.6667 3.72131 12.2789 1.3335 9.33333 1.3335C6.38781 1.3335 4 3.72131 4 6.66683C4 9.61235 6.38781 12.0002 9.33333 12.0002Z" stroke="#565865" stroke-width="1.25" stroke-linecap="round"/>
  <path d="M2.10454 7.3335C1.61698 8.07853 1.3335 8.96919 1.3335 9.92605C1.3335 12.5443 3.45601 14.6668 6.07427 14.6668C7.03114 14.6668 7.92179 14.3833 8.66683 13.8958" stroke="#565865" stroke-width="1.25" stroke-linecap="round"/>
  <path d="M9.94828 4C9.94828 3.65482 9.66845 3.375 9.32328 3.375C8.9781 3.375 8.69828 3.65482 8.69828 4L9.94828 4ZM8.69828 9.33333C8.69828 9.67851 8.9781 9.95833 9.32328 9.95833C9.66845 9.95833 9.94828 9.67851 9.94828 9.33333H8.69828ZM9.92342 5.60429C9.99124 5.94274 10.3206 6.16212 10.659 6.0943C10.9975 6.02647 11.2169 5.69713 11.149 5.35868L9.92342 5.60429ZM8.61062 7.71854C8.53699 7.3813 8.20392 7.16761 7.86668 7.24124C7.52945 7.31486 7.31576 7.64793 7.38938 7.98517L8.61062 7.71854ZM9.32328 5.96496C8.93009 5.96496 8.79372 5.88893 8.76135 5.86312C8.76109 5.86291 8.71683 5.84434 8.71683 5.66815H7.46683C7.46683 6.08592 7.5905 6.52825 7.98207 6.84047C8.34152 7.12707 8.82087 7.21496 9.32328 7.21496V5.96496ZM8.71683 5.66815C8.71683 5.49621 8.90615 5.21771 9.32328 5.21771V3.96771C8.38019 3.96771 7.46683 4.6522 7.46683 5.66815H8.71683ZM10.0417 7.66541C10.0417 7.86171 9.97774 7.9344 9.91104 7.98182C9.81266 8.05176 9.62221 8.11586 9.32328 8.11586V9.36586C9.76627 9.36586 10.2475 9.27632 10.6353 9.00058C11.0549 8.70232 11.2917 8.23729 11.2917 7.66541H10.0417ZM9.32328 7.21496C9.72278 7.21496 9.88893 7.28806 9.9489 7.33436C9.97277 7.35278 10.0417 7.40712 10.0417 7.66541H11.2917C11.2917 7.15552 11.1367 6.67214 10.7127 6.34488C10.3249 6.0455 9.81936 5.96496 9.32328 5.96496V7.21496ZM9.94828 4.59271L9.94828 4L8.69828 4L8.69828 4.59271L9.94828 4.59271ZM8.69828 8.74086V9.33333H9.94828V8.74086H8.69828ZM9.32328 5.21771C9.6868 5.21771 9.89077 5.44138 9.92342 5.60429L11.149 5.35868C10.9793 4.51164 10.1742 3.96771 9.32328 3.96771V5.21771ZM9.32328 8.11586C8.86342 8.11586 8.64065 7.85608 8.61062 7.71854L7.38938 7.98517C7.57991 8.8578 8.45812 9.36586 9.32328 9.36586V8.11586Z" fill="#565865"/>
</svg>
