<svg width="14" height="16" viewBox="0 0 14 16" fill="none" xmlns="http://www.w3.org/2000/svg">
  <path d="M1 6.66699H13" stroke="#565865" stroke-width="1.25" stroke-linejoin="round"/>
  <path d="M9 4L10.3333 4" stroke="#565865" stroke-width="1.25" stroke-linecap="round" stroke-linejoin="round"/>
  <path d="M13 8.66683V7.3335C13 4.50507 13 3.09086 12.1213 2.21218C11.2426 1.3335 9.82843 1.3335 7 1.3335C4.17157 1.3335 2.75736 1.3335 1.87868 2.21218C1 3.09086 1 4.50507 1 7.3335V8.66683C1 11.4953 1 12.9095 1.87868 13.7881C2.75736 14.6668 4.17157 14.6668 7 14.6668C9.82843 14.6668 11.2426 14.6668 12.1213 13.7881C13 12.9095 13 11.4953 13 8.66683Z" stroke="#565865" stroke-width="1.25"/>
  <path d="M3.6665 9.3335H4.01738M6.8244 9.3335H7.17528M9.98229 9.3335H10.3332" stroke="#565865" stroke-width="1.25" stroke-linecap="round" stroke-linejoin="round"/>
  <path d="M3.6665 12H4.01738M6.8244 12H7.17528M9.98229 12H10.3332" stroke="#565865" stroke-width="1.25" stroke-linecap="round" stroke-linejoin="round"/>
</svg>
