<svg xmlns="http://www.w3.org/2000/svg" width="80" height="20" viewBox="0 0 80 20" fill="none">
  <path d="M3.84852 10.3263C3.71659 10.3197 3.58435 10.3287 3.45452 10.353C3.23793 10.3879 3.03046 10.4656 2.84421 10.5816C2.65795 10.6975 2.49662 10.8493 2.36963 11.0282C2.24263 11.2071 2.15251 11.4095 2.10451 11.6236C2.05651 11.8376 2.0516 12.0591 2.09005 12.2751C2.18444 13.1659 3.13414 13.9171 4.01331 13.9394C4.10354 13.9417 4.19379 13.9357 4.28293 13.9215C5.23429 13.7675 5.48338 12.7872 5.32657 11.8242C5.14943 10.7369 4.3745 10.3537 3.84852 10.3263ZM4.78072 12.9023C4.74056 12.9625 4.68481 13.0105 4.61944 13.0414C4.55407 13.0723 4.48153 13.0849 4.40958 13.0778C4.2831 13.0677 4.16515 13.01 4.07963 12.9163C3.9941 12.8226 3.9474 12.6999 3.94898 12.573C3.94678 12.4039 3.97937 12.2362 4.04473 12.0803C4.08555 11.9812 4.08947 11.8708 4.05579 11.7691C4.02211 11.6674 3.95305 11.5812 3.86117 11.5261C3.74828 11.4561 3.61283 11.4321 3.48276 11.4591C3.35679 11.4832 3.24548 11.5562 3.17307 11.6621C3.12418 11.7411 3.08602 11.8263 3.05958 11.9154C3.05443 11.931 3.05034 11.9432 3.04723 11.9512C3.00413 12.0611 2.93534 12.0932 2.88883 12.0873C2.8717 12.0841 2.85583 12.0761 2.84312 12.0642C2.83042 12.0523 2.8214 12.037 2.81716 12.0201C2.79303 11.8734 2.80434 11.723 2.85013 11.5815C2.89592 11.44 2.97488 11.3115 3.08042 11.2067C3.17233 11.115 3.28396 11.0454 3.40682 11.0034C3.52968 10.9613 3.66051 10.9479 3.78936 10.9641C3.92466 10.9803 4.05397 11.0292 4.16612 11.1067C4.27827 11.1841 4.36989 11.2876 4.43307 11.4084C4.49385 11.5537 4.51844 11.7116 4.50472 11.8685C4.49099 12.0254 4.43937 12.1767 4.35428 12.3092C4.34352 12.3321 4.33367 12.3531 4.32526 12.3719C4.29466 12.4238 4.27777 12.4827 4.27618 12.543C4.27459 12.6032 4.28835 12.6629 4.31617 12.7164C4.34065 12.749 4.37261 12.7752 4.40935 12.7929C4.4461 12.8106 4.48655 12.8192 4.52731 12.8179C4.56622 12.8175 4.60493 12.8123 4.64261 12.8026C4.69148 12.7918 4.74201 12.7806 4.77276 12.8172C4.78297 12.8287 4.78924 12.8432 4.79067 12.8585C4.7921 12.8738 4.78861 12.8892 4.78072 12.9023V12.9023Z" fill="white"/>
  <path d="M16.006 14.7293C16.2044 14.2256 16.3192 13.6928 16.3457 13.1521C16.3457 12.4873 15.9692 12.2117 15.7296 12.2117C15.7222 12.186 15.6748 12.0127 15.6095 11.804C15.5722 11.683 15.5279 11.5642 15.4768 11.4483C15.673 11.1773 15.756 10.8407 15.7083 10.5095C15.6691 10.2542 15.5477 10.0187 15.3625 9.83856C15.0111 9.54025 14.5918 9.33285 14.1414 9.23461C14.0735 9.21566 13.8499 9.15434 13.8302 9.14834C13.8287 9.13554 13.8139 8.41598 13.8004 8.10705C13.7946 7.79728 13.7485 7.48959 13.6631 7.19176C13.557 6.76434 13.3377 6.37341 13.0282 6.06009C13.8031 5.25807 14.2867 4.3746 14.2856 3.6167C14.2834 2.15914 12.4907 1.71807 10.2817 2.63153C10.2793 2.63256 9.81691 2.82829 9.81361 2.82997C9.81156 2.82792 8.96742 2.00095 8.95475 1.98982C6.43614 -0.203853 -1.43874 8.53669 1.07902 10.6595L1.62925 11.125C1.48077 11.5228 1.42834 11.9501 1.47625 12.3721C1.55083 12.986 1.85427 13.5491 2.32596 13.949C2.78379 14.3645 3.3753 14.6023 3.99335 14.6194C4.97312 16.874 7.2117 18.257 9.83651 18.3349C12.6521 18.4184 15.0156 17.0991 16.006 14.7293ZM16.5839 12.0611C16.8251 12.3724 16.9492 12.7586 16.9345 13.1521C16.9092 13.7659 16.7808 14.3711 16.5548 14.9424L16.5495 14.9557C16.0385 16.1843 15.1465 17.2163 14.0048 17.8997C12.8165 18.5909 11.4626 18.9459 10.088 18.9267H10.0877C9.99874 18.9267 9.90839 18.9253 9.81907 18.9227C8.46242 18.8944 7.13809 18.5034 5.98351 17.7905C4.96722 17.1536 4.14479 16.2506 3.6055 15.1793C2.98418 15.0828 2.40412 14.8083 1.93547 14.3892C1.35278 13.8914 0.97951 13.1919 0.890328 12.4308C0.850585 12.0609 0.872026 11.6871 0.953788 11.3242L0.698348 11.1082C0.491586 10.9296 0.323558 10.7106 0.204608 10.4647C0.0856566 10.2187 0.0182993 9.95104 0.00668173 9.67808C-0.0142765 9.11149 0.083646 8.54678 0.294145 8.02033C0.818505 6.58874 2.02478 4.88408 3.52115 3.46025C4.1889 2.81227 4.92965 2.24402 5.72851 1.76694C6.3948 1.34078 7.16004 1.0943 7.9498 1.05148C8.45916 1.0382 8.95529 1.21469 9.34182 1.54669C9.36388 1.56594 9.69457 1.88936 9.9454 2.13506C10.0083 2.1085 10.0536 2.08939 10.0549 2.08889C10.797 1.76567 11.5944 1.58871 12.4035 1.56769C13.9027 1.56769 14.8725 2.37162 14.8744 3.61581C14.8756 4.38352 14.4987 5.24415 13.8038 6.07728C13.9929 6.3696 14.1359 6.68923 14.2279 7.02498C14.3266 7.3687 14.3806 7.72369 14.3887 8.0812C14.3954 8.23501 14.4023 8.48181 14.4079 8.69964C14.9206 8.82941 15.3943 9.081 15.7889 9.43303C16.0565 9.69846 16.2319 10.0426 16.2895 10.4151C16.3475 10.7827 16.2907 11.1592 16.1269 11.4934C16.1415 11.5352 16.1566 11.5807 16.1717 11.6288C16.1848 11.6708 16.1972 11.7113 16.2088 11.7497C16.3531 11.8278 16.4806 11.9336 16.5839 12.0611H16.5839Z" fill="white"/>
  <path d="M14.7991 11.3331C14.8946 11.2433 14.9691 11.1336 15.0172 11.0117C15.0653 10.8898 15.0859 10.7588 15.0775 10.6281C15.0584 10.4962 14.9969 10.3742 14.9023 10.2805C14.6248 10.0501 14.2946 9.89197 13.9411 9.82018C13.7796 9.77437 13.6701 9.74503 13.5521 9.70577C13.3422 9.63592 13.2385 9.57967 13.215 9.1807C13.2047 9.00621 13.1746 8.39834 13.1638 8.14717C13.1447 7.70702 13.0922 7.1054 12.7231 6.85702C12.6292 6.79473 12.52 6.75944 12.4074 6.75502C12.3443 6.75114 12.2811 6.7574 12.22 6.77355C12.0326 6.81733 11.8621 6.91479 11.7293 7.05399C11.5573 7.21104 11.3545 7.3306 11.1339 7.40508C10.9132 7.47956 10.6795 7.50734 10.4475 7.48664C10.1891 7.47568 9.9153 7.43502 9.60141 7.4162C9.54032 7.41259 9.47907 7.40877 9.41792 7.40553C9.01231 7.41751 8.62452 7.57489 8.32528 7.84896C8.02604 8.12303 7.83528 8.49553 7.78781 8.89853C7.6081 10.1485 8.50344 10.7945 8.76192 11.1735C8.80188 11.2219 8.82662 11.281 8.83304 11.3435C8.82635 11.4127 8.79344 11.4767 8.74104 11.5225L8.74112 11.5229C8.38318 11.9258 8.13187 12.412 8.01016 12.937C7.88844 13.462 7.90018 14.0092 8.04432 14.5285C8.07847 14.6533 8.12226 14.7752 8.1753 14.8931C8.82861 16.4366 10.8553 17.1555 12.8353 16.5017C13.0947 16.416 13.3463 16.3085 13.5875 16.1804C14.0216 15.9634 14.4121 15.6684 14.7394 15.31C15.2501 14.7921 15.5855 14.127 15.6985 13.4084C15.7581 13.0106 15.6708 12.8567 15.5519 12.7826C15.4679 12.7354 15.3706 12.7174 15.2753 12.7316C15.2249 12.4193 15.1364 12.1144 15.0119 11.8236L14.7991 11.3331Z" fill="white"/>
  <path d="M11.5542 5.37269C11.5861 5.38002 11.6064 5.32484 11.5779 5.30881C11.1048 5.06369 10.5831 4.92715 10.0506 4.90915C10.0455 4.90907 10.0405 4.90758 10.0362 4.90484C10.0319 4.9021 10.0284 4.89822 10.0261 4.89362C10.0239 4.88903 10.0229 4.8839 10.0234 4.8788C10.0239 4.8737 10.0257 4.86884 10.0288 4.86473C10.1116 4.75655 10.2082 4.65972 10.3162 4.57673C10.321 4.57298 10.3245 4.56777 10.3262 4.56188C10.3279 4.55599 10.3276 4.54972 10.3255 4.54399C10.3233 4.53825 10.3194 4.53336 10.3142 4.53002C10.3091 4.52669 10.303 4.52508 10.2969 4.52544C9.64496 4.58948 9.01821 4.81044 8.47023 5.16942C8.46556 5.17258 8.46005 5.17426 8.45441 5.17424C8.44878 5.17423 8.44327 5.17252 8.43862 5.16935C8.43396 5.16617 8.43036 5.16167 8.42829 5.15643C8.42622 5.15118 8.42577 5.14544 8.427 5.13994C8.47114 4.97533 8.5361 4.81703 8.6203 4.66886C8.62308 4.66378 8.62415 4.65794 8.62335 4.6522C8.62256 4.64646 8.61994 4.64113 8.61588 4.63699C8.61183 4.63285 8.60655 4.63012 8.60083 4.62921C8.59511 4.62829 8.58925 4.62924 8.5841 4.63191C7.79281 5.06652 7.08756 5.64201 6.50307 6.33006C6.4985 6.33529 6.49602 6.34203 6.4961 6.34898C6.49617 6.35593 6.49879 6.36261 6.50347 6.36775C6.50815 6.37289 6.51455 6.37613 6.52146 6.37685C6.52837 6.37758 6.53531 6.37574 6.54095 6.37169C7.21829 5.89838 7.98136 5.56156 8.78751 5.38007C9.69751 5.17016 10.6431 5.16764 11.5542 5.37268" fill="white"/>
  <path d="M9.22369 3.13857C9.22369 3.13857 8.5382 2.34496 8.33128 2.28642C7.05818 1.94289 4.30814 3.83676 2.55223 6.33891C1.84175 7.3513 0.824681 9.14413 1.31101 10.0662C1.48387 10.2733 1.67873 10.4609 1.89216 10.6258C2.21801 10.169 2.70842 9.85662 3.26008 9.75432C3.95241 7.81876 5.16771 6.113 6.771 4.82647C7.54036 4.19682 8.36075 3.63224 9.22369 3.13857Z" fill="white"/>
  <path d="M4.73459 12.8691C4.74446 12.881 4.75048 12.8957 4.75186 12.9112C4.75324 12.9266 4.74991 12.9421 4.74232 12.9556C4.70536 13.0156 4.65239 13.064 4.58937 13.0955C4.52635 13.127 4.45579 13.1403 4.38565 13.1338C4.26064 13.1203 4.14541 13.0599 4.06324 12.9647C3.98106 12.8696 3.93808 12.7467 3.94298 12.6211C3.94086 12.4499 3.97212 12.2799 4.03502 12.1206C4.07471 12.0208 4.07886 11.9104 4.04675 11.8079C4.01463 11.7055 3.94823 11.6171 3.85868 11.5578C3.80569 11.5228 3.7462 11.4987 3.68374 11.487C3.62128 11.4753 3.55711 11.4762 3.49502 11.4898C3.43418 11.5026 3.37652 11.5274 3.32543 11.5628C3.27433 11.5982 3.23083 11.6435 3.19749 11.6959C3.15032 11.7767 3.11365 11.8631 3.08836 11.9532C3.08348 11.969 3.07954 11.9815 3.07656 11.9895C3.03512 12.1013 2.96906 12.1338 2.9243 12.1279C2.90314 12.1249 2.87405 12.1108 2.8554 12.0596C2.83199 11.9117 2.84261 11.7605 2.88646 11.6173C2.9303 11.4741 3.00622 11.3428 3.10844 11.2334C3.19428 11.1413 3.30083 11.0708 3.41928 11.028C3.53774 10.9852 3.66468 10.9711 3.78963 10.9871C3.92199 11.0053 4.04778 11.056 4.15573 11.1348C4.26367 11.2135 4.3504 11.3178 4.40816 11.4383C4.46665 11.5863 4.49025 11.7459 4.47714 11.9046C4.46403 12.0632 4.41455 12.2168 4.33254 12.3532C4.32216 12.3764 4.31267 12.3977 4.30466 12.417C4.27517 12.4703 4.25898 12.5299 4.25746 12.5908C4.25594 12.6517 4.26913 12.7121 4.29592 12.7668C4.31856 12.7994 4.34895 12.8259 4.38435 12.8439C4.41975 12.8619 4.45906 12.8708 4.49877 12.8699C4.5362 12.8694 4.57341 12.8641 4.60952 12.8542C4.65652 12.8432 4.70508 12.8319 4.73458 12.8691M16.3203 13.1583C16.2941 13.6978 16.1801 14.2294 15.9828 14.7323C14.999 17.0971 12.6509 18.4136 9.85379 18.3303C7.2462 18.2526 5.02221 16.8724 4.04885 14.6226C3.43437 14.6054 2.84652 14.3679 2.39245 13.9536C1.92339 13.5537 1.62202 12.9919 1.54828 12.38C1.50068 11.959 1.55275 11.5327 1.70028 11.1355L1.15363 10.671C-1.34761 8.55262 6.47561 -0.169554 8.97781 2.01956C8.99043 2.03058 9.82896 2.8559 9.83107 2.85793C9.8344 2.85623 10.2937 2.66086 10.2961 2.6599C12.4907 1.74834 14.2715 2.18848 14.2738 3.6429C14.2749 4.3993 13.7944 5.28093 13.0247 6.0812C13.3323 6.39429 13.5501 6.78432 13.6553 7.21045C13.7402 7.50775 13.786 7.81481 13.7918 8.12392C13.8051 8.43216 13.8199 9.15026 13.8214 9.16304C13.8409 9.16896 14.0631 9.23011 14.1305 9.24909C14.5782 9.3473 14.9949 9.55431 15.3436 9.85182C15.5277 10.0318 15.6483 10.2668 15.6872 10.5213C15.7346 10.8516 15.6522 11.1874 15.4573 11.4581C15.508 11.5738 15.552 11.6924 15.5891 11.8131C15.6539 12.0214 15.701 12.1943 15.7083 12.2199C15.9464 12.2199 16.3203 12.4949 16.3203 13.1583L16.3203 13.1583ZM5.26671 11.8607C5.09661 10.7564 4.35187 10.3672 3.84654 10.3394C3.71969 10.3327 3.5925 10.3418 3.46789 10.3664C2.56594 10.5489 2.05654 11.3185 2.15677 12.3185C2.22977 12.7671 2.45189 13.1779 2.78724 13.4847C3.12258 13.7914 3.55155 13.9761 4.00483 14.0089C4.09157 14.0112 4.17834 14.0051 4.26391 13.9906C5.17807 13.8343 5.41741 12.8386 5.26671 11.8607ZM6.80835 4.85065C7.57238 4.22253 8.38739 3.65913 9.24494 3.1663C9.24494 3.1663 8.56403 2.37439 8.3584 2.31603C7.09367 1.9731 4.36157 3.86303 2.61721 6.3599C1.9114 7.37018 0.900999 9.15929 1.38409 10.0794C1.55571 10.286 1.7493 10.4732 1.96145 10.6378C2.28443 10.1825 2.77176 9.87071 3.32045 9.7682C4.0069 7.8385 5.21411 6.13648 6.80835 4.85065ZM9.55714 13.5894C9.59065 13.7361 9.66319 13.8711 9.76709 13.98C9.87098 14.089 10.0024 14.1678 10.1474 14.2083C10.2982 14.2645 10.4539 14.3069 10.6124 14.3349C12.613 14.6801 14.4833 13.5328 14.9044 13.2438C14.936 13.2221 14.9569 13.2432 14.9315 13.2815C14.9188 13.3019 14.9051 13.3216 14.8903 13.3405C14.3749 14.0073 12.9894 14.7795 11.1868 14.7792C10.4006 14.7791 9.61482 14.5013 9.32631 14.0744C8.87869 13.412 9.30413 12.4452 10.05 12.546C10.0509 12.5461 10.3052 12.575 10.3767 12.583C11.5361 12.6945 12.7047 12.5069 13.7709 12.0381C14.7885 11.5643 15.1729 11.0429 15.1153 10.6208C15.096 10.4897 15.0344 10.3685 14.9398 10.2757C14.6615 10.0466 14.3311 9.88966 13.9778 9.81862C13.8162 9.77311 13.7065 9.74407 13.5884 9.70502C13.3783 9.63563 13.2745 9.57978 13.2509 9.18359C13.2407 9.01033 13.2106 8.40672 13.1997 8.15726C13.1805 7.72018 13.1281 7.12277 12.7585 6.8761C12.6644 6.81417 12.5552 6.77914 12.4426 6.77481C12.3795 6.77097 12.3162 6.77719 12.255 6.79324C12.0678 6.83657 11.8971 6.93332 11.7638 7.07175C11.5911 7.22787 11.388 7.34662 11.1672 7.42055C10.9464 7.49447 10.7127 7.52198 10.4808 7.50134C10.2222 7.49052 9.94813 7.45011 9.63398 7.43141C9.57287 7.4278 9.51149 7.42399 9.45025 7.42086C9.04576 7.43147 8.65853 7.58699 8.35907 7.8591C8.0596 8.13121 7.86781 8.50181 7.81861 8.90344C7.63875 10.1447 8.53494 10.7862 8.79367 11.1626C8.83365 11.2105 8.85844 11.2692 8.86489 11.3313C8.85806 11.4002 8.8251 11.4638 8.77278 11.5091V11.5095C8.41491 11.9082 8.16338 12.3907 8.04148 12.9124C7.91957 13.4342 7.93123 13.9782 8.07538 14.4942C8.10958 14.6181 8.15342 14.7391 8.20648 14.8562C8.86041 16.389 10.889 17.1028 12.8709 16.4535C13.1304 16.3685 13.3822 16.2619 13.6238 16.1346C14.0578 15.9195 14.4486 15.6265 14.7768 15.2702C15.2873 14.7573 15.6231 14.0965 15.7368 13.3819C15.7965 12.9868 15.7091 12.834 15.59 12.7604C15.5058 12.7135 15.4085 12.6957 15.3132 12.7097C15.2627 12.3994 15.1742 12.0966 15.0496 11.808C14.4835 12.2351 13.8437 12.5543 13.162 12.7496C12.3419 12.9814 11.4887 13.0739 10.6379 13.0234C10.0906 12.979 9.72853 12.8188 9.59235 13.2627C10.4202 13.5396 11.2993 13.6293 12.166 13.5253C12.1721 13.5247 12.1783 13.5253 12.1841 13.527C12.19 13.5288 12.1955 13.5317 12.2002 13.5356C12.205 13.5395 12.2089 13.5442 12.2118 13.5496C12.2147 13.555 12.2165 13.561 12.2171 13.5671C12.218 13.5773 12.2157 13.5876 12.2105 13.5965C12.2054 13.6054 12.1976 13.6125 12.1882 13.6167C12.1882 13.6167 11.1716 14.0902 9.55714 13.5894ZM6.57986 6.3912C7.25225 5.91914 8.01041 5.58303 8.81172 5.40174C9.71566 5.19226 10.6552 5.18973 11.5603 5.39433C11.592 5.4016 11.6122 5.34657 11.5838 5.33066C11.1142 5.08612 10.5957 4.94982 10.0665 4.93175C10.0614 4.93165 10.0565 4.93016 10.0522 4.92742C10.0479 4.92468 10.0444 4.92081 10.0422 4.91623C10.0399 4.91166 10.039 4.90655 10.0394 4.90147C10.0399 4.89639 10.0418 4.89155 10.0448 4.88746C10.127 4.77956 10.2231 4.68293 10.3304 4.60005C10.3352 4.59629 10.3387 4.5911 10.3404 4.58523C10.342 4.57935 10.3418 4.5731 10.3396 4.56739C10.3375 4.56167 10.3336 4.55679 10.3285 4.55345C10.3234 4.55011 10.3173 4.54849 10.3112 4.54882C9.66319 4.61289 9.04042 4.83344 8.49648 5.19149C8.49184 5.19464 8.48635 5.19631 8.48074 5.1963C8.47512 5.19629 8.46964 5.19458 8.46501 5.19141C8.46038 5.18824 8.45681 5.18375 8.45477 5.17852C8.45272 5.1733 8.4523 5.16757 8.45355 5.1621C8.49736 4.99791 8.56188 4.83995 8.64555 4.69204C8.64833 4.68698 8.64941 4.68116 8.64863 4.67544C8.64785 4.66973 8.64526 4.66441 8.64124 4.66027C8.63722 4.65614 8.63197 4.6534 8.62628 4.65247C8.62058 4.65154 8.61474 4.65246 8.60961 4.6551C7.82297 5.0893 7.12232 5.66363 6.54222 6.34979C6.53767 6.35499 6.5352 6.36169 6.53527 6.3686C6.53534 6.37551 6.53794 6.38215 6.54259 6.38726C6.54724 6.39238 6.5536 6.3956 6.56048 6.39633C6.56735 6.39705 6.57425 6.39523 6.57986 6.3912ZM11.8482 10.6047C11.9029 10.6394 11.9685 10.6527 12.0324 10.6421C12.0964 10.6314 12.1542 10.5976 12.1947 10.5471C12.2452 10.4495 12.1719 10.317 12.031 10.2512C11.9763 10.2165 11.9106 10.2033 11.8467 10.2139C11.7828 10.2246 11.725 10.2584 11.6844 10.3089C11.6339 10.4065 11.7072 10.539 11.8482 10.6047ZM12.2804 9.02092C12.3142 9.19677 12.3871 9.36276 12.4938 9.50659C12.604 9.49304 12.7154 9.49304 12.8256 9.50659C12.8901 9.31357 12.8957 9.10575 12.8418 8.90952C12.7622 8.54745 12.6544 8.32832 12.4317 8.36239C12.209 8.39652 12.2008 8.65885 12.2804 9.02092ZM12.7542 9.85265C12.698 9.83654 12.6382 9.83842 12.5832 9.85805C12.5281 9.87767 12.4806 9.91405 12.4473 9.96206C12.414 10.0101 12.3966 10.0673 12.3975 10.1258C12.3984 10.1842 12.4176 10.2409 12.4524 10.2878C12.4871 10.3348 12.5357 10.3697 12.5914 10.3876C12.647 10.4055 12.7068 10.4055 12.7625 10.3877C12.8181 10.3698 12.8668 10.335 12.9016 10.2881C12.9364 10.2411 12.9557 10.1845 12.9566 10.1261C12.9647 10.0632 12.9482 9.99958 12.9104 9.94862C12.8727 9.89766 12.8167 9.86327 12.7542 9.85265Z" fill="black"/>
  <path d="M9.05646 9.81948C9.02093 9.81448 9.00579 9.79928 9.00133 9.77915C8.98753 9.71668 9.08359 9.61388 9.18486 9.53968C9.33265 9.43163 9.50575 9.36341 9.68753 9.34159C9.8693 9.31977 10.0536 9.34508 10.2228 9.41508C10.3809 9.48028 10.5168 9.58967 10.6143 9.73015C10.6505 9.78921 10.6575 9.83501 10.6341 9.85901C10.5976 9.89748 10.5046 9.85341 10.3532 9.78701C10.1713 9.69778 9.97034 9.65449 9.76786 9.66095C9.52794 9.70042 9.29044 9.75335 9.05646 9.81948ZM10.5655 10.1301C10.5 10.0614 10.4186 10.0099 10.3284 9.98034C10.2382 9.95078 10.1421 9.94405 10.0487 9.96075C9.91088 9.9754 9.78033 10.0298 9.67293 10.1173C9.62287 10.1533 9.58847 10.207 9.57679 10.2675C9.57652 10.2742 9.57773 10.2809 9.58033 10.2871C9.58294 10.2933 9.58687 10.2989 9.59186 10.3034C9.60074 10.3115 9.61234 10.3159 9.62433 10.3157C9.67389 10.3085 9.72236 10.295 9.76859 10.2757C9.97101 10.1995 10.1897 10.1768 10.4035 10.2098C10.5025 10.2209 10.5493 10.2271 10.5711 10.1931C10.5766 10.1833 10.5791 10.172 10.5781 10.1608C10.5771 10.1495 10.5727 10.1388 10.5655 10.1301Z" fill="black"/>
  <path d="M27.4234 6.98242C26.3355 6.98242 25.7984 7.84182 25.5503 8.39647C25.4136 8.70507 25.3746 8.94922 25.2632 8.94922C25.1031 8.94922 25.2183 8.73828 25.0894 8.26562C24.9195 7.64452 24.4078 6.98632 23.3218 6.98632C22.1812 6.98632 21.691 7.95507 21.4605 8.48827C21.3003 8.85155 21.3003 8.95312 21.1792 8.95312C21.0034 8.95312 21.1499 8.66406 21.228 8.32422C21.3237 7.93555 21.3374 7.53127 21.2671 7.13672H19.4565V13.9767H21.9233V10.5783C21.9233 9.90637 22.2046 9.05677 22.6831 9.05677C23.2397 9.05677 23.3471 9.4845 23.3471 10.2755V13.9845H25.8276V10.5783C25.8276 9.98062 26.0698 9.05677 26.5893 9.05677C27.1518 9.05677 27.2494 9.65832 27.2494 10.2755V13.9826H29.6869V9.95717C29.6889 8.17202 29.0619 6.98257 27.4233 6.98257L27.4234 6.98242Z" fill="black"/>
  <path d="M69.3584 6.98242C68.2725 6.98242 67.7334 7.84182 67.4873 8.39647C67.3487 8.70507 67.3116 8.94922 67.1983 8.94922C67.0401 8.94922 67.1475 8.67969 67.0264 8.26562C66.8448 7.64842 66.3936 6.98632 65.2588 6.98632C64.1221 6.98632 63.628 7.95507 63.3955 8.48827C63.2373 8.85155 63.2373 8.95312 63.1162 8.95312C62.9385 8.95312 63.085 8.66406 63.165 8.32422C63.2607 7.93555 63.2725 7.53127 63.2021 7.13672H61.3916V13.9767H63.8604V10.5783C63.8604 9.90637 64.1396 9.05677 64.6181 9.05677C65.1709 9.05677 65.2841 9.4845 65.2841 10.2755V13.9845H67.7626V10.5783C67.7626 9.98062 68.0068 9.05677 68.5263 9.05677C69.0829 9.05677 69.1864 9.65832 69.1864 10.2755V13.9826H71.622V9.95717C71.624 8.17202 70.999 6.98257 69.3584 6.98257L69.3584 6.98242Z" fill="black"/>
  <path d="M33.9074 6.98448C32.7863 6.97862 31.677 7.2169 30.6555 7.68173V9.73838C30.6555 9.73838 32.1555 8.87118 33.3723 8.87118C34.343 8.87118 34.4621 9.39853 34.4192 9.83213C34.4192 9.83213 34.1399 9.75791 33.2844 9.75791C31.2708 9.75791 30.2532 10.6778 30.2532 12.1525C30.2532 13.5509 31.3958 14.1349 32.3586 14.1349C33.7629 14.1349 34.3801 13.1876 34.5715 12.7364C34.7024 12.4239 34.7258 12.2149 34.845 12.2149C34.9797 12.2149 34.9329 12.3653 34.925 12.6758C34.9133 13.2207 34.9387 13.631 35.0227 13.9786H36.8879V10.6153C36.8879 8.51375 36.1496 6.98445 33.9075 6.98445L33.9074 6.98448ZM33.3039 12.381C32.7121 12.5177 32.4074 12.3341 32.4074 11.9415C32.4074 11.4025 32.9641 11.1857 33.7531 11.1857C34.1027 11.1857 34.4309 11.2169 34.4309 11.2169C34.4328 11.4474 33.9348 12.2345 33.3039 12.381V12.381Z" fill="black"/>
  <path d="M40.9584 5.06836H43.431V13.9804H40.9584V5.06836Z" fill="black"/>
  <path d="M46.1499 10.5605C46.1499 9.94527 46.7183 9.38667 47.7613 9.38667C48.8999 9.38667 49.814 9.93747 50.0191 10.0605V7.68162C50.0191 7.68162 49.2964 6.98438 47.521 6.98438C45.648 6.98438 44.0894 8.08593 44.0894 10.4551C44.0894 12.8242 45.5034 14.1348 47.5132 14.1348C49.0835 14.1348 50.021 13.2676 50.021 13.2676V11.0117C49.7241 11.1777 48.8999 11.7539 47.771 11.7539C46.5796 11.7539 46.1499 11.2012 46.1499 10.5606V10.5605Z" fill="black"/>
  <path d="M55.0234 6.98439C53.5898 6.98439 53.0488 8.34379 52.9394 8.58399C52.8281 8.82422 52.7734 8.95703 52.6836 8.95313C52.5254 8.94922 52.6367 8.66407 52.6992 8.47852C52.9375 7.70507 53.0566 6.90042 53.0566 6.08987C53.0566 5.32622 52.9531 5.07227 52.9531 5.07227H50.8203V13.9803H53.2891V10.5779C53.2891 10.0232 53.5098 9.05642 54.1328 9.05642C54.6484 9.05642 54.8086 9.44118 54.8086 10.2146V13.9822H57.2774V10.3611C57.2832 8.60332 56.9922 6.98417 55.0235 6.98417L55.0234 6.98439Z" fill="black"/>
  <path d="M58.0884 7.14844V13.9804H60.5572V7.14844C60.5572 7.14844 60.1412 7.38867 59.3228 7.38867C58.5064 7.38867 58.0884 7.14844 58.0884 7.14844H58.0884Z" fill="black"/>
  <path d="M60.8284 5.9922C60.8284 5.44335 60.1507 5 59.3148 5C58.4808 5 57.8031 5.44336 57.8031 5.9922C57.8031 6.5391 58.4809 6.9844 59.3148 6.9844C60.1508 6.9844 60.8284 6.53909 60.8284 5.9922Z" fill="black"/>
  <path d="M37.6888 7.14844V13.9804H40.1576V7.14844C40.1576 7.14844 39.7416 7.38867 38.9252 7.38867C38.1088 7.38867 37.6888 7.14844 37.6888 7.14844Z" fill="black"/>
  <path d="M40.4289 5.9922C40.4289 5.44335 39.7512 5 38.9172 5C38.0813 5 37.4055 5.44336 37.4055 5.9922C37.4055 6.5391 38.0813 6.9844 38.9172 6.9844C39.7512 6.9844 40.4289 6.53909 40.4289 5.9922Z" fill="black"/>
  <path d="M76.5334 6.98242C75.2639 6.98242 74.6819 7.94337 74.4299 8.48437C74.262 8.84375 74.2698 8.94922 74.1487 8.94922C73.9729 8.94922 74.1194 8.66016 74.1975 8.32032C74.2932 7.9336 74.3049 7.52932 74.2346 7.13672H72.426V15.8692H74.8948V13.0997C75.1877 13.5997 75.7288 14.1329 76.5667 14.1329C78.3538 14.1329 79.2522 12.6114 79.2522 10.5606C79.2503 8.23447 78.1741 6.98252 76.5335 6.98252L76.5334 6.98242ZM75.8557 12.5119C75.2893 12.5119 74.8733 11.7912 74.8733 10.7834C74.8733 9.80492 75.301 9.05492 75.8362 9.05492C76.5237 9.05492 76.8166 9.68967 76.8166 10.7834C76.8166 11.9221 76.5471 12.5119 75.8557 12.5119Z" fill="black"/>
</svg>