<!-- <?xml version="1.0" encoding="utf-8"?> -->
<!-- Generator: Adobe Illustrator 24.2.0, SVG Export Plug-In . SVG Version: 6.00 Build 0)  -->
<!-- <svg version="1.1" id="Layer_1" xmlns="http://www.w3.org/2000/svg" xmlns:xlink="http://www.w3.org/1999/xlink" x="0px" y="0px"
	 viewBox="0 0 80 80" style="enable-background:new 0 0 80 80;" xml:space="preserve">
<style type="text/css">
	.st0{fill:#3784F4;}
</style>
<g id="Layer_2_1_">
	<g id="Layer_1-2">
		<path class="st0" d="M9.6,31h5.9c2.8,0,5.8,0.6,5.8,4c0,1.8-1.1,3-2.7,3.5v0c2.1,0.3,3.5,1.8,3.5,3.9c0,3.3-3.1,4.4-6,4.4H9.6V31z
			 M13.1,37.4h2.5c1.1,0,2.2-0.4,2.2-1.7c0-1.3-1.3-1.7-2.4-1.7h-2.4V37.4z M13.1,44h3.1c1.1,0,2.3-0.5,2.3-1.9
			c0-1.5-1.7-1.7-2.8-1.7h-2.6L13.1,44z"/>
		<path class="st0" d="M25.4,30.6c1.1,0,2,0.9,2,2c0,1.1-0.9,2-2,2s-2-0.9-2-2c0,0,0,0,0,0C23.5,31.5,24.3,30.6,25.4,30.6
			C25.4,30.6,25.4,30.6,25.4,30.6z M23.7,36h3.4v10.9h-3.4V36z"/>
		<path class="st0" d="M29.6,30h3.4v17h-3.4V30z"/>
		<path class="st0" d="M35.4,30h3.4v17h-3.4V30z"/>
		<path class="st0" d="M41.5,36h3.1v1.4h0c0.5-0.8,1.8-1.7,3.3-1.7c3.2,0,5.4,2.3,5.4,5.6c0,3-1.9,5.8-5,5.8c-1.4,0-2.7-0.4-3.4-1.4
			h-0.1V52h-3.4L41.5,36z M47.3,44.2c1.7,0,2.7-1.1,2.7-2.8c0-1.6-1-2.8-2.7-2.8c-1.7,0-2.7,1.1-2.7,2.8
			C44.6,43.1,45.6,44.2,47.3,44.2z"/>
		<path class="st0" d="M55.4,30h3.4v17h-3.4V30z"/>
		<path class="st0" d="M60.7,43.5l5.7-4.8h-5.5V36h9.4v3.2l-5.9,5h6.1v2.7h-9.7V43.5z"/>
	</g>
</g>
</svg> -->


<svg width="37" height="14" viewBox="0 0 37 14" fill="none" xmlns="http://www.w3.org/2000/svg">
  <path d="M0 0.682861H3.60141C5.29358 0.682861 7.13499 1.05303 7.13499 3.24192C7.13499 4.36528 6.46651 5.13262 5.47119 5.46037V5.48865C6.73908 5.65574 7.58517 6.64029 7.58517 7.94745C7.58517 10.0528 5.67592 10.7494 3.95662 10.7494H0V0.682861ZM2.12878 4.70589H3.67048C4.32539 4.70589 5.00744 4.42184 5.00744 3.61209C5.00744 2.77278 4.24276 2.55942 3.57428 2.55942H2.12878V4.70589ZM2.12878 8.87159H4.03802C4.7065 8.87159 5.45762 8.5734 5.45762 7.69167C5.45762 6.73926 4.43393 6.58373 3.73832 6.58373H2.13495L2.12878 8.87159Z" fill="#3784F4"/>
  <path d="M9.63255 0.426758C9.86751 0.426759 10.0972 0.499384 10.2925 0.635448C10.4879 0.771511 10.6401 0.964898 10.73 1.19114C10.8198 1.41739 10.8433 1.66633 10.7974 1.90646C10.7514 2.1466 10.6382 2.36714 10.472 2.5402C10.3057 2.71325 10.094 2.83103 9.86351 2.87864C9.63303 2.92626 9.39418 2.90156 9.17717 2.80768C8.96017 2.7138 8.77475 2.55496 8.64439 2.35124C8.51403 2.14752 8.44458 1.90809 8.44482 1.66323C8.44482 1.50075 8.47555 1.33985 8.53526 1.18976C8.59496 1.03966 8.68247 0.903292 8.79278 0.788458C8.90308 0.673624 9.03403 0.582573 9.17812 0.52051C9.32221 0.458447 9.47663 0.42659 9.63255 0.426758ZM8.60886 3.83926H10.655V10.7491H8.60886V3.83926Z" fill="#3784F4"/>
  <path d="M12.157 0H14.2031V10.7491H12.157V0Z" fill="#3784F4"/>
  <path d="M15.7039 0H17.75V10.7491H15.7039V0Z" fill="#3784F4"/>
  <path d="M19.4138 3.83963H21.2972V4.75606H21.3243C21.6376 4.25736 22.4343 3.67511 23.3569 3.67511C25.3216 3.67511 26.6179 5.15322 26.6179 7.24314C26.6179 9.1634 25.4721 10.9256 23.5888 10.9256C22.7427 10.9256 21.9521 10.6839 21.492 10.0156H21.46V14H19.4126L19.4138 3.83963ZM22.94 9.04258C23.9637 9.04258 24.5779 8.3318 24.5779 7.29455C24.5779 6.2573 23.9612 5.54524 22.94 5.54524C21.9188 5.54524 21.3033 6.25602 21.3033 7.29455C21.3033 8.33308 21.9114 9.04258 22.94 9.04258Z" fill="#3784F4"/>
  <path d="M27.8479 0H29.894V10.7491H27.8479V0Z" fill="#3784F4"/>
  <path d="M31.106 8.61142L34.5446 5.5408H31.1886V3.83905H36.9188V5.88655L33.3161 9.042H37.0002V10.7489H31.106V8.61142Z" fill="#3784F4"/>
</svg>