<!-- <svg width="256" height="256" viewBox="0 0 256 256" fill="none" xmlns="http://www.w3.org/2000/svg">
<g clip-path="url(#clip0_2018_3101)">
<path d="M82.8301 117.368H78.334V140.346H82.8301V117.368Z" fill="#2A3362"/>
<path d="M100.254 132.197C100.254 135.357 98.1878 136.798 95.451 136.798C92.7143 136.798 90.8711 135.385 90.8711 132.363V124.159H86.375V133.389C86.375 137.99 89.2793 140.679 94.1106 140.679C97.1545 140.679 98.8301 139.57 99.9751 138.323H100.226L100.617 140.374H104.75V124.159H100.254V132.197Z" fill="#2A3362"/>
<path d="M144.378 137.159C141.083 137.159 139.239 135.662 138.932 133.5H153.203C153.258 133.057 153.314 132.585 153.286 132.142C153.258 126.321 148.818 123.854 144.071 123.854C138.569 123.854 134.408 127.125 134.408 132.391C134.408 137.408 138.374 140.679 144.35 140.679C149.349 140.679 152.672 138.489 153.342 135.108H148.902C148.399 136.438 146.807 137.159 144.378 137.159ZM144.099 127.375C146.975 127.375 148.623 128.65 148.902 130.423H139.044C139.463 128.705 141.138 127.375 144.099 127.375Z" fill="#2A3362"/>
<path d="M160.967 126.487H160.688L160.269 124.159H156.191V140.346H160.688V133.389C160.688 130.257 162.503 128.511 165.91 128.511C166.524 128.511 167.139 128.566 167.753 128.677V124.159H167.139C164.095 124.159 162.251 124.797 160.967 126.487Z" fill="#2A3362"/>
<path d="M189.814 135.301H189.563L185.709 125.185H181.073L177.303 135.274H176.996L173.421 124.159H168.953L174.455 140.346H179.342L183.251 130.035H183.531L187.384 140.346H192.299L197.801 124.159H193.333L189.814 135.301Z" fill="#2A3362"/>
<path d="M215.703 135.634V130.229C215.703 125.822 211.961 123.854 207.297 123.854C202.355 123.854 199.255 126.183 198.836 129.675H203.332C203.667 128.151 204.952 127.319 207.297 127.319C209.643 127.319 211.207 128.206 211.207 129.98V130.396L203.863 130.95C200.483 131.2 197.998 132.696 197.998 135.884C197.998 139.154 200.847 140.706 205.008 140.706C208.387 140.706 210.425 139.764 211.682 138.378H211.905C212.603 139.958 214.056 140.402 215.592 140.402H217.491V137.103H217.072C216.15 137.048 215.703 136.604 215.703 135.634ZM211.207 133.916C211.207 136.466 208.135 137.325 205.51 137.325C203.723 137.325 202.55 136.882 202.55 135.634C202.55 134.526 203.555 133.999 205.063 133.86L211.235 133.417L211.207 133.916Z" fill="#2A3362"/>
<path d="M232.346 124.159L227.095 135.884H226.816L221.482 124.159H216.623L224.219 140.346H229.609L237.177 124.159H232.346Z" fill="#2A3362"/>
<path d="M251.56 135.108C251.002 136.438 249.41 137.159 247.008 137.159C243.713 137.159 241.87 135.662 241.563 133.5H255.833C255.889 133.057 255.945 132.585 255.917 132.142C255.889 126.321 251.448 123.854 246.701 123.854C241.199 123.854 237.066 127.125 237.066 132.391C237.066 137.408 241.032 140.679 247.008 140.679C252.007 140.679 255.33 138.489 256 135.108H251.56ZM246.701 127.375C249.577 127.375 251.225 128.65 251.504 130.423H241.646C242.065 128.705 243.713 127.375 246.701 127.375Z" fill="#2A3362"/>
<path d="M71.0445 122.967C71.0445 121.553 72.0498 120.944 73.3624 120.944C73.9767 120.944 74.5632 121.027 75.1496 121.193L75.9036 117.95C74.8145 117.562 73.6695 117.368 72.5246 117.368C69.2013 117.368 66.5204 119.114 66.5204 122.745V124.159H62.6387V127.707H66.5204V140.346H71.0445V127.707H76.1271V124.159H71.0445V122.967Z" fill="#2A3362"/>
<path d="M114.721 119.613H110.532L110.308 124.187H106.762V127.734H110.225V135.717C110.225 138.433 111.621 140.706 115.81 140.706C116.899 140.706 117.988 140.595 119.049 140.346V136.936C118.435 137.075 117.821 137.158 117.178 137.158C114.944 137.158 114.721 135.883 114.721 134.913V127.707H119.189V124.159H114.721V119.613Z" fill="#2A3362"/>
<path d="M128.851 119.613H124.69L124.467 124.187H120.92V127.734H124.383V135.717C124.383 138.433 125.779 140.706 129.968 140.706C131.057 140.706 132.118 140.567 133.18 140.346V136.936C132.565 137.075 131.951 137.158 131.308 137.158C129.074 137.158 128.851 135.883 128.851 134.913V127.707H133.319V124.159H128.823V119.613H128.851Z" fill="#2A3362"/>
<path d="M0 116.759C0 114.154 0.754009 111.936 2.37373 110.356L5.16636 113.128C2.06654 116.205 4.77539 125.767 13.628 134.553C22.4806 143.34 32.1152 146.028 35.215 142.952L38.0076 145.723C32.7575 150.934 20.833 147.22 10.8354 137.325C3.90968 130.424 0 122.635 0 116.759Z" fill="#009A46"/>
<path d="M17.6209 148.107C14.9958 148.107 12.7617 147.358 11.1699 145.751L13.9625 142.979C17.0624 146.056 26.6969 143.367 35.5495 134.581C44.4022 125.795 47.111 116.232 44.0112 113.156L46.8038 110.384C52.054 115.595 48.3118 127.43 38.3422 137.353C31.3885 144.226 23.5133 148.107 17.6209 148.107Z" fill="#FF5805"/>
<path d="M39.2373 133.389C37.5338 128.539 34.071 123.356 29.491 118.81C19.4934 108.887 7.56893 105.201 2.3188 110.384C1.95576 110.772 2.29087 111.687 3.04488 112.435C3.79889 113.183 4.74838 113.516 5.11142 113.156C8.21124 110.079 17.8458 112.768 26.6984 121.554C30.8874 125.712 34.0151 130.368 35.5231 134.664C36.8357 138.434 36.7239 141.483 35.188 143.007C34.825 143.367 35.1322 144.282 35.9141 145.058C36.696 145.834 37.6176 146.139 37.9806 145.779C40.6615 143.09 41.1084 138.683 39.2373 133.389Z" fill="#F5AFCB"/>
<path d="M46.7773 110.384C44.0963 107.723 39.6561 107.28 34.3221 109.109C29.435 110.8 24.2128 114.237 19.6329 118.782C9.63534 128.705 5.92114 140.54 11.1713 145.751C11.5343 146.111 12.4838 145.806 13.2378 145.03C13.9918 144.254 14.3269 143.34 13.9639 142.979C10.8641 139.903 13.5729 130.34 22.4256 121.554C26.6145 117.396 31.3061 114.292 35.6068 112.795C39.4047 111.493 42.4766 111.603 44.0126 113.128C44.3756 113.488 45.2972 113.183 46.0791 112.407C46.861 111.631 47.1682 110.772 46.7773 110.384Z" fill="#FF9B00"/>
</g>
<defs>
<clipPath id="clip0_2018_3101">
<rect width="256" height="40.1067" fill="white" transform="translate(0 108)"/>
</clipPath>
</defs>
</svg> -->

<svg width="73" height="12" viewBox="0 0 73 12" fill="none" xmlns="http://www.w3.org/2000/svg">
  <path d="M23.62 2.80292H22.3379V9.6781H23.62V2.80292Z" fill="#2A3362"/>
  <path d="M28.5887 7.23979C28.5887 8.18523 27.9994 8.61648 27.219 8.61648C26.4386 8.61648 25.913 8.19352 25.913 7.28955V4.83472H24.6309V7.5964C24.6309 8.97309 25.4591 9.77755 26.8367 9.77755C27.7048 9.77755 28.1826 9.44582 28.5091 9.07262H28.5807L28.6922 9.68632H29.8708V4.83472H28.5887V7.23979Z" fill="#2A3362"/>
  <path d="M41.1711 8.72427C40.2314 8.72427 39.7058 8.27643 39.6182 7.62955H43.6875C43.7035 7.49686 43.7194 7.35587 43.7114 7.22318C43.7035 5.48158 42.4373 4.74347 41.0835 4.74347C39.5147 4.74347 38.3281 5.72208 38.3281 7.29782C38.3281 8.79891 39.4589 9.77753 41.1631 9.77753C42.5886 9.77753 43.5362 9.12235 43.7273 8.11057H42.4612C42.3178 8.50865 41.8639 8.72427 41.1711 8.72427ZM41.0914 5.79672C41.9117 5.79672 42.3815 6.17822 42.4612 6.70899H39.6501C39.7695 6.1948 40.2473 5.79672 41.0914 5.79672Z" fill="#2A3362"/>
  <path d="M45.8998 5.53136H45.8202L45.7008 4.83472H44.5381V9.67803H45.8202V7.5964C45.8202 6.65925 46.3378 6.13677 47.3094 6.13677C47.4846 6.13677 47.6598 6.15336 47.835 6.18653V4.83472H47.6598C46.7917 4.83472 46.2662 5.02546 45.8998 5.53136Z" fill="#2A3362"/>
  <path d="M54.1284 8.16864H54.0567L52.9578 5.14157H51.6358L50.5608 8.16035H50.4732L49.4538 4.83472H48.1797L49.7485 9.67803H51.1421L52.257 6.59291H52.3366L53.4356 9.67803H54.8371L56.4059 4.83472H55.1318L54.1284 8.16864Z" fill="#2A3362"/>
  <path d="M61.5107 8.26814V6.65094C61.5107 5.3323 60.4436 4.74347 59.1137 4.74347C57.7042 4.74347 56.8203 5.44011 56.7008 6.48507H57.9829C58.0785 6.02894 58.4448 5.78014 59.1137 5.78014C59.7827 5.78014 60.2286 6.04552 60.2286 6.5763V6.7007L58.1342 6.86657C57.1707 6.94121 56.4619 7.38905 56.4619 8.34278C56.4619 9.32139 57.2742 9.78582 58.4607 9.78582C59.4243 9.78582 60.0057 9.50385 60.364 9.08918H60.4277C60.6268 9.5619 61.0409 9.69459 61.4789 9.69459H62.0204V8.70769H61.901C61.6382 8.6911 61.5107 8.55841 61.5107 8.26814ZM60.2286 7.75395C60.2286 8.51694 59.3527 8.77403 58.6041 8.77403C58.0944 8.77403 57.76 8.64134 57.76 8.26814C57.76 7.93641 58.0466 7.77883 58.4767 7.73737L60.2366 7.60467L60.2286 7.75395Z" fill="#2A3362"/>
  <path d="M66.2574 4.83472L64.7602 8.3428H64.6806L63.1596 4.83472H61.7739L63.94 9.67803H65.4769L67.635 4.83472H66.2574Z" fill="#2A3362"/>
  <path d="M71.7336 8.11057C71.5743 8.50865 71.1204 8.72427 70.4356 8.72427C69.4959 8.72427 68.9703 8.27643 68.8827 7.62955H72.952C72.968 7.49686 72.9839 7.35587 72.9759 7.22318C72.968 5.48158 71.7018 4.74347 70.348 4.74347C68.7792 4.74347 67.6006 5.72208 67.6006 7.29782C67.6006 8.79891 68.7314 9.77753 70.4356 9.77753C71.861 9.77753 72.8087 9.12235 72.9998 8.11057H71.7336ZM70.348 5.79672C71.1682 5.79672 71.6381 6.17822 71.7177 6.70899H68.9066C69.026 6.1948 69.4959 5.79672 70.348 5.79672Z" fill="#2A3362"/>
  <path d="M20.2603 4.47817C20.2603 4.05521 20.547 3.87276 20.9212 3.87276C21.0964 3.87276 21.2637 3.89764 21.4309 3.9474L21.6459 2.97708C21.3353 2.86097 21.0088 2.80292 20.6823 2.80292C19.7347 2.80292 18.9702 3.3254 18.9702 4.41183V4.83479H17.8633V5.89633H18.9702V9.6781H20.2603V5.89633H21.7096V4.83479H20.2603V4.47817Z" fill="#2A3362"/>
  <path d="M32.7144 3.47418H31.5199L31.4562 4.84258H30.4448V5.90413H31.4323V8.29261C31.4323 9.10536 31.8305 9.78542 33.025 9.78542C33.3356 9.78542 33.6461 9.75224 33.9487 9.6776V8.65752C33.7736 8.69899 33.5984 8.72387 33.4152 8.72387C32.7781 8.72387 32.7144 8.34237 32.7144 8.05211V5.89584H33.9886V4.83429H32.7144V3.47418Z" fill="#2A3362"/>
  <path d="M36.7421 3.47418H35.5555L35.4918 4.84258H34.4805V5.90413H35.4679V8.29261C35.4679 9.10536 35.8661 9.78542 37.0606 9.78542C37.3712 9.78542 37.6738 9.74395 37.9764 9.6776V8.65752C37.8012 8.69899 37.626 8.72387 37.4429 8.72387C36.8058 8.72387 36.7421 8.34237 36.7421 8.05211V5.89584H38.0162V4.83429H36.7341V3.47418H36.7421Z" fill="#2A3362"/>
  <path d="M0 2.62072C0 1.84114 0.215013 1.17768 0.676894 0.704956L1.47324 1.53429C0.589296 2.45485 1.36175 5.31605 3.88617 7.94504C6.41058 10.574 9.15798 11.3785 10.0419 10.4579L10.8383 11.2873C9.34114 12.8464 5.94074 11.7351 3.08982 8.77438C1.11488 6.70934 0 4.37891 0 2.62072Z" fill="#009A46"/>
  <path d="M5.02511 12C4.27654 12 3.63946 11.7761 3.18555 11.2951L3.98189 10.4657C4.86584 11.3863 7.61323 10.5818 10.1376 7.95286C12.6621 5.32387 13.4345 2.46266 12.5506 1.5421L13.3469 0.712769C14.8441 2.27192 13.7769 5.81318 10.934 8.78219C8.95109 10.8389 6.7054 12 5.02511 12Z" fill="#FF5805"/>
  <path d="M11.1877 7.59645C10.702 6.14511 9.71451 4.59426 8.4085 3.23415C5.55759 0.265133 2.15719 -0.837882 0.660061 0.712974C0.556536 0.82908 0.652097 1.10276 0.86711 1.32668C1.08212 1.5506 1.35288 1.65012 1.45641 1.54231C2.34035 0.621747 5.08774 1.4262 7.61216 4.05519C8.80668 5.29919 9.69858 6.69247 10.1286 7.97794C10.5029 9.10584 10.471 10.0181 10.033 10.4742C9.92952 10.5821 10.0171 10.8557 10.2401 11.0879C10.4631 11.3202 10.7259 11.4114 10.8294 11.3036C11.5939 10.4991 11.7213 9.18048 11.1877 7.59645Z" fill="#F5AFCB"/>
  <path d="M13.3399 0.713002C12.5754 -0.0831591 11.3092 -0.215853 9.78821 0.331508C8.3946 0.837402 6.90544 1.86578 5.59943 3.22589C2.74851 6.1949 1.68937 9.73616 3.1865 11.2953C3.29003 11.4031 3.56078 11.3119 3.7758 11.0797C3.99081 10.8475 4.08637 10.5738 3.98285 10.466C3.0989 9.54541 3.87136 6.68421 6.39577 4.05522C7.59029 2.81122 8.92815 1.88236 10.1545 1.43452C11.2376 1.04474 12.1135 1.07791 12.5515 1.53404C12.6551 1.64186 12.9178 1.55063 13.1408 1.31842C13.3638 1.0862 13.4514 0.829109 13.3399 0.713002Z" fill="#FF9B00"/>
</svg>
