<!-- <svg width="32" height="32" viewBox="0 0 32 32" fill="none" xmlns="http://www.w3.org/2000/svg">
<path fill-rule="evenodd" clip-rule="evenodd" d="M10.4753 27.9505V27.8536L10.4524 27.7322L10.4295 27.6112L10.4068 27.4415L10.3839 27.272L10.361 27.078L10.3381 26.884L10.3152 26.7143L10.2925 26.5446L10.2696 26.3993L10.2467 26.3022V26.2053L10.2009 26.0356V25.8661L10.1782 25.7207L10.1553 25.5995V25.4539L10.1324 25.3329H10.1095L10.0866 25.4783L10.0639 25.6236L10.0181 25.769L9.97232 25.9387L9.9267 26.1086V26.1327L9.90381 26.2053L9.88092 26.3022L9.83513 26.4236L9.78951 26.5933L9.74372 26.7627L9.67504 26.9325L9.62942 27.1265L9.58363 27.2962L9.51512 27.4656L9.46933 27.6355L9.44644 27.7568L9.40082 27.8536L9.37792 27.9262V27.9505H8.71485V27.9262L8.69195 27.8536L8.66906 27.7568L8.62328 27.6112L8.57765 27.4415L8.50897 27.272L8.39467 26.9083L8.34889 26.7386L8.30326 26.5933L8.25764 26.4477L8.21186 26.351V26.278L8.18896 26.2537L8.16607 26.1086L8.12028 25.9873L8.05177 25.7207L8.02888 25.575L7.98309 25.4539V25.3329H7.9602V25.4783L7.93747 25.648L7.91457 25.7933V25.9387L7.89168 26.1086L7.86879 26.2537V26.278L7.8459 26.3751V26.4962L7.82317 26.6417L7.80027 26.8115L7.77738 27.0052L7.75449 27.1992L7.73159 27.3931L7.70886 27.5628L7.68597 27.8295V27.9262L7.66308 27.9505H7L7.52588 24.2905H8.30326V24.3148L8.32616 24.3876L8.37194 24.4845L8.41757 24.6057L8.46335 24.7754L8.57765 25.1389L8.66906 25.5024L8.73774 25.6721L8.78336 25.842L8.87477 26.1327V26.157L8.92056 26.3267L8.96634 26.472L9.01196 26.6176L9.03502 26.7869L9.08064 26.9325L9.12643 26.7869L9.14932 26.6176L9.19494 26.472L9.24073 26.3267L9.28635 26.1811V26.157L9.30925 26.0843L9.33214 25.9873L9.37792 25.842L9.44644 25.6964L9.49223 25.5024L9.53785 25.3329L9.60653 25.1389L9.67504 24.9449L9.72083 24.7754L9.76645 24.6298L9.8124 24.4845L9.83513 24.3876L9.85802 24.3148L9.88092 24.2905H10.6583L11.1842 27.9505H10.4753ZM12.8303 27.3931V27.9992H12.8989L13.0133 27.9746H13.1047L13.219 27.9262L13.3104 27.9021L13.402 27.8536L13.4934 27.8052L13.5848 27.7322L13.6535 27.6596L13.7449 27.5869L13.7907 27.5145L13.8592 27.4172L13.9277 27.3205L13.9735 27.2233L13.9964 27.1265L14.0422 27.0052L14.0651 26.884L14.0878 26.7627L14.1107 26.6417V26.3751L14.0878 26.2537L14.0651 26.1086L14.0422 25.9873L14.0193 25.8661L13.9735 25.769L13.9277 25.6721L13.8592 25.5995L13.8134 25.5024L13.7449 25.4539L13.6764 25.3812L13.5848 25.3329L13.5163 25.2843L13.4247 25.2358L13.3333 25.2117L13.219 25.1632H13.1276L13.0133 25.1389H12.8303V25.7448H12.9675L13.0818 25.7933L13.1733 25.842L13.2419 25.9146L13.3104 26.0114L13.3562 26.1086L13.3791 26.2537L13.402 26.3993L13.4247 26.569L13.402 26.7143L13.3791 26.8599L13.3562 26.9809L13.3104 27.1023L13.2419 27.1992L13.1961 27.272L13.1047 27.3205L13.0133 27.3689L12.9446 27.3931H12.8303Z" fill="#016881"/>
<path fill-rule="evenodd" clip-rule="evenodd" d="M12.8309 25.7455V25.1396H12.7851L12.6708 25.1639L12.5565 25.1882L12.4422 25.2125L12.3508 25.2608L12.2594 25.3094L12.168 25.3577L12.0764 25.4305L12.0077 25.4791L11.9392 25.5515L11.8707 25.6488L11.802 25.7214L11.7562 25.8181L11.7106 25.9154L11.6648 26.0364L11.6419 26.1335L11.5963 26.2545L11.5732 26.3758V26.909L11.5963 27.0546L11.6192 27.1756L11.6648 27.2727L11.7106 27.3939L11.7562 27.4663L11.802 27.5636L11.8707 27.6362L11.9392 27.7089L12.0077 27.7817L12.0764 27.8302L12.168 27.8786L12.2594 27.9269L12.3508 27.9512L12.4422 27.9753L12.5565 27.9999H12.8309V27.3939H12.7395L12.6252 27.3696L12.5336 27.3213L12.4651 27.2727L12.3966 27.1999L12.3508 27.103L12.305 26.9817L12.2823 26.8607L12.2594 26.715V26.3758L12.305 26.2304L12.3508 26.0851L12.3966 25.988L12.488 25.8911L12.5565 25.8181L12.6481 25.7698L12.7395 25.7455H12.8309ZM18.7984 27.4423V27.9999H19.1871L19.3243 27.9753L19.4615 27.9512L19.5758 27.9028L19.713 27.8786L19.8273 27.8302V27.6846L19.7815 27.418V27.2727L19.6443 27.3213L19.53 27.3696L19.393 27.418L19.2785 27.4423H18.7984ZM18.7984 26.2061V26.691H19.8958L19.9187 26.5698V26.1335L19.8958 26.0121L19.8731 25.9154L19.8273 25.8181L19.8044 25.7214L19.7586 25.6243L19.6901 25.5274L19.6443 25.4546L19.5758 25.382L19.4844 25.3336L19.393 25.2608L19.3014 25.2366L19.1871 25.1882L19.0957 25.1639L18.9585 25.1396H18.7984V25.6729L18.8213 25.6488L18.9585 25.6729L19.0499 25.7214L19.1413 25.794L19.21 25.9154L19.2558 26.0364V26.2061H18.7984Z" fill="#016881"/>
<path fill-rule="evenodd" clip-rule="evenodd" d="M18.7974 25.6725V25.1393H18.7289L18.6145 25.1635L18.5002 25.1878L18.3859 25.2121L18.2944 25.2604L18.2029 25.309L18.1115 25.3816L18.0429 25.4301L17.9744 25.5028L17.9058 25.5998L17.8371 25.6725L17.7915 25.7694L17.7457 25.8907L17.7 25.9876L17.6772 26.109L17.6541 26.23L17.6314 26.3513V26.8844L17.6541 27.0055L17.6772 27.1269L17.7 27.2236L17.7457 27.3209L17.7915 27.4176L17.8371 27.5148L17.8829 27.5873L17.9514 27.6599L18.0201 27.7326L18.0887 27.7813L18.1801 27.8298L18.2716 27.8782L18.3631 27.9265L18.4545 27.9508L18.5688 27.9749L18.6602 27.9995H18.7974V27.4419L18.7518 27.4176L18.6373 27.3935L18.5459 27.3209L18.4774 27.2723L18.4087 27.1752L18.3631 27.0783L18.3172 26.957L18.2944 26.836V26.6906H18.7974V26.2057H18.3172L18.3402 26.036L18.3859 25.915L18.4774 25.8177L18.5688 25.721L18.6831 25.6725H18.7974ZM20.3064 25.6967L20.2608 25.6239L20.2379 25.5511V25.3816L20.2608 25.309L20.2837 25.2362H20.4207L20.5352 25.2121H20.6722L20.8096 25.1878H21.3126V25.3573L21.2897 25.5511L21.2668 25.7451L21.3126 25.6484L21.3811 25.527L21.4496 25.4301L21.5184 25.3332L21.6097 25.2604L21.7014 25.2121L21.8155 25.1635L21.9529 25.1393H22.0898V25.2362L22.067 25.4787V25.8424L21.9529 25.8177H21.8612L21.7699 25.8424L21.6782 25.8665L21.6097 25.915L21.564 25.9634L21.4955 26.036L21.4496 26.1331L21.404 26.2541L21.3811 26.3754L21.3582 26.4966V26.6663L21.3353 26.836V27.9508H20.6951V25.7451L20.5579 25.721L20.4436 25.6967H20.3064ZM24.8565 27.9995H24.6508L24.4679 27.9749L24.3076 27.9508V27.5148L24.3305 27.3692L24.445 27.4176L24.582 27.4419H24.7421L24.8794 27.466L25.0621 27.4419L25.1995 27.3692L25.2678 27.2966L25.3139 27.1752L25.2907 27.1026L25.2678 27.03L25.2451 26.9813L25.1995 26.957L25.1309 26.9086L25.0852 26.8844L25.0165 26.836L24.9251 26.8119L24.8565 26.7873L24.7877 26.763L24.6965 26.7147L24.6279 26.6906L24.5591 26.642L24.4906 26.5937L24.4221 26.5207L24.3534 26.448L24.3076 26.3513L24.2849 26.2541L24.262 26.1573V25.915L24.2849 25.8177L24.3076 25.721L24.3534 25.6239L24.3993 25.5511L24.445 25.4787L24.5364 25.4059L24.6049 25.3332L24.7194 25.2847L24.8106 25.2362L24.9251 25.1878L25.0621 25.1635L25.1995 25.1393H25.5196L25.6795 25.1635L25.8167 25.1878V25.7451L25.6567 25.721L25.4966 25.6725H25.3366L25.1537 25.6967L25.0392 25.7451L24.9707 25.8424L24.948 25.9634V26.0117L24.9707 26.0847L25.0165 26.1331L25.0621 26.1573L25.108 26.2057L25.1766 26.23L25.2451 26.2541L25.3139 26.3026L25.4052 26.327L25.4737 26.3513L25.5654 26.3997L25.6338 26.448L25.7023 26.4966L25.7711 26.5449L25.8396 26.6179L25.9082 26.6906L25.9538 26.763L25.977 26.8603L25.9997 26.9813V27.1995L25.977 27.2966L25.9538 27.3935L25.9082 27.4902L25.8625 27.5632L25.794 27.6599L25.7252 27.7326L25.6567 27.7813L25.5654 27.8298L25.4737 27.8782L25.3595 27.9265L25.2451 27.9749H25.108L24.9936 27.9995H24.8565ZM15.4135 25.1878V25.527L15.3908 25.6967L15.4593 25.5998L15.5278 25.4787L15.5965 25.4059L15.6879 25.3332L15.7793 25.2604L15.8938 25.2121L16.0081 25.1635L16.1451 25.1393H16.4195L16.5338 25.1635L16.6483 25.2121L16.7397 25.2604L16.8082 25.3332L16.8769 25.4059L16.9454 25.4787L16.9683 25.5754L17.0141 25.6725L17.037 25.7936V27.9508H16.3968V26.1814L16.3739 26.036L16.351 25.915L16.2823 25.8177L16.1909 25.7451L16.0766 25.721L15.9623 25.7451L15.8709 25.7694L15.7793 25.8424L15.7108 25.915L15.6421 25.9876L15.5736 26.109L15.5278 26.2057L15.4822 26.3513V26.4723L15.4593 26.6179V27.9508H14.7962V25.7451L14.6819 25.721L14.5447 25.6967H14.4075L14.3847 25.6239L14.3618 25.5511L14.3389 25.4542L14.3618 25.3816L14.3847 25.309L14.4075 25.2362H14.5218L14.659 25.2121H14.7962L14.9105 25.1878H15.4135ZM23.3247 24.8484L23.1873 24.8241L23.0732 24.7757L23.0043 24.6788L22.9358 24.5575L22.9131 24.4121L22.9358 24.2909L23.0043 24.1697L23.0732 24.0728L23.1873 24.0243L23.3247 24L23.4616 24.0243L23.5762 24.0728L23.6674 24.1697L23.713 24.2909L23.7363 24.4121L23.713 24.5575L23.6674 24.6788L23.5762 24.7757L23.4616 24.8241L23.3247 24.8484ZM23.6674 25.1878H23.1417L23.0043 25.2121H22.8673L22.7301 25.2362H22.616L22.5699 25.309L22.5471 25.3816V25.5511L22.5699 25.6239L22.616 25.6967H22.7528L22.8902 25.721L23.0043 25.7451V27.9508H23.6674V25.1878Z" fill="#016881"/>
<path fill-rule="evenodd" clip-rule="evenodd" d="M20.7022 6.15834L20.5251 6.02868L20.3047 5.85569L20.0398 5.72572L19.8191 5.59605L19.5542 5.46608L19.2889 5.37974L19.0243 5.29309L18.7152 5.20675L18.4506 5.16343L18.1415 5.07678H17.9204L17.6558 5.03346H16.64L16.3312 5.07678L16.0663 5.1201L15.8017 5.16343L15.5365 5.24977L15.2716 5.33642L15.0069 5.42306L14.7417 5.50941L14.4765 5.63938L14.2561 5.76904L13.9912 5.89901L13.7708 6.02868L13.5055 6.15834L13.2851 6.33164L13.0199 6.50463L12.7995 6.67792L12.5785 6.89393L12.402 7.06722L12.2251 7.24021L12.0047 7.45652L11.8718 7.62951L11.6953 7.84613L11.5191 8.06244L11.3862 8.23543L11.2539 8.45174L11.1216 8.66806L10.9886 8.88437L10.9005 9.10099L10.7682 9.3173L10.6801 9.53361L10.5472 9.79325L10.4591 10.0096L10.371 10.2692L10.2829 10.5288L10.2387 10.7885L10.15 11.0481L10.1058 11.2644L10.0616 11.5241L10.0177 11.7837V12.2596L9.97348 12.4759V13.2115L10.0177 13.4712V13.6875L10.0616 13.9471L10.1058 14.2068L10.15 14.4231L10.2387 14.6827L10.2829 14.9423L10.371 15.1587L10.4591 15.375L10.5472 15.5913L10.6359 15.8076L10.7243 16.0239L10.8124 16.2402L10.9447 16.4568L11.0335 16.6298L11.1658 16.8464L11.2981 17.0624L11.4304 17.2354L11.563 17.4087L11.6953 17.5817L11.8718 17.755L12.3132 18.274L12.6224 18.5772L12.9318 18.8796L13.108 19.0099L13.2851 19.1395L13.4613 19.2692L13.6385 19.3995L13.8147 19.5288L13.9912 19.6585L14.168 19.7451L14.3445 19.8751L14.5655 19.9618L15.1392 20.2647L15.3154 20.3511L15.5365 20.4377L15.7569 20.5241L15.9782 20.5671L16.1986 20.6537L16.4196 20.6973L16.64 20.7407L16.8611 20.827L17.0815 20.8703H17.3025L17.5229 20.9134L17.7439 20.9567H17.9649L18.1857 21H19.0685L19.2889 20.9567H19.5099L19.7303 20.9134L19.9514 20.8703L20.1718 20.827L20.3931 20.7837L20.6141 20.7407L20.8784 20.6973L21.0995 20.6104L21.3202 20.5671L21.497 20.4807L21.7174 20.3944L21.9384 20.308L22.1588 20.2208L22.336 20.0914L22.5564 20.0048L22.7326 19.8751L22.9539 19.7882L23.1301 19.6585L23.3069 19.5288L23.4834 19.3995L23.6602 19.2692L23.8368 19.0962L24.0129 18.9665L24.1901 18.7932L24.3663 18.6636L24.4986 18.4903L24.6757 18.3173L24.9848 17.971L25.1171 17.7983L25.2494 17.6247L25.3824 17.4521L25.5144 17.2354L25.6028 17.0624L25.7351 16.8464L25.8238 16.6298L25.9561 16.4138V16.3699L26 16.2835V15.8939L25.9561 15.8076L25.9119 15.7209V15.6346L25.8677 15.548L25.779 15.5049L25.7351 15.4616L25.6909 15.4183L25.6467 15.375L25.5586 15.3316H25.3375L25.2933 15.375L25.2494 15.4183L25.2052 15.4616L25.1614 15.5049L25.0291 15.7209L24.9406 15.8939L24.808 16.1105L24.6315 16.2835L24.3663 16.6731L24.1901 16.8464L24.0572 16.9761L23.881 17.1488L23.7045 17.3224L23.5276 17.4521L23.3511 17.5817L23.1743 17.755L22.9539 17.8847L22.7326 18.0143L22.5564 18.1007L22.336 18.231L22.1149 18.3173L21.8939 18.4036L21.6735 18.4903L21.4522 18.5772L21.2318 18.6636L21.0107 18.7069L20.7464 18.7499L20.5251 18.8366H20.2608L20.0398 18.8796H19.8191L19.598 18.9229H18.9362L18.7152 18.8796H18.4948L18.2738 18.8366H18.0534L17.8323 18.7932L17.6116 18.7069L17.3906 18.6636L17.1702 18.6203L16.9492 18.5339L16.7288 18.447L16.5077 18.3606L16.2873 18.274L16.1102 18.1876L15.8898 18.1007L15.713 18.0143L15.5365 17.8847L15.3603 17.755L15.1392 17.6681L14.9621 17.5384L14.7859 17.4087L14.6094 17.2791L14.4326 17.1488L14.3003 16.9761L14.1238 16.8464L13.947 16.6731L13.8147 16.5002L13.6385 16.3269L13.5055 16.1539L13.1967 15.8076L13.0641 15.6346L12.9318 15.375L12.7547 15.1587L12.6224 14.9423L12.5343 14.6827L12.402 14.4231L12.3132 14.1634L12.2251 13.9471L12.137 13.6875L12.0928 13.4278L12.0047 13.1682L11.9605 12.9086L11.9163 12.6489V12.173L11.8718 11.9134L11.9163 11.6537V11.3941L11.9605 11.1344L12.0047 10.8748L12.0486 10.5722L12.137 10.3125L12.2251 10.0096L12.3132 9.74992L12.402 9.44696L12.5343 9.18733L12.6666 8.928L12.8434 8.66806L12.9757 8.40873L13.1522 8.19211L13.329 7.97579L13.5055 7.75948L13.6824 7.54317L13.8589 7.37018L14.0799 7.19689L14.3003 7.0239L14.3884 6.93725L14.5213 6.85091L14.6094 6.80759L14.7417 6.72094L14.8298 6.6346L14.9621 6.59127L15.0512 6.50463L15.1831 6.46161L15.3154 6.37496L15.4042 6.33164L15.5365 6.28831L15.6249 6.20167L15.8017 6.15834L15.8898 6.11532L16.0663 6.072L16.1986 6.02868L16.3312 5.98535L16.4635 5.94203H16.5958L16.7288 5.89901H16.8611L16.9934 5.85569H17.2586L17.1257 5.89901L17.0373 5.94203L16.9053 5.98535L16.8169 6.02868L16.6839 6.072L16.5958 6.11532L16.4635 6.20167L16.3754 6.2453L16.2873 6.33164L16.1544 6.41828L16.0663 6.46161L15.934 6.54795L15.8898 6.59127L15.8017 6.67792L15.7569 6.72094L15.713 6.80759L15.6249 6.85091L15.5807 6.93725L15.5365 6.98057L15.4484 7.06722L15.2716 7.28353L15.2273 7.37018L15.095 7.58649L14.9621 7.80281L14.8298 8.01912L14.7417 8.27875L14.6536 8.49507L14.6094 8.7547L14.5213 9.01434L14.4765 9.23065L14.4326 9.49029V10.3989L14.4765 10.8748V11.0914L14.5213 11.3077L14.6094 11.5241L14.6536 11.7837L14.7417 12L14.8298 12.173L14.9182 12.3893L15.0069 12.6056L15.095 12.8219L15.1831 12.9949L15.3154 13.2115L15.4484 13.3845L15.5807 13.6011L15.713 13.7738L16.0221 14.1201L16.1986 14.2498L16.3312 14.4231L16.5077 14.5961L16.6839 14.726L16.9053 14.899L17.0815 15.0287L17.3025 15.1153L17.479 15.2453L17.7 15.375L17.9204 15.4616L18.1415 15.548L18.3619 15.6346L18.5829 15.7209L18.8475 15.8076L19.1127 15.8509L19.3776 15.9373L19.6423 15.9809H19.9075L20.1279 16.0239H21.0556L21.3202 15.9809L21.6293 15.9373L21.8939 15.8509L22.1588 15.8076L22.4241 15.7209L22.6445 15.5913L22.9097 15.5049L23.1301 15.375L23.3511 15.2453L23.5715 15.1153L23.7926 14.9857L23.9691 14.8124L24.2343 14.6394L24.4105 14.4231L24.6315 14.2068L24.808 13.9471L24.9848 13.7308L25.1171 13.5145L25.2494 13.2549L25.3824 12.9949L25.4705 12.7786L25.5586 12.5193L25.6467 12.2596L25.6909 12L25.779 11.6537L25.8238 11.3077V10.2259L25.779 9.96624V9.7066L25.6909 9.23065L25.5586 8.7547L25.5144 8.53839L25.4263 8.32208L25.3375 8.06244L25.2494 7.84613L25.1614 7.58649L25.0729 7.37018L24.9406 7.15387L24.808 6.93725L24.7196 6.72094L24.5873 6.50463L24.4547 6.33164L24.2782 6.11532L24.1459 5.89901L24.0129 5.72572L23.8368 5.55273L23.7045 5.37974L23.5276 5.16343L23.3511 4.99044L23.1743 4.81714L22.9978 4.64416L22.7774 4.51418L22.6006 4.3412L22.4241 4.16821L22.203 4.03824L21.7616 3.73558L21.5412 3.60561L21.3202 3.47595H21.276L21.2318 3.43262H20.9668L20.9226 3.47595L20.8784 3.51896V3.64894L20.9226 3.69226V3.73558L20.9668 3.7786V3.82192L21.0107 3.86525H21.0556L21.0995 3.90857L21.1437 3.9519L21.3641 4.08156L21.5851 4.21122L21.8055 4.3412L22.0268 4.51418L22.2472 4.64416L22.4241 4.81714L22.6445 4.99044L22.8216 5.16343L22.9978 5.33642L23.1743 5.50941L23.3511 5.6827L23.4834 5.85569L23.6602 6.072L23.7926 6.28831L23.9249 6.46161L24.0572 6.67792L24.1901 6.89393L24.3224 7.11024L24.5434 7.54317L24.6315 7.80281L24.7196 8.01912L24.808 8.23543L24.8519 8.49507L24.9406 8.71138L24.9848 8.928L25.0291 9.18733L25.0729 9.40395V9.66358L25.1171 9.8799V10.3555L25.0729 10.6152V10.9181L25.0291 11.1778L24.9406 11.4807L24.8519 11.7837L24.7638 12.0433L24.6315 12.3027L24.4986 12.5626L24.3224 12.8219L24.1459 13.0819L23.9249 13.2982L23.6602 13.5145L23.3953 13.7308L23.1301 13.9038L22.8216 14.0768L22.5122 14.2498L22.2472 14.3367L21.9826 14.3797L21.7174 14.4661L21.4522 14.5097L21.1879 14.553H20.2608L19.9514 14.5097L19.6423 14.4231L19.3338 14.3367L19.0243 14.2498L18.8475 14.2068L18.7152 14.1201L18.5387 14.0768L18.4061 13.9904L18.2296 13.9038L18.0973 13.8175L17.9649 13.7308L17.7881 13.6011L17.6558 13.5145L17.3906 13.2982L17.3025 13.1682L17.5671 13.2982L17.7881 13.3845L18.0534 13.4712L18.3619 13.5575L18.6271 13.6011L18.892 13.6442H19.6865L19.9514 13.6011H20.2166L20.437 13.5145L20.7464 13.4278L21.0107 13.3412L21.2318 13.2549L21.497 13.1249L21.8055 12.9519L22.0707 12.7786L22.336 12.5626L22.5564 12.3463L22.7774 12.1297L22.9539 11.87L23.1301 11.6104L23.3069 11.3508L23.4392 11.0914L23.5276 10.8318L23.6157 10.5288L23.7045 10.2692L23.7487 10.0096L23.7926 9.7066V9.18733L23.7487 8.928L23.7045 8.62504L23.6602 8.3651L23.6157 8.10577L23.5276 7.84613L23.4392 7.62951L23.3511 7.37018L23.2188 7.15387L23.1301 6.93725L22.9978 6.72094L22.8655 6.50463L22.7326 6.28831L22.6006 6.11532L22.4241 5.89901L22.1149 5.55273L21.9826 5.37974L21.8055 5.20675L21.6293 5.03346L21.4083 4.86047L21.2318 4.7308L21.0556 4.55751L20.8345 4.42784L20.6141 4.29787L20.3931 4.16821L20.2166 4.03824L19.9514 3.90857L19.7303 3.7786L19.5099 3.69226L19.2889 3.60561L19.0685 3.51896L18.8475 3.43262L18.6271 3.34598L18.3619 3.30265L18.1415 3.21631L17.8762 3.17299L17.6558 3.12966L17.3906 3.08634H17.1702L16.9492 3.04332H16.6839L16.4635 3H15.3154L15.095 3.04332H14.874L14.6094 3.08634L14.3884 3.12966H14.168L13.947 3.21631H13.7266L13.4613 3.30265L13.2409 3.34598L13.0199 3.43262L12.7995 3.47595L12.5785 3.56229L12.3132 3.64894L12.0928 3.73558L11.8718 3.82192L11.6514 3.90857L11.4304 3.99491L11.21 4.12488L11.0335 4.21122L10.8124 4.3412L10.6359 4.42784L10.4591 4.55751L10.2387 4.68748L10.0616 4.81714L9.88538 4.94712L9.70824 5.07678L9.48784 5.20675L9.31165 5.33642L9.13451 5.50941L8.95832 5.63938L8.6492 5.98535L8.47269 6.11532L8.29586 6.28831L8.16356 6.46161L7.98642 6.6346L7.85412 6.80759L7.72213 6.98057L7.58983 7.15387L7.2365 7.67314L7.10357 7.88945L7.01547 8.06244L6.88317 8.23543L6.79507 8.45174L6.70666 8.62504L6.57373 8.84135L6.48563 9.05766L6.39754 9.27398L6.30944 9.49029L6.26461 9.7066L6.17651 9.92291L6.1323 10.1392L6.04421 10.3555L6 10.5722V10.8748L6.04421 10.9615L6.1323 11.0481L6.2204 11.0914L6.30944 11.1778L6.39754 11.2211L6.52984 11.2644H6.97127L7.14809 11.2211L7.28039 11.1778L7.41269 11.1344L7.58983 11.0914L7.67793 11.0048L7.81023 10.9615L7.89833 10.8748L7.98642 10.7885L8.07546 10.7018L8.16356 10.5722L8.20745 10.4855V10.3989L8.25166 10.1392L8.29586 9.92291L8.38396 9.7066L8.42785 9.49029L8.47269 9.27398L8.56078 9.05766L8.6492 8.84135L8.73729 8.62504L8.82539 8.40873L8.91412 8.23543L9.04642 8.01912L9.13451 7.84613L9.26682 7.62951L9.35554 7.45652L9.48784 7.28353L9.62015 7.11024L9.75308 6.93725L9.88538 6.76426L10.1945 6.41828L10.371 6.2453L10.5472 6.072L10.7243 5.89901L10.8566 5.76904L11.0777 5.59605L11.2539 5.46608L11.4304 5.33642L11.7837 5.07678L12.0047 4.94712L12.1809 4.86047L12.6224 4.60083L12.8434 4.51418L13.0641 4.42784L13.2851 4.29787L13.5055 4.25486L13.7266 4.16821L13.947 4.08156L14.168 4.03824L14.4326 3.9519L14.6536 3.90857L14.874 3.86525L15.095 3.82192L15.3603 3.7786H15.5807L15.8017 3.73558H16.0663L16.2873 3.69226H16.5519L16.773 3.73558H17.2586L17.479 3.7786L17.7881 3.82192L18.0534 3.86525L18.3177 3.90857L18.5829 3.99491L18.8475 4.08156L19.1127 4.16821L19.3338 4.25486L19.5542 4.3412L19.8191 4.47117L20.0398 4.60083L20.2166 4.7308L20.437 4.86047L20.658 4.99044L20.8345 5.1201L21.0556 5.29309L21.2318 5.46608L21.4083 5.63938L21.5851 5.81237L21.7174 5.98535L21.8939 6.15834L22.0268 6.33164L22.1588 6.54795L22.2911 6.76426L22.4241 6.98057L22.5122 7.19689L22.6445 7.4132L22.7326 7.62951L22.8216 7.88945L22.8655 8.10577L22.9097 8.32208L22.9539 8.53839L22.9978 8.7547V9.18733L22.9539 9.40395V9.62026L22.8655 9.83657L22.8216 10.0529L22.7326 10.2692L22.6445 10.4855L22.5122 10.7018L22.3799 10.9181L22.2472 11.0914L22.0707 11.2644L21.8939 11.4374L21.7174 11.6104L21.497 11.7837L21.276 11.9134L21.0107 12L20.7464 12.1297L20.4812 12.2163L20.2166 12.2596L19.9514 12.3027L19.7303 12.3463H19.2447L19.0243 12.3027L18.7594 12.2596L18.5387 12.2163L18.2738 12.1297L18.0534 12.0433L17.8323 11.9134L17.6116 11.7837L17.3906 11.6104L17.1702 11.4807L16.9492 11.2644L16.773 11.0914L16.5958 10.9181L16.4635 10.7018L16.2873 10.4855L16.1986 10.2692L16.1102 10.0529L16.0221 9.79325L15.9782 9.53361L15.934 9.23065V8.79803L15.9782 8.58171L16.0221 8.45174L16.0663 8.32208L16.1102 8.23543L16.1986 8.14909L16.2431 8.01912L16.3312 7.84613L16.4635 7.62951L16.64 7.4132L16.8169 7.24021L16.9934 7.06722L17.1702 6.93725L17.4348 6.76426L17.7 6.67792L17.9649 6.54795L18.2738 6.50463L18.5387 6.41828H19.4218L19.7303 6.50463L20.0837 6.59127L20.3931 6.76426H20.437L20.4812 6.80759H20.7464L20.7903 6.76426H20.8345L20.8784 6.72094V6.67792L20.9226 6.6346V6.41828L20.8784 6.37496V6.33164L20.8345 6.28831L20.7903 6.2453L20.7464 6.20167L20.7022 6.15834Z" fill="#05B6C8"/>
</svg> -->


<svg width="54" height="18" viewBox="0 0 54 18" fill="none" xmlns="http://www.w3.org/2000/svg">
  <path fill-rule="evenodd" clip-rule="evenodd" d="M6.58192 17.1788V17.0058L6.53856 16.7892L6.4952 16.5732L6.45215 16.2702L6.4088 15.9676L6.36544 15.6213L6.32208 15.275L6.27873 14.9721L6.23568 14.6691L6.19232 14.4098L6.14896 14.2365V14.0635L6.06225 13.7605V13.4579L6.0192 13.1982L5.97584 12.9819V12.722L5.93249 12.506H5.88913L5.84577 12.7656L5.80273 13.0249L5.71601 13.2846L5.6293 13.5875L5.54289 13.8908V13.9338L5.49954 14.0635L5.45618 14.2365L5.36947 14.4531L5.28306 14.7561L5.19635 15.0584L5.06628 15.3617L4.97987 15.708L4.89316 16.0109L4.7634 16.3133L4.67668 16.6165L4.63333 16.8331L4.54692 17.0058L4.50356 17.1355V17.1788H3.24776V17.1355L3.2044 17.0058L3.16104 16.8331L3.07433 16.5732L2.98792 16.2702L2.85785 15.9676L2.64138 15.3183L2.55466 15.0154L2.46826 14.7561L2.38185 14.4961L2.29514 14.3234V14.1932L2.25178 14.1498L2.20842 13.8908L2.12171 13.6742L1.99195 13.1982L1.94859 12.9383L1.86188 12.722V12.506H1.81852V12.7656L1.77547 13.0686L1.73212 13.3279V13.5875L1.68876 13.8908L1.6454 14.1498V14.1932L1.60205 14.3664V14.5828L1.559 14.8424L1.51564 15.1457L1.47228 15.4913L1.42893 15.8376L1.38557 16.1839L1.34252 16.4869L1.29916 16.9628V17.1355L1.25581 17.1788H0L0.995974 10.6452H2.46826V10.6885L2.51161 10.8185L2.59833 10.9915L2.68473 11.2078L2.77145 11.5108L2.98792 12.1597L3.16104 12.8086L3.29111 13.1116L3.37752 13.4149L3.55064 13.9338V13.9771L3.63735 14.2801L3.72406 14.5394L3.81047 14.7994L3.85413 15.1017L3.94054 15.3617L4.02725 15.1017L4.07061 14.7994L4.15702 14.5394L4.24373 14.2801L4.33014 14.0202V13.9771L4.37349 13.8475L4.41685 13.6742L4.50356 13.4149L4.63333 13.1549L4.72004 12.8086L4.80644 12.506L4.93651 12.1597L5.06628 11.8134L5.15299 11.5108L5.2394 11.2508L5.32642 10.9915L5.36947 10.8185L5.41282 10.6885L5.45618 10.6452H6.92846L7.92444 17.1788H6.58192ZM11.0421 16.1839V17.2658H11.1719L11.3887 17.2218H11.5618L11.7783 17.1355L11.9514 17.0925L12.1248 17.0058L12.2979 16.9195L12.471 16.7892L12.6011 16.6595L12.7742 16.5299L12.8609 16.4005L12.9907 16.2269L13.1205 16.0542L13.2072 15.8806L13.2505 15.708L13.3373 15.4913L13.3806 15.275L13.4237 15.0584L13.467 14.8424V14.3664L13.4237 14.1498L13.3806 13.8908L13.3373 13.6742L13.2939 13.4579L13.2072 13.2846L13.1205 13.1116L12.9907 12.9819L12.904 12.8086L12.7742 12.722L12.6445 12.5923L12.471 12.506L12.3413 12.4193L12.1679 12.3327L11.9947 12.2897L11.7783 12.203H11.6051L11.3887 12.1597H11.0421V13.2413H11.302L11.5184 13.3279L11.6916 13.4149L11.8216 13.5445L11.9514 13.7172L12.0381 13.8908L12.0815 14.1498L12.1248 14.4098L12.1679 14.7127L12.1248 14.9721L12.0815 15.232L12.0381 15.448L11.9514 15.6646L11.8216 15.8376L11.7349 15.9676L11.5618 16.0542L11.3887 16.1406L11.2586 16.1839H11.0421Z" fill="#0C0C0C"/>
  <path fill-rule="evenodd" clip-rule="evenodd" d="M11.0425 13.2407V12.1591H10.9558L10.7393 12.2024L10.5228 12.2458L10.3064 12.2891L10.1332 12.3754L9.96012 12.4621L9.787 12.5484L9.61357 12.6784L9.4835 12.765L9.35374 12.8944L9.22397 13.068L9.0939 13.1977L9.00719 13.3703L8.92078 13.5439L8.83407 13.76L8.79071 13.9332L8.70431 14.1493L8.66064 14.3659V15.3178L8.70431 15.5777L8.74767 15.7937L8.83407 15.967L8.92078 16.1833L9.00719 16.3127L9.0939 16.4863L9.22397 16.6159L9.35374 16.7456L9.4835 16.8756L9.61357 16.9622L9.787 17.0486L9.96012 17.1349L10.1332 17.1782L10.3064 17.2213L10.5228 17.2652H11.0425V16.1833H10.8694L10.6529 16.14L10.4795 16.0537L10.3497 15.967L10.2199 15.837L10.1332 15.6641L10.0465 15.4474L10.0035 15.2314L9.96012 14.9715V14.3659L10.0465 14.1062L10.1332 13.8469L10.2199 13.6736L10.3931 13.5006L10.5228 13.3703L10.6963 13.284L10.8694 13.2407H11.0425ZM22.3444 16.2697V17.2652H23.0806L23.3404 17.2213L23.6003 17.1782L23.8167 17.0919L24.0766 17.0486L24.293 16.9622V16.7023L24.2063 16.2263V15.967L23.9465 16.0537L23.73 16.14L23.4705 16.2263L23.2537 16.2697H22.3444ZM22.3444 14.0629V14.9285H24.4228L24.4662 14.7122V13.9332L24.4228 13.7166L24.3798 13.5439L24.293 13.3703L24.2497 13.1977L24.163 13.0244L24.0332 12.8514L23.9465 12.7214L23.8167 12.5917L23.6436 12.5054L23.4705 12.3754L23.2971 12.3321L23.0806 12.2458L22.9075 12.2024L22.6476 12.1591H22.3444V13.111L22.3878 13.068L22.6476 13.111L22.8208 13.1977L22.9939 13.3273L23.1239 13.5439L23.2107 13.76V14.0629H22.3444Z" fill="#0C0C0C"/>
  <path fill-rule="evenodd" clip-rule="evenodd" d="M22.343 13.1098V12.1579H22.2133L21.9965 12.2012L21.78 12.2446L21.5635 12.2879L21.3904 12.3742L21.217 12.4609L21.0439 12.5905L20.9141 12.6772L20.7843 12.8068L20.6543 12.9801L20.5242 13.1098L20.4378 13.2828L20.3511 13.4994L20.2647 13.6724L20.2213 13.889L20.1777 14.105L20.1346 14.3216V15.2732L20.1777 15.4895L20.2213 15.7062L20.2647 15.8788L20.3511 16.0525L20.4378 16.2251L20.5242 16.3987L20.6109 16.5281L20.7407 16.6578L20.8707 16.7874L21.0008 16.8744L21.1739 16.961L21.3471 17.0474L21.5205 17.1337L21.6936 17.177L21.9101 17.22L22.0832 17.264H22.343V16.2685L22.2566 16.2251L22.0398 16.1821L21.8667 16.0525L21.737 15.9658L21.6069 15.7925L21.5205 15.6195L21.4335 15.4029L21.3904 15.1869V14.9273H22.343V14.0617H21.4335L21.4771 13.7587L21.5635 13.5427L21.737 13.3691L21.9101 13.1965L22.1266 13.1098H22.343ZM25.2009 13.1531L25.1145 13.0232L25.0711 12.8932V12.5905L25.1145 12.4609L25.1578 12.3309H25.4174L25.6341 12.2879H25.8937L26.1538 12.2446H27.1064V12.5472L27.0631 12.8932L27.0197 13.2395L27.1064 13.0668L27.2362 12.8502L27.3659 12.6772L27.4963 12.5042L27.6691 12.3742L27.8429 12.2879L28.059 12.2012L28.3192 12.1579H28.5784V12.3309L28.5353 12.7638V13.4131L28.3192 13.3691H28.1454L27.9726 13.4131L27.7989 13.4561L27.6691 13.5427L27.5827 13.6291L27.453 13.7587L27.3659 13.932L27.2795 14.148L27.2362 14.3647L27.1928 14.581V14.8839L27.1495 15.1869V17.177H25.937V13.2395L25.6772 13.1965L25.4607 13.1531H25.2009ZM33.8184 17.264H33.4288L33.0823 17.22L32.7788 17.177V16.3987L32.8221 16.1388L33.0389 16.2251L33.2984 16.2685H33.6016L33.8618 16.3115L34.2077 16.2685L34.4678 16.1388L34.5973 16.0091L34.6846 15.7925L34.6407 15.6628L34.5973 15.5332L34.5542 15.4462L34.4678 15.4029L34.3381 15.3166L34.2514 15.2732L34.1213 15.1869L33.9482 15.1439L33.8184 15.0999L33.688 15.0566L33.5152 14.9703L33.3855 14.9273L33.2551 14.8406L33.1253 14.7543L32.9956 14.624L32.8655 14.4943L32.7788 14.3216L32.7357 14.148L32.6924 13.9754V13.5427L32.7357 13.3691L32.7788 13.1965L32.8655 13.0232L32.9525 12.8932L33.0389 12.7638L33.212 12.6339L33.3418 12.5042L33.5586 12.4175L33.7314 12.3309L33.9482 12.2446L34.2077 12.2012L34.4678 12.1579H35.0742L35.3771 12.2012L35.6369 12.2446V13.2395L35.3337 13.1965L35.0306 13.1098H34.7277L34.3811 13.1531L34.1643 13.2395L34.0346 13.4131L33.9915 13.6291V13.7154L34.0346 13.8457L34.1213 13.932L34.2077 13.9754L34.2947 14.0617L34.4245 14.105L34.5542 14.148L34.6846 14.2347L34.8574 14.2783L34.9872 14.3216L35.1609 14.408L35.2904 14.4943L35.4201 14.581L35.5505 14.6673L35.6803 14.7976L35.8101 14.9273L35.8965 15.0566L35.9404 15.2302L35.9835 15.4462V15.8358L35.9404 16.0091L35.8965 16.1821L35.8101 16.3548L35.7236 16.4851L35.5939 16.6578L35.4635 16.7874L35.3337 16.8744L35.1609 16.961L34.9872 17.0474L34.771 17.1337L34.5542 17.22H34.2947L34.0779 17.264H33.8184ZM15.9342 12.2446V12.8502L15.8912 13.1531L16.0209 12.9801L16.1507 12.7638L16.2808 12.6339L16.4539 12.5042L16.627 12.3742L16.8438 12.2879L17.0603 12.2012L17.3198 12.1579H17.8395L18.0559 12.2012L18.2727 12.2879L18.4458 12.3742L18.5756 12.5042L18.7057 12.6339L18.8354 12.7638L18.8788 12.9365L18.9655 13.1098L19.0089 13.3261V17.177H17.7964V14.0184L17.7531 13.7587L17.7097 13.5427L17.5796 13.3691L17.4065 13.2395L17.19 13.1965L16.9736 13.2395L16.8004 13.2828L16.627 13.4131L16.4973 13.5427L16.3672 13.6724L16.2374 13.889L16.1507 14.0617L16.0643 14.3216V14.5377L16.0209 14.7976V17.177H14.7651V13.2395L14.5487 13.1965L14.2888 13.1531H14.029L13.9856 13.0232L13.9423 12.8932L13.8989 12.7202L13.9423 12.5905L13.9856 12.4609L14.029 12.3309H14.2455L14.5053 12.2879H14.7651L14.9816 12.2446H15.9342ZM30.9172 11.6386L30.6571 11.5953L30.4409 11.509L30.3105 11.336L30.1808 11.1194L30.1377 10.8597L30.1808 10.6434L30.3105 10.4271L30.4409 10.2541L30.6571 10.1675L30.9172 10.1241L31.1764 10.1675L31.3935 10.2541L31.5663 10.4271L31.6527 10.6434L31.6967 10.8597L31.6527 11.1194L31.5663 11.336L31.3935 11.509L31.1764 11.5953L30.9172 11.6386ZM31.5663 12.2446H30.5707L30.3105 12.2879H30.051L29.7912 12.3309H29.575L29.4877 12.4609L29.4446 12.5905V12.8932L29.4877 13.0232L29.575 13.1531H29.8342L30.0943 13.1965L30.3105 13.2395V17.177H31.5663V12.2446Z" fill="#0C0C0C"/>
  <path fill-rule="evenodd" clip-rule="evenodd" d="M48.8037 3.15834L48.63 3.02868L48.4138 2.85569L48.154 2.72572L47.9375 2.59605L47.6777 2.46608L47.4176 2.37974L47.158 2.29309L46.8548 2.20675L46.5953 2.16343L46.2921 2.07678H46.0753L45.8158 2.03346H44.8195L44.5166 2.07678L44.2568 2.1201L43.9973 2.16343L43.7371 2.24977L43.4773 2.33642L43.2178 2.42306L42.9577 2.50941L42.6975 2.63938L42.4813 2.76904L42.2215 2.89901L42.0053 3.02868L41.7452 3.15834L41.529 3.33164L41.2689 3.50463L41.0527 3.67792L40.8359 3.89393L40.6628 4.06722L40.4894 4.24021L40.2732 4.45652L40.1428 4.62951L39.9697 4.84613L39.7969 5.06244L39.6665 5.23543L39.5368 5.45174L39.407 5.66806L39.2766 5.88437L39.1902 6.10099L39.0605 6.3173L38.9741 6.53361L38.8437 6.79325L38.7573 7.00956L38.6709 7.2692L38.5845 7.52883L38.5411 7.78847L38.4541 8.0481L38.4107 8.26442L38.3674 8.52405L38.3243 8.78369V9.25964L38.281 9.47595V10.2115L38.3243 10.4712V10.6875L38.3674 10.9471L38.4107 11.2068L38.4541 11.4231L38.5411 11.6827L38.5845 11.9423L38.6709 12.1587L38.7573 12.375L38.8437 12.5913L38.9307 12.8076L39.0174 13.0239L39.1038 13.2402L39.2336 13.4568L39.3206 13.6298L39.4504 13.8464L39.5801 14.0624L39.7099 14.2354L39.84 14.4087L39.9697 14.5817L40.1428 14.755L40.5758 15.274L40.879 15.5772L41.1825 15.8796L41.3553 16.0099L41.529 16.1395L41.7018 16.2692L41.8756 16.3995L42.0484 16.5288L42.2215 16.6585L42.3949 16.7451L42.5681 16.8751L42.7848 16.9618L43.3476 17.2647L43.5204 17.3511L43.7371 17.4377L43.9533 17.5241L44.1704 17.5671L44.3866 17.6537L44.6034 17.6973L44.8195 17.7407L45.0363 17.827L45.2525 17.8703H45.4693L45.6854 17.9134L45.9022 17.9567H46.119L46.3355 18H47.2014L47.4176 17.9567H47.6343L47.8505 17.9134L48.0673 17.8703L48.2835 17.827L48.5005 17.7837L48.7173 17.7407L48.9765 17.6973L49.1933 17.6104L49.4098 17.5671L49.5832 17.4807L49.7994 17.3944L50.0162 17.308L50.2323 17.2208L50.4061 17.0914L50.6223 17.0048L50.7951 16.8751L51.0122 16.7882L51.185 16.6585L51.3584 16.5288L51.5315 16.3995L51.7049 16.2692L51.8781 16.0962L52.0509 15.9665L52.2246 15.7932L52.3974 15.6636L52.5272 15.4903L52.7009 15.3173L53.0041 14.971L53.1339 14.7983L53.2636 14.6247L53.394 14.4521L53.5235 14.2354L53.6102 14.0624L53.7399 13.8464L53.827 13.6298L53.9567 13.4138V13.3699L53.9998 13.2835V12.8939L53.9567 12.8076L53.9134 12.7209V12.6346L53.87 12.548L53.783 12.5049L53.7399 12.4616L53.6966 12.4183L53.6532 12.375L53.5668 12.3316H53.35L53.3067 12.375L53.2636 12.4183L53.2203 12.4616L53.1772 12.5049L53.0475 12.7209L52.9607 12.8939L52.8307 13.1105L52.6576 13.2835L52.3974 13.6731L52.2246 13.8464L52.0942 13.9761L51.9214 14.1488L51.7483 14.3224L51.5749 14.4521L51.4018 14.5817L51.2283 14.755L51.0122 14.8847L50.7951 15.0143L50.6223 15.1007L50.4061 15.231L50.1893 15.3173L49.9725 15.4036L49.7564 15.4903L49.5393 15.5772L49.3231 15.6636L49.1063 15.7069L48.8471 15.7499L48.63 15.8366H48.3708L48.154 15.8796H47.9375L47.7207 15.9229H47.0716L46.8548 15.8796H46.6387L46.4219 15.8366H46.2057L45.9889 15.7932L45.7725 15.7069L45.5557 15.6636L45.3395 15.6203L45.1227 15.5339L44.9066 15.447L44.6898 15.3606L44.4736 15.274L44.2999 15.1876L44.0837 15.1007L43.9103 15.0143L43.7371 14.8847L43.5643 14.755L43.3476 14.6681L43.1738 14.5384L43.001 14.4087L42.8279 14.2791L42.6545 14.1488L42.5247 13.9761L42.3516 13.8464L42.1782 13.6731L42.0484 13.5002L41.8756 13.3269L41.7452 13.1539L41.4423 12.8076L41.3123 12.6346L41.1825 12.375L41.0088 12.1587L40.879 11.9423L40.7926 11.6827L40.6628 11.4231L40.5758 11.1634L40.4894 10.9471L40.403 10.6875L40.3596 10.4278L40.2732 10.1682L40.2299 9.90857L40.1865 9.64894V9.17299L40.1428 8.91335L40.1865 8.65372V8.39408L40.2299 8.13445L40.2732 7.87481L40.3163 7.57216L40.403 7.31252L40.4894 7.00956L40.5758 6.74992L40.6628 6.44696L40.7926 6.18733L40.9223 5.928L41.0958 5.66806L41.2255 5.40873L41.3987 5.19211L41.5721 4.97579L41.7452 4.75948L41.9186 4.54317L42.0917 4.37018L42.3085 4.19689L42.5247 4.0239L42.6111 3.93725L42.7415 3.85091L42.8279 3.80759L42.9577 3.72094L43.0441 3.6346L43.1738 3.59127L43.2611 3.50463L43.3906 3.46161L43.5204 3.37496L43.6074 3.33164L43.7371 3.28831L43.8239 3.20167L43.9973 3.15834L44.0837 3.11532L44.2568 3.072L44.3866 3.02868L44.5166 2.98535L44.6464 2.94203H44.7762L44.9066 2.89901H45.0363L45.1661 2.85569H45.4262L45.2958 2.89901L45.2091 2.94203L45.0797 2.98535L44.993 3.02868L44.8626 3.072L44.7762 3.11532L44.6464 3.20167L44.56 3.2453L44.4736 3.33164L44.3432 3.41828L44.2568 3.46161L44.1271 3.54795L44.0837 3.59127L43.9973 3.67792L43.9533 3.72094L43.9103 3.80759L43.8239 3.85091L43.7805 3.93725L43.7371 3.98057L43.6507 4.06722L43.4773 4.28353L43.434 4.37018L43.3042 4.58649L43.1738 4.80281L43.0441 5.01912L42.9577 5.27875L42.8712 5.49507L42.8279 5.7547L42.7415 6.01434L42.6975 6.23065L42.6545 6.49029V7.39886L42.6975 7.87481V8.09143L42.7415 8.30774L42.8279 8.52405L42.8712 8.78369L42.9577 9L43.0441 9.17299L43.1308 9.3893L43.2178 9.60561L43.3042 9.82193L43.3906 9.99491L43.5204 10.2115L43.6507 10.3845L43.7805 10.6011L43.9103 10.7738L44.2135 11.1201L44.3866 11.2498L44.5166 11.4231L44.6898 11.5961L44.8626 11.726L45.0797 11.899L45.2525 12.0287L45.4693 12.1153L45.6424 12.2453L45.8592 12.375L46.0753 12.4616L46.2921 12.548L46.5083 12.6346L46.7251 12.7209L46.9846 12.8076L47.2447 12.8509L47.5046 12.9373L47.7641 12.9809H48.0242L48.2404 13.0239H49.1503L49.4098 12.9809L49.713 12.9373L49.9725 12.8509L50.2323 12.8076L50.4925 12.7209L50.7087 12.5913L50.9688 12.5049L51.185 12.375L51.4018 12.2453L51.6179 12.1153L51.8347 11.9857L52.0078 11.8124L52.268 11.6394L52.4408 11.4231L52.6576 11.2068L52.8307 10.9471L53.0041 10.7308L53.1339 10.5145L53.2636 10.2549L53.394 9.99491L53.4804 9.7786L53.5668 9.51927L53.6532 9.25964L53.6966 9L53.783 8.65372L53.827 8.30774V7.22587L53.783 6.96624V6.7066L53.6966 6.23065L53.5668 5.7547L53.5235 5.53839L53.4371 5.32208L53.35 5.06244L53.2636 4.84613L53.1772 4.58649L53.0905 4.37018L52.9607 4.15387L52.8307 3.93725L52.744 3.72094L52.6142 3.50463L52.4841 3.33164L52.311 3.11532L52.1813 2.89901L52.0509 2.72572L51.8781 2.55273L51.7483 2.37974L51.5749 2.16343L51.4018 1.99044L51.2283 1.81714L51.0552 1.64416L50.839 1.51418L50.6656 1.3412L50.4925 1.16821L50.2757 1.03824L49.8428 0.735585L49.6266 0.605613L49.4098 0.475948H49.3664L49.3231 0.432625H49.0633L49.0199 0.475948L48.9765 0.518965V0.648936L49.0199 0.69226V0.735585L49.0633 0.778601V0.821925L49.1063 0.865248H49.1503L49.1933 0.908573L49.2367 0.951896L49.4529 1.08156L49.6696 1.21122L49.8858 1.3412L50.1029 1.51418L50.3191 1.64416L50.4925 1.81714L50.7087 1.99044L50.8824 2.16343L51.0552 2.33642L51.2283 2.50941L51.4018 2.6827L51.5315 2.85569L51.7049 3.072L51.8347 3.28831L51.9645 3.46161L52.0942 3.67792L52.2246 3.89393L52.3544 4.11024L52.5712 4.54317L52.6576 4.80281L52.744 5.01912L52.8307 5.23543L52.8737 5.49507L52.9607 5.71138L53.0041 5.928L53.0475 6.18733L53.0905 6.40395V6.66358L53.1339 6.8799V7.35554L53.0905 7.61517V7.91813L53.0475 8.17777L52.9607 8.48073L52.8737 8.78369L52.7873 9.04332L52.6576 9.30265L52.5272 9.5626L52.3544 9.82193L52.1813 10.0819L51.9645 10.2982L51.7049 10.5145L51.4451 10.7308L51.185 10.9038L50.8824 11.0768L50.5789 11.2498L50.3191 11.3367L50.0595 11.3797L49.7994 11.4661L49.5393 11.5097L49.28 11.553H48.3708L48.0673 11.5097L47.7641 11.4231L47.4615 11.3367L47.158 11.2498L46.9846 11.2068L46.8548 11.1201L46.6817 11.0768L46.5516 10.9904L46.3785 10.9038L46.2488 10.8175L46.119 10.7308L45.9456 10.6011L45.8158 10.5145L45.5557 10.2982L45.4693 10.1682L45.7288 10.2982L45.9456 10.3845L46.2057 10.4712L46.5083 10.5575L46.7684 10.6011L47.0283 10.6442H47.8075L48.0673 10.6011H48.3274L48.5436 10.5145L48.8471 10.4278L49.1063 10.3412L49.3231 10.2549L49.5832 10.1249L49.8858 9.9519L50.1459 9.7786L50.4061 9.5626L50.6223 9.34628L50.839 9.12967L51.0122 8.87003L51.185 8.61039L51.3584 8.35076L51.4882 8.09143L51.5749 7.83179L51.6613 7.52883L51.7483 7.2692L51.7917 7.00956L51.8347 6.7066V6.18733L51.7917 5.928L51.7483 5.62504L51.7049 5.3651L51.6613 5.10577L51.5749 4.84613L51.4882 4.62951L51.4018 4.37018L51.272 4.15387L51.185 3.93725L51.0552 3.72094L50.9254 3.50463L50.7951 3.28831L50.6656 3.11532L50.4925 2.89901L50.1893 2.55273L50.0595 2.37974L49.8858 2.20675L49.713 2.03346L49.4962 1.86047L49.3231 1.7308L49.1503 1.55751L48.9335 1.42784L48.7173 1.29787L48.5005 1.16821L48.3274 1.03824L48.0673 0.908573L47.8505 0.778601L47.6343 0.69226L47.4176 0.605613L47.2014 0.518965L46.9846 0.432625L46.7684 0.345976L46.5083 0.302653L46.2921 0.216312L46.032 0.172988L45.8158 0.129665L45.5557 0.08634H45.3395L45.1227 0.0433235H44.8626L44.6464 0H43.5204L43.3042 0.0433235H43.0874L42.8279 0.08634L42.6111 0.129665H42.3949L42.1782 0.216312H41.962L41.7018 0.302653L41.4857 0.345976L41.2689 0.432625L41.0527 0.475948L40.8359 0.562288L40.5758 0.648936L40.3596 0.735585L40.1428 0.821925L39.9267 0.908573L39.7099 0.994913L39.4937 1.12488L39.3206 1.21122L39.1038 1.3412L38.9307 1.42784L38.7573 1.55751L38.5411 1.68748L38.3674 1.81714L38.1946 1.94712L38.0208 2.07678L37.8047 2.20675L37.6319 2.33642L37.4581 2.50941L37.2853 2.63938L36.9821 2.98535L36.809 3.11532L36.6356 3.28831L36.5058 3.46161L36.3321 3.6346L36.2023 3.80759L36.0729 3.98057L35.9431 4.15387L35.5965 4.67314L35.4662 4.88945L35.3798 5.06244L35.25 5.23543L35.1636 5.45174L35.0769 5.62504L34.9465 5.84135L34.8601 6.05766L34.7737 6.27398L34.6873 6.49029L34.6433 6.7066L34.5569 6.92291L34.5136 7.13922L34.4271 7.35554L34.3838 7.57216V7.87481L34.4271 7.96146L34.5136 8.0481L34.6 8.09143L34.6873 8.17777L34.7737 8.22109L34.9035 8.26442H35.3364L35.5098 8.22109L35.6396 8.17777L35.7694 8.13445L35.9431 8.09143L36.0295 8.00478L36.1593 7.96146L36.2457 7.87481L36.3321 7.78847L36.4194 7.70182L36.5058 7.57216L36.5489 7.48551V7.39886L36.5922 7.13922L36.6356 6.92291L36.722 6.7066L36.765 6.49029L36.809 6.27398L36.8954 6.05766L36.9821 5.84135L37.0685 5.62504L37.1549 5.40873L37.2419 5.23543L37.3717 5.01912L37.4581 4.84613L37.5879 4.62951L37.6749 4.45652L37.8047 4.28353L37.9344 4.11024L38.0648 3.93725L38.1946 3.76426L38.4978 3.41828L38.6709 3.2453L38.8437 3.072L39.0174 2.89901L39.1472 2.76904L39.364 2.59605L39.5368 2.46608L39.7099 2.33642L40.0564 2.07678L40.2732 1.94712L40.446 1.86047L40.879 1.60083L41.0958 1.51418L41.3123 1.42784L41.529 1.29787L41.7452 1.25486L41.962 1.16821L42.1782 1.08156L42.3949 1.03824L42.6545 0.951896L42.8712 0.908573L43.0874 0.865248L43.3042 0.821925L43.5643 0.778601H43.7805L43.9973 0.735585H44.2568L44.4736 0.69226H44.7331L44.9499 0.735585H45.4262L45.6424 0.778601L45.9456 0.821925L46.2057 0.865248L46.4649 0.908573L46.7251 0.994913L46.9846 1.08156L47.2447 1.16821L47.4615 1.25486L47.6777 1.3412L47.9375 1.47117L48.154 1.60083L48.3274 1.7308L48.5436 1.86047L48.7604 1.99044L48.9335 2.1201L49.1503 2.29309L49.3231 2.46608L49.4962 2.63938L49.6696 2.81237L49.7994 2.98535L49.9725 3.15834L50.1029 3.33164L50.2323 3.54795L50.3621 3.76426L50.4925 3.98057L50.5789 4.19689L50.7087 4.4132L50.7951 4.62951L50.8824 4.88945L50.9254 5.10577L50.9688 5.32208L51.0122 5.53839L51.0552 5.7547V6.18733L51.0122 6.40395V6.62026L50.9254 6.83657L50.8824 7.05288L50.7951 7.2692L50.7087 7.48551L50.5789 7.70182L50.4491 7.91813L50.3191 8.09143L50.1459 8.26442L49.9725 8.43741L49.7994 8.61039L49.5832 8.78369L49.3664 8.91335L49.1063 9L48.8471 9.12967L48.5869 9.21631L48.3274 9.25964L48.0673 9.30265L47.8505 9.34628H47.3742L47.158 9.30265L46.8982 9.25964L46.6817 9.21631L46.4219 9.12967L46.2057 9.04332L45.9889 8.91335L45.7725 8.78369L45.5557 8.61039L45.3395 8.48073L45.1227 8.26442L44.9499 8.09143L44.7762 7.91813L44.6464 7.70182L44.4736 7.48551L44.3866 7.2692L44.2999 7.05288L44.2135 6.79325L44.1704 6.53361L44.1271 6.23065V5.79803L44.1704 5.58171L44.2135 5.45174L44.2568 5.32208L44.2999 5.23543L44.3866 5.14909L44.4302 5.01912L44.5166 4.84613L44.6464 4.62951L44.8195 4.4132L44.993 4.24021L45.1661 4.06722L45.3395 3.93725L45.599 3.76426L45.8592 3.67792L46.119 3.54795L46.4219 3.50463L46.6817 3.41828H47.5479L47.8505 3.50463L48.1971 3.59127L48.5005 3.76426H48.5436L48.5869 3.80759H48.8471L48.8901 3.76426H48.9335L48.9765 3.72094V3.67792L49.0199 3.6346V3.41828L48.9765 3.37496V3.33164L48.9335 3.28831L48.8901 3.2453L48.8471 3.20167L48.8037 3.15834Z" fill="#121212"/>
</svg>
