<!-- <?xml version="1.0" encoding="UTF-8"?><svg id="Layer_1" xmlns="http://www.w3.org/2000/svg" viewBox="0 0 80 80"><defs><style>.cls-1{fill:#fcfcfc;}.cls-2{fill:#173851;}.cls-3{fill:#45c9a5;}.cls-4{fill:none;stroke:#45c9a5;stroke-linecap:round;stroke-linejoin:round;stroke-width:1.3px;}</style></defs><g><path class="cls-2" d="M68.34,55.55q-2.2,0-2.22-2.15c0-.12,0-.25,0-.37-.02-.55-.3-.89-.85-.87-.54,.02-.65-.18-.65-.69,.02-4.24,.01-8.48,0-12.72,0-.42,.02-.7,.58-.66,.73,.06,.94-.4,.94-1.05,0-.67-.21-1.53,.12-1.96,.36-.45,1.26-.13,1.92-.15,.75-.02,1.04-.4,1.03-1.1,0-.92-.03-1.84,.02-2.76,.03-.57-.18-.9-.65-1.19-4.89-3.12-9.77-6.25-14.64-9.4-2.69-1.74-2.54-1.73-5.19,0-1.76,1.15-3.54,2.28-5.42,3.48l-2.28,1.49c-2.32,1.43-4.6,2.94-6.91,4.39-.47,.29-.69,.62-.66,1.19,.05,.86,.01,1.72,.02,2.58,0,1.1,.19,1.29,1.27,1.3q1.81,.02,1.67,1.84c0,.09-.01,.18-.03,.28-.14,.93,.07,1.21,.97,1.09,.49-.06,.57,.1,.57,.52,0,4.3-.01,8.6,0,12.9,0,.43-.09,.6-.56,.59-.71-.03-.96,.4-.95,1.07,.02,.55-.03,1.11,.01,1.66,.03,.51-.12,.72-.66,.68-.64-.04-1.29,.02-1.93-.02-.81-.04-1.19,.26-1.16,1.12,.04,.95,0,1.91,.01,2.86,0,1.22,.09,1.3,1.33,1.3,6.08,0,12.16,0,18.25,0h16.04q1.67,0,1.67-1.62v-2.03q0-1.62-1.66-1.62Zm-25.72-16.81c0-.46,.1-.68,.61-.64,.67,.04,.92-.37,.93-.98,0-.06,0-.12,0-.18,.08-.66-.3-1.72,.17-1.89,.84-.31,1.87-.1,2.82-.1,.3,0,.3,.25,.3,.47,0,.55,.01,1.11,0,1.66-.02,.66,.22,1.1,.95,1.04,.55-.05,.57,.25,.57,.66-.01,2.12,0,4.24,0,6.36s0,4.18,0,6.27c0,.48,0,.82-.66,.77-.6-.04-.87,.35-.85,.95,0,.12,0,.25,0,.37-.06,.66,.31,1.67-.15,1.92-.84,.44-1.91,.14-2.89,.14-.36,0-.29-.33-.29-.56,0-.59,0-1.17,0-1.75,0-.65-.24-1.09-.96-1.07-.46,.02-.56-.18-.56-.6,.01-4.27,.01-8.54,0-12.81Zm12.67-3.67c.82-.33,1.86-.12,2.81-.14,.31,0,.32,.21,.32,.44,0,.46,.02,.92,0,1.38-.04,.8,.1,1.44,1.12,1.36,.41-.03,.43,.24,.43,.53,0,4.33,0,8.67,0,13,0,.42-.18,.52-.55,.51-.71-.02-.98,.39-.97,1.05,0,.18,0,.37,0,.55q0,1.8-1.85,1.8-1.5,0-1.5-1.5c0-.34,0-.68,0-1.01,0-.56-.29-.91-.83-.87-.64,.05-.67-.26-.67-.76,.02-2.09,0-4.18,0-6.27s0-4.18,0-6.27c0-.49,.02-.83,.66-.77,.56,.06,.84-.29,.86-.85,0-.06,0-.12,0-.18,.07-.69-.31-1.8,.16-1.99Zm-4.83,3.79c0-.71,.29-.77,.87-.77,.56,0,.81,.09,.8,.74-.04,2.09-.02,4.18-.02,6.26s-.03,4.18,.02,6.26c.02,.72-.29,.77-.86,.77-.55,0-.81-.08-.8-.74,.03-4.18,.03-8.35,0-12.53Zm2.53,14.78c.8-.04,.63,.49,.6,.91-.03,.4,.32,1.07-.58,1.01-.58-.04-1.17,0-1.75,0-.4,0-.81-.05-1.19,0-.9,.14-1.16-.2-1.1-1.09,.04-.61,.13-.87,.81-.83,1.07,.06,2.15,.06,3.22,0Zm.62-17.72c.09,.47-.03,.75-.62,.69-.57-.06-1.16-.01-1.74-.01h0c-.49,0-.99-.07-1.46,0-.76,.12-.81-.23-.84-.86-.03-.72,.22-.87,.88-.84,1.07,.06,2.14,.05,3.2,0,.91-.04,.51,.61,.58,1Zm11,18.63c-.03,.42,.27,1.06-.6,1.01-.58-.03-1.16,0-1.74,0-.4,0-.8-.05-1.19,.01-.89,.13-1.17-.2-1.11-1.09,.04-.6,.14-.87,.81-.83,1.07,.06,2.14,.05,3.2,0,.77-.03,.65,.47,.62,.91Zm-3.11-9.41c0-2.11,.02-4.23-.02-6.34,0-.6,.21-.74,.74-.7,.45,.04,.9-.1,.89,.65-.03,4.26-.03,8.52,0,12.78,0,.73-.44,.57-.85,.59-.46,.02-.81,.04-.79-.64,.05-2.11,.02-4.23,.02-6.34Zm3.12-9.21c.07,.38,.05,.73-.53,.69-.61-.05-1.22-.01-1.83-.01h0c-.43-.01-.85-.01-1.28,0-.95,0-1.29-.49-1.01-1.4,.09-.3,.29-.26,.49-.26,1.22,0,2.44,0,3.66,0,.84,0,.43,.63,.49,1Zm-28.92-2.51c-1.01,.07-.61-.67-.67-1.13-.07-.5-.02-.84,.69-.83,5.25,.03,10.51,.02,15.76,.02s10.2,.02,15.3-.02c.85,0,.9,.31,.92,1,.02,.74-.16,1.02-.96,.98-4.88-.24-9.76,.03-14.64-.06-4.7-.09-9.4-.02-14.1-.02-.77,0-1.53,.02-2.3,.07Zm2.26,1.8c.09-.3,.28-.28,.48-.28,1.22,0,2.44,.02,3.67,0,.76-.02,.5,.53,.51,.9,.02,.36,.16,.84-.52,.8-.61-.04-1.22,0-1.83,0h0c-.43-.01-.85-.02-1.28-.01-.98,0-1.3-.44-1.03-1.38Zm3.13,9.98c0,2.09-.02,4.18,.02,6.27,.01,.61-.24,.71-.76,.69-.48-.02-.87,.04-.86-.69,.03-4.21,.03-8.42,0-12.63,0-.66,.26-.74,.81-.74,.56,0,.81,.09,.8,.74-.04,2.12-.02,4.24-.02,6.36Zm-3.1,9.1c-.13-.56,.18-.64,.69-.58,.54,.06,1.1,.02,1.64,.02h0c.43,0,.87,.09,1.28,0,.96-.23,1.02,.26,1.01,1.01,0,.6-.12,.88-.8,.84-1.07-.06-2.14-.02-3.2-.01-1.09,0-.5-.81-.62-1.27Z"/><path class="cls-3" d="M37,29.87c3.17-2.04,6.18-3.98,9.19-5.92,1.52-.98,3.05-1.95,4.56-2.94,.41-.27,.74-.3,1.17-.03,4.45,2.88,8.92,5.75,13.38,8.62,.08,.05,.16,.1,.44,.27h-28.74Z"/><path class="cls-3" d="M51.28,59.31c-5.4,0-10.81-.01-16.21,.02-.69,0-.88-.18-.86-.86,.05-1.39,0-1.4,1.42-1.39,1.01,0,2.03,.02,3.04,.02,9.64,0,19.28-.01,28.92,0,.3,0,.79-.2,.86,.25,.09,.62,.2,1.3-.08,1.89-.11,.22-.51,.09-.78,.09-5.43,0-10.87,0-16.3,0Z"/></g><g><g><path class="cls-3" d="M19.38,60.35c-4.81-.01-8.73-3.99-8.73-8.86,0-4.87,3.92-8.84,8.74-8.84,4.82,0,8.74,3.98,8.73,8.86,0,4.88-3.91,8.84-8.72,8.84h-.02Z"/><path class="cls-2" d="M19.39,42v1.3c4.46,0,8.08,3.69,8.08,8.21,0,4.52-3.62,8.19-8.09,8.19-4.46-.01-8.08-3.7-8.08-8.21,0-4.52,3.63-8.19,8.09-8.19h0v-1.3m0,0c-5.18,0-9.38,4.25-9.38,9.49,0,5.26,4.17,9.5,9.37,9.51h.03c5.18,0,9.36-4.24,9.37-9.49,0-5.26-4.18-9.5-9.37-9.51h0Z"/></g><path class="cls-1" d="M21.76,54.6c-.4,.41-.91,.68-1.53,.82v.71c0,.2-.07,.37-.2,.5-.13,.13-.3,.2-.5,.2s-.35-.07-.48-.2c-.13-.13-.2-.3-.2-.5v-.65c-.41-.04-.79-.13-1.14-.27-.34-.14-.67-.35-1-.62-.21-.18-.31-.39-.31-.61,0-.18,.07-.33,.2-.47,.13-.13,.29-.2,.47-.2,.15,0,.28,.05,.39,.14,.24,.19,.46,.34,.68,.46,.21,.11,.45,.19,.7,.22v-2.25c-1.54-.28-2.32-1.06-2.32-2.32,0-.64,.21-1.16,.65-1.57,.43-.41,.99-.66,1.67-.75v-.38c0-.2,.07-.37,.2-.5,.13-.13,.3-.2,.5-.2s.35,.07,.48,.2c.13,.13,.2,.3,.2,.5v.43c.65,.12,1.19,.35,1.61,.71,.22,.18,.33,.38,.33,.61,0,.18-.07,.33-.2,.47-.13,.13-.28,.2-.46,.2-.12,0-.22-.03-.31-.1-.23-.19-.56-.36-.98-.5v2.13c.75,.18,1.29,.44,1.62,.78,.34,.34,.51,.84,.51,1.5,0,.59-.2,1.09-.6,1.5Zm-3.63-4.47c.16,.16,.4,.28,.71,.37v-1.91c-.32,.06-.55,.17-.71,.33-.16,.16-.24,.36-.24,.59,0,.25,.08,.46,.24,.62Zm2.64,3.54c.14-.15,.21-.31,.21-.49,0-.21-.06-.4-.18-.56-.12-.16-.31-.29-.56-.4v1.81c.22-.09,.4-.21,.54-.36Z"/></g><g><path class="cls-4" d="M13.28,40.04c-1.64-6.87,3.06-13.03,11.86-12.61"/><path class="cls-3" d="M24.61,27.44c-1.15-1.54-1.41-4.29-1.2-6.14,1.49,2.74,3.57,5.25,6.29,6.88-3.07,.74-5.69,2.7-7.98,4.82,.44-1.95,1.27-4.28,2.88-5.55Z"/></g></svg> -->

<svg xmlns="http://www.w3.org/2000/svg" width="61" height="18" viewBox="0 0 61 18" fill="none">
<path d="M0 4.87558C0 4.60325 0.158865 4.35595 0.406543 4.24272L6.43089 1.48873C7.10984 1.17836 7.89016 1.17836 8.56911 1.48873L14.5935 4.24272C14.8411 4.35595 15 4.60325 15 4.87558V4.87558C15 5.25989 14.6885 5.57143 14.3042 5.57143H0.695848C0.311542 5.57143 0 5.25989 0 4.87558V4.87558Z" fill="#2F3448"/>
<rect y="6.14258" width="15" height="1.14286" rx="0.571429" fill="#2F3448"/>
<rect y="15.2856" width="15" height="1.71429" rx="0.51429" fill="#2F3448"/>
<rect x="1.25" y="7.85742" width="1.25" height="6.85714" rx="0.625" fill="#2F3448"/>
<rect x="1.25" y="7.85742" width="1.5625" height="1.14286" rx="0.571429" fill="#2F3448"/>
<rect x="1.25" y="13.5713" width="1.5625" height="1.14286" rx="0.571429" fill="#2F3448"/>
<rect x="0.937561" y="7.85742" width="1.875" height="1.14286" rx="0.571429" fill="#2F3448"/>
<rect x="0.9375" y="13.5713" width="1.875" height="1.14286" rx="0.571429" fill="#2F3448"/>
<rect x="5" y="7.85742" width="1.25" height="6.85714" rx="0.625" fill="#2F3448"/>
<rect x="5" y="7.85742" width="1.5625" height="1.14286" rx="0.571429" fill="#2F3448"/>
<rect x="5" y="13.5713" width="1.5625" height="1.14286" rx="0.571429" fill="#2F3448"/>
<rect x="4.68732" y="7.85742" width="1.875" height="1.14286" rx="0.571429" fill="#2F3448"/>
<rect x="4.68719" y="13.5713" width="1.875" height="1.14286" rx="0.571429" fill="#2F3448"/>
<rect x="8.75018" y="7.85742" width="1.25" height="6.85714" rx="0.625" fill="#2F3448"/>
<rect x="8.75018" y="7.85742" width="1.5625" height="1.14286" rx="0.571429" fill="#2F3448"/>
<rect x="8.75018" y="13.5713" width="1.5625" height="1.14286" rx="0.571429" fill="#2F3448"/>
<rect x="8.43768" y="7.85742" width="1.875" height="1.14286" rx="0.571429" fill="#2F3448"/>
<rect x="8.43781" y="13.5713" width="1.875" height="1.14286" rx="0.571429" fill="#2F3448"/>
<rect x="12.4998" y="7.85742" width="1.25" height="6.85714" rx="0.625" fill="#2F3448"/>
<rect x="12.4998" y="7.85742" width="1.5625" height="1.14286" rx="0.571429" fill="#2F3448"/>
<rect x="12.4998" y="13.5713" width="1.5625" height="1.14286" rx="0.571429" fill="#2F3448"/>
<rect x="12.1874" y="7.85742" width="1.875" height="1.14286" rx="0.571429" fill="#2F3448"/>
<rect x="12.1875" y="13.5713" width="1.875" height="1.14286" rx="0.571429" fill="#2F3448"/>
<g clip-path="url(#clip0_6881_95472)">
<rect x="6.25012" y="2.14258" width="2.5" height="2.66667" rx="1.25" fill="white"/>
<path d="M8.12086 3.07468C8.12086 2.83604 7.84298 2.64258 7.5002 2.64258C7.15742 2.64258 6.87954 2.83604 6.87954 3.07468C6.87954 3.31332 7.04881 3.44505 7.5002 3.44505C7.95159 3.44505 8.17729 3.5685 8.17729 3.87715C8.17729 4.18579 7.87415 4.30924 7.5002 4.30924C7.12626 4.30924 6.82312 4.11579 6.82312 3.87715" stroke="#F58E07" stroke-width="0.375003" stroke-linecap="round"/>
<path d="M7.55249 2.42041V2.61041M7.55249 4.53152V4.34152" stroke="#F58E07" stroke-width="0.375003" stroke-linecap="round" stroke-linejoin="round"/>
</g>
<path d="M29.6591 8.63636C29.6591 9.5767 29.483 10.3821 29.1307 11.0526C28.7813 11.7202 28.304 12.2315 27.6989 12.5866C27.0966 12.9418 26.4134 13.1193 25.6491 13.1193C24.8849 13.1193 24.2003 12.9418 23.5952 12.5866C22.9929 12.2287 22.5156 11.7159 22.1634 11.0483C21.8139 10.3778 21.6392 9.57386 21.6392 8.63636C21.6392 7.69602 21.8139 6.89205 22.1634 6.22443C22.5156 5.55398 22.9929 5.04119 23.5952 4.68608C24.2003 4.33097 24.8849 4.15341 25.6491 4.15341C26.4134 4.15341 27.0966 4.33097 27.6989 4.68608C28.304 5.04119 28.7813 5.55398 29.1307 6.22443C29.483 6.89205 29.6591 7.69602 29.6591 8.63636ZM28.0696 8.63636C28.0696 7.97443 27.9659 7.41619 27.7585 6.96165C27.554 6.50426 27.2699 6.15909 26.9062 5.92614C26.5426 5.69034 26.1236 5.57244 25.6491 5.57244C25.1747 5.57244 24.7557 5.69034 24.392 5.92614C24.0284 6.15909 23.7429 6.50426 23.5355 6.96165C23.331 7.41619 23.2287 7.97443 23.2287 8.63636C23.2287 9.2983 23.331 9.85795 23.5355 10.3153C23.7429 10.7699 24.0284 11.1151 24.392 11.3509C24.7557 11.5838 25.1747 11.7003 25.6491 11.7003C26.1236 11.7003 26.5426 11.5838 26.9062 11.3509C27.2699 11.1151 27.554 10.7699 27.7585 10.3153C27.9659 9.85795 28.0696 9.2983 28.0696 8.63636ZM34.4009 6.45455V7.64773H30.5316V6.45455H34.4009ZM31.4989 13V5.83665C31.4989 5.39631 31.5898 5.02983 31.7717 4.73722C31.9563 4.4446 32.2035 4.22585 32.5131 4.08097C32.8228 3.93608 33.1665 3.86364 33.5444 3.86364C33.8114 3.86364 34.0487 3.88494 34.256 3.92756C34.4634 3.97017 34.6168 4.00852 34.7163 4.04261L34.4094 5.2358C34.3441 5.21591 34.2617 5.19602 34.1623 5.17614C34.0629 5.15341 33.9521 5.14205 33.8299 5.14205C33.543 5.14205 33.3398 5.21165 33.2205 5.35085C33.104 5.48722 33.0458 5.68324 33.0458 5.93892V13H31.4989ZM38.9244 6.45455V7.64773H35.055V6.45455H38.9244ZM36.0224 13V5.83665C36.0224 5.39631 36.1133 5.02983 36.2951 4.73722C36.4798 4.4446 36.7269 4.22585 37.0366 4.08097C37.3462 3.93608 37.69 3.86364 38.0678 3.86364C38.3349 3.86364 38.5721 3.88494 38.7795 3.92756C38.9869 3.97017 39.1403 4.00852 39.2397 4.04261L38.9329 5.2358C38.8675 5.21591 38.7852 5.19602 38.6857 5.17614C38.5863 5.15341 38.4755 5.14205 38.3533 5.14205C38.0664 5.14205 37.8633 5.21165 37.744 5.35085C37.6275 5.48722 37.5692 5.68324 37.5692 5.93892V13H36.0224ZM41.6751 4.27273V13H40.1325V4.27273H41.6751ZM43.2614 13V6.45455H44.804V13H43.2614ZM44.0369 5.52557C43.7926 5.52557 43.5824 5.4446 43.4062 5.28267C43.2301 5.1179 43.142 4.92045 43.142 4.69034C43.142 4.45739 43.2301 4.25994 43.4062 4.09801C43.5824 3.93324 43.7926 3.85085 44.0369 3.85085C44.2841 3.85085 44.4943 3.93324 44.6676 4.09801C44.8438 4.25994 44.9318 4.45739 44.9318 4.69034C44.9318 4.92045 44.8438 5.1179 44.6676 5.28267C44.4943 5.4446 44.2841 5.52557 44.0369 5.52557ZM47.9329 9.16477V13H46.3903V6.45455H47.8647V7.56676H47.9414C48.092 7.20028 48.332 6.90909 48.6616 6.69318C48.994 6.47727 49.4045 6.36932 49.8931 6.36932C50.3448 6.36932 50.7383 6.46591 51.0735 6.65909C51.4116 6.85227 51.6729 7.1321 51.8576 7.49858C52.0451 7.86506 52.1374 8.30966 52.1346 8.83239V13H50.592V9.07102C50.592 8.63352 50.4783 8.29119 50.2511 8.04403C50.0266 7.79687 49.7156 7.6733 49.3178 7.6733C49.0479 7.6733 48.8079 7.73295 48.5977 7.85227C48.3903 7.96875 48.2269 8.13778 48.1076 8.35938C47.9911 8.58097 47.9329 8.84943 47.9329 9.16477ZM56.6005 13.1278C55.9442 13.1278 55.3775 12.9915 54.9002 12.7188C54.4258 12.4432 54.0607 12.054 53.805 11.5511C53.5494 11.0455 53.4215 10.4503 53.4215 9.76562C53.4215 9.09233 53.5494 8.50142 53.805 7.9929C54.0636 7.48153 54.4244 7.08381 54.8874 6.79972C55.3505 6.51278 55.8945 6.36932 56.5195 6.36932C56.9229 6.36932 57.3036 6.43466 57.6616 6.56534C58.0224 6.69318 58.3406 6.89205 58.6161 7.16193C58.8945 7.43182 59.1133 7.77557 59.2724 8.19318C59.4315 8.60795 59.511 9.10227 59.511 9.67614V10.1491H54.146V9.10938H58.0323C58.0295 8.81392 57.9656 8.55114 57.8406 8.32102C57.7156 8.08807 57.5408 7.90483 57.3164 7.77131C57.0948 7.63778 56.8363 7.57102 56.5408 7.57102C56.2255 7.57102 55.9485 7.64773 55.7099 7.80114C55.4712 7.9517 55.2852 8.15057 55.1516 8.39773C55.021 8.64205 54.9542 8.91051 54.9513 9.20312V10.1108C54.9513 10.4915 55.021 10.8182 55.1602 11.0909C55.2994 11.3608 55.494 11.5682 55.744 11.7131C55.994 11.8551 56.2866 11.9261 56.6218 11.9261C56.8462 11.9261 57.0494 11.8949 57.2312 11.8324C57.413 11.767 57.5707 11.6719 57.7042 11.5469C57.8377 11.4219 57.9386 11.267 58.0067 11.0824L59.4471 11.2443C59.3562 11.625 59.1829 11.9574 58.9272 12.2415C58.6744 12.5227 58.3505 12.7415 57.9556 12.8977C57.5607 13.0511 57.109 13.1278 56.6005 13.1278Z" fill="#2F3448"/>
<defs>
<clipPath id="clip0_6881_95472">
<rect x="6.25012" y="2.14258" width="2.5" height="2.66667" rx="1.25" fill="white"/>
</clipPath>
</defs>
</svg>