<!-- <?xml version="1.0" encoding="UTF-8"?><svg id="Layer_1" xmlns="http://www.w3.org/2000/svg" viewBox="0 0 80 80"><defs><style>.cls-1{fill:#002f87;}.cls-2{fill:#002169;}.cls-3{fill:#009ade;}</style></defs><g><path class="cls-3" d="M50.49,53.71h-4.67c-.32,0-.59,.23-.64,.55l-1.89,11.97c-.04,.24,.15,.45,.38,.45h2.39c.22,0,.41-.16,.45-.38l.54-3.39c.05-.32,.32-.55,.64-.55h1.48c3.07,0,4.85-1.49,5.31-4.44,.21-1.29,0-2.3-.6-3.01-.66-.78-1.84-1.19-3.4-1.19Zm.54,4.37c-.26,1.68-1.53,1.68-2.77,1.68h-.7l.49-3.13c.03-.19,.19-.33,.38-.33h.32c.84,0,1.64,0,2.05,.48,.25,.29,.32,.71,.23,1.3Z"/><path class="cls-1" d="M17.2,53.71h-4.67c-.32,0-.59,.23-.64,.55l-1.89,11.97c-.04,.24,.15,.45,.38,.45h2.23c.32,0,.59-.23,.64-.55l.51-3.23c.05-.32,.32-.55,.64-.55h1.48c3.07,0,4.85-1.49,5.31-4.44,.21-1.29,0-2.3-.6-3.01-.66-.78-1.84-1.19-3.4-1.19Zm.54,4.37c-.26,1.68-1.53,1.68-2.77,1.68h-.7l.49-3.13c.03-.19,.19-.33,.38-.33h.32c.84,0,1.64,0,2.05,.48,.25,.29,.32,.71,.23,1.3Z"/><path class="cls-1" d="M31.15,58.02h-2.23c-.19,0-.35,.14-.38,.33l-.1,.62-.16-.23c-.48-.7-1.56-.94-2.64-.94-2.47,0-4.58,1.87-4.99,4.5-.21,1.31,.09,2.56,.83,3.43,.68,.8,1.66,1.14,2.81,1.14,1.99,0,3.09-1.28,3.09-1.28l-.1,.62c-.04,.24,.15,.45,.38,.45h2.01c.32,0,.59-.23,.64-.55l1.21-7.65c.04-.24-.15-.45-.38-.45Zm-3.11,4.35c-.22,1.28-1.23,2.13-2.52,2.13-.65,0-1.17-.21-1.5-.6-.33-.39-.46-.95-.35-1.57,.2-1.27,1.23-2.15,2.5-2.15,.63,0,1.15,.21,1.49,.61,.34,.4,.48,.96,.38,1.58Z"/><path class="cls-3" d="M64.44,58.02h-2.23c-.19,0-.35,.14-.38,.33l-.1,.62-.16-.23c-.48-.7-1.56-.94-2.64-.94-2.47,0-4.58,1.87-4.99,4.5-.21,1.31,.09,2.56,.83,3.43,.68,.8,1.66,1.14,2.81,1.14,1.99,0,3.09-1.28,3.09-1.28l-.1,.62c-.04,.24,.15,.45,.38,.45h2.01c.32,0,.59-.23,.64-.55l1.21-7.65c.04-.24-.15-.45-.38-.45Zm-3.11,4.35c-.22,1.28-1.23,2.13-2.52,2.13-.65,0-1.17-.21-1.5-.6-.33-.39-.46-.95-.35-1.57,.2-1.27,1.23-2.15,2.5-2.15,.63,0,1.15,.21,1.49,.61,.34,.4,.48,.96,.38,1.58Z"/><path class="cls-1" d="M43.05,58.02h-2.25c-.21,0-.42,.11-.54,.28l-3.1,4.56-1.31-4.39c-.08-.27-.33-.46-.62-.46h-2.21c-.27,0-.45,.26-.37,.51l2.47,7.26-2.33,3.28c-.18,.26,0,.61,.32,.61h2.24c.21,0,.41-.1,.53-.28l7.47-10.78c.18-.26,0-.61-.32-.61Z"/><path class="cls-3" d="M67.07,54.03l-1.92,12.19c-.04,.24,.15,.45,.38,.45h1.93c.32,0,.59-.23,.64-.55l1.89-11.97c.04-.24-.15-.45-.38-.45h-2.16c-.19,0-.35,.14-.38,.33Z"/></g><g><path class="cls-3" d="M54.55,20.14c.47-3.01,0-5.06-1.63-6.92-1.79-2.04-5.03-2.92-9.18-2.92h-12.04c-.85,0-1.57,.62-1.7,1.45l-5.01,31.78c-.1,.63,.39,1.19,1.02,1.19h7.43l-.51,3.25c-.09,.55,.34,1.04,.89,1.04h6.26c.74,0,1.37-.54,1.49-1.27l.06-.32,1.18-7.48,.08-.41c.12-.73,.75-1.27,1.49-1.27h.94c6.07,0,10.82-2.46,12.21-9.59,.58-2.98,.28-5.47-1.25-7.21-.46-.53-1.04-.97-1.71-1.32h0"/><path class="cls-2" d="M54.55,20.14c.47-3.01,0-5.06-1.63-6.92-1.79-2.04-5.03-2.92-9.18-2.92h-12.04c-.85,0-1.57,.62-1.7,1.45l-5.01,31.78c-.1,.63,.39,1.19,1.02,1.19h7.43l1.87-11.84-.06,.37c.13-.84,.85-1.45,1.69-1.45h3.53c6.94,0,12.37-2.82,13.95-10.97,.05-.24,.09-.48,.12-.7"/><path class="cls-1" d="M37.31,20.18c.08-.5,.4-.92,.84-1.12,.2-.09,.42-.15,.65-.15h9.43c1.12,0,2.16,.07,3.11,.23,.27,.04,.54,.09,.79,.15s.51,.12,.75,.19c.12,.04,.24,.07,.36,.11,.47,.16,.9,.34,1.3,.55,.47-3.01,0-5.06-1.63-6.92-1.79-2.04-5.03-2.92-9.18-2.92h-12.04c-.85,0-1.57,.62-1.7,1.45l-5.01,31.78c-.1,.63,.39,1.19,1.02,1.19h7.43l1.87-11.84,2-12.71Z"/></g></svg> -->

<svg width="57" height="14" viewBox="0 0 57 14" fill="none" xmlns="http://www.w3.org/2000/svg">
  <path d="M21.3134 3.1311H18.1591C17.9433 3.1311 17.7597 3.28884 17.7261 3.50316L16.4503 11.6389C16.425 11.7994 16.5486 11.9441 16.7105 11.9441H18.2163C18.4322 11.9441 18.6157 11.7864 18.6494 11.5716L18.9935 9.37727C19.0267 9.16248 19.2107 9.00475 19.4261 9.00475H20.4246C22.5024 9.00475 23.7016 7.99341 24.0148 5.98929C24.1559 5.11249 24.0207 4.42357 23.6126 3.9411C23.1643 3.41131 22.3691 3.1311 21.3134 3.1311ZM21.6773 6.10249C21.5048 7.24094 20.64 7.24094 19.8038 7.24094H19.3279L19.6618 5.11481C19.6816 4.9863 19.7923 4.89167 19.9215 4.89167H20.1396C20.7092 4.89167 21.2465 4.89167 21.5242 5.21826C21.6898 5.41311 21.7405 5.70259 21.6773 6.10249Z" fill="#253B80"/>
  <path d="M30.7421 6.06583H29.2317C29.103 6.06583 28.9918 6.16047 28.972 6.28898L28.9051 6.71392L28.7995 6.5599C28.4725 6.08253 27.7433 5.92295 27.0155 5.92295C25.3464 5.92295 23.9207 7.19454 23.6431 8.9783C23.4987 9.86809 23.704 10.7189 24.2058 11.3123C24.6661 11.8578 25.3247 12.0851 26.1083 12.0851C27.4532 12.0851 28.199 11.2153 28.199 11.2153L28.1316 11.6375C28.1063 11.7989 28.2299 11.9437 28.3909 11.9437H29.7514C29.9678 11.9437 30.1504 11.7859 30.1845 11.5711L31.0009 6.37109C31.0267 6.21104 30.9036 6.06583 30.7421 6.06583ZM28.6367 9.02283C28.4909 9.89082 27.806 10.4735 26.9325 10.4735C26.4939 10.4735 26.1433 10.332 25.9183 10.0639C25.695 9.79757 25.6102 9.41855 25.6812 8.99639C25.8173 8.13583 26.5137 7.53413 27.3739 7.53413C27.8028 7.53413 28.1515 7.67748 28.3812 7.94794C28.6113 8.22119 28.7026 8.60253 28.6367 9.02283Z" fill="#253B80"/>
  <path d="M38.7867 6.06581H37.2688C37.124 6.06581 36.9879 6.13818 36.9058 6.25927L34.8124 9.36101L33.925 6.38035C33.8692 6.19385 33.6981 6.06581 33.5043 6.06581H32.0128C31.8315 6.06581 31.7056 6.24396 31.7632 6.41561L33.4352 11.3507L31.8633 13.5826C31.7397 13.7585 31.8643 14.0002 32.0778 14.0002H33.5938C33.7377 14.0002 33.8724 13.9297 33.954 13.8109L39.0025 6.48102C39.1234 6.30566 38.9993 6.06581 38.7867 6.06581Z" fill="#253B80"/>
  <path d="M43.8119 3.13111H40.6572C40.4418 3.13111 40.2583 3.28884 40.2246 3.50317L38.9489 11.6389C38.9235 11.7994 39.0471 11.9441 39.2081 11.9441H40.8269C40.9773 11.9441 41.106 11.8337 41.1295 11.6834L41.4916 9.37727C41.5248 9.16248 41.7088 9.00475 41.9242 9.00475H42.9223C45.0005 9.00475 46.1992 7.99341 46.5128 5.98929C46.6544 5.11249 46.5184 4.42358 46.1102 3.9411C45.6623 3.41131 44.8677 3.13111 43.8119 3.13111ZM44.1758 6.10249C44.0038 7.24094 43.139 7.24094 42.3024 7.24094H41.8269L42.1612 5.11481C42.1811 4.98631 42.2908 4.89167 42.4204 4.89167H42.6386C43.2077 4.89167 43.7455 4.89167 44.0232 5.21827C44.1888 5.41311 44.239 5.70259 44.1758 6.10249Z" fill="#179BD7"/>
  <path d="M53.2402 6.06584H51.7306C51.601 6.06584 51.4908 6.16048 51.4714 6.28898L51.4045 6.71393L51.2984 6.55991C50.9714 6.08254 50.2427 5.92295 49.5149 5.92295C47.8458 5.92295 46.4206 7.19454 46.143 8.9783C45.9991 9.86809 46.2034 10.7189 46.7052 11.3123C47.1664 11.8578 47.8241 12.0851 48.6077 12.0851C49.9526 12.0851 50.6984 11.2153 50.6984 11.2153L50.6311 11.6375C50.6057 11.7989 50.7293 11.9437 50.8912 11.9437H52.2513C52.4667 11.9437 52.6503 11.7859 52.6839 11.5711L53.5008 6.37109C53.5257 6.21104 53.4021 6.06584 53.2402 6.06584ZM51.1347 9.02284C50.9899 9.89082 50.3041 10.4735 49.4305 10.4735C48.9928 10.4735 48.6414 10.332 48.4163 10.0639C48.1931 9.79758 48.1091 9.41856 48.1792 8.99639C48.3162 8.13583 49.0117 7.53413 49.8719 7.53413C50.3008 7.53413 50.6495 7.67748 50.8792 7.94794C51.1103 8.22119 51.2016 8.60253 51.1347 9.02284Z" fill="#179BD7"/>
  <path d="M55.0209 3.35422L53.7263 11.6388C53.7009 11.7994 53.8245 11.9441 53.9855 11.9441H55.287C55.5033 11.9441 55.6869 11.7864 55.7201 11.5716L56.9967 3.43634C57.0221 3.27582 56.8985 3.13062 56.7375 3.13062H55.2801C55.1514 3.13108 55.0407 3.22572 55.0209 3.35422Z" fill="#179BD7"/>
  <path d="M3.35135 13.5249L3.59257 11.9838L3.05525 11.9713H0.489502L2.27257 0.599305C2.2781 0.564975 2.29609 0.532965 2.32238 0.510233C2.34867 0.487501 2.38234 0.474976 2.41739 0.474976H6.7436C8.17983 0.474976 9.17099 0.775593 9.68848 1.36894C9.93108 1.64729 10.0856 1.93817 10.1603 2.25827C10.2387 2.59414 10.2401 2.99543 10.1635 3.48486L10.158 3.52059V3.83419L10.4006 3.97244C10.6049 4.08146 10.7673 4.20625 10.8918 4.34914C11.0993 4.58713 11.2336 4.8896 11.2903 5.24821C11.3489 5.61702 11.3295 6.05589 11.2336 6.55274C11.1229 7.12429 10.9439 7.62207 10.7022 8.02939C10.4799 8.40469 10.1967 8.71598 9.86051 8.95722C9.5395 9.18639 9.15808 9.36036 8.72684 9.4717C8.30897 9.58119 7.83254 9.63639 7.30998 9.63639H6.97329C6.73254 9.63639 6.4987 9.72361 6.31513 9.87995C6.13111 10.0395 6.00935 10.2576 5.97199 10.496L5.94662 10.6347L5.52046 13.351L5.50109 13.4507C5.49601 13.4823 5.48725 13.498 5.47434 13.5087C5.46281 13.5184 5.4462 13.5249 5.43006 13.5249H3.35135Z" fill="#253B80"/>
  <path d="M10.6302 3.55676C10.6173 3.6398 10.6025 3.7247 10.5859 3.81192C10.0154 6.75825 8.06354 7.77608 5.57066 7.77608H4.30139C3.99653 7.77608 3.73963 7.99876 3.69213 8.30123L3.04227 12.4468L2.85825 13.6219C2.82734 13.8204 2.97955 13.9995 3.17879 13.9995H5.42999C5.69657 13.9995 5.92303 13.8047 5.965 13.5402L5.98714 13.4252L6.411 10.7196L6.43821 10.5712C6.47972 10.3058 6.70664 10.111 6.97322 10.111H7.30991C9.49101 10.111 11.1984 9.22025 11.6975 6.64273C11.9059 5.56598 11.798 4.66691 11.2464 4.0346C11.0794 3.84393 10.8724 3.68573 10.6302 3.55676Z" fill="#179BD7"/>
  <path d="M10.0334 3.31767C9.94624 3.29216 9.8563 3.26896 9.76406 3.24809C9.67136 3.22767 9.57634 3.20958 9.47857 3.19381C9.13634 3.13814 8.76137 3.11169 8.35965 3.11169H4.96879C4.88531 3.11169 4.80598 3.13072 4.73495 3.16504C4.5786 3.24066 4.46237 3.38958 4.43424 3.5719L3.71289 8.16745L3.69214 8.30152C3.73964 7.99905 3.99654 7.77637 4.30141 7.77637H5.57068C8.06355 7.77637 10.0154 6.75808 10.5859 3.81221C10.603 3.72499 10.6173 3.64009 10.6302 3.55705C10.4859 3.48004 10.3295 3.41417 10.1612 3.35803C10.1197 3.34412 10.0768 3.33066 10.0334 3.31767Z" fill="#222D65"/>
  <path d="M4.43413 3.57169C4.46227 3.38937 4.5785 3.24045 4.73485 3.1653C4.80634 3.13097 4.8852 3.11195 4.96869 3.11195H8.35955C8.76127 3.11195 9.13624 3.13839 9.47847 3.19406C9.57624 3.20984 9.67125 3.22793 9.76396 3.24834C9.8562 3.26922 9.94614 3.29241 10.0333 3.31793C10.0767 3.33092 10.1196 3.34437 10.1615 3.35782C10.3299 3.41396 10.4862 3.4803 10.6306 3.55684C10.8003 2.46803 10.6292 1.7267 10.0439 1.05541C9.39867 0.316391 8.2341 0 6.74391 0H2.41769C2.11329 0 1.85363 0.22268 1.80658 0.525617L0.00460701 12.0145C-0.0309067 12.2418 0.143433 12.4469 0.371275 12.4469H3.04218L3.71279 8.16724L4.43413 3.57169Z" fill="#253B80"/>
</svg>