<!-- <?xml version="1.0" encoding="UTF-8"?><svg id="Layer_1" xmlns="http://www.w3.org/2000/svg" viewBox="0 0 80 80"><defs><style>.cls-1{fill:#00aeef;}.cls-2{fill:#fff;}</style></defs><path class="cls-2" d="M53.67,26.56c-5.64-6.35-16.48-8.78-25.29-1.34-.31-.14-.18-.43-.18-.65q-.05-2.77-2.9-2.77t-2.94,2.89V63.9c-.15,.08-.27,.1-.38,.08,1.98,1.49,4.14,2.74,6.46,3.71-.16-.14-.26-.34-.26-.67,.02-4.42,0-8.84,0-13.55,8.66,7.3,19.59,5.39,25.5-1.14,6.37-7.03,6.38-18.57-.02-25.77Zm-5.26,22.9c-4.78,4.64-12.16,4.35-16.59-.63-4.54-5.1-4.64-13.28-.22-18.49,5.96-7.03,16.43-5.06,19.89,3.75,.37,.93,.64,1.91,.83,2.9,.17,.84,.16,1.7,.2,2.18,0,4.25-1.33,7.58-4.11,10.29Z"/><path class="cls-1" d="M69.99,40.68c0,.21-.01,.42-.02,.62,0,.22-.02,.45-.04,.67h0c-.01,.18-.02,.35-.04,.52-.42,5.01-2.08,9.72-4.69,13.78-.09,.13-.18,.27-.26,.4-.11,.16-.22,.33-.33,.49-.02,.02-.03,.04-.04,.05-.08,.12-.16,.23-.24,.34-.08,.12-.17,.23-.25,.35-.02,.03-.05,.06-.07,.09-.13,.18-.27,.35-.41,.53-.12,.16-.25,.31-.38,.47-.08,.1-.17,.2-.25,.3h0c-.14,.18-.29,.35-.43,.52-5.5,6.25-13.56,10.2-22.54,10.2-4.1,0-8-.82-11.56-2.31-.16-.14-.26-.34-.26-.67,.02-4.42,0-8.84,0-13.55,8.66,7.3,19.59,5.39,25.5-1.14,6.37-7.03,6.38-18.57-.02-25.77-5.64-6.35-16.48-8.78-25.29-1.34-.31-.14-.18-.43-.18-.65q-.05-2.77-2.9-2.77t-2.94,2.89V63.9c-.15,.08-.27,.1-.38,.08-4.75-3.57-8.41-8.53-10.37-14.26-.03-.07-.05-.14-.07-.22-.96-2.85-1.49-5.89-1.53-9.06,0-.41,0-.82,0-1.23,.06-2.31,.38-4.56,.93-6.71,.06-.23,.12-.46,.18-.68,0-.03,.02-.06,.02-.08,.06-.22,.12-.43,.19-.64v-.03c.07-.19,.13-.38,.19-.56,.04-.12,.08-.24,.12-.35,2.98-8.51,9.76-15.39,18.47-18.48,.15-.05,.3-.11,.45-.15,.17-.06,.33-.11,.5-.16,2.82-.88,5.81-1.35,8.92-1.35,1.81,0,3.58,.16,5.3,.47,.15,.03,.3,.05,.45,.08,8.41,1.73,15.93,7.1,20.27,14.52,0,0,0,.01,.01,.02,.08,.13,.15,.26,.22,.39,1.89,3.41,3.13,7.22,3.57,11.28,.02,.14,.03,.28,.04,.41,0,.06,0,.12,.01,.17,.02,.22,.04,.43,.05,.65v.12c.03,.34,.05,.67,.05,1.01,.02,.52,.02,1.04,0,1.56Z"/><path class="cls-1" d="M52.52,39.17c0,4.25-1.33,7.58-4.11,10.29-4.78,4.64-12.16,4.35-16.59-.63-4.54-5.1-4.64-13.28-.22-18.49,5.96-7.03,16.43-5.06,19.89,3.75,.37,.93,.64,1.91,.83,2.9,.17,.84,.16,1.7,.2,2.18Z"/></svg> -->

<svg width="62" height="14" viewBox="0 0 62 14" fill="none" xmlns="http://www.w3.org/2000/svg">
  <path d="M35.3174 0.282261V1.85796C33.3689 1.67809 32.1343 2.63682 32.1343 4.61185V10.7582H30.4834V4.65142C30.4834 1.53869 32.6648 -0.0370166 35.3174 0.282261Z" fill="#00AFF0"/>
  <path d="M44.0696 7.56604C43.3611 9.76052 41.6322 10.9981 39.2941 10.9981C36.3864 10.9981 34.1067 8.6435 34.1067 5.63059C34.1067 2.65726 36.3864 0.222656 39.1957 0.222656C41.8094 0.222656 44.3247 2.41803 44.3052 6.06859H35.7965C36.0127 8.2037 37.6237 9.46103 39.2941 9.46103C40.7288 9.46103 41.7509 8.76221 42.3009 7.56515L44.0696 7.56604ZM42.4577 4.55314C42.0449 2.87671 40.6695 1.75969 39.1957 1.75969C37.8008 1.75969 36.3271 2.79666 35.8949 4.55314H42.4577Z" fill="#00AFF0"/>
  <path d="M51.9662 0.482422H49.9292L47.8921 3.47914L48.9133 4.98379L51.9662 0.482422ZM48.4775 5.62234L47.4572 4.12219L44.9907 0.482422H42.9465L46.4361 5.62234L42.9465 10.7632H44.9907L47.459 7.127L48.4793 5.62324L48.4775 5.62234ZM47.8903 7.76645L49.9274 10.7632H51.9644L48.9097 6.2618L47.8903 7.76645Z" fill="#00AFF0"/>
  <path d="M59.4813 0.482422H57.4443L55.4072 3.47914L56.4275 4.98379L59.4813 0.482422ZM55.9918 5.62234L54.9715 4.12219L52.5031 0.482422H50.4617L53.9503 5.62234L50.4617 10.7632H52.5031L54.9715 7.127L55.9927 5.62324L55.9918 5.62234ZM55.4055 7.76645L57.4425 10.7632H59.4849L56.4293 6.2618L55.4055 7.76645Z" fill="#00AFF0"/>
  <path d="M60.9716 0C61.175 7.66203e-08 61.3739 0.0612627 61.543 0.176038C61.7121 0.290813 61.8439 0.453943 61.9217 0.644793C61.9995 0.835643 62.0198 1.04564 61.9801 1.24821C61.9403 1.45079 61.8423 1.63684 61.6984 1.78283C61.5545 1.92883 61.3712 2.0282 61.1717 2.06839C60.9722 2.10858 60.7654 2.08777 60.5775 2.00861C60.3896 1.92944 60.2291 1.79546 60.1162 1.62363C60.0033 1.4518 59.9432 1.24983 59.9434 1.04327C59.9438 0.766571 60.0523 0.501351 60.2451 0.305776C60.4379 0.110202 60.6991 0.000237717 60.9716 0ZM60.9716 1.85181C61.1306 1.85881 61.2879 1.81735 61.4235 1.73277C61.559 1.64819 61.6665 1.52436 61.7322 1.37721C61.7979 1.23006 61.8187 1.06632 61.7919 0.907065C61.7652 0.747811 61.6921 0.600327 61.5821 0.48359C61.4722 0.366853 61.3303 0.286205 61.1748 0.252023C61.0193 0.217842 60.8573 0.231691 60.7096 0.291788C60.562 0.351885 60.4354 0.455481 60.3462 0.589245C60.257 0.723009 60.2092 0.880821 60.2091 1.04237C60.2058 1.14664 60.223 1.25052 60.2597 1.34794C60.2964 1.44537 60.3519 1.53437 60.4229 1.60975C60.4939 1.68513 60.579 1.74536 60.6732 1.78693C60.7675 1.82849 60.8689 1.85055 60.9716 1.85181ZM60.5757 0.485662H60.9211C61.17 0.485662 61.4074 0.544122 61.4074 0.808538C61.4128 0.884723 61.3914 0.960382 61.3469 1.022C61.3024 1.08362 61.2379 1.12718 61.1647 1.1449L61.441 1.5793H61.1514L60.9052 1.15929H60.8414V1.5793H60.5757V0.485662ZM60.8414 0.939846H60.9707C61.0372 0.939846 61.1479 0.939846 61.1479 0.822028C61.1479 0.70421 61.0398 0.70421 60.9707 0.70421H60.8414V0.939846Z" fill="#00AFF0"/>
  <path d="M21.2954 0.564453H23.1783L25.9089 8.22352L28.8564 0.564453H30.6915L25.3119 14.0002H23.5131L24.9036 10.4288L21.2954 0.564453Z" fill="#00AFF0"/>
  <path d="M19.206 0.563591V1.63295C18.2822 0.730546 17.0487 0.228925 15.7669 0.23442C12.8974 0.23442 10.677 2.66903 10.677 5.66214C10.677 8.61479 12.8974 11.0098 15.7669 11.0098C17.0447 11.0165 18.2759 10.5234 19.2051 9.63288V10.758H20.856V0.563591H19.206ZM15.7669 9.453C13.9 9.453 12.3669 7.75678 12.3669 5.66214C12.3669 3.52703 13.9 1.79483 15.7669 1.79483C17.6525 1.79483 19.1856 3.53063 19.1856 5.66214C19.1865 7.75678 17.6534 9.453 15.7669 9.453Z" fill="#00AFF0"/>
  <path d="M5.08817 0.235307C3.80569 0.231977 2.57241 0.736217 1.65 1.64103V0.56178H0V13.9984H1.65V9.62657C2.5781 10.5198 3.80946 11.0155 5.08817 11.0107C7.97722 11.0107 10.1781 8.61567 10.1781 5.66303C10.1781 2.66991 7.97722 0.235307 5.08817 0.235307ZM5.08817 9.45389C3.22207 9.45389 1.68897 7.75767 1.68897 5.66303C1.68897 3.52792 3.22207 1.79572 5.08817 1.79572C6.97465 1.79572 8.50774 3.53151 8.50774 5.66303C8.50774 7.75767 6.97465 9.45389 5.08817 9.45389Z" fill="#00AFF0"/>
</svg>
