<!-- <svg width="14" height="14" viewBox="0 0 14 14" fill="none" xmlns="http://www.w3.org/2000/svg">
  <rect width="14" height="14" rx="3" fill="#285AA3"/>
  <path d="M5.80498 8.38013L9.00505 8.20545L8.25401 7.36699L10.7863 4.49644C10.922 4.34259 10.9969 4.14448 10.9969 3.93933V3.73365C10.9514 3.31981 10.6218 3.10564 10.4009 3.02649C10.3423 3.00549 10.2798 3 10.2175 3H4.17674C4.08727 3 3.99595 3.01014 3.91832 3.05461C3.68083 3.19066 3.61719 3.43329 3.61719 3.52404V4.15288C3.65475 4.45428 3.78457 4.62928 3.89503 4.71682C3.96349 4.77109 4.05351 4.78173 4.14087 4.78173H7.56828L6.68663 5.79487L5.80498 4.95641V8.38013Z" fill="white"/>
  <path d="M3.64996 10.9985H10.4269C10.5233 10.9985 10.6222 10.9847 10.6959 10.9226C10.7956 10.8384 10.9114 10.6854 10.9644 10.4396V9.67097C10.9556 9.58593 10.888 9.40889 10.6954 9.27048C10.5994 9.20154 10.4789 9.18187 10.3607 9.18187H6.42558L6.94803 8.6229H5.47862V7.05078L3.13488 9.65857C3.06599 9.73523 3.01717 9.82926 3.00722 9.93184C2.93705 10.6552 3.39542 10.9441 3.64996 10.9985Z" fill="white"/>
</svg> -->

<svg width="71" height="14" viewBox="0 0 71 14" fill="none" xmlns="http://www.w3.org/2000/svg">
  <path d="M2.82569 0H5.68715L9.15668 0.0738786L16.0957 0.110818L19.6368 0.147757L21.4252 0.184697L24.4655 0.221636L35.1244 0.295514L38.4867 0.332454L39.9531 0.369393L43.4227 0.406332L52.0786 0.443272L55.6912 0.480211L57.4438 0.51715L68.0312 0.591029L68.6035 0.627968L69.1401 0.775726L69.4977 0.923483L69.927 1.219L70.2846 1.55145L70.5708 1.95778L70.8212 2.51187L70.9285 2.91821L71 3.58311L70.9642 4.39578L70.7139 6.31662L70.3919 8.38522L70.1058 10.0106L69.8554 11.2296L69.605 11.7467L69.2831 12.1161L69.0327 12.3377L68.532 12.6332L68.067 12.8179L67.2443 13.0026L66.4217 13.0765L64.669 13.1135L55.262 13.2243L53.402 13.2612L41.062 13.4459L32.7637 13.5567L31.0111 13.5937L20.7456 13.7414L19.0645 13.7784L11.1239 13.8892L9.26398 13.9261L3.93451 14H3.46952L2.96877 13.9631L2.39647 13.8153L1.82418 13.5198L1.43073 13.2243L1.18035 13.0026L0.894207 12.6332L0.60806 12.1161L0.429219 11.6359L0.286146 10.971L0.21461 10.1214L0 5.91029V2.14248L0.178841 1.58839L0.500756 1.07124L0.858438 0.701847L1.35919 0.369393L1.82418 0.184697L2.46801 0.0369393L2.82569 0Z" fill="#2C5FAE"/>
  <path d="M28.4355 4.3584H32.0838L32.2269 4.50615V9.27125L32.1553 9.38207L28.042 9.41901H27.1478L27.0405 9.34513L27.0048 9.23431L26.969 7.38738V5.20799L27.0048 4.46921L27.0763 4.39534L28.4355 4.3584Z" fill="white"/>
  <path d="M36.4834 4.3584H36.9126L37.0914 4.46921L37.3776 4.72779L37.4849 4.69085L37.6995 4.39534H41.0617L41.169 4.50615L41.2047 4.87554V8.97574L41.169 9.34513L41.0617 9.38207L40.3821 9.41901H39.8813L39.7383 9.30819L39.7025 8.49554L39.6667 5.5035L39.5952 5.46656H38.236L38.2002 5.5035L38.1645 6.02064L38.1287 9.34513L38.0572 9.38207L37.306 9.41901H36.8411L36.6622 9.34513L36.6265 9.19738L36.5907 5.94677L36.5549 5.46656L35.625 5.39268H35.1242L35.0884 8.79105L35.0527 9.34513L35.0169 9.38207L34.3731 9.41901H33.8008L33.622 9.34513L33.5862 9.30819L33.5504 8.68023L33.5147 5.5035L33.0497 5.39268L32.9424 5.28187V4.50615L33.0855 4.39534H33.9796L34.23 4.72779H34.3373L34.4804 4.43228L34.5519 4.39534L36.4834 4.3584Z" fill="white"/>
  <path d="M45.5331 4.3584H46.1054L46.32 4.50615L46.5703 4.72779H46.6776L46.7492 4.54309L46.8922 4.39534H50.2902L50.3259 4.43228V9.34513L50.2544 9.38207L49.5391 9.41901H49.1098L48.931 9.30819L48.8952 8.05227V5.46656H47.4288L47.393 5.5035L47.3572 6.09452L47.3215 9.30819L47.2142 9.38207L46.4988 9.41901H46.0696L45.855 9.34513L45.8192 9.19738L45.7834 5.46656L44.8177 5.39268H44.46L44.317 5.42962L44.2812 9.01268L44.2454 9.34513L44.2097 9.38207L43.4943 9.41901H42.9578L42.8147 9.38207L42.779 9.30819L42.7432 8.75411L42.7074 5.5035L42.2067 5.35574L42.0994 5.17105V4.61697L42.2067 4.43228L42.2782 4.39534H43.1366L43.387 4.69085H43.5301L43.7089 4.39534L45.5331 4.3584Z" fill="white"/>
  <path d="M55.0471 4.3584H55.6909L56.299 4.39534L56.3705 4.65391V6.98105L56.299 7.05493L53.5806 7.09187L52.9011 7.12881L52.8295 7.16574L52.7938 7.3135V8.08921L52.9011 8.27391L53.1157 8.31085H54.4033L54.5464 8.27391L54.6894 7.71983L54.8683 7.60901H56.1202L56.3348 7.64595L56.3705 7.71983V9.23431L56.299 9.30819L52.293 9.34513H51.4346L51.22 9.27125L51.1842 9.23431L51.1484 8.34778V4.50615L51.2915 4.39534L55.0471 4.3584Z" fill="white"/>
  <path d="M9.40674 4.39587H14.9507L15.0223 4.46975L15.058 4.61751V5.09771L14.9865 5.31934L14.8792 5.35628L11.4455 5.39322L11.2667 5.4671L11.1951 5.79955V6.09506L11.3024 6.35363L11.4455 6.42751H14.8077L14.915 6.50138L14.9507 6.6122V9.16097L14.8792 9.38261L11.374 9.41955H9.54981L9.40674 9.34567L9.33521 9.12404V8.38526L9.37097 8.31138L9.47828 8.27444L13.0908 8.20057L13.055 7.57261L13.0193 7.42485L12.7689 7.38791L9.47828 7.35097L9.37097 7.24016L9.33521 7.12934V4.46975L9.40674 4.39587Z" fill="white"/>
  <path d="M2.86109 4.39587H8.40508L8.51239 4.50669V5.24547L8.33355 5.35628L4.86408 5.39322L4.72101 5.4671L4.64947 5.79955V6.09506L4.75678 6.35363L4.86408 6.42751H8.26201L8.40508 6.57526V9.30873L8.33355 9.38261L3.00416 9.41955L2.86109 9.34567L2.78955 9.0871V8.56995L2.86109 8.31138L2.93262 8.27444L5.93711 8.23751L6.47363 8.20057L6.54516 8.12669V7.7573L6.47363 7.42485L6.36632 7.38791L2.93262 7.35097L2.82532 7.2771L2.78955 7.0924V4.50669L2.86109 4.39587Z" fill="white"/>
  <path d="M23.7856 4.3584H26.039L26.182 4.43228L26.2178 4.54309V6.09452L26.0032 6.1684H24.7513L24.6083 6.05758L24.501 5.35574H22.8199L22.7483 5.39268L22.7126 5.54044V8.12615L22.7483 8.31085L22.963 8.34778H24.3221L24.5367 8.31085L24.6083 7.94146L24.644 7.64595L24.7513 7.57207H26.2178L26.2894 7.68289V9.23431L26.2536 9.34513L26.182 9.38207L21.2819 9.41901L21.1388 9.34513L21.103 9.27125L21.0673 8.31085V4.50615L21.1388 4.39534L23.7856 4.3584Z" fill="white"/>
  <path d="M16.0237 4.39587H17.3829L17.4544 4.46975L17.4902 5.02383L17.5259 8.20057L17.7048 8.27444H18.3844L18.5632 8.20057L18.6705 7.57261L18.7778 7.49873H20.2443L20.3516 7.60955L20.3874 8.79159L20.3516 9.30873L20.2443 9.38261L16.0237 9.41955L15.8806 9.34567L15.8091 9.05016L15.7733 6.87077V5.83649L15.8091 4.50669L15.8806 4.43281L16.0237 4.39587Z" fill="white"/>
  <path d="M56.9785 4.39587H57.9085L58.1946 4.65445L58.3735 4.61751L58.5523 4.39587H61.5568L61.6641 4.58057V5.98424L61.5568 6.09506L61.378 6.132H60.0545L59.8757 5.98424L59.8042 5.39322L59.6611 5.35628H59.1961L59.0173 5.43016L58.9815 5.79955L58.9457 9.23485L58.8027 9.30873L57.6939 9.34567L57.515 9.27179L57.4435 9.16097L57.4077 5.39322L56.9785 5.2824L56.8712 5.20853L56.8354 5.09771V4.65445L56.907 4.43281L56.9785 4.39587Z" fill="white"/>
  <path d="M62.308 4.39587H66.922L67.1009 4.58057V5.06077L66.8863 5.35628L65.4913 6.79689L65.3482 6.90771L65.4198 7.05546L65.7417 7.42485L65.8848 7.57261V7.64648H65.0263L64.0606 7.60955H63.7745L63.7387 7.57261V5.57791H63.846L64.1679 5.98424L64.311 6.05812L64.5614 5.79955L64.8833 5.39322L64.919 5.35628L62.3795 5.31934L62.308 5.2824V4.39587Z" fill="white"/>
  <path d="M63.3456 7.01801L63.4172 7.05494L63.4529 7.16576L63.4887 7.97841L64.2756 7.90454L64.4902 7.8676L64.4544 8.05229L64.3114 8.31086H66.9224L67.1012 8.42168V9.23433L67.0297 9.38209L66.9224 9.41902L66.0997 9.45596H62.6303L62.2011 9.38209L61.9865 9.23433L61.9149 9.12351V8.86494L62.1653 8.45862L62.5945 7.94147L63.0953 7.31352L63.3456 7.01801Z" fill="white"/>
  <path d="M29.0081 5.39319H30.5461L30.7249 5.504V8.34829L30.5819 8.38523H28.7219L28.5431 8.34829L28.5073 8.20053V5.72564L28.5431 5.46707L28.6146 5.43013L29.0081 5.39319Z" fill="#2C5FAE"/>
  <path d="M68.7108 12.1898L68.8538 12.2268L68.8181 12.4853L68.2815 12.7439L67.6377 12.9286L66.9581 13.0394L66.4216 13.0763H62.9522L62.7733 13.0394L62.8449 12.9286L63.4887 12.8547L64.1325 12.8917L64.4186 12.8547L65.0982 12.7439L65.9209 12.67L66.3859 12.5961L67.3874 12.5592L68.0669 12.4115L68.5319 12.2268L68.7108 12.1898Z" fill="#2C5FAE"/>
  <path d="M52.8654 5.31921H54.5814L54.6887 5.50382V6.16839L54.5814 6.27915L54.0094 6.31607H53.2944L52.7939 6.27915L52.7224 6.13147V5.50382L52.7582 5.35613L52.8654 5.31921Z" fill="#2C5FAE"/>
  <path d="M63.703 5.578H63.7388L63.7745 7.5727H64.4184L65.8848 7.64657V7.68351L65.6702 7.72045L65.706 7.90515L65.3841 7.97902L65.6345 8.01596L65.9206 8.12678L66.0279 8.16372V8.27453H66.6717V8.31147H64.3111L64.3826 8.12678L64.4899 7.86821L64.2753 7.94208L63.9534 7.97902H63.4884L63.4526 7.86821L63.4169 7.16637L63.3811 6.98168H63.5242L63.5957 6.83392L63.6672 5.79964L63.703 5.578Z" fill="#2C5FAE"/>
  <path d="M53.5806 7.05499H56.1201L56.1558 7.20275L55.977 7.38744L56.0485 7.5352H55.9412V7.60907L54.7609 7.64601L54.8324 7.31356L54.7967 7.16581L54.9755 7.12887L53.5806 7.09193V7.05499Z" fill="#2C5FAE"/>
  <path d="M58.4453 4.28497H59.3753L59.5899 4.32182L61.5214 4.35866V4.39551H58.5526L58.4811 4.54289L58.338 4.69027L58.1592 4.65342L58.0161 4.50604L58.0519 4.39551L58.338 4.32182L58.4453 4.28497Z" fill="#2C5FAE"/>
  <path d="M59.1965 5.31921H59.6608L59.8037 5.39298L59.8394 5.61429L59.8037 5.90936L59.768 5.94624H59.5894L59.5537 5.72494L59.4823 5.68805V5.61429L59.1965 5.54052V5.39298V5.31921Z" fill="#2C5FAE"/>
  <path d="M66.028 6.20557L66.1352 6.27941L65.885 6.64861H65.8135L65.742 6.83321L65.6705 7.12858L65.4917 7.20242L65.313 6.9809L65.3845 6.83321L65.742 6.50093L66.028 6.20557Z" fill="#2C5FAE"/>
  <path d="M29.0077 5.39319H30.5449L30.7237 5.50395V6.02084H30.6879L30.6164 5.54087L30.4734 5.50395H28.7217L28.7574 5.43011L29.0077 5.39319Z" fill="#2C5FAE"/>
  <path d="M26.9694 7.38727H27.0052V8.93793L26.9694 9.23329L26.8621 9.12253V8.19952L26.8979 7.94108H26.9336L26.9694 7.38727Z" fill="#2C5FAE"/>
  <path d="M63.6316 5.31921H64.9543L64.7398 5.61383L64.5253 5.577L64.4538 5.42969L64.4896 5.39287H64.2393L64.2036 5.46652H63.9176V5.39287L63.6316 5.35604V5.31921Z" fill="#2C5FAE"/>
  <path d="M57.3362 5.578L57.4436 5.65188V9.05025H57.4078L57.372 6.42759V5.72576L57.3362 5.578Z" fill="#2C5FAE"/>
  <path d="M17.4907 7.64655H17.5265V8.16343L17.598 8.12651H17.884L18.027 8.23727L18.3845 8.27419V8.31111H17.7052L17.5265 8.23727L17.4907 8.20035V7.64655Z" fill="#2C5FAE"/>
  <path d="M63.6316 5.31921H64.5968V5.35623L64.2393 5.39325L64.2036 5.46728H63.9176V5.39325L63.6316 5.35623V5.31921Z" fill="#2C5FAE"/>
  <path d="M30.4742 5.42914H30.6531L30.7247 5.50294V6.01957H30.6889L30.6173 5.53984L30.4742 5.50294V5.42914Z" fill="#2C5FAE"/>
  <path d="M69.8194 11.0077H69.8551V11.228L69.7837 11.3382H69.6766L69.748 11.0811L69.8194 11.0077Z" fill="#2C5FAE"/>
  <path d="M6.54534 7.75696H6.58115V8.12541H6.43791L6.4021 8.01487L6.43791 7.90434H6.50953L6.54534 7.75696Z" fill="#2C5FAE"/>
</svg>