<!-- <?xml version="1.0" encoding="UTF-8"?><svg id="Layer_1" xmlns="http://www.w3.org/2000/svg" viewBox="0 0 80 80"><defs><style>.cls-1{fill:#6772e5;}</style></defs><path class="cls-1" d="M14.22,37.3c0-.65,.53-.9,1.42-.9,1.27,0,2.87,.38,4.13,1.07v-3.92c-1.38-.55-2.75-.77-4.13-.77-3.38,0-5.63,1.77-5.63,4.72,0,4.6,6.33,3.87,6.33,5.85,0,.77-.67,1.02-1.6,1.02-1.38,0-3.15-.57-4.55-1.33v3.97c1.55,.67,3.12,.95,4.55,.95,3.47,0,5.85-1.72,5.85-4.7-.02-4.97-6.37-4.08-6.37-5.95Zm11.27-7.85l-4.07,.87-.02,13.35c0,2.47,1.85,4.28,4.32,4.28,1.37,0,2.37-.25,2.92-.55v-3.38c-.53,.22-3.17,.98-3.17-1.48v-5.92h3.17v-3.55h-3.17l.02-3.62Zm8.33,4.85l-.27-1.23h-3.6v14.58h4.17v-9.88c.98-1.28,2.65-1.05,3.17-.87v-3.83c-.53-.2-2.48-.57-3.47,1.23Zm4.48-1.23h4.18v14.58h-4.18v-14.58Zm0-1.27l4.18-.9v-3.38l-4.18,.88v3.4Zm12.88,.98c-1.63,0-2.68,.77-3.27,1.3l-.22-1.03h-3.67v19.43l4.17-.88,.02-4.72c.6,.43,1.48,1.05,2.95,1.05,2.98,0,5.7-2.4,5.7-7.68-.02-4.83-2.77-7.47-5.68-7.47Zm-1,11.48c-.98,0-1.57-.35-1.97-.78l-.02-6.18c.43-.48,1.03-.82,1.98-.82,1.52,0,2.57,1.7,2.57,3.88s-1.03,3.9-2.57,3.9Zm19.82-3.85c0-4.27-2.07-7.63-6.02-7.63s-6.37,3.37-6.37,7.6c0,5.02,2.83,7.55,6.9,7.55,1.98,0,3.48-.45,4.62-1.08v-3.33c-1.13,.57-2.43,.92-4.08,.92s-3.05-.57-3.23-2.53h8.15c0-.22,.03-1.08,.03-1.48Zm-8.23-1.58c0-1.88,1.15-2.67,2.2-2.67s2.1,.78,2.1,2.67h-4.3Z"/></svg> -->



<svg width="40" height="16" viewBox="0 0 40 16" fill="none" xmlns="http://www.w3.org/2000/svg">
  <path fill-rule="evenodd" clip-rule="evenodd" d="M40 8.26704C40 5.53273 38.6222 3.37519 35.9889 3.37519C33.3445 3.37519 31.7445 5.53273 31.7445 8.24568C31.7445 11.4606 33.6333 13.0841 36.3444 13.0841C37.6667 13.0841 38.6667 12.7957 39.4222 12.3899V10.2537C38.6667 10.6168 37.8 10.8411 36.7 10.8411C35.6222 10.8411 34.6667 10.478 34.5445 9.21764H39.9778C39.9778 9.07879 40 8.52338 40 8.26704ZM34.5111 7.25236C34.5111 6.04542 35.2778 5.54341 35.9778 5.54341C36.6556 5.54341 37.3778 6.04542 37.3778 7.25236H34.5111Z" fill="#635BFF"/>
  <path fill-rule="evenodd" clip-rule="evenodd" d="M27.4555 3.37518C26.3666 3.37518 25.6666 3.86651 25.2777 4.20829L25.1333 3.54608H22.6888V16L25.4666 15.4339L25.4777 12.4112C25.8777 12.6889 26.4666 13.0841 27.4444 13.0841C29.4333 13.0841 31.2444 11.5461 31.2444 8.16022C31.2333 5.06277 29.3999 3.37518 27.4555 3.37518ZM26.7888 10.7343C26.1333 10.7343 25.7444 10.51 25.4777 10.2323L25.4666 6.26971C25.7555 5.95996 26.1555 5.74634 26.7888 5.74634C27.7999 5.74634 28.4999 6.83579 28.4999 8.23499C28.4999 9.66623 27.811 10.7343 26.7888 10.7343Z" fill="#635BFF"/>
  <path fill-rule="evenodd" clip-rule="evenodd" d="M18.8666 2.74499L21.6554 2.16822V0L18.8666 0.566087V2.74499Z" fill="#635BFF"/>
  <path d="M21.6554 3.55675H18.8666V12.9025H21.6554V3.55675Z" fill="#635BFF"/>
  <path fill-rule="evenodd" clip-rule="evenodd" d="M15.8776 4.34713L15.6998 3.55674H13.2998V12.9025H16.0776V6.56875C16.7331 5.74633 17.8442 5.89586 18.1887 6.01335V3.55674C17.8331 3.42857 16.5331 3.19359 15.8776 4.34713Z" fill="#635BFF"/>
  <path fill-rule="evenodd" clip-rule="evenodd" d="M10.3221 1.23897L7.61099 1.79438L7.59988 10.3498C7.59988 11.9305 8.83321 13.0948 10.4777 13.0948C11.3888 13.0948 12.0554 12.9346 12.4221 12.7423V10.5741C12.0665 10.7129 10.311 11.2042 10.311 9.62347V5.83176H12.4221V3.55673H10.311L10.3221 1.23897Z" fill="#635BFF"/>
  <path fill-rule="evenodd" clip-rule="evenodd" d="M2.81111 6.26971C2.81111 5.85316 3.16666 5.69295 3.75555 5.69295C4.59999 5.69295 5.66666 5.93861 6.5111 6.37652V3.86651C5.58888 3.51404 4.67777 3.37519 3.75555 3.37519C1.5 3.37519 0 4.50737 0 6.39789C0 9.34581 4.22222 8.87585 4.22222 10.1469C4.22222 10.6382 3.77777 10.7984 3.15555 10.7984C2.23333 10.7984 1.05555 10.4353 0.122222 9.94394V12.486C1.15555 12.9132 2.2 13.0948 3.15555 13.0948C5.46666 13.0948 7.05554 11.9947 7.05554 10.0828C7.04443 6.89989 2.81111 7.46597 2.81111 6.26971Z" fill="#635BFF"/>
</svg>