<!-- <?xml version="1.0" encoding="UTF-8"?>
<svg version="1.1" xmlns="http://www.w3.org/2000/svg" width="512" height="512">
<path d="M0 0 C0.81845901 -0.00705963 1.63691803 -0.01411926 2.48017883 -0.02139282 C36.77327067 -0.25005811 36.77327067 -0.25005811 52.109375 3.203125 C53.01284668 3.40180176 53.91631836 3.60047852 54.84716797 3.80517578 C82.76621715 10.11710307 108.93323882 21.29948948 132.109375 38.203125 C132.68171875 38.61997559 133.2540625 39.03682617 133.84375 39.46630859 C141.13572531 44.84701448 147.91870067 50.71442406 154.546875 56.890625 C155.19712646 57.49608154 155.84737793 58.10153809 156.51733398 58.7253418 C161.74345056 63.68025078 166.91474326 68.85035057 170.87109375 74.89453125 C174.49739713 78.63474992 179.16290334 80.16784893 183.921875 82.140625 C193.41501711 86.0850916 201.14536977 89.95588212 205.98046875 99.38671875 C210.67861614 111.10770238 212.05755295 123.3085945 212.3203125 135.8359375 C212.33473389 136.52210648 212.34915527 137.20827545 212.36401367 137.91523743 C212.4207733 140.75885802 212.47533999 143.60231273 212.51074219 146.44628906 C212.63490804 155.69022302 213.45261394 164.36568542 215.37744141 173.41748047 C216.77298827 180.63540897 217.27009349 187.75261944 217.3125 195.09375 C217.31955963 195.91220901 217.32661926 196.73066803 217.33389282 197.57392883 C217.56255811 231.86702067 217.56255811 231.86702067 214.109375 247.203125 C213.81135986 248.55833252 213.81135986 248.55833252 213.50732422 249.94091797 C207.19539693 277.85996715 196.01301052 304.02698882 179.109375 327.203125 C178.69252441 327.77546875 178.27567383 328.3478125 177.84619141 328.9375 C172.46548552 336.22947531 166.59807594 343.01245067 160.421875 349.640625 C159.81641846 350.29087646 159.21096191 350.94112793 158.5871582 351.61108398 C125.84387244 386.14657778 76.62479343 409.99268486 28.91786194 412.30955505 C26.68439517 412.36588788 24.45288525 412.39334437 22.21875 412.40625 C21.40029099 412.41330963 20.58183197 412.42036926 19.73857117 412.42764282 C-14.55452067 412.65630811 -14.55452067 412.65630811 -29.890625 409.203125 C-31.24583252 408.90510986 -31.24583252 408.90510986 -32.62841797 408.60107422 C-60.54746715 402.28914693 -86.71448882 391.10676052 -109.890625 374.203125 C-110.46296875 373.78627441 -111.0353125 373.36942383 -111.625 372.93994141 C-118.91697531 367.55923552 -125.69995067 361.69182594 -132.328125 355.515625 C-132.97837646 354.91016846 -133.62862793 354.30471191 -134.29858398 353.6809082 C-168.75585324 321.01178753 -192.86499922 271.6277444 -194.9901886 223.97041321 C-195.03727214 221.68026652 -195.05533176 219.39218671 -195.05859375 217.1015625 C-195.06192215 216.26203033 -195.06525055 215.42249817 -195.06867981 214.55752563 C-195.07370842 212.79112286 -195.0760894 211.02471071 -195.07592773 209.25830078 C-195.07810245 206.60562805 -195.09626965 203.95338007 -195.11523438 201.30078125 C-195.14376785 192.36614423 -194.67857944 183.8784697 -193.3293457 175.02783203 C-192.35778768 166.55792217 -192.79077151 157.98593972 -192.93164062 149.47509766 C-193.57625088 106.54914388 -193.57625088 106.54914388 -181.703125 92.640625 C-174.98522756 86.81844722 -167.56461811 82.86374987 -159.453125 79.328125 C-158.10831055 78.72484375 -158.10831055 78.72484375 -156.73632812 78.109375 C-150.17749522 75.203125 -150.17749522 75.203125 -147.890625 75.203125 C-147.49447998 74.32587769 -147.49447998 74.32587769 -147.09033203 73.4309082 C-145.84280835 71.11433237 -144.49145302 69.47442593 -142.6953125 67.55859375 C-141.74398437 66.54249023 -141.74398437 66.54249023 -140.7734375 65.50585938 C-140.11085937 64.80783203 -139.44828125 64.10980469 -138.765625 63.390625 C-138.12625 62.70419922 -137.486875 62.01777344 -136.828125 61.31054688 C-102.50810691 24.88859996 -50.28921106 0.29049888 0 0 Z " fill="#0AC9DE" transform="translate(244.890625,49.796875)"/>
<path d="M0 0 C1.34158421 2.30110527 2.50028056 4.54015542 3.625 6.9453125 C4.13972115 8.01455963 4.13972115 8.01455963 4.6648407 9.10540771 C5.78622745 11.44078161 6.89309609 13.78273161 8 16.125 C8.77356869 17.74279373 9.54806912 19.36014225 10.32348633 20.97705078 C12.22401097 24.94529418 14.11362945 28.91860878 15.99957275 32.89379883 C17.35130584 35.73960478 18.71202616 38.5810631 20.07421875 41.421875 C21.81125139 45.04500095 23.54413683 48.67005249 25.2734375 52.296875 C28.43323403 58.91584183 31.62228621 65.52065941 34.8125 72.125 C35.1041806 72.72898621 35.39586121 73.33297241 35.69638062 73.95526123 C38.74251062 80.26278208 41.79098293 86.56916405 44.84318542 92.87374878 C46.09548841 95.46092285 47.34691256 98.04852152 48.59823608 100.63616943 C49.46671725 102.43120881 50.33648254 104.22562673 51.20629883 106.02001953 C53.97132456 111.73806141 56.71063407 117.46768183 59.40625 123.21875 C59.90447266 124.28029297 60.40269531 125.34183594 60.91601562 126.43554688 C62 129 62 129 62 131 C62.66 131 63.32 131 64 131 C64.24775681 130.18732414 64.24775681 130.18732414 64.5005188 129.35823059 C66.34922447 123.53311742 68.69967642 118.15947994 71.4296875 112.69921875 C71.85615067 111.83380966 72.28261383 110.96840057 72.72200012 110.07676697 C73.63119671 108.23249326 74.54279976 106.38940422 75.45663452 104.54742432 C77.86291238 99.69552071 80.24998125 94.83419486 82.63671875 89.97265625 C83.10775528 89.01385559 83.57879181 88.05505493 84.06410217 87.06719971 C87.70890217 79.63232272 91.23943977 72.15341646 94.6875 64.625 C100.47516535 52.00084635 106.53848663 39.51865496 112.6472168 27.04736328 C117.20089945 17.74436656 121.65773726 8.40363182 126 -1 C129.71459522 -0.24847265 132.94122781 1.24263779 136.37890625 2.81640625 C137.01078857 3.10454697 137.6426709 3.39268768 138.29370117 3.68955994 C140.38476728 4.64403319 142.47360234 5.60329149 144.5625 6.5625 C146.03037037 7.2333951 147.49839056 7.90396247 148.96655273 8.57421875 C152.8518733 10.34899578 156.73532511 12.12782121 160.61816406 13.90802002 C166.85413412 16.76697196 173.09170066 19.62243611 179.32955933 22.4772644 C181.49386443 23.46856341 183.65727748 24.46178677 185.82055664 25.45532227 C187.19414692 26.08485547 188.56776303 26.71433231 189.94140625 27.34375 C190.60133072 27.64735947 191.26125519 27.95096893 191.94117737 28.26377869 C195.45431513 29.87147759 198.98274453 31.42522864 202.54638672 32.91796875 C203.28638412 33.23076782 204.02638153 33.54356689 204.7888031 33.86584473 C206.20857898 34.46310854 207.63218719 35.05136601 209.05995178 35.62927246 C210.74278898 36.33927686 212.37737568 37.161467 214 38 C215.38418434 42.15255303 213.66388607 44.46460813 211.8359375 48.18359375 C211.49273468 48.9018483 211.14953186 49.62010284 210.79592896 50.36012268 C209.66442443 52.72358858 208.51959118 55.08034792 207.375 57.4375 C206.58415867 59.08474548 205.7944549 60.73253756 205.00585938 62.38085938 C203.80932331 64.88146364 202.61208787 67.38170376 201.41119385 69.88021851 C198.04202407 76.89060659 194.75635926 83.93643106 191.5 91 C184.83953675 105.39830809 178.0541443 119.73682606 171.27134705 134.07777405 C167.31601982 142.44264174 163.3758705 150.81463842 159.4375 159.1875 C159.11792328 159.86685608 158.79834656 160.54621216 158.46908569 161.24615479 C157.84594357 162.57084965 157.22296564 163.89562176 156.60015869 165.22047424 C155.99315911 166.51021192 155.38497963 167.79939501 154.77557373 169.08799744 C153.13767337 172.55573189 151.52788228 176.03379899 149.94946289 179.52905273 C149.60315323 180.28692581 149.25684357 181.04479889 148.90003967 181.82563782 C148.24001186 183.27099429 147.58733781 184.71974318 146.9438324 186.17253113 C141.11506448 198.8576429 130.41299326 207.37466376 117.8125 212.875 C106.36009298 216.99466678 95.06332014 215.82685396 84 211 C75.89106998 206.45669878 67.12104167 200.01981044 64 191 C63.34 191 62.68 191 62 191 C61.75507813 191.72574219 61.51015625 192.45148438 61.2578125 193.19921875 C56.3230761 204.18743613 44.53687758 209.66528022 34 214 C23.85522268 216.78238885 12.27380565 215.90640985 3 211 C-8.26269086 204.13703982 -15.84302378 195.41986738 -21.6875 183.6875 C-22.19458496 182.69314941 -22.70166992 181.69879883 -23.22412109 180.67431641 C-27.59704422 172.0102697 -31.67869737 163.21316979 -35.72143555 154.39135742 C-40.3311696 144.35290792 -45.14365009 134.42115837 -50 124.5 C-55.80391077 112.63674003 -61.49913586 100.73989751 -66.99658203 88.73071289 C-70.17714705 81.81935215 -73.46754177 74.97380201 -76.8359375 68.15234375 C-77.25268738 67.30612457 -77.66943726 66.4599054 -78.09881592 65.58804321 C-80.17008288 61.38377682 -82.2514334 57.18504277 -84.34960938 52.99414062 C-85.10588099 51.46374531 -85.86175969 49.93315575 -86.6171875 48.40234375 C-86.97477142 47.69746323 -87.33235535 46.9925827 -87.70077515 46.26634216 C-90.11350856 41.34052568 -90.11350856 41.34052568 -89 38 C-86.47607422 36.56811523 -86.47607422 36.56811523 -83.0546875 35.05859375 C-82.42940659 34.77870605 -81.80412567 34.49881836 -81.15989685 34.21044922 C-79.06901093 33.27665582 -76.97202936 32.35740367 -74.875 31.4375 C-72.6432861 30.44450786 -70.41335083 29.44759342 -68.18348694 28.45045471 C-66.60697614 27.74569472 -65.02992604 27.04214004 -63.45237732 26.33970642 C-53.19846896 21.76793888 -43.02484078 17.02175055 -32.84393311 12.29025269 C-27.5712155 9.84112563 -22.29099624 7.40938705 -17 5 C-16.3063031 4.6823468 -15.6126062 4.3646936 -14.89788818 4.03741455 C-12.95098936 3.15057985 -10.99842573 2.27792679 -9.04296875 1.41015625 C-7.94364014 0.91781494 -6.84431152 0.42547363 -5.71166992 -0.08178711 C-3 -1 -3 -1 0 0 Z " fill="#FCFEFE" transform="translate(192,152)"/>
<path d="M0 0 C5.10254695 0.65301792 9.415759 2.87277795 14.01953125 5.03515625 C14.87810226 5.43327011 15.73667328 5.83138397 16.6212616 6.24156189 C19.35405802 7.51015307 22.08329189 8.78621011 24.8125 10.0625 C26.66838957 10.92562541 28.52450688 11.78826131 30.38085938 12.65039062 C34.92323192 14.7612629 39.46242474 16.87883625 44 19 C38.54197531 31.25569316 32.95749935 43.44033896 27.1729126 55.54528809 C25.53212257 58.97919001 23.89652113 62.41555612 22.26052856 65.85174561 C21.41592445 67.62565607 20.57109666 69.39946005 19.7260437 71.17315674 C15.86614863 79.27565046 12.02191414 87.3854825 8.18814087 95.50036621 C7.13251058 97.73410743 6.07542613 99.96715671 5.01831055 102.20019531 C1.72022572 109.17558237 -1.54455821 116.16366393 -4.73828125 123.1875 C-5.32884898 124.48083529 -5.91950446 125.77413052 -6.51025391 127.06738281 C-7.59003122 129.4319477 -8.65666223 131.80100732 -9.71630859 134.17480469 C-14.0486098 143.67876315 -18.98918756 152.12560365 -28.375 157.3125 C-34.58239109 158.93824528 -39.5250721 158.51053031 -45.0625 155.36328125 C-51.31503362 150.96381707 -54.73643912 145.06483613 -58 138.3125 C-58.31525635 137.67078857 -58.6305127 137.02907715 -58.95532227 136.36791992 C-60.78525244 132.35520776 -61.18872697 130.19331347 -60 126 C-59.0018789 123.63504096 -57.96898017 121.33435562 -56.859375 119.0234375 C-56.38190575 118.01237946 -56.38190575 118.01237946 -55.89479065 116.980896 C-54.85191021 114.77633292 -53.80105745 112.57567474 -52.75 110.375 C-52.0193573 108.83467091 -51.28913716 107.2941413 -50.55932617 105.75341797 C-45.66041892 95.42507243 -40.70035562 85.12629107 -35.72119141 74.83642578 C-31.94263341 67.01032769 -28.26556425 59.14111813 -24.625 51.25 C-19.81309455 40.82284871 -14.88442801 30.45841213 -9.875 20.125 C-9.38885223 19.12200867 -9.38885223 19.12200867 -8.8928833 18.09875488 C-5.95925169 12.05035016 -3.0149351 6.00843968 0 0 Z " fill="#2ED1E2" transform="translate(331,184)"/>
<path d="M0 0 C2.32013324 2.12640956 3.72458362 4.09654589 5.09375 6.92285156 C5.47885239 7.71011627 5.86395477 8.49738098 6.26072693 9.3085022 C6.66968704 10.16060272 7.07864716 11.01270325 7.5 11.890625 C7.93220352 12.77873871 8.36440704 13.66685242 8.80970764 14.58187866 C10.21251114 17.46836677 11.60637684 20.3590699 13 23.25 C13.96233146 25.23509497 14.92514152 27.219958 15.88842773 29.20458984 C18.60113882 34.79880522 21.30286191 40.39826235 24 46 C24.32752258 46.67994019 24.65504517 47.35988037 24.99249268 48.0604248 C27.92614909 54.15278974 30.8402979 60.25424391 33.74316406 66.36132812 C36.1295742 71.37149145 38.53475899 76.37265393 40.9375 81.375 C41.4312915 82.40383301 41.92508301 83.43266602 42.43383789 84.49267578 C45.04712793 89.93706548 47.6640214 95.37969503 50.28515625 100.8203125 C50.82342041 101.93873535 51.36168457 103.0571582 51.91625977 104.20947266 C52.94038148 106.33728405 53.96553897 108.46459737 54.99194336 110.59130859 C55.91231653 112.50450275 56.82678292 114.42055345 57.734375 116.33984375 C58.55797515 118.07092925 59.4008413 119.79302245 60.265625 121.50390625 C62.49788125 126.08308945 63.65179117 128.93168351 62 134 C58.3680667 143.14077173 53.61878232 152.04124057 44.5 156.5 C38.97532679 158.59395397 34.47825015 158.85533212 29 156.5 C18.13028494 150.20324189 13.87472739 138.29053633 8.75 127.4375 C7.90000036 125.66171836 7.04883645 123.88649356 6.1965332 122.11181641 C4.1404156 117.82399864 2.09781992 113.5299261 0.06036377 109.23321533 C-1.34900634 106.26496328 -2.76922374 103.30197513 -4.19140625 100.33984375 C-5.91181202 96.75522504 -7.62662424 93.16804591 -9.3359375 89.578125 C-12.21462491 83.5396884 -15.12403091 77.51613897 -18.03482056 71.49313354 C-18.9295022 69.64155178 -19.82361563 67.78969678 -20.7175293 65.93774414 C-23.61308074 59.93932837 -26.51229772 53.94274244 -29.41796875 47.94921875 C-30.48710813 45.73704149 -31.55612434 43.52480469 -32.625 41.3125 C-33.10960693 40.31621582 -33.59421387 39.31993164 -34.09350586 38.29345703 C-36.99042758 32.28688288 -39.61310714 26.22715714 -42 20 C-28.19637964 12.91052731 -14.11200234 6.44861645 0 0 Z " fill="#2ED1E2" transform="translate(178,184)"/>
<path d="M0 0 C-0.75023437 1.02996094 -1.50046875 2.05992187 -2.2734375 3.12109375 C-20.79442004 28.78497042 -34.90360427 56.70516856 -41 88 C-41.33 88 -41.66 88 -42 88 C-45.63228262 67.65921735 -46.12917412 35.83702076 -34 18 C-27.65876498 10.57169612 -19.31089357 6.50829385 -10.5625 2.5625 C-9.75659424 2.19600342 -8.95068848 1.82950684 -8.12036133 1.4519043 C-7.36005615 1.11843994 -6.59975098 0.78497559 -5.81640625 0.44140625 C-5.13006104 0.13920166 -4.44371582 -0.16300293 -3.73657227 -0.47436523 C-2 -1 -2 -1 0 0 Z " fill="#FEFFFF" transform="translate(95,127)"/>
<path d="M0 0 C4.87257479 0.66444202 8.96893338 2.61926768 13.375 4.6875 C14.10460937 5.01427734 14.83421875 5.34105469 15.5859375 5.67773438 C24.26477761 9.73044275 30.39703686 15.01129266 34 24 C38.16816899 37.59917762 39.15766671 50.40855695 39.0625 64.625 C39.05798828 65.91535156 39.05347656 67.20570313 39.04882812 68.53515625 C39.03714295 71.69015375 39.02076044 74.84505137 39 78 C37.57217089 75.28731584 36.49230383 72.64634469 35.58984375 69.71875 C28.06369125 45.89938842 17.50369081 24.96438196 3.10986328 4.5871582 C2.05123038 3.07326193 1.02470792 1.53706188 0 0 Z " fill="#FEFFFF" transform="translate(418,128)"/>
</svg> -->


<svg width="20" height="20" viewBox="0 0 20 20" fill="none" xmlns="http://www.w3.org/2000/svg">
  <circle cx="10" cy="10" r="10" fill="#0BCADB"/>
  <path d="M10.1712 12.6448C10.9596 14.4162 12.2382 15.7585 13.4482 13.2123L16.2944 7.22296L13.269 5.71442L10.1712 12.6448ZM10.1712 12.6448L7.10337 5.75175L4.28613 7.1931L6.85964 13.0555C8.47398 16.733 10.055 12.9046 10.1712 12.6448Z" stroke="white" stroke-width="1.07143" stroke-linecap="round" stroke-linejoin="round"/>
</svg>