<!-- <svg width="80" height="80" viewBox="0 0 80 80" fill="none" xmlns="http://www.w3.org/2000/svg">
<path d="M35.5275 36.1146H35.4485L35.4038 36.1798L33.1466 39.4694L30.8758 36.1794L30.8311 36.1146H30.7523H28.8536H28.5629L28.7314 36.3516L31.9852 40.9282L28.5614 45.7324L28.3925 45.9695H28.6836H30.5823H30.6606L30.7054 45.9052L33.1463 42.4003L35.5598 45.9046L35.6045 45.9695H35.6833H37.5821H37.8731L37.7042 45.7324L34.2805 40.9282L37.5343 36.3516L37.7027 36.1146H37.412H35.5275Z" fill="#446CB3" stroke="#446CB3" stroke-width="0.3"/>
<path d="M43.15 44.3621C42.2733 44.3621 41.5955 44.1018 41.1351 43.6002C40.7093 43.1352 40.4516 42.4577 40.3897 41.5624H46.6357H46.7857V41.4124V40.4029C46.7857 39.0954 46.4233 38.0052 45.6998 37.19C44.9727 36.3564 43.9654 35.9447 42.7391 35.9447C41.4243 35.9447 40.3457 36.4159 39.5632 37.3638C38.7836 38.2939 38.3949 39.5684 38.3949 41.1139C38.3949 42.6623 38.8137 43.8976 39.6546 44.7858C40.4958 45.6744 41.6719 46.1266 43.1075 46.1266C43.7508 46.1266 44.3011 46.0836 44.7692 45.9809C45.2323 45.8792 45.7226 45.72 46.2257 45.5037L46.2948 45.476L46.389 45.4382V45.3368V43.8154V43.5901L46.1811 43.677L46.0111 43.7481L46.0111 43.7481L46.0099 43.7486C45.0631 44.1537 44.1055 44.3621 43.15 44.3621ZM42.7249 37.6666C43.3841 37.6666 43.8765 37.8809 44.2108 38.2809C44.5146 38.6467 44.7028 39.1835 44.7377 39.8833H40.4584C40.5572 39.2187 40.793 38.6949 41.1359 38.3138C41.5283 37.8808 42.0521 37.6666 42.7249 37.6666Z" fill="#446CB3" stroke="#446CB3" stroke-width="0.3"/>
<path d="M53.3106 35.9447C52.6396 35.9447 52.0073 36.0764 51.4596 36.3437C51.0789 36.529 50.7399 36.7703 50.4665 37.0691L50.3125 36.2242L50.2901 36.1011H50.165H48.8047H48.6547V36.2511V45.806V45.956H48.8047H50.4484H50.5984V45.806V40.801C50.5984 39.6302 50.811 38.8245 51.2126 38.3694L51.2126 38.3694L51.2142 38.3676C51.6006 37.9153 52.2447 37.6666 53.1406 37.6666C53.8133 37.6666 54.2742 37.832 54.5603 38.144C54.85 38.46 55.0026 38.956 55.0026 39.6636V45.806V45.956H55.1526H56.7963H56.9463V45.806V39.6067C56.9463 38.3628 56.6438 37.4202 56.0227 36.8122L56.0228 36.8122L56.0199 36.8096C55.4017 36.2345 54.4807 35.9447 53.3106 35.9447Z" fill="#446CB3" stroke="#446CB3" stroke-width="0.3"/>
<path d="M61.4118 38.5111L61.4122 38.5104C61.7925 37.9446 62.3386 37.6668 63.0872 37.6668C63.9795 37.6668 64.5937 37.9275 64.9669 38.4054L64.9672 38.4058C65.3598 38.9048 65.5727 39.7855 65.5727 41.0572V41.3558C65.5727 42.4807 65.3614 43.2618 64.9844 43.7191C64.5983 44.1704 63.9831 44.4049 63.0872 44.4049C62.3208 44.4049 61.7743 44.1384 61.3956 43.6147C61.0106 43.068 60.8001 42.2228 60.8001 41.0856C60.8001 39.9635 61.0103 39.1019 61.4118 38.5111ZM65.5444 36.265L65.5442 36.265L65.5445 36.272L65.5724 36.9152C64.8882 36.2601 63.9881 35.9307 62.903 35.9307C61.6165 35.9307 60.5929 36.3878 59.8666 37.3098C59.1443 38.2124 58.7855 39.4725 58.7855 41.0572C58.7855 42.6278 59.1443 43.888 59.8526 44.7764L59.8536 44.7776C60.5801 45.6703 61.6173 46.1268 62.903 46.1268C64.0731 46.1268 65.0209 45.7567 65.7083 45.0081L65.8294 45.8281L65.8483 45.9562H65.9778H67.3522H67.5022V45.8062V32.3555V32.2055H67.3522H65.7086H65.5591L65.5586 32.3549L65.5444 36.265Z" fill="#446CB3" stroke="#446CB3" stroke-width="0.3"/>
<path d="M71.6962 32.9469L71.6963 32.9468L71.6919 32.9428C71.4786 32.7452 71.215 32.6469 70.924 32.6469C70.6199 32.6469 70.3559 32.7445 70.1419 32.9428C69.914 33.1539 69.8246 33.4737 69.8246 33.849C69.8246 34.2285 69.916 34.5288 70.1376 34.7512C70.3529 34.9672 70.6193 35.0654 70.924 35.0654C71.2157 35.0654 71.4816 34.9664 71.6962 34.7512C71.9146 34.5319 72.0233 34.2344 72.0233 33.849C72.0233 33.4637 71.9146 33.1661 71.6962 32.9469Z" fill="#446CB3" stroke="#446CB3" stroke-width="0.3"/>
<path d="M69.9359 45.8195V45.9695H70.0859H71.7438H71.8938V45.8195V36.2646V36.1146H71.7438H70.0859H69.9359V36.2646V45.8195Z" fill="#446CB3" stroke="#446CB3" stroke-width="0.3"/>
<path d="M78.8035 44.2682L78.8034 44.268L78.7955 44.2707C78.7057 44.3007 78.5838 44.3229 78.4213 44.3526C78.3777 44.3606 78.3311 44.3691 78.2814 44.3784C78.0555 44.4067 77.8389 44.4335 77.5961 44.4335C77.203 44.4335 76.9099 44.3167 76.7046 44.0742L76.7046 44.0742L76.7021 44.0714C76.4944 43.8385 76.3717 43.4675 76.3717 42.9626V37.7522H78.9139H79.0639V37.6022V36.2657V36.1157H78.9139H76.3717V34.1045V33.9545H76.2217H75.2015H75.0901L75.0579 34.0612L74.4685 36.0143L73.1853 36.5836L73.0961 36.6231V36.7207V37.6022V37.7522H73.2461H74.428V43.0195C74.428 44.0225 74.6706 44.8088 75.1776 45.3443C75.686 45.8812 76.4364 46.1412 77.3978 46.1412C77.6493 46.1412 77.9268 46.1115 78.2399 46.0687L78.24 46.0688L78.2465 46.0676C78.5559 46.0112 78.7995 45.952 78.9896 45.858L79.0548 45.8318L79.1489 45.794V45.6926V44.3702V44.1737L78.9593 44.2256L78.8035 44.2682Z" fill="#446CB3" stroke="#446CB3" stroke-width="0.3"/>
<path d="M13.8376 29H7.51798L1 40.3321L7.51798 51.6643L8.8074 49.432L3.57885 40.3321L8.8074 31.2465H12.5482L13.8376 29Z" fill="#446CB3"/>
<path d="M9.38795 36.6918L10.6632 34.4737L8.807 31.2461L7.51758 33.4642L9.38795 36.6918Z" fill="#D24D57"/>
<path d="M16.6994 31.2461L17.9889 33.4784L8.807 49.4316L7.51758 47.1992L16.6994 31.2461Z" fill="#D24D57"/>
<path d="M11.6836 51.6643L12.9589 49.432H16.6996L21.9282 40.3321L16.6996 31.2465L17.989 29L24.507 40.3321L17.989 51.6643H11.6836Z" fill="#446CB3"/>
<path d="M16.0902 43.9287L14.8008 46.161L16.6995 49.4313L17.9889 47.2132L16.0902 43.9287Z" fill="#D24D57"/>
</svg> -->


<svg width="65" height="18" viewBox="0 0 65 18" fill="none" xmlns="http://www.w3.org/2000/svg">
  <path fill-rule="evenodd" clip-rule="evenodd" d="M27.9118 5.9903L25.8809 8.93882L23.8379 5.9903H22.2181L25.0468 9.95389L22.073 14.1108H23.6929L25.8809 10.981L28.0447 14.1108H29.6646L26.6908 9.95389L29.5195 5.9903H27.9118Z" fill="#5470DE"/>
  <path fill-rule="evenodd" clip-rule="evenodd" d="M34.0588 7.05265C34.6511 7.05265 35.1105 7.246 35.4248 7.6206C35.727 7.98313 35.8963 8.51483 35.9083 9.19154H31.9796C32.0521 8.539 32.2697 8.01938 32.6082 7.64477C32.9708 7.246 33.4544 7.05265 34.0588 7.05265ZM34.0709 5.84424C32.9829 5.84424 32.1005 6.23093 31.4598 7.00431C30.8191 7.76561 30.4927 8.81693 30.4927 10.1099C30.4927 11.4029 30.8432 12.418 31.5323 13.143C32.2213 13.8681 33.1884 14.2427 34.3852 14.2427C34.9292 14.2427 35.3885 14.2065 35.7754 14.1219C36.1622 14.0373 36.5732 13.9043 36.9963 13.7231L37.0568 13.6989V12.4059L36.9117 12.4663C36.0897 12.8168 35.2556 12.998 34.4215 12.998C33.6478 12.998 33.0313 12.7684 32.6082 12.3092C32.1972 11.8621 31.9675 11.2096 31.9312 10.3637H37.3952V9.50573C37.3952 8.41816 37.093 7.52393 36.5007 6.8593C35.9084 6.18259 35.0863 5.84424 34.0709 5.84424Z" fill="#5470DE"/>
  <path fill-rule="evenodd" clip-rule="evenodd" d="M43.0822 5.84424C42.5261 5.84424 42.0063 5.953 41.559 6.17051C41.1601 6.36386 40.8216 6.62971 40.5799 6.96806L40.3985 5.97716H39.238V14.0977H40.6403V9.84408C40.6403 8.8411 40.8216 8.11605 41.1964 7.69311C41.559 7.27017 42.1514 7.05265 42.9371 7.05265C43.5295 7.05265 43.9647 7.19766 44.2427 7.49976C44.5207 7.80187 44.6537 8.26106 44.6537 8.87735V14.0977H46.056V8.82902C46.056 7.78978 45.8021 7.02848 45.3065 6.54512C44.8109 6.08592 44.0614 5.84424 43.0822 5.84424Z" fill="#5470DE"/>
  <path fill-rule="evenodd" clip-rule="evenodd" d="M51.4213 13.0347C50.7323 13.0347 50.2246 12.793 49.874 12.3096C49.5234 11.8142 49.3421 11.065 49.3421 10.0862C49.3421 9.11942 49.5234 8.35813 49.8861 7.82642C50.2367 7.30681 50.7444 7.05304 51.4213 7.05304C52.2071 7.05304 52.7753 7.28264 53.1258 7.72975C53.4885 8.18895 53.6698 8.97442 53.6698 10.062V10.3158C53.6698 11.2825 53.4885 11.9834 53.1379 12.4063C52.7753 12.8292 52.2071 13.0347 51.4213 13.0347ZM53.6456 5.98964L53.6698 6.54551L53.7061 6.90803C53.1258 6.19507 52.3038 5.83254 51.2642 5.83254C50.2004 5.83254 49.3663 6.20715 48.774 6.95637C48.1816 7.6935 47.8794 8.73273 47.8794 10.062C47.8794 11.3792 48.1816 12.4184 48.7619 13.1434C49.3542 13.8685 50.2004 14.2431 51.2642 14.2431C52.3401 14.2431 53.1742 13.8685 53.7423 13.1193L53.8874 14.0981H55.06V2.6665H53.6577L53.6456 5.98964Z" fill="#5470DE"/>
  <path fill-rule="evenodd" clip-rule="evenodd" d="M58.1117 3.04102C57.882 3.04102 57.6886 3.11352 57.5314 3.25853C57.3743 3.40354 57.3018 3.63314 57.3018 3.93524C57.3018 4.23734 57.3743 4.45486 57.5314 4.61195C57.6886 4.76905 57.882 4.84155 58.1117 4.84155C58.3293 4.84155 58.5227 4.76905 58.6799 4.61195C58.837 4.45486 58.9216 4.23734 58.9216 3.93524C58.9216 3.63314 58.837 3.41562 58.6799 3.25853C58.5227 3.11352 58.3293 3.04102 58.1117 3.04102Z" fill="#5470DE"/>
  <path fill-rule="evenodd" clip-rule="evenodd" d="M57.3962 14.1108H58.8106V5.99023H57.3962V14.1108Z" fill="#5470DE"/>
  <path fill-rule="evenodd" clip-rule="evenodd" d="M64.867 12.9138C64.7582 12.9501 64.6011 12.9742 64.4077 13.0105C64.2142 13.0347 64.0208 13.0588 63.8032 13.0588C63.4406 13.0588 63.1504 12.9501 62.9449 12.7084C62.7394 12.4788 62.6306 12.1284 62.6306 11.6812V7.12553H64.9275V5.98962H62.6306V4.15283H61.7603L61.2405 5.86878L60.092 6.37631V7.12553H61.2284V11.7296C61.2284 13.3972 62.0383 14.2552 63.634 14.2552C63.8395 14.2552 64.0692 14.231 64.3351 14.1947C64.6011 14.1464 64.7945 14.0981 64.9396 14.0256L65 14.0014V12.8776L64.867 12.9138Z" fill="#5470DE"/>
  <path d="M10.2346 0H5.19639L0 9L5.19639 18L6.22437 16.2271L2.05596 9L6.22437 1.78419H9.20664L10.2346 0Z" fill="#5470DE"/>
  <path d="M6.68913 6.10915L7.70582 4.34754L6.22598 1.78418L5.198 3.54579L6.68913 6.10915Z" fill="#4D71F7"/>
  <path d="M12.5181 1.78418L13.5461 3.55708L6.22598 16.2271L5.198 14.4542L12.5181 1.78418Z" fill="#4D71F7"/>
  <path d="M8.52173 18L9.53841 16.2271H12.5207L16.6891 9L12.5207 1.78419L13.5487 0L18.7451 9L13.5487 18H8.52173Z" fill="#5470DE"/>
  <path d="M12.0294 11.8569L11.0015 13.6298L12.5152 16.2271L13.5432 14.4655L12.0294 11.8569Z" fill="#4D71F7"/>
</svg>