<svg width="18" height="18" viewBox="0 0 18 18" fill="none" xmlns="http://www.w3.org/2000/svg">
  <path d="M16.5 9C16.5 13.1421 13.1421 16.5 9 16.5C4.85786 16.5 1.5 13.1421 1.5 9C1.5 4.85786 4.85786 1.5 9 1.5C13.1421 1.5 16.5 4.85786 16.5 9Z" stroke="#565865" stroke-width="1.25"/>
  <path d="M10.4375 7.59584C10.4375 7.94102 10.7173 8.22084 11.0625 8.22084C11.4077 8.22084 11.6875 7.94102 11.6875 7.59584H10.4375ZM7.375 10.4045C7.375 10.0593 7.09518 9.77948 6.75 9.77948C6.40482 9.77948 6.125 10.0593 6.125 10.4045H7.375ZM9.625 5.25C9.625 4.90482 9.34518 4.625 9 4.625C8.65482 4.625 8.375 4.90482 8.375 5.25L9.625 5.25ZM8.375 12.75C8.375 13.0952 8.65482 13.375 9 13.375C9.34518 13.375 9.625 13.0952 9.625 12.75H8.375ZM9 8.26714C8.28985 8.26714 7.9265 8.15337 7.75394 8.03785C7.6349 7.95815 7.5625 7.85203 7.5625 7.59584H6.3125C6.3125 8.1749 6.52135 8.71692 7.05856 9.07657C7.54225 9.40038 8.21015 9.51714 9 9.51714V8.26714ZM7.5625 7.59584C7.5625 7.42519 7.65553 7.21792 7.91117 7.03047C8.16644 6.8433 8.54936 6.7085 9 6.7085V5.4585C8.31155 5.4585 7.66322 5.66225 7.17201 6.02243C6.68118 6.38234 6.3125 6.93125 6.3125 7.59584H7.5625ZM9 6.7085C9.45064 6.7085 9.83356 6.8433 10.0888 7.03047C10.3445 7.21792 10.4375 7.42519 10.4375 7.59584H11.6875C11.6875 6.93125 11.3188 6.38234 10.828 6.02243C10.3368 5.66225 9.68845 5.4585 9 5.4585V6.7085ZM10.625 10.4045C10.625 10.7076 10.5039 10.8898 10.2706 11.0291C9.99943 11.191 9.56499 11.2918 9 11.2918V12.5418C9.67765 12.5418 10.3682 12.4266 10.9113 12.1024C11.4924 11.7555 11.875 11.1816 11.875 10.4045H10.625ZM9 11.2918C8.4859 11.2918 8.04851 11.1507 7.75767 10.9552C7.46291 10.757 7.375 10.5505 7.375 10.4045H6.125C6.125 11.0937 6.54077 11.6433 7.06035 11.9926C7.58385 12.3445 8.27146 12.5418 9 12.5418V11.2918ZM9 9.51714C9.71515 9.51714 10.1275 9.62502 10.3476 9.76769C10.5109 9.87352 10.625 10.0323 10.625 10.4045H11.875C11.875 9.69644 11.6141 9.09903 11.0274 8.71875C10.4975 8.3753 9.78485 8.26714 9 8.26714V9.51714ZM9.625 6.0835L9.625 5.25L8.375 5.25L8.375 6.0835L9.625 6.0835ZM8.375 11.9168V12.75H9.625V11.9168H8.375Z" fill="#565865"/>
</svg>