<svg width="16" height="16" viewBox="0 0 16 16" fill="none" xmlns="http://www.w3.org/2000/svg">
  <path d="M11 6.5L11.9199 7.29289C12.3066 7.62623 12.5 7.79289 12.5 8C12.5 8.20711 12.3066 8.37377 11.9199 8.70711L11 9.5" stroke="#565865" stroke-width="1.25" stroke-linecap="round" stroke-linejoin="round"/>
  <path d="M5 6.5L4.08009 7.29289C3.69337 7.62623 3.5 7.79289 3.5 8C3.5 8.20711 3.69336 8.37377 4.08009 8.70711L5 9.5" stroke="#565865" stroke-width="1.25" stroke-linecap="round" stroke-linejoin="round"/>
  <path d="M8.75 5.75L7.25 10.25" stroke="#565865" stroke-width="1.25" stroke-linecap="round" stroke-linejoin="round"/>
  <path d="M0.875 8C0.875 4.64124 0.875 2.96186 1.91843 1.91843C2.96186 0.875 4.64124 0.875 8 0.875C11.3588 0.875 13.0381 0.875 14.0816 1.91843C15.125 2.96186 15.125 4.64124 15.125 8C15.125 11.3588 15.125 13.0381 14.0816 14.0816C13.0381 15.125 11.3588 15.125 8 15.125C4.64124 15.125 2.96186 15.125 1.91843 14.0816C0.875 13.0381 0.875 11.3588 0.875 8Z" stroke="#565865" stroke-width="1.25"/>
</svg>