<svg width="16" height="16" viewBox="0 0 16 16" fill="none" xmlns="http://www.w3.org/2000/svg">
  <path d="M8.96386 13.5235L3.36682 14.5629C2.29328 14.7623 1.7565 14.862 1.44727 14.5527C1.13804 14.2435 1.23772 13.7067 1.43707 12.6331L2.47642 7.03576C2.64308 6.13821 2.72642 5.68944 3.02227 5.41828C3.31812 5.14712 3.85917 5.0942 4.94127 4.98836C5.9842 4.88636 6.97122 4.52883 8 3.5L12.5 8.00041C11.4712 9.02924 11.1135 10.0156 11.0113 11.0586C10.9053 12.1408 10.8523 12.6819 10.5812 12.9777C10.31 13.2735 9.86132 13.3569 8.96386 13.5235Z" stroke="#565865" stroke-width="1.25" stroke-linejoin="round"/>
  <path d="M7.25 10.4079C6.83041 10.3398 6.44671 10.1572 6.14474 9.85526M6.14474 9.85526C5.84276 9.55329 5.66022 9.16959 5.59211 8.75M6.14474 9.85526L2 14" stroke="#565865" stroke-width="1.25" stroke-linecap="round"/>
  <path d="M8 3.5C8.53422 2.71182 9.25782 1.3859 10.3299 1.25824C11.0617 1.17109 11.6679 1.77734 12.8804 2.98983L13.0102 3.11958C14.2227 4.33208 14.8289 4.93832 14.7418 5.67012C14.6141 6.74218 13.2882 7.46578 12.5 8" stroke="#565865" stroke-width="1.25" stroke-linejoin="round"/>
</svg>