<svg width="170" height="200" viewBox="0 0 170 200" fill="none" xmlns="http://www.w3.org/2000/svg">
<rect x="0.683036" y="0.683036" width="168.634" height="198.634" rx="9.31696" fill="white"/>
<rect x="0.683036" y="0.683036" width="168.634" height="198.634" rx="9.31696" stroke="#EAECF0" stroke-width="1.36607"/>
<circle cx="141" cy="171" r="17" fill="#3498F5"/>
<g clip-path="url(#clip0_676_19593)">
<path d="M148.5 175.5C148.5 176.55 148.5 177.075 148.296 177.476C148.116 177.829 147.829 178.116 147.476 178.296C147.075 178.5 146.55 178.5 145.5 178.5C144.45 178.5 143.925 178.5 143.524 178.296C143.171 178.116 142.884 177.829 142.704 177.476C142.5 177.075 142.5 176.55 142.5 175.5C142.5 174.45 142.5 173.925 142.704 173.524C142.884 173.171 143.171 172.884 143.524 172.704C143.925 172.5 144.45 172.5 145.5 172.5C146.55 172.5 147.075 172.5 147.476 172.704C147.829 172.884 148.116 173.171 148.296 173.524C148.5 173.925 148.5 174.45 148.5 175.5Z" stroke="white" stroke-width="1.5"/>
<path d="M148.5 169.5C148.5 170.55 148.5 171.075 148.296 171.476C148.116 171.829 147.829 172.116 147.476 172.296C147.075 172.5 146.55 172.5 145.5 172.5C144.45 172.5 143.925 172.5 143.524 172.296C143.171 172.116 142.884 171.829 142.704 171.476C142.5 171.075 142.5 170.55 142.5 169.5C142.5 168.45 142.5 167.925 142.704 167.524C142.884 167.171 143.171 166.884 143.524 166.704C143.925 166.5 144.45 166.5 145.5 166.5C146.55 166.5 147.075 166.5 147.476 166.704C147.829 166.884 148.116 167.171 148.296 167.524C148.5 167.925 148.5 168.45 148.5 169.5Z" stroke="white" stroke-width="1.5"/>
<path d="M142.5 175.5C142.5 176.55 142.5 177.075 142.296 177.476C142.116 177.829 141.829 178.116 141.476 178.296C141.075 178.5 140.55 178.5 139.5 178.5C138.45 178.5 137.925 178.5 137.524 178.296C137.171 178.116 136.884 177.829 136.704 177.476C136.5 177.075 136.5 176.55 136.5 175.5C136.5 174.45 136.5 173.925 136.704 173.524C136.884 173.171 137.171 172.884 137.524 172.704C137.925 172.5 138.45 172.5 139.5 172.5C140.55 172.5 141.075 172.5 141.476 172.704C141.829 172.884 142.116 173.171 142.296 173.524C142.5 173.925 142.5 174.45 142.5 175.5Z" stroke="white" stroke-width="1.5"/>
<path d="M139.5 166.5C139.5 167.55 139.5 168.075 139.296 168.476C139.116 168.829 138.829 169.116 138.476 169.296C138.075 169.5 137.55 169.5 136.5 169.5C135.45 169.5 134.925 169.5 134.524 169.296C134.171 169.116 133.884 168.829 133.704 168.476C133.5 168.075 133.5 167.55 133.5 166.5C133.5 165.45 133.5 164.925 133.704 164.524C133.884 164.171 134.171 163.884 134.524 163.704C134.925 163.5 135.45 163.5 136.5 163.5C137.55 163.5 138.075 163.5 138.476 163.704C138.829 163.884 139.116 164.171 139.296 164.524C139.5 164.925 139.5 165.45 139.5 166.5Z" stroke="white" stroke-width="1.5"/>
</g>
<g clip-path="url(#clip1_676_19593)">
<rect x="10" y="20" width="150" height="58" rx="6" fill="#D6DAE1"/>
<g clip-path="url(#clip2_676_19593)">
<path d="M160 20H-31.3265V81H160V20Z" fill="#FAE3D9"/>
<path d="M143.469 24.7263C146.251 26.6258 149.383 28.1337 151.691 30.5445C155.164 34.1727 156.269 39.7189 154.434 44.3146C153.741 46.0482 152.649 47.7574 152.839 49.6045C153.065 51.792 155.205 53.5244 157.487 53.783C158.334 53.8782 159.182 53.8001 160 53.5854V20H138.672C139.805 21.9056 141.802 23.588 143.469 24.7263Z" fill="#BBDED6"/>
<path d="M34.8379 20C36.7614 24.1175 40.2869 27.5481 44.5943 29.3928C49.644 31.5558 55.6785 31.5022 60.6861 29.25C64.5815 27.4981 67.9361 24.4786 72.1721 23.7454C81.0662 22.207 89.1491 31.307 98.0535 29.8234C101.425 29.2622 104.4 27.1553 106.297 24.431C107.244 23.0707 107.937 21.5689 108.411 19.9988H34.8379V20Z" fill="#8785A2"/>
<path d="M143.369 61.3739C140.309 59.0998 135.499 58.3678 134.236 54.3637C133.583 52.291 134.531 50.0657 135.759 48.2467C136.987 46.4276 138.531 44.7587 139.27 42.7127C140.738 38.6501 138.439 33.8812 134.589 31.6632C130.738 29.4452 125.758 29.5343 121.599 31.1642C117.44 32.7941 114.015 35.8014 111.184 39.1394C108.801 41.9478 106.355 45.2845 102.616 45.8323C98.8775 46.3813 95.2907 43.8559 91.5127 44.0389C87.2206 44.2475 83.8494 48.0441 82.9553 52.0653C82.0611 56.0864 83.1007 60.2539 84.3264 64.1933C86.1479 70.0444 88.4247 75.8248 91.7971 80.9963H140.907C142.237 78.6405 144.103 75.2733 145.177 71.8842C146.458 67.8435 146.608 63.7773 143.37 61.3702L143.369 61.3739Z" fill="#FCC6A2"/>
<path d="M61.815 68.4389C59.8405 68.5828 58.2717 69.998 56.713 71.168C51.1314 75.3538 43.5995 77.0606 36.6479 75.7162C32.3686 74.8878 28.2921 72.97 23.926 72.8772C19.9413 72.7931 16.0204 74.4352 13.1964 77.0923C12.1913 78.0378 10.9273 79.4567 10.0319 81.0012H67.2219C68.6671 77.9781 68.75 74.2802 66.963 71.434C65.8737 69.6991 63.9234 68.2852 61.815 68.4401V68.4389Z" fill="#BBDED6"/>
<g clip-path="url(#clip3_676_19593)">
<mask id="mask0_676_19593" style="mask-type:luminance" maskUnits="userSpaceOnUse" x="-27" y="20" width="192" height="62">
<path d="M164.974 20.2123H-26.3521V81.2123H164.974V20.2123Z" fill="white"/>
</mask>
<g mask="url(#mask0_676_19593)">
<path d="M103.439 17.9406C102.204 22.8048 98.2155 26.943 93.2474 28.5156C87.6096 30.2992 81.463 28.8706 75.7704 27.2566C70.0778 25.6425 64.1466 23.8284 58.3137 24.8873C54.1352 25.6462 50.3188 27.8434 46.0943 28.3155C39.7844 29.0207 33.2155 25.3009 30.8278 19.6694" stroke="white" stroke-width="0.122449" stroke-miterlimit="10"/>
<path d="M105.098 77.4181L106.163 84.3098H82.5702L83.7896 76.6909L105.098 76.0114V77.4181Z" fill="#7673A2"/>
<g style="mix-blend-mode:multiply" opacity="0.3">
<path d="M95.0191 81.61C99.4184 81.8686 102.378 83.0374 104.334 84.3086H106.163L105.098 77.4181V76.0114L83.7896 76.6909C83.7896 76.6909 84.4987 80.9902 95.0191 81.61Z" fill="#7673A2"/>
</g>
<path d="M105.098 76.0114V77.4181C105.098 77.4181 96.5153 80.7511 89.9095 80.0362C84.2551 79.4237 83.1531 76.7105 83.1531 76.7105L105.098 76.0114Z" fill="#33323D"/>
<path d="M97.6378 41.2975C97.6378 41.2975 101.527 38.5916 101.676 32.6782C101.825 26.7649 99.0217 27.6896 99.0217 27.6896C99.0217 27.6896 98.3024 24.431 92.2692 25.4802C86.236 26.5294 84.9733 31.6437 88.6123 33.265V36.8274L97.6365 41.2975H97.6378Z" fill="#33323D"/>
<g style="mix-blend-mode:screen" opacity="0.5">
<path d="M101.661 31.4741C101.622 30.7531 101.533 30.1614 101.406 29.6831C101.219 29.6319 101.029 29.5916 100.842 29.5636C100.083 29.4464 99.2972 29.4538 98.5638 29.2329C97.602 28.9426 96.8138 28.2862 96.0995 27.6055C95.3852 26.9259 94.7003 26.1951 93.838 25.6974C93.6084 25.5644 93.361 25.4509 93.1046 25.3619C92.8367 25.3936 92.5612 25.4314 92.2691 25.4814C91.5523 25.6059 90.9056 25.7901 90.324 26.0158C91.9362 25.8352 93.6314 26.3196 94.8418 27.3602C95.7003 28.0996 96.3406 29.1 97.3673 29.605C98.1543 29.9918 99.0765 30.0394 99.9005 30.3468C100.569 30.5957 101.142 31.0007 101.661 31.4753V31.4741Z" fill="#33323D"/>
</g>
<path d="M98.4846 37.4716C99.3039 37.4716 99.9681 36.8364 99.9681 36.0528C99.9681 35.2691 99.3039 34.6339 98.4846 34.6339C97.6654 34.6339 97.0012 35.2691 97.0012 36.0528C97.0012 36.8364 97.6654 37.4716 98.4846 37.4716Z" fill="#D9ABA3"/>
<path d="M97.6378 36.5127H93.125V43.7741H97.6378V36.5127Z" fill="#D9ABA3"/>
<g style="mix-blend-mode:multiply" opacity="0.5">
<path d="M93.125 36.5127V42.5688C93.125 42.5688 96.0918 42.6407 97.6378 40.5655V36.5115H93.125V36.5127Z" fill="#A67C75"/>
</g>
<path d="M93.125 43.7741C93.125 43.7741 90.574 43.9266 86.6097 45.6541C84.2679 46.6741 82.4643 48.5699 81.602 50.8904L78.574 59.0351H84.125C84.324 66.7931 84.4643 77.6377 84.4643 77.6377C96.0051 80.2802 105.698 75.7589 105.698 75.7589L106.296 71.1168L106.894 67.1103C106.894 67.1103 107.443 67.7935 107.608 68.5889C107.608 68.5889 109.819 62.0241 110.018 54.0124C110.217 46.0006 97.6365 43.7753 97.6365 43.7753H93.1237L93.125 43.7741Z" fill="#61C0BF"/>
<g style="mix-blend-mode:multiply" opacity="0.7">
<path d="M84.4248 52.7875C84.4248 52.7875 82.9758 56.9489 82.5702 59.0351L84.1225 58.8448C84.1225 58.8448 84.2564 55.3373 84.4235 52.7875H84.4248Z" fill="#61C0BF"/>
</g>
<g style="mix-blend-mode:multiply" opacity="0.7">
<path d="M89.6748 47.3914C89.6748 47.3914 90.6072 46.5996 91.3342 47.3499L90.6939 45.8713H90.333L89.7934 46.94L89.6761 47.3914H89.6748Z" fill="#61C0BF"/>
</g>
<g style="mix-blend-mode:multiply" opacity="0.7">
<path d="M90.8483 48.6737C90.8483 48.6737 92.2105 46.6643 95.6429 48.2576L92.1531 46.1117L91.3342 47.3512L90.8483 48.6737Z" fill="#61C0BF"/>
</g>
<g style="mix-blend-mode:multiply" opacity="0.7">
<path d="M99.787 52.0909C99.787 52.0909 96.449 56.7635 95.0191 61.1189C93.4273 65.9696 87.3406 68.1265 87.3406 68.1265L84.4235 74.7792L84.463 77.6352L87.8061 75.5429C87.8061 75.5429 101.348 73.7715 105.097 72.1586C105.097 72.1586 106.713 69.5417 106.893 67.1078L106.421 64.8618H101.55L99.9311 65.0607L99.9477 55.4398C99.9477 55.4398 99.5115 53.1803 99.7857 52.0896L99.787 52.0909Z" fill="#61C0BF"/>
</g>
<path d="M107.608 68.5877C107.608 68.5877 107.024 68.8232 106.421 68.6658L106.893 67.1103H107.607V68.5889L107.608 68.5877Z" fill="#488F8F"/>
<path d="M105.565 63.8504C103.073 63.0391 99.9529 64.5178 99.9529 64.5178V66.1758L100.579 65.9647C102.723 64.9558 104.554 65.473 104.554 65.473L106.695 67.7642L106.894 67.1091C106.894 67.1091 107.443 67.7923 107.608 68.5877C107.608 68.5877 107.927 67.6385 108.334 66.0233C107.75 65.2046 106.841 64.2652 105.564 63.8504H105.565Z" fill="#BBDED6"/>
<path d="M69.2015 61.3873L89.7424 59.0339V75.1855L69.2015 79.0004V61.3873Z" fill="#BFA099"/>
<path d="M84.7016 65.273C82.9988 62.983 80.2628 65.7659 80.2628 65.7659C80.2628 65.7659 77.4912 63.837 75.8279 66.6479C74.0243 69.6955 80.3164 72.6662 80.3164 72.6662C80.3164 72.6662 86.5473 67.7557 84.7016 65.273Z" fill="white"/>
<g style="mix-blend-mode:multiply" opacity="0.3">
<path d="M89.7424 63.6077C89.7424 63.6077 83.9337 74.6731 69.2003 78.9992L89.7424 75.1843V63.6077Z" fill="#BFA099"/>
</g>
<g style="mix-blend-mode:multiply" opacity="0.3">
<path d="M89.7424 69.8846L87.3164 70.702C87.3164 70.702 84.8483 70.4872 83.8266 70.3921C82.8049 70.2969 81.1097 70.4165 80.287 70.9411C79.4643 71.4657 76.3227 72.205 76.7972 73.1346C77.2704 74.0643 80.9107 72.8248 80.9107 72.8248C80.9107 72.8248 79.3151 75.4953 78.3432 76.2822C77.9439 76.6055 77.1391 77.1265 76.3687 77.6694L86.5102 75.7857L86.9516 75.3282L89.7437 74.7316V69.8858L89.7424 69.8846Z" fill="#BFA099"/>
</g>
<path d="M103.847 71.4474L86.9516 75.0574L84.2028 77.9085C83.9477 78.1733 83.5893 78.3233 83.213 78.3233H80.2883L78.6684 79.1346C78.6684 79.1346 77.9452 79.4689 77.222 78.8247C77.222 78.8247 75.1034 79.9459 74.5549 79.3493C74.0064 78.7528 77.3725 76.7983 78.3444 76.0114C79.3164 75.2245 80.912 72.5539 80.912 72.5539C80.912 72.5539 77.2717 73.7935 76.7985 72.8638C76.3253 71.9342 79.4656 71.1949 80.2883 70.6703C81.111 70.1457 82.8062 70.0261 83.8279 70.1213C84.8495 70.2164 87.3176 70.4311 87.3176 70.4311L100.58 65.9647C100.58 65.9647 104.569 63.9298 106.895 67.1091L106.227 69.3087C105.901 70.3836 104.989 71.2022 103.847 71.4462V71.4474Z" fill="#DDA49B"/>
<g style="mix-blend-mode:multiply" opacity="0.3">
<path d="M83.7896 72.6979C82.2296 73.9618 80.6696 75.227 79.1097 76.4909C77.7156 77.6206 76.2628 78.7772 74.551 79.3469C74.551 79.3469 74.551 79.3493 74.5523 79.3493C75.1008 79.9459 77.2194 78.8247 77.2194 78.8247C78.6888 78.233 81.1454 76.0114 81.1454 76.0114C82.0587 75.2135 83.2156 73.7471 83.7883 72.6979H83.7896Z" fill="#A67C75"/>
</g>
<path d="M106.424 66.5564C101.791 69.0452 96.6965 70.7434 91.449 71.5438C90.5651 71.6792 89.6569 71.7878 88.7794 71.6218C88.4796 71.5657 88.1761 71.4767 87.8763 71.5255C87.5791 71.5743 87.324 71.7524 87.083 71.9244C86.1901 72.5612 85.2972 73.1981 84.4044 73.8349C83.5523 74.4425 82.9312 75.2904 82.583 76.2505C82.4018 76.7495 82.12 77.2778 81.6837 77.6242L80.2883 78.3233H81.5842C81.5842 78.3233 82.9975 77.7145 83.662 77.2607C83.9835 77.0399 84.3381 77.0765 84.7348 77.124L82.296 78.3245H82.8649L84.9376 77.1484L86.9529 75.0586L103.848 71.4486C104.99 71.2046 105.902 70.3848 106.228 69.3112L106.897 67.1115C106.746 66.9053 106.588 66.7223 106.426 66.5588L106.424 66.5564Z" fill="#D9ABA3"/>
<path d="M69.2015 61.3873L46 57.2539V72.4246L69.2015 79.0004V61.3873Z" fill="#A38983"/>
<path d="M46 57.2539L66.5421 54.9017L89.7424 59.0339L69.2015 61.3873L46 57.2539Z" fill="#D6B3AB"/>
<path d="M91.8036 30.6274H88.6123V38.1865C88.6123 40.28 90.3865 41.9783 92.5766 41.9783C95.3712 41.9783 97.6378 39.8116 97.6378 37.1373V33.2455C94.148 33.1918 91.8049 30.6286 91.8049 30.6286L91.8036 30.6274Z" fill="#D9ABA3"/>
<path d="M102.341 50.8001C99.7143 51.4357 99.9528 55.9192 99.9528 55.9192" stroke="#33323D" stroke-width="0.122449" stroke-miterlimit="10"/>
<path d="M99.949 55.441C99.949 55.441 99.315 52.5484 100.147 50.8001" stroke="#33323D" stroke-width="0.122449" stroke-miterlimit="10"/>
<path d="M90.6938 45.8725L91.3342 47.3512L92.153 46.1104H97.6377V43.7741H93.125H92.153L90.6938 45.426V45.8725Z" fill="#D9ABA3"/>
<g style="mix-blend-mode:multiply" opacity="0.3">
<path d="M90.6938 45.426V45.8725L91.3342 47.3512C91.2717 45.2332 93.125 43.7741 93.125 43.7741H92.153L90.6938 45.426Z" fill="#A67C75"/>
</g>
<path d="M98.4859 42.9628H97.6377V44.2743H98.4859V42.9628Z" fill="#488F8F"/>
<path d="M92.153 46.1104L91.3342 47.3499C91.3342 47.3499 89.676 50.8953 89.5433 53.8196L91.3342 54.1063" stroke="#33323D" stroke-width="0.122449" stroke-miterlimit="10"/>
<path d="M92.2691 49.5289C92.5812 49.5289 92.8342 49.2869 92.8342 48.9884C92.8342 48.6899 92.5812 48.4479 92.2691 48.4479C91.9571 48.4479 91.7041 48.6899 91.7041 48.9884C91.7041 49.2869 91.9571 49.5289 92.2691 49.5289Z" fill="#BBDED6"/>
<path d="M91.4133 52.0909C91.7254 52.0909 91.9784 51.8489 91.9784 51.5504C91.9784 51.2519 91.7254 51.0099 91.4133 51.0099C91.1013 51.0099 90.8483 51.2519 90.8483 51.5504C90.8483 51.8489 91.1013 52.0909 91.4133 52.0909Z" fill="#BBDED6"/>
<path d="M76.8928 72.3368C77.3635 73.0017 78.4413 72.4234 78.4413 72.4234C78.4668 71.9122 77.9502 71.6621 77.9502 71.6621C77.4923 71.8707 77.0956 72.0964 76.8928 72.3368Z" fill="#C7958C"/>
<path d="M98.4847 42.9628C98.4847 42.9628 95.5931 45.2991 92.1531 46.1104L95.6429 48.2564C95.6429 48.2564 98.1735 45.9494 99.0217 44.0889L98.4847 42.9628Z" fill="#BBDED6"/>
<path d="M90.6938 45.8725C90.6938 45.8725 89.7768 46.6143 89.5433 47.8892C89.5433 47.8892 89.7091 44.2036 93.125 42.964V43.7753C93.125 43.7753 91.8431 43.8571 90.6938 45.8737V45.8725Z" fill="#BBDED6"/>
<path d="M61.4923 65.6707C59.917 62.922 56.9616 64.7496 56.9616 64.7496C56.9616 64.7496 54.2792 62.0119 52.4093 64.2055C50.3826 66.5832 56.5637 71.4352 56.5637 71.4352C56.5637 71.4352 63.2002 68.6511 61.4923 65.6707Z" fill="#F0F0F0"/>
<path d="M90.009 36.0527C90.4725 36.0527 90.8483 35.6933 90.8483 35.25C90.8483 34.8066 90.4725 34.4472 90.009 34.4472C89.5454 34.4472 89.1697 34.8066 89.1697 35.25C89.1697 35.6933 89.5454 36.0527 90.009 36.0527Z" fill="#33323D"/>
<path d="M93.4579 36.0527C93.9215 36.0527 94.2972 35.6933 94.2972 35.25C94.2972 34.8066 93.9215 34.4472 93.4579 34.4472C92.9944 34.4472 92.6187 34.8066 92.6187 35.25C92.6187 35.6933 92.9944 36.0527 93.4579 36.0527Z" fill="#33323D"/>
<path d="M93.1378 35.1987C93.2801 35.1987 93.3954 35.0884 93.3954 34.9523C93.3954 34.8162 93.2801 34.7059 93.1378 34.7059C92.9955 34.7059 92.8801 34.8162 92.8801 34.9523C92.8801 35.0884 92.9955 35.1987 93.1378 35.1987Z" fill="white"/>
<path d="M89.6888 35.1987C89.8311 35.1987 89.9465 35.0884 89.9465 34.9523C89.9465 34.8162 89.8311 34.7059 89.6888 34.7059C89.5465 34.7059 89.4312 34.8162 89.4312 34.9523C89.4312 35.0884 89.5465 35.1987 89.6888 35.1987Z" fill="white"/>
<g style="mix-blend-mode:multiply" opacity="0.7">
<path d="M90.8483 39.2638C90.8483 39.2638 91.3177 39.4175 91.9427 39.3663C91.9427 39.3663 91.3342 39.836 90.8483 39.2638Z" fill="#A67C75"/>
</g>
<path d="M91.6326 35.9893C91.3737 36.4541 90.9655 36.8421 90.4783 37.0873C90.741 37.274 91.0051 37.4618 91.2678 37.6485" stroke="#33323D" stroke-width="0.122449" stroke-miterlimit="10"/>
<path d="M90.088 38.6477C91.2143 39.1088 92.5166 39.165 93.6824 38.8038" stroke="#33323D" stroke-width="0.122449" stroke-miterlimit="10"/>
<path d="M88.8367 34.0422C89.0293 33.7482 89.3635 33.5432 89.7219 33.4968C90.0816 33.4505 90.4591 33.5639 90.727 33.7994" stroke="#33323D" stroke-width="0.122449" stroke-miterlimit="10"/>
<path d="M92.4287 33.7958C92.7591 33.503 93.2336 33.3651 93.6787 33.4334C94.1239 33.5017 94.5295 33.775 94.7463 34.152" stroke="#33323D" stroke-width="0.122449" stroke-miterlimit="10"/>
<path d="M98.9503 35.3537C98.6901 35.4867 98.4146 35.6355 98.2806 35.8868C98.162 36.1113 98.1773 36.376 98.1965 36.6274" stroke="#33323D" stroke-width="0.122449" stroke-miterlimit="10"/>
<g style="mix-blend-mode:multiply" opacity="0.3">
<path d="M80.9094 72.5539C80.9094 72.5539 81.6773 72.3734 82.1224 72.0915C82.1224 72.0915 81.7309 72.6832 80.9094 72.5539Z" fill="#A67C75"/>
</g>
<path d="M6.6377 82.8727C7.22698 79.0333 10.9808 76.2078 14.926 75.3038C18.8711 74.401 23.0012 75.0232 27.005 75.6491C31.0089 76.2749 35.139 76.8983 39.0841 75.998C44.1734 74.8365 48.3494 71.2766 53.3788 69.8992C58.7678 68.4242 64.6951 69.6503 69.542 72.3429C74.389 75.0354 78.2703 79.0797 81.5803 83.407" stroke="white" stroke-width="0.122449" stroke-miterlimit="10"/>
<path d="M169.454 73.2811C165.681 71.6621 161.964 69.798 158.888 67.1554C155.81 64.5129 153.395 61.0079 152.782 57.0965C151.9 51.4809 154.744 46.0092 157.501 40.9803C161.11 34.3997 164.718 27.819 168.326 21.2383" stroke="white" stroke-width="0.122449" stroke-miterlimit="10"/>
</g>
</g>
</g>
</g>
<rect x="10" y="92" width="125" height="9" rx="4.5" fill="#EAECF0"/>
<rect x="10" y="111" width="150" height="9" rx="4.5" fill="#D6DAE1"/>
<rect x="10" y="130" width="128" height="9" rx="4.5" fill="#EAECF0"/>
<rect x="10" y="149" width="111" height="9" rx="4.5" fill="#D6DAE1"/>
<defs>
<clipPath id="clip0_676_19593">
<rect width="18" height="18" fill="white" transform="translate(132 162)"/>
</clipPath>
<clipPath id="clip1_676_19593">
<rect x="10" y="20" width="150" height="58" rx="6" fill="white"/>
</clipPath>
<clipPath id="clip2_676_19593">
<rect width="150" height="61" fill="white" transform="translate(10 20)"/>
</clipPath>
<clipPath id="clip3_676_19593">
<rect width="195.832" height="66.3839" fill="white" transform="translate(-26.3521 17.926)"/>
</clipPath>
</defs>
</svg>
