<svg width="170" height="200" viewBox="0 0 170 200" fill="none" xmlns="http://www.w3.org/2000/svg">
<rect x="0.683036" y="0.683036" width="168.634" height="198.634" rx="9.31696" fill="white"/>
<rect x="0.683036" y="0.683036" width="168.634" height="198.634" rx="9.31696" stroke="#EAECF0" stroke-width="1.36607"/>
<circle cx="141" cy="171" r="17" fill="#A68AF3"/>
<path d="M138.482 164.359L137.204 164.95C135.235 165.86 134.25 166.315 134.25 167.062C134.25 167.81 135.235 168.265 137.204 169.175L138.482 169.766C139.721 170.339 140.341 170.625 141 170.625C141.659 170.625 142.279 170.339 143.518 169.766L144.796 169.175C146.765 168.265 147.75 167.81 147.75 167.062C147.75 166.315 146.765 165.86 144.796 164.95L143.518 164.359C142.279 163.786 141.659 163.5 141 163.5C140.341 163.5 139.721 163.786 138.482 164.359Z" stroke="white" stroke-width="1.5" stroke-linecap="round" stroke-linejoin="round"/>
<path d="M147.591 170.323C147.697 170.472 147.75 170.627 147.75 170.798C147.75 171.535 146.765 171.983 144.796 172.88L143.518 173.463C142.279 174.028 141.659 174.31 141 174.31C140.341 174.31 139.721 174.028 138.482 173.463L137.204 172.88C135.235 171.983 134.25 171.535 134.25 170.798C134.25 170.627 134.303 170.472 134.409 170.323" stroke="white" stroke-width="1.5" stroke-linecap="round" stroke-linejoin="round"/>
<path d="M147.282 174.2C147.594 174.448 147.75 174.695 147.75 174.988C147.75 175.725 146.765 176.173 144.796 177.07L143.518 177.653C142.279 178.218 141.659 178.5 141 178.5C140.341 178.5 139.721 178.218 138.482 177.653L137.204 177.07C135.235 176.173 134.25 175.725 134.25 174.988C134.25 174.695 134.406 174.448 134.718 174.2" stroke="white" stroke-width="1.5" stroke-linecap="round" stroke-linejoin="round"/>
<g clip-path="url(#clip0_676_19610)">
<rect x="10" y="20" width="150" height="58" rx="6" fill="#D6DAE1"/>
<g clip-path="url(#clip1_676_19610)">
<rect width="57.3169" height="67.5199" rx="3.60106" transform="matrix(0.83205 -0.5547 0.830139 0.557556 11 48.702)" fill="white"/>
<rect width="47.714" height="19.5057" rx="1.20035" transform="matrix(0.83205 -0.5547 0.830139 0.557556 18.9808 48.7158)" fill="#2F3448"/>
<path d="M43.7247 63.9926L44.8118 64.7227L44.6362 64.8398L43.3824 64.6847L43.3734 64.6908L44.1138 65.1881L43.9164 65.3197L42.8294 64.5896L43.006 64.4718L44.2598 64.6276L44.2694 64.6212L43.5284 64.1235L43.7247 63.9926ZM45.2699 64.4393C45.2182 64.4739 45.1623 64.4988 45.1024 64.5141C45.0425 64.5289 44.9823 64.5321 44.9217 64.5237C44.8615 64.5151 44.8047 64.4928 44.7513 64.4569C44.7053 64.426 44.6757 64.3948 44.6627 64.3633C44.6496 64.3317 44.6488 64.3001 44.6602 64.2683C44.6716 64.2366 44.6911 64.2053 44.7188 64.1745C44.7465 64.1433 44.7781 64.113 44.8136 64.0837C44.8565 64.0484 44.8909 64.0196 44.9168 63.9971C44.9423 63.9744 44.9576 63.9557 44.9626 63.941C44.9676 63.9258 44.9609 63.9121 44.9425 63.8997L44.9393 63.8976C44.8993 63.8707 44.8565 63.8578 44.8108 63.8589C44.7651 63.86 44.7199 63.8755 44.6752 63.9053C44.628 63.9367 44.6008 63.9686 44.5937 64.0008C44.5869 64.0328 44.5927 64.0614 44.6111 64.0865L44.4058 64.1893C44.3704 64.1466 44.3524 64.1032 44.3518 64.0591C44.3508 64.0147 44.3656 63.9713 44.3961 63.9286C44.4263 63.8858 44.47 63.8453 44.5271 63.8072C44.5664 63.781 44.6102 63.758 44.6584 63.7381C44.7067 63.7183 44.7575 63.7048 44.811 63.6975C44.8642 63.69 44.9186 63.6919 44.9742 63.7031C45.0301 63.7141 45.0852 63.7378 45.1393 63.7742L45.6849 64.1406L45.4998 64.2641L45.3878 64.1888L45.3814 64.1931C45.3924 64.2161 45.3971 64.2414 45.3956 64.2689C45.3942 64.2959 45.3835 64.3241 45.3636 64.3534C45.3437 64.3823 45.3125 64.411 45.2699 64.4393ZM45.1788 64.3112C45.2174 64.2854 45.2433 64.2579 45.2565 64.2288C45.2693 64.1994 45.2706 64.1711 45.2604 64.1438C45.2505 64.1163 45.2305 64.0925 45.2004 64.0723L45.1044 64.0077C45.1033 64.0151 45.0976 64.025 45.0873 64.0376C45.0774 64.0499 45.0651 64.063 45.0506 64.077C45.036 64.0909 45.0213 64.1045 45.0064 64.1178C44.9915 64.131 44.9785 64.1425 44.9675 64.1522C44.9427 64.174 44.9234 64.1954 44.9095 64.2165C44.8957 64.2375 44.8901 64.2578 44.8929 64.2773C44.8954 64.2965 44.909 64.3144 44.9338 64.331C44.9691 64.3548 45.0088 64.3641 45.0527 64.359C45.0967 64.3538 45.1387 64.3379 45.1788 64.3112ZM45.8786 64.0115L45.0633 63.464L45.2474 63.3412L45.3859 63.4343L45.3955 63.4279C45.3658 63.3852 45.3576 63.3419 45.3707 63.2981C45.3836 63.254 45.4173 63.2138 45.4719 63.1774C45.5272 63.1405 45.5873 63.1184 45.6522 63.1112C45.717 63.1035 45.7802 63.1098 45.8419 63.1303L45.8504 63.1247C45.8232 63.0822 45.8176 63.0376 45.8336 62.9909C45.8496 62.9438 45.8872 62.9005 45.9465 62.861C46.0217 62.8109 46.1067 62.7859 46.2017 62.786C46.2966 62.7862 46.3896 62.8168 46.4805 62.8779L47.0277 63.2455L46.8346 63.3742L46.3171 63.0266C46.2665 62.9926 46.216 62.9768 46.1657 62.9791C46.1151 62.9811 46.0702 62.9951 46.0312 63.0211C45.9848 63.0521 45.9629 63.0861 45.9657 63.1231C45.9685 63.1596 45.9928 63.1933 46.0388 63.2242L46.5473 63.5657L46.3585 63.6916L45.833 63.3387C45.7909 63.3104 45.7445 63.2963 45.6938 63.2965C45.6435 63.2964 45.598 63.31 45.5572 63.3372C45.5295 63.3556 45.5114 63.3771 45.5029 63.4018C45.494 63.4262 45.4955 63.4514 45.5075 63.4775C45.5192 63.5034 45.5418 63.5276 45.5754 63.5502L46.0712 63.8832L45.8786 64.0115ZM47.6008 62.8847C47.5189 62.9393 47.4311 62.9751 47.3376 62.992C47.244 63.0084 47.15 63.0063 47.0554 62.9855C46.9605 62.9645 46.8704 62.9253 46.7851 62.868C46.7013 62.8117 46.6436 62.7516 46.6122 62.6878C46.5808 62.6235 46.5763 62.5602 46.5987 62.4979C46.6208 62.4354 46.6708 62.3781 46.7489 62.3261C46.7992 62.2925 46.8549 62.2663 46.9159 62.2474C46.9768 62.2281 47.0413 62.2182 47.1093 62.2179C47.1777 62.2173 47.2478 62.2278 47.3197 62.2495C47.3912 62.271 47.4627 62.3057 47.5342 62.3537L47.5931 62.3933L46.9233 62.8398L46.7938 62.7528L47.279 62.4294C47.2419 62.4049 47.2012 62.3882 47.1569 62.3794C47.1123 62.3703 47.0676 62.3695 47.023 62.377C46.9787 62.3843 46.9381 62.4002 46.9012 62.4248C46.8618 62.4511 46.8368 62.4805 46.8261 62.5132C46.8151 62.5457 46.8166 62.5778 46.8307 62.6096C46.8449 62.6409 46.87 62.6689 46.9061 62.6936L47.0191 62.7696C47.0665 62.8014 47.1159 62.823 47.1673 62.8342C47.2183 62.8452 47.2684 62.8463 47.3176 62.8377C47.3666 62.8287 47.4119 62.8103 47.4538 62.7824C47.4818 62.7637 47.5033 62.7442 47.5182 62.7239C47.5327 62.7033 47.5406 62.6822 47.5417 62.6606C47.5428 62.639 47.5361 62.6177 47.5216 62.5966L47.7216 62.4902C47.7576 62.5296 47.7774 62.5719 47.7809 62.6169C47.7843 62.6615 47.7712 62.7067 47.7413 62.7527C47.7111 62.7984 47.6643 62.8424 47.6008 62.8847Z" fill="#253241"/>
<rect x="0.249402" y="0.000428529" width="47.414" height="6.00177" rx="1.05031" transform="matrix(0.83205 -0.5547 0.830139 0.557556 45.6772 66.7567)" fill="#F9FAFB" stroke="#D6DAE1" stroke-width="0.300088"/>
<path d="M53.9378 70.8521L55.0248 71.5822L54.8492 71.6993L53.5954 71.5442L53.5864 71.5502L54.3268 72.0475L54.1294 72.1791L53.0424 71.449L53.219 71.3313L54.4728 71.487L54.4824 71.4807L53.7414 70.983L53.9378 70.8521ZM55.483 71.2988C55.4312 71.3333 55.3753 71.3582 55.3154 71.3735C55.2555 71.3884 55.1953 71.3916 55.1347 71.3832C55.0745 71.3745 55.0177 71.3523 54.9643 71.3164C54.9183 71.2855 54.8888 71.2543 54.8757 71.2227C54.8626 71.1912 54.8618 71.1595 54.8732 71.1278C54.8846 71.096 54.9041 71.0648 54.9318 71.034C54.9595 71.0028 54.9911 70.9725 55.0266 70.9431C55.0695 70.9079 55.1039 70.879 55.1298 70.8566C55.1554 70.8338 55.1706 70.8151 55.1756 70.8005C55.1806 70.7853 55.1739 70.7715 55.1555 70.7592L55.1523 70.757C55.1123 70.7302 55.0695 70.7173 55.0238 70.7184C54.9781 70.7195 54.9329 70.735 54.8882 70.7648C54.841 70.7962 54.8139 70.828 54.8067 70.8603C54.7999 70.8923 54.8057 70.9208 54.8241 70.946L54.6188 71.0488C54.5835 71.006 54.5655 70.9626 54.5648 70.9185C54.5638 70.8742 54.5786 70.8307 54.6092 70.7881C54.6393 70.7452 54.683 70.7048 54.7401 70.6667C54.7795 70.6405 54.8232 70.6174 54.8715 70.5976C54.9197 70.5778 54.9705 70.5642 55.024 70.557C55.0772 70.5495 55.1316 70.5513 55.1872 70.5626C55.2431 70.5736 55.2982 70.5973 55.3523 70.6336L55.898 71.0001L55.7128 71.1235L55.6008 71.0483L55.5944 71.0526C55.6054 71.0756 55.6101 71.1008 55.6087 71.1283C55.6072 71.1554 55.5965 71.1835 55.5766 71.2129C55.5567 71.2418 55.5255 71.2704 55.483 71.2988ZM55.3918 71.1706C55.4304 71.1449 55.4563 71.1174 55.4695 71.0883C55.4823 71.0589 55.4836 71.0306 55.4734 71.0033C55.4635 70.9758 55.4435 70.9519 55.4134 70.9317L55.3174 70.8672C55.3163 70.8745 55.3106 70.8845 55.3003 70.897C55.2904 70.9093 55.2781 70.9225 55.2636 70.9364C55.249 70.9504 55.2343 70.964 55.2194 70.9773C55.2045 70.9905 55.1916 71.002 55.1806 71.0117C55.1557 71.0334 55.1364 71.0549 55.1225 71.0759C55.1087 71.097 55.1031 71.1173 55.1059 71.1367C55.1084 71.1559 55.122 71.1738 55.1468 71.1905C55.1822 71.2142 55.2218 71.2236 55.2658 71.2184C55.3097 71.2133 55.3517 71.1974 55.3918 71.1706ZM56.0916 70.871L55.2763 70.3234L55.4604 70.2007L55.5989 70.2938L55.6085 70.2874C55.5788 70.2447 55.5706 70.2014 55.5838 70.1575C55.5966 70.1135 55.6303 70.0732 55.6849 70.0368C55.7403 69.9999 55.8003 69.9779 55.8652 69.9706C55.93 69.9629 55.9933 69.9693 56.0549 69.9898L56.0634 69.9841C56.0362 69.9417 56.0306 69.8971 56.0466 69.8504C56.0626 69.8033 56.1003 69.7599 56.1595 69.7205C56.2347 69.6703 56.3197 69.6453 56.4147 69.6455C56.5096 69.6457 56.6026 69.6763 56.6935 69.7374L57.2407 70.1049L57.0476 70.2337L56.5301 69.8861C56.4795 69.8521 56.4291 69.8362 56.3787 69.8385C56.3281 69.8406 56.2832 69.8546 56.2442 69.8806C56.1978 69.9116 56.1759 69.9456 56.1787 69.9826C56.1815 70.0191 56.2059 70.0528 56.2519 70.0837L56.7603 70.4252L56.5715 70.5511L56.046 70.1982C56.0039 70.1699 55.9575 70.1558 55.9069 70.156C55.8565 70.1559 55.811 70.1694 55.7702 70.1966C55.7425 70.2151 55.7244 70.2366 55.7159 70.2612C55.707 70.2856 55.7086 70.3109 55.7206 70.337C55.7322 70.3629 55.7548 70.3871 55.7884 70.4097L56.2842 70.7426L56.0916 70.871ZM57.8138 69.7442C57.7319 69.7988 57.6441 69.8346 57.5506 69.8515C57.457 69.8679 57.363 69.8657 57.2684 69.8449C57.1735 69.8239 57.0834 69.7848 56.9981 69.7275C56.9143 69.6712 56.8566 69.6111 56.8252 69.5473C56.7938 69.483 56.7893 69.4197 56.8117 69.3574C56.8338 69.2948 56.8839 69.2375 56.9619 69.1855C57.0122 69.1519 57.0679 69.1257 57.1289 69.1069C57.1898 69.0875 57.2543 69.0777 57.3224 69.0773C57.3907 69.0767 57.4609 69.0873 57.5327 69.109C57.6043 69.1304 57.6758 69.1652 57.7472 69.2132L57.8062 69.2528L57.1364 69.6993L57.0068 69.6123L57.492 69.2888C57.4549 69.2644 57.4142 69.2477 57.3699 69.2388C57.3253 69.2298 57.2806 69.229 57.236 69.2365C57.1917 69.2438 57.1511 69.2597 57.1142 69.2843C57.0749 69.3105 57.0498 69.34 57.0391 69.3727C57.0281 69.4051 57.0296 69.4373 57.0438 69.4691C57.0579 69.5004 57.083 69.5284 57.1191 69.5531L57.2321 69.629C57.2796 69.6609 57.3289 69.6824 57.3803 69.6937C57.4313 69.7047 57.4814 69.7058 57.5307 69.6971C57.5796 69.6882 57.6249 69.6698 57.6668 69.6419C57.6948 69.6232 57.7163 69.6037 57.7312 69.5833C57.7458 69.5627 57.7536 69.5416 57.7547 69.5201C57.7558 69.4985 57.7491 69.4771 57.7346 69.456L57.9346 69.3497C57.9707 69.3891 57.9904 69.4313 57.9939 69.4764C57.9974 69.521 57.9842 69.5662 57.9543 69.6121C57.9241 69.6578 57.8773 69.7019 57.8138 69.7442Z" fill="#253241"/>
<rect x="0.249402" y="0.000428529" width="47.414" height="6.00177" rx="1.05031" transform="matrix(0.83205 -0.5547 0.830139 0.557556 55.8902 73.6161)" fill="#F9FAFB" stroke="#D6DAE1" stroke-width="0.300088"/>
<rect width="13.0018" height="5.40071" rx="2.40071" transform="matrix(0.83205 -0.5547 0.830139 0.557556 64.0707 79)" fill="#017EF3"/>
<path d="M69.1357 78.124C69.0844 78.0962 69.0274 78.0859 68.9647 78.0931C68.9023 78.1001 68.8419 78.1232 68.7834 78.1622C68.7422 78.1896 68.7131 78.2173 68.6961 78.2452C68.679 78.2732 68.6733 78.2995 68.6789 78.3241C68.6846 78.3488 68.7008 78.3704 68.7277 78.3889C68.7503 78.4041 68.7751 78.4139 68.802 78.4182C68.8293 78.4223 68.8578 78.4222 68.8876 78.418C68.917 78.4136 68.9466 78.4066 68.9764 78.3972C69.0062 78.3878 69.0349 78.3774 69.0625 78.366L69.1901 78.3151C69.2408 78.294 69.2933 78.2764 69.3475 78.262C69.4021 78.2474 69.4569 78.2384 69.5118 78.2349C69.567 78.2312 69.6211 78.2352 69.6738 78.2469C69.7266 78.2586 69.7765 78.2803 69.8236 78.3119C69.8873 78.3547 69.927 78.4032 69.9429 78.4575C69.9584 78.5116 69.9489 78.5684 69.9144 78.6278C69.88 78.6868 69.8191 78.7453 69.7319 78.8035C69.6471 78.86 69.5604 78.9003 69.4718 78.9243C69.3835 78.9481 69.2967 78.9548 69.2114 78.9445C69.1264 78.9339 69.0464 78.9053 68.9713 78.8587L69.1655 78.7293C69.2062 78.7528 69.2494 78.7662 69.2951 78.7693C69.3408 78.7725 69.3863 78.7672 69.4317 78.7536C69.4774 78.7396 69.5209 78.719 69.562 78.6915C69.6049 78.6629 69.6361 78.6336 69.6557 78.6035C69.6752 78.573 69.6827 78.5438 69.6782 78.5161C69.6732 78.4881 69.6554 78.4635 69.6246 78.4424C69.5959 78.4236 69.5643 78.4135 69.5295 78.412C69.4945 78.4103 69.456 78.4151 69.4142 78.4264C69.3724 78.4372 69.327 78.4523 69.2781 78.4717L69.1223 78.5329C69.0096 78.5773 68.9038 78.6012 68.8049 78.6046C68.7061 78.6075 68.6177 78.5828 68.5399 78.5305C68.4758 78.4875 68.4371 78.4382 68.4238 78.3827C68.4107 78.327 68.4211 78.2701 68.4549 78.2121C68.4883 78.1538 68.5431 78.0993 68.6194 78.0485C68.6967 77.9969 68.7779 77.9608 68.8629 77.9401C68.948 77.9189 69.0309 77.9131 69.1116 77.9227C69.192 77.9321 69.2634 77.957 69.3257 77.9974L69.1357 78.124ZM70.4742 77.8277L70.0018 77.5104L70.1944 77.382L71.0096 77.9296L70.8229 78.0541L70.678 77.9568L70.6695 77.9625C70.6967 78.0054 70.7037 78.0507 70.6905 78.0983C70.6777 78.1457 70.6406 78.1899 70.5792 78.2308C70.5257 78.2665 70.4665 78.2901 70.4016 78.3016C70.3368 78.3126 70.27 78.3105 70.2013 78.2952C70.1322 78.2797 70.0652 78.25 70 78.2063L69.4809 77.8577L69.6735 77.7293L70.1629 78.058C70.2146 78.0926 70.2698 78.1108 70.3286 78.1123C70.3874 78.1138 70.4399 78.0992 70.486 78.0685C70.5144 78.0495 70.5349 78.0266 70.5477 77.9996C70.5605 77.9726 70.5618 77.9443 70.5516 77.9146C70.5414 77.8845 70.5156 77.8555 70.4742 77.8277ZM71.2162 77.7919L70.1292 77.0618L70.3217 76.9334L70.7283 77.2065L70.7363 77.2012C70.7264 77.1812 70.7194 77.1578 70.7152 77.1307C70.7106 77.1035 70.7158 77.0742 70.7307 77.0429C70.7453 77.0114 70.7765 76.9797 70.8244 76.9478C70.8875 76.9057 70.9606 76.8786 71.0435 76.8664C71.1264 76.8537 71.2141 76.8585 71.3065 76.8807C71.3989 76.9024 71.4904 76.9437 71.581 77.0046C71.6706 77.0647 71.7319 77.1256 71.7651 77.1873C71.7983 77.249 71.806 77.3078 71.7882 77.3637C71.7704 77.4196 71.7294 77.469 71.6652 77.5118C71.6184 77.543 71.5717 77.5636 71.5253 77.5738C71.4789 77.5839 71.4353 77.5878 71.3946 77.5856C71.3538 77.5829 71.3184 77.5784 71.2883 77.5719L71.2771 77.5794L71.4056 77.6657L71.2162 77.7919ZM70.9974 77.3922C71.0501 77.4276 71.1038 77.4537 71.1583 77.4704C71.2132 77.4868 71.266 77.4931 71.3166 77.4891C71.3673 77.4847 71.413 77.4689 71.4538 77.4417C71.4964 77.4133 71.5207 77.382 71.5268 77.3476C71.5325 77.313 71.5228 77.2776 71.4977 77.2412C71.4726 77.2045 71.4346 77.1689 71.3837 77.1347C71.3331 77.1007 71.2808 77.0754 71.227 77.0587C71.1732 77.042 71.1208 77.0358 71.0698 77.04C71.0187 77.0441 70.9718 77.0605 70.9289 77.0891C70.8877 77.1166 70.8636 77.1471 70.8564 77.1808C70.8493 77.2144 70.8577 77.2493 70.8818 77.2853C70.9061 77.3212 70.9447 77.3568 70.9974 77.3922ZM72.1513 77.1685L71.336 76.6209L71.5201 76.4982L71.6587 76.5912L71.6682 76.5849C71.6385 76.5421 71.6303 76.4989 71.6435 76.455C71.6563 76.411 71.69 76.3707 71.7447 76.3343C71.8 76.2974 71.8601 76.2754 71.9249 76.2681C71.9898 76.2604 72.053 76.2668 72.1146 76.2873L72.1231 76.2816C72.0959 76.2391 72.0903 76.1946 72.1063 76.1479C72.1223 76.1007 72.16 76.0574 72.2192 76.0179C72.2944 75.9678 72.3795 75.9428 72.4744 75.943C72.5693 75.9432 72.6623 75.9738 72.7532 76.0349L73.3005 76.4024L73.1074 76.5311L72.5898 76.1836C72.5392 76.1496 72.4888 76.1337 72.4385 76.136C72.3878 76.1381 72.343 76.1521 72.304 76.1781C72.2575 76.2091 72.2356 76.243 72.2384 76.28C72.2412 76.3165 72.2656 76.3502 72.3116 76.3811L72.8201 76.7227L72.6312 76.8486L72.1057 76.4956C72.0636 76.4674 72.0172 76.4533 71.9666 76.4534C71.9163 76.4534 71.8707 76.4669 71.8299 76.4941C71.8023 76.5125 71.7842 76.5341 71.7756 76.5587C71.7667 76.5831 71.7683 76.6084 71.7803 76.6345C71.7919 76.6603 71.8146 76.6846 71.8482 76.7071L72.3439 77.0401L72.1513 77.1685ZM73.4958 76.2721L72.6806 75.7246L72.8732 75.5962L73.6884 76.1438L73.4958 76.2721ZM72.6617 75.5823C72.6312 75.6026 72.5948 75.6134 72.5527 75.6145C72.5102 75.6153 72.4746 75.6062 72.4459 75.5869C72.4169 75.5674 72.4033 75.5436 72.4051 75.5154C72.4066 75.4869 72.4226 75.4625 72.4531 75.4422C72.4839 75.4216 72.5204 75.411 72.5626 75.4104C72.6048 75.4093 72.6403 75.4185 72.6694 75.4379C72.698 75.4572 72.7116 75.481 72.7102 75.5095C72.7087 75.5375 72.6925 75.5617 72.6617 75.5823ZM73.4792 75.1921L73.6279 75.2919L73.1581 75.6051L73.0095 75.5053L73.4792 75.1921ZM72.9301 75.2968L73.1227 75.1684L73.8881 75.6825C73.9139 75.6998 73.9377 75.7105 73.9593 75.7146C73.9809 75.7182 74.0007 75.7173 74.0188 75.7118C74.0369 75.7064 74.0539 75.6984 74.0698 75.6878C74.0819 75.6797 74.092 75.6718 74.1002 75.664C74.1087 75.6559 74.1149 75.6497 74.1188 75.6452L74.3015 75.7244C74.2947 75.7337 74.2839 75.7461 74.269 75.7617C74.2544 75.7771 74.2339 75.7941 74.2073 75.8128C74.1604 75.8459 74.1097 75.87 74.0551 75.8851C74.0002 75.8999 73.9444 75.9035 73.8877 75.8958C73.8314 75.8879 73.778 75.8667 73.7274 75.8322L72.9301 75.2968Z" fill="white"/>
</g>
<rect x="0.249402" y="0.000428529" width="57.0168" height="67.2198" rx="3.45102" transform="matrix(0.83205 -0.5547 0.830139 0.557556 11.0415 48.8406)" stroke="#EAECF0" stroke-width="0.300088"/>
<g filter="url(#filter0_d_676_19610)">
<g clip-path="url(#clip2_676_19610)">
<rect width="57.3169" height="67.5199" rx="3.60106" transform="matrix(0.83205 -0.5547 0.830139 0.557556 54.6566 48.0956)" fill="white"/>
<rect width="47.714" height="19.5057" rx="1.20035" transform="matrix(0.83205 -0.5547 0.830139 0.557556 62.6375 48.1094)" fill="#189877"/>
<path d="M87.3812 63.3862L88.4683 64.1163L88.2927 64.2334L87.0389 64.0783L87.0298 64.0843L87.7703 64.5817L87.5729 64.7132L86.4859 63.9831L86.6625 63.8654L87.9163 64.0212L87.9259 64.0148L87.1849 63.5171L87.3812 63.3862ZM88.9264 63.8329C88.8747 63.8674 88.8188 63.8924 88.7589 63.9077C88.699 63.9225 88.6388 63.9257 88.5782 63.9173C88.518 63.9087 88.4612 63.8864 88.4078 63.8505C88.3618 63.8196 88.3322 63.7884 88.3192 63.7568C88.3061 63.7253 88.3053 63.6936 88.3167 63.6619C88.3281 63.6302 88.3476 63.5989 88.3753 63.5681C88.403 63.5369 88.4346 63.5066 88.47 63.4773C88.513 63.442 88.5474 63.4132 88.5733 63.3907C88.5988 63.368 88.6141 63.3493 88.6191 63.3346C88.6241 63.3194 88.6174 63.3056 88.599 63.2933L88.5958 63.2912C88.5558 63.2643 88.5129 63.2514 88.4672 63.2525C88.4215 63.2536 88.3764 63.2691 88.3317 63.2989C88.2845 63.3303 88.2573 63.3622 88.2502 63.3944C88.2434 63.4264 88.2492 63.455 88.2676 63.4801L88.0623 63.5829C88.0269 63.5401 88.0089 63.4967 88.0083 63.4526C88.0073 63.4083 88.0221 63.3648 88.0526 63.3222C88.0828 63.2794 88.1265 63.2389 88.1836 63.2008C88.2229 63.1746 88.2667 63.1516 88.3149 63.1317C88.3632 63.1119 88.414 63.0983 88.4675 63.0911C88.5207 63.0836 88.5751 63.0855 88.6307 63.0967C88.6866 63.1077 88.7417 63.1314 88.7958 63.1678L89.3414 63.5342L89.1563 63.6577L89.0443 63.5824L89.0379 63.5867C89.0489 63.6097 89.0536 63.635 89.0521 63.6625C89.0507 63.6895 89.04 63.7177 89.0201 63.747C89.0002 63.7759 88.969 63.8045 88.9264 63.8329ZM88.8353 63.7048C88.8739 63.679 88.8998 63.6515 88.913 63.6224C88.9258 63.593 88.9271 63.5647 88.9169 63.5374C88.907 63.5099 88.887 63.486 88.8569 63.4658L88.7609 63.4013C88.7598 63.4087 88.7541 63.4186 88.7438 63.4311C88.7339 63.4435 88.7216 63.4566 88.7071 63.4706C88.6925 63.4845 88.6778 63.4981 88.6629 63.5114C88.648 63.5246 88.635 63.5361 88.624 63.5458C88.5992 63.5676 88.5799 63.589 88.566 63.6101C88.5522 63.6311 88.5466 63.6514 88.5494 63.6708C88.5519 63.69 88.5655 63.708 88.5903 63.7246C88.6256 63.7484 88.6653 63.7577 88.7092 63.7525C88.7532 63.7474 88.7952 63.7315 88.8353 63.7048ZM89.5351 63.4051L88.7198 62.8575L88.9039 62.7348L89.0424 62.8279L89.052 62.8215C89.0223 62.7788 89.0141 62.7355 89.0272 62.6917C89.0401 62.6476 89.0738 62.6074 89.1284 62.5709C89.1837 62.5341 89.2438 62.512 89.3087 62.5048C89.3735 62.497 89.4367 62.5034 89.4983 62.5239L89.5069 62.5183C89.4797 62.4758 89.4741 62.4312 89.4901 62.3845C89.5061 62.3374 89.5437 62.2941 89.603 62.2546C89.6782 62.2044 89.7632 62.1795 89.8582 62.1796C89.9531 62.1798 90.046 62.2104 90.137 62.2715L90.6842 62.639L90.4911 62.7678L89.9736 62.4202C89.923 62.3862 89.8725 62.3704 89.8222 62.3726C89.7716 62.3747 89.7267 62.3887 89.6877 62.4147C89.6413 62.4457 89.6194 62.4797 89.6222 62.5167C89.6249 62.5532 89.6493 62.5869 89.6953 62.6178L90.2038 62.9593L90.015 63.0852L89.4895 62.7323C89.4474 62.704 89.401 62.6899 89.3503 62.6901C89.3 62.69 89.2545 62.7036 89.2137 62.7307C89.186 62.7492 89.1679 62.7707 89.1594 62.7954C89.1505 62.8198 89.152 62.845 89.164 62.8711C89.1757 62.897 89.1983 62.9212 89.2319 62.9438L89.7277 63.2767L89.5351 63.4051ZM91.2573 62.2783C91.1754 62.3329 91.0876 62.3687 90.9941 62.3856C90.9005 62.402 90.8065 62.3999 90.7119 62.3791C90.617 62.358 90.5269 62.3189 90.4416 62.2616C90.3578 62.2053 90.3001 62.1452 90.2687 62.0814C90.2373 62.0171 90.2328 61.9538 90.2552 61.8915C90.2773 61.8289 90.3273 61.7717 90.4054 61.7196C90.4557 61.6861 90.5114 61.6598 90.5724 61.641C90.6333 61.6217 90.6978 61.6118 90.7658 61.6114C90.8342 61.6109 90.9043 61.6214 90.9762 61.6431C91.0477 61.6646 91.1192 61.6993 91.1907 61.7473L91.2496 61.7869L90.5798 62.2334L90.4503 62.1464L90.9355 61.823C90.8984 61.7985 90.8577 61.7818 90.8134 61.773C90.7688 61.7639 90.7241 61.7631 90.6795 61.7706C90.6352 61.7779 90.5946 61.7938 90.5577 61.8184C90.5183 61.8446 90.4933 61.8741 90.4826 61.9068C90.4716 61.9393 90.4731 61.9714 90.4872 62.0032C90.5014 62.0345 90.5265 62.0625 90.5626 62.0872L90.6756 62.1632C90.723 62.195 90.7724 62.2165 90.8238 62.2278C90.8748 62.2388 90.9249 62.2399 90.9741 62.2312C91.023 62.2223 91.0684 62.2039 91.1103 62.176C91.1383 62.1573 91.1598 62.1378 91.1747 62.1174C91.1892 62.0968 91.1971 62.0758 91.1982 62.0542C91.1993 62.0326 91.1926 62.0113 91.1781 61.9901L91.3781 61.8838C91.4141 61.9232 91.4339 61.9655 91.4374 62.0105C91.4408 62.0551 91.4277 62.1003 91.3978 62.1463C91.3676 62.192 91.3208 62.236 91.2573 62.2783Z" fill="#253241"/>
<rect x="0.249402" y="0.000428529" width="47.414" height="6.00177" rx="1.05031" transform="matrix(0.83205 -0.5547 0.830139 0.557556 89.3336 66.1502)" fill="#F9FAFB" stroke="#D6DAE1" stroke-width="0.300088"/>
<path d="M97.5943 70.2457L98.6813 70.9758L98.5057 71.0928L97.2519 70.9378L97.2429 70.9438L97.9833 71.4411L97.7859 71.5727L96.6989 70.8426L96.8755 70.7249L98.1293 70.8806L98.1389 70.8742L97.3979 70.3766L97.5943 70.2457ZM99.1395 70.6924C99.0877 70.7269 99.0318 70.7518 98.9719 70.7671C98.912 70.782 98.8518 70.7852 98.7912 70.7768C98.731 70.7681 98.6742 70.7459 98.6208 70.71C98.5748 70.6791 98.5453 70.6479 98.5322 70.6163C98.5191 70.5848 98.5183 70.5531 98.5297 70.5214C98.5411 70.4896 98.5606 70.4584 98.5883 70.4276C98.616 70.3964 98.6476 70.3661 98.6831 70.3367C98.726 70.3015 98.7604 70.2726 98.7863 70.2501C98.8118 70.2274 98.8271 70.2087 98.8321 70.194C98.8371 70.1789 98.8304 70.1651 98.812 70.1528L98.8088 70.1506C98.7688 70.1238 98.726 70.1109 98.6803 70.112C98.6346 70.1131 98.5894 70.1285 98.5447 70.1583C98.4975 70.1898 98.4703 70.2216 98.4632 70.2539C98.4564 70.2858 98.4622 70.3144 98.4806 70.3396L98.2753 70.4423C98.2399 70.3996 98.222 70.3562 98.2213 70.3121C98.2203 70.2678 98.2351 70.2243 98.2657 70.1817C98.2958 70.1388 98.3395 70.0984 98.3966 70.0603C98.436 70.0341 98.4797 70.011 98.528 69.9912C98.5762 69.9714 98.627 69.9578 98.6805 69.9506C98.7337 69.9431 98.7881 69.9449 98.8437 69.9562C98.8996 69.9672 98.9547 69.9909 99.0088 70.0272L99.5545 70.3937L99.3693 70.5171L99.2573 70.4419L99.2509 70.4462C99.2619 70.4692 99.2666 70.4944 99.2652 70.5219C99.2637 70.5489 99.253 70.5771 99.2331 70.6065C99.2132 70.6354 99.182 70.664 99.1395 70.6924ZM99.0483 70.5642C99.0869 70.5384 99.1128 70.511 99.126 70.4819C99.1388 70.4525 99.1401 70.4242 99.1299 70.3969C99.12 70.3694 99.1 70.3455 99.0699 70.3253L98.9739 70.2608C98.9728 70.2681 98.9671 70.2781 98.9568 70.2906C98.9469 70.3029 98.9346 70.3161 98.9201 70.33C98.9055 70.344 98.8908 70.3576 98.8759 70.3708C98.861 70.3841 98.848 70.3956 98.837 70.4053C98.8122 70.427 98.7929 70.4485 98.779 70.4695C98.7652 70.4906 98.7596 70.5109 98.7624 70.5303C98.7649 70.5495 98.7785 70.5674 98.8033 70.5841C98.8387 70.6078 98.8783 70.6171 98.9222 70.612C98.9662 70.6069 99.0082 70.5909 99.0483 70.5642ZM99.7481 70.2646L98.9328 69.717L99.1169 69.5943L99.2554 69.6873L99.265 69.681C99.2353 69.6382 99.2271 69.595 99.2403 69.5511C99.2531 69.5071 99.2868 69.4668 99.3414 69.4304C99.3968 69.3935 99.4568 69.3715 99.5217 69.3642C99.5865 69.3565 99.6498 69.3629 99.7114 69.3834L99.7199 69.3777C99.6927 69.3352 99.6871 69.2907 99.7031 69.244C99.7191 69.1968 99.7567 69.1535 99.816 69.114C99.8912 69.0639 99.9762 69.0389 100.071 69.0391C100.166 69.0393 100.259 69.0699 100.35 69.131L100.897 69.4985L100.704 69.6273L100.187 69.2797C100.136 69.2457 100.086 69.2298 100.035 69.2321C99.9846 69.2342 99.9397 69.2482 99.9007 69.2742C99.8543 69.3052 99.8324 69.3392 99.8352 69.3761C99.838 69.4126 99.8623 69.4464 99.9083 69.4772L100.417 69.8188L100.228 69.9447L99.7025 69.5917C99.6604 69.5635 99.614 69.5494 99.5633 69.5496C99.513 69.5495 99.4675 69.563 99.4267 69.5902C99.399 69.6087 99.3809 69.6302 99.3724 69.6548C99.3635 69.6792 99.365 69.7045 99.377 69.7306C99.3887 69.7564 99.4113 69.7807 99.4449 69.8032L99.9407 70.1362L99.7481 70.2646ZM101.47 69.1378C101.388 69.1924 101.301 69.2282 101.207 69.2451C101.114 69.2615 101.019 69.2593 100.925 69.2385C100.83 69.2175 100.74 69.1784 100.655 69.1211C100.571 69.0648 100.513 69.0047 100.482 68.9409C100.45 68.8766 100.446 68.8133 100.468 68.751C100.49 68.6884 100.54 68.6311 100.618 68.5791C100.669 68.5455 100.724 68.5193 100.785 68.5005C100.846 68.4811 100.911 68.4713 100.979 68.4709C101.047 68.4703 101.117 68.4809 101.189 68.5026C101.261 68.524 101.332 68.5588 101.404 68.6068L101.463 68.6463L100.793 69.0929L100.663 69.0059L101.149 68.6824C101.111 68.6579 101.071 68.6413 101.026 68.6324C100.982 68.6233 100.937 68.6226 100.892 68.6301C100.848 68.6373 100.808 68.6533 100.771 68.6779C100.731 68.7041 100.706 68.7336 100.696 68.7663C100.685 68.7987 100.686 68.8309 100.7 68.8626C100.714 68.894 100.739 68.922 100.776 68.9467L100.889 69.0226C100.936 69.0545 100.985 69.076 101.037 69.0872C101.088 69.0982 101.138 69.0994 101.187 69.0907C101.236 69.0818 101.281 69.0634 101.323 69.0355C101.351 69.0168 101.373 68.9973 101.388 68.9769C101.402 68.9563 101.41 68.9352 101.411 68.9137C101.412 68.8921 101.406 68.8707 101.391 68.8496L101.591 68.7433C101.627 68.7827 101.647 68.8249 101.65 68.87C101.654 68.9145 101.641 68.9598 101.611 69.0057C101.581 69.0514 101.534 69.0954 101.47 69.1378Z" fill="#253241"/>
<rect x="0.249402" y="0.000428529" width="47.414" height="6.00177" rx="1.05031" transform="matrix(0.83205 -0.5547 0.830139 0.557556 99.5467 73.0097)" fill="#F9FAFB" stroke="#D6DAE1" stroke-width="0.300088"/>
<rect width="13.0018" height="5.40071" rx="2.40071" transform="matrix(0.83205 -0.5547 0.830139 0.557556 107.727 78.3936)" fill="#189877"/>
<path d="M112.792 77.5176C112.741 77.4898 112.684 77.4795 112.621 77.4868C112.559 77.4938 112.498 77.5168 112.44 77.5558C112.399 77.5832 112.37 77.6109 112.353 77.6388C112.336 77.6668 112.33 77.6931 112.335 77.7177C112.341 77.7424 112.357 77.764 112.384 77.7825C112.407 77.7978 112.432 77.8075 112.459 77.8118C112.486 77.8159 112.514 77.8158 112.544 77.8116C112.574 77.8072 112.603 77.8002 112.633 77.7908C112.663 77.7814 112.691 77.771 112.719 77.7597L112.847 77.7087C112.897 77.6877 112.95 77.67 113.004 77.6556C113.059 77.641 113.113 77.632 113.168 77.6285C113.224 77.6248 113.278 77.6288 113.33 77.6405C113.383 77.6522 113.433 77.6739 113.48 77.7055C113.544 77.7483 113.584 77.7968 113.599 77.8511C113.615 77.9052 113.605 77.962 113.571 78.0214C113.536 78.0804 113.476 78.1389 113.388 78.1971C113.304 78.2536 113.217 78.2939 113.128 78.3179C113.04 78.3417 112.953 78.3484 112.868 78.3381C112.783 78.3275 112.703 78.2989 112.628 78.2523L112.822 78.1229C112.863 78.1464 112.906 78.1598 112.952 78.1629C112.997 78.1661 113.043 78.1608 113.088 78.1472C113.134 78.1333 113.177 78.1126 113.219 78.0852C113.261 78.0566 113.293 78.0272 113.312 77.9971C113.332 77.9666 113.339 77.9374 113.335 77.9097C113.33 77.8817 113.312 77.8572 113.281 77.836C113.252 77.8172 113.221 77.8071 113.186 77.8056C113.151 77.8039 113.113 77.8087 113.071 77.82C113.029 77.8308 112.984 77.8459 112.935 77.8653L112.779 77.9265C112.666 77.9709 112.56 77.9948 112.461 77.9982C112.363 78.0011 112.274 77.9764 112.196 77.9241C112.132 77.8811 112.094 77.8318 112.08 77.7763C112.067 77.7206 112.078 77.6637 112.111 77.6057C112.145 77.5475 112.2 77.4929 112.276 77.4421C112.353 77.3905 112.434 77.3544 112.519 77.3337C112.604 77.3125 112.687 77.3067 112.768 77.3163C112.849 77.3257 112.92 77.3506 112.982 77.391L112.792 77.5176ZM114.131 77.2213L113.658 76.904L113.851 76.7757L114.666 77.3232L114.479 77.4477L114.335 77.3504L114.326 77.3561C114.353 77.399 114.36 77.4443 114.347 77.4919C114.334 77.5393 114.297 77.5835 114.236 77.6244C114.182 77.6601 114.123 77.6837 114.058 77.6952C113.993 77.7062 113.926 77.7041 113.858 77.6888C113.789 77.6733 113.722 77.6437 113.657 77.5999L113.137 77.2513L113.33 77.1229L113.819 77.4516C113.871 77.4863 113.926 77.5044 113.985 77.5059C114.044 77.5074 114.096 77.4928 114.142 77.4621C114.171 77.4432 114.191 77.4202 114.204 77.3932C114.217 77.3662 114.218 77.3379 114.208 77.3082C114.198 77.2781 114.172 77.2491 114.131 77.2213ZM114.873 77.1855L113.786 76.4554L113.978 76.327L114.385 76.6001L114.393 76.5948C114.383 76.5749 114.376 76.5514 114.372 76.5243C114.367 76.4971 114.372 76.4678 114.387 76.4365C114.402 76.405 114.433 76.3733 114.481 76.3414C114.544 76.2993 114.617 76.2722 114.7 76.26C114.783 76.2473 114.871 76.2521 114.963 76.2743C115.055 76.2961 115.147 76.3373 115.238 76.3982C115.327 76.4583 115.388 76.5192 115.422 76.5809C115.455 76.6426 115.462 76.7014 115.445 76.7573C115.427 76.8132 115.386 76.8626 115.322 76.9054C115.275 76.9366 115.228 76.9573 115.182 76.9674C115.135 76.9775 115.092 76.9814 115.051 76.9792C115.01 76.9766 114.975 76.972 114.945 76.9655L114.934 76.973L115.062 77.0593L114.873 77.1855ZM114.654 76.7858C114.707 76.8212 114.76 76.8473 114.815 76.864C114.87 76.8804 114.922 76.8867 114.973 76.8827C115.024 76.8783 115.07 76.8625 115.11 76.8353C115.153 76.807 115.177 76.7756 115.183 76.7412C115.189 76.7066 115.179 76.6712 115.154 76.6349C115.129 76.5981 115.091 76.5626 115.04 76.5283C114.99 76.4944 114.937 76.469 114.884 76.4523C114.83 76.4356 114.777 76.4294 114.726 76.4336C114.675 76.4378 114.628 76.4541 114.585 76.4828C114.544 76.5102 114.52 76.5407 114.513 76.5744C114.506 76.608 114.514 76.6429 114.538 76.679C114.563 76.7148 114.601 76.7504 114.654 76.7858ZM115.808 76.5621L114.993 76.0145L115.177 75.8918L115.315 75.9849L115.325 75.9785C115.295 75.9358 115.287 75.8925 115.3 75.8486C115.313 75.8046 115.347 75.7643 115.401 75.7279C115.456 75.691 115.517 75.669 115.581 75.6617C115.646 75.654 115.709 75.6604 115.771 75.6809L115.78 75.6752C115.752 75.6327 115.747 75.5882 115.763 75.5415C115.779 75.4944 115.816 75.451 115.876 75.4115C115.951 75.3614 116.036 75.3364 116.131 75.3366C116.226 75.3368 116.319 75.3674 116.41 75.4285L116.957 75.796L116.764 75.9248L116.246 75.5772C116.196 75.5432 116.145 75.5273 116.095 75.5296C116.044 75.5317 115.999 75.5457 115.96 75.5717C115.914 75.6027 115.892 75.6367 115.895 75.6736C115.898 75.7102 115.922 75.7439 115.968 75.7748L116.477 76.1163L116.288 76.2422L115.762 75.8893C115.72 75.861 115.674 75.8469 115.623 75.8471C115.573 75.847 115.527 75.8605 115.486 75.8877C115.459 75.9062 115.441 75.9277 115.432 75.9523C115.423 75.9767 115.425 76.002 115.437 76.0281C115.448 76.054 115.471 76.0782 115.505 76.1007L116 76.4337L115.808 76.5621ZM117.152 75.6658L116.337 75.1182L116.53 74.9898L117.345 75.5374L117.152 75.6658ZM116.318 74.9759C116.288 74.9963 116.251 75.007 116.209 75.0081C116.167 75.009 116.131 74.9998 116.102 74.9805C116.073 74.961 116.06 74.9372 116.062 74.909C116.063 74.8805 116.079 74.8561 116.11 74.8358C116.14 74.8152 116.177 74.8046 116.219 74.804C116.261 74.8029 116.297 74.8121 116.326 74.8316C116.355 74.8508 116.368 74.8747 116.367 74.9031C116.365 74.9311 116.349 74.9553 116.318 74.9759ZM117.136 74.5857L117.284 74.6856L116.815 74.9987L116.666 74.8989L117.136 74.5857ZM116.587 74.6904L116.779 74.562L117.545 75.0761C117.57 75.0934 117.594 75.1041 117.616 75.1082C117.637 75.1118 117.657 75.1109 117.675 75.1055C117.693 75.1 117.71 75.092 117.726 75.0814C117.738 75.0733 117.748 75.0654 117.757 75.0576C117.765 75.0496 117.771 75.0433 117.775 75.0388L117.958 75.118C117.951 75.1273 117.94 75.1397 117.925 75.1553C117.911 75.1707 117.89 75.1877 117.864 75.2064C117.817 75.2395 117.766 75.2636 117.712 75.2787C117.657 75.2935 117.601 75.2971 117.544 75.2894C117.488 75.2815 117.434 75.2603 117.384 75.2259L116.587 74.6904Z" fill="white"/>
</g>
<rect x="0.249402" y="0.000428529" width="57.0168" height="67.2198" rx="3.45102" transform="matrix(0.83205 -0.5547 0.830139 0.557556 54.6981 48.2342)" stroke="#EAECF0" stroke-width="0.300088"/>
</g>
</g>
<rect x="10" y="95" width="125" height="9" rx="4.5" fill="#EAECF0"/>
<rect x="10" y="114" width="150" height="9" rx="4.5" fill="#D6DAE1"/>
<rect x="10" y="133" width="125" height="9" rx="4.5" fill="#EAECF0"/>
<rect x="10" y="152" width="111" height="9" rx="4.5" fill="#D6DAE1"/>
<defs>
<filter id="filter0_d_676_19610" x="31.8499" y="3.09805" width="149.355" height="115.053" filterUnits="userSpaceOnUse" color-interpolation-filters="sRGB">
<feFlood flood-opacity="0" result="BackgroundImageFix"/>
<feColorMatrix in="SourceAlpha" type="matrix" values="0 0 0 0 0 0 0 0 0 0 0 0 0 0 0 0 0 0 127 0" result="hardAlpha"/>
<feMorphology radius="1.20035" operator="erode" in="SourceAlpha" result="effect1_dropShadow_676_19610"/>
<feOffset dy="9.60283"/>
<feGaussianBlur stdDeviation="12.0035"/>
<feColorMatrix type="matrix" values="0 0 0 0 0.105882 0 0 0 0 0.145098 0 0 0 0 0.2 0 0 0 0.16 0"/>
<feBlend mode="normal" in2="BackgroundImageFix" result="effect1_dropShadow_676_19610"/>
<feBlend mode="normal" in="SourceGraphic" in2="effect1_dropShadow_676_19610" result="shape"/>
</filter>
<clipPath id="clip0_676_19610">
<rect x="10" y="20" width="150" height="58" rx="6" fill="white"/>
</clipPath>
<clipPath id="clip1_676_19610">
<rect width="57.3169" height="67.5199" rx="3.60106" transform="matrix(0.83205 -0.5547 0.830139 0.557556 11 48.702)" fill="white"/>
</clipPath>
<clipPath id="clip2_676_19610">
<rect width="57.3169" height="67.5199" rx="3.60106" transform="matrix(0.83205 -0.5547 0.830139 0.557556 54.6566 48.0956)" fill="white"/>
</clipPath>
</defs>
</svg>
