<svg width="18" height="16" viewBox="0 0 18 16" fill="none" xmlns="http://www.w3.org/2000/svg">
  <path d="M12 9.5C12 10.1213 12.5037 10.625 13.125 10.625C13.7463 10.625 14.25 10.1213 14.25 9.5C14.25 8.87868 13.7463 8.375 13.125 8.375C12.5037 8.375 12 8.87868 12 9.5Z" stroke="#565865" stroke-width="1.5"/>
  <path d="M7.5 4.25L12 4.25C14.1213 4.25 15.182 4.25 15.841 4.90901C16.5 5.56802 16.5 6.62868 16.5 8.75V10.25C16.5 12.3713 16.5 13.432 15.841 14.091C15.182 14.75 14.1213 14.75 12 14.75H7.5C4.67157 14.75 3.25736 14.75 2.37868 13.8713C1.5 12.9926 1.5 11.5784 1.5 8.75L1.5 7.25C1.5 4.42157 1.5 3.00736 2.37868 2.12868C3.25736 1.25 4.67157 1.25 7.5 1.25L10.5 1.25C11.1975 1.25 11.5462 1.25 11.8323 1.32667C12.6088 1.53472 13.2153 2.1412 13.4233 2.91766C13.5 3.20378 13.5 3.55252 13.5 4.25" stroke="#565865" stroke-width="1.5" stroke-linecap="round"/>
</svg>