<svg xmlns="http://www.w3.org/2000/svg" width="22" height="22" viewBox="0 0 22 22" fill="none">
<path d="M19.8175 6.14139L19.3239 5.28479C18.9506 4.63696 18.764 4.31305 18.4464 4.18388C18.1288 4.05472 17.7696 4.15664 17.0513 4.36048L15.8311 4.70418C15.3725 4.80994 14.8913 4.74994 14.4726 4.53479L14.1357 4.34042C13.7766 4.11043 13.5004 3.77133 13.3475 3.37274L13.0136 2.37536C12.794 1.71534 12.6842 1.38533 12.4228 1.19657C12.1615 1.00781 11.8143 1.00781 11.1199 1.00781L10.0051 1.00781C9.31078 1.00781 8.9636 1.00781 8.70223 1.19657C8.44085 1.38533 8.33106 1.71534 8.11149 2.37536L7.77753 3.37274C7.62465 3.77133 7.34845 4.11043 6.98937 4.34042L6.65249 4.53479C6.23374 4.74994 5.75259 4.80994 5.29398 4.70418L4.07375 4.36048C3.35541 4.15664 2.99625 4.05472 2.67867 4.18388C2.36109 4.31305 2.17445 4.63696 1.80115 5.28479L1.30757 6.14139C0.957656 6.74864 0.782703 7.05227 0.816657 7.37549C0.850614 7.69871 1.08483 7.95918 1.55326 8.48012L2.5843 9.63282C2.8363 9.95185 3.01521 10.5078 3.01521 11.0077C3.01521 11.5078 2.83636 12.0636 2.58433 12.3827L1.55326 13.5354C1.08483 14.0564 0.850616 14.3168 0.816659 14.6401C0.782703 14.9633 0.957662 15.2669 1.30757 15.8741L1.80114 16.7307C2.17443 17.3785 2.36109 17.7025 2.67867 17.8316C2.99625 17.9608 3.35542 17.8589 4.07377 17.655L5.29394 17.3113C5.75263 17.2055 6.23387 17.2656 6.65267 17.4808L6.9895 17.6752C7.34851 17.9052 7.62464 18.2442 7.7775 18.6428L8.11149 19.6403C8.33106 20.3003 8.44085 20.6303 8.70223 20.8191C8.9636 21.0078 9.31078 21.0078 10.0051 21.0078H11.1199C11.8143 21.0078 12.1615 21.0078 12.4228 20.8191C12.6842 20.6303 12.794 20.3003 13.0136 19.6403L13.3476 18.6428C13.5004 18.2442 13.7765 17.9052 14.1356 17.6752L14.4724 17.4808C14.8912 17.2656 15.3724 17.2055 15.8311 17.3113L17.0513 17.655C17.7696 17.8589 18.1288 17.9608 18.4464 17.8316C18.764 17.7025 18.9506 17.3785 19.3239 16.7307L19.8175 15.8741C20.1674 15.2669 20.3423 14.9633 20.3084 14.6401C20.2744 14.3168 20.0402 14.0564 19.5718 13.5354L18.5407 12.3827C18.2887 12.0636 18.1098 11.5078 18.1098 11.0077C18.1098 10.5078 18.2888 9.95185 18.5407 9.63282L19.5718 8.48012C20.0402 7.95918 20.2744 7.69871 20.3084 7.37549C20.3423 7.05227 20.1674 6.74864 19.8175 6.14139Z" stroke="#565865" stroke-width="1.5" stroke-linecap="round"/>
<path d="M14.0195 11C14.0195 12.933 12.4525 14.5 10.5195 14.5C8.58653 14.5 7.01953 12.933 7.01953 11C7.01953 9.067 8.58653 7.5 10.5195 7.5C12.4525 7.5 14.0195 9.067 14.0195 11Z" stroke="#565865" stroke-width="1.5"/>
</svg>
