<svg xmlns="http://www.w3.org/2000/svg" width="48" height="44" viewBox="0 0 48 44" fill="none"><path d="M0 0L48 44V8C48 3.58172 44.4183 0 40 0H0Z" fill="#FF7F5C"/><path d="M34.0002 7.3335C30.3268 7.3335 27.3335 10.3268 27.3335 14.0002C27.3335 17.6735 30.3268 20.6668 34.0002 20.6668C37.6735 20.6668 40.6668 17.6735 40.6668 14.0002C40.6668 10.3268 37.6735 7.3335 34.0002 7.3335ZM37.1868 12.4668L33.4068 16.2468C33.3135 16.3402 33.1868 16.3935 33.0535 16.3935C32.9202 16.3935 32.7935 16.3402 32.7002 16.2468L30.8135 14.3602C30.6202 14.1668 30.6202 13.8468 30.8135 13.6535C31.0068 13.4602 31.3268 13.4602 31.5202 13.6535L33.0535 15.1868L36.4802 11.7602C36.6735 11.5668 36.9935 11.5668 37.1868 11.7602C37.3802 11.9535 37.3802 12.2668 37.1868 12.4668Z" fill="white"/></svg>