<svg xmlns="http://www.w3.org/2000/svg" width="20" height="20" viewBox="0 0 20 20" fill="none">
<path fill-rule="evenodd" clip-rule="evenodd" d="M6.33198 3.73888C6.55434 2.64732 7.52569 1.875 8.63858 1.875H11.3613C12.4742 1.875 13.4456 2.64732 13.6679 3.73888C13.7193 3.99087 13.9476 4.17571 14.185 4.17571H14.1986L14.2123 4.17631C15.3818 4.22745 16.2801 4.37097 17.0301 4.86298C17.5026 5.17297 17.9091 5.57181 18.2258 6.0372C18.6199 6.61622 18.7937 7.28079 18.8769 8.08454C18.9583 8.86983 18.9583 9.85417 18.9583 11.1009V11.1719C18.9583 12.4186 18.9583 13.4029 18.8769 14.1882C18.7937 14.9919 18.6199 15.6565 18.2258 16.2355C17.9091 16.7009 17.5026 17.0998 17.0301 17.4097C16.4439 17.7943 15.7718 17.9639 14.9567 18.0453C14.1586 18.125 13.1575 18.125 11.8862 18.125H8.11376C6.84244 18.125 5.84135 18.125 5.04326 18.0453C4.22812 17.9639 3.55605 17.7943 2.96983 17.4097C2.49731 17.0998 2.09084 16.7009 1.77412 16.2355C1.38006 15.6565 1.20626 14.9919 1.12298 14.1882C1.04161 13.4029 1.04162 12.4186 1.04163 11.1718V11.1009C1.04162 9.85417 1.04161 8.86983 1.12298 8.08454C1.20626 7.28079 1.38006 6.61622 1.77412 6.0372C2.09084 5.57181 2.49731 5.17297 2.96983 4.86298C3.71981 4.37097 4.61813 4.22745 5.78765 4.17631L5.8013 4.17571H5.81496C6.05236 4.17571 6.28065 3.99087 6.33198 3.73888ZM8.63858 3.125C8.10431 3.125 7.6575 3.49416 7.55683 3.98839C7.39377 4.78883 6.68413 5.41822 5.83024 5.42565C4.70639 5.47558 4.10443 5.61363 3.65549 5.90815C3.3192 6.12876 3.03122 6.41175 2.80751 6.74047C2.57738 7.07862 2.43909 7.51104 2.36632 8.21337C2.29241 8.92672 2.29163 9.84633 2.29163 11.1364C2.29163 12.4264 2.29241 13.346 2.36632 14.0594C2.43909 14.7617 2.57738 15.1941 2.80751 15.5323C3.03122 15.861 3.3192 16.144 3.65549 16.3646C4.00343 16.5928 4.44866 16.7297 5.16749 16.8015C5.8962 16.8743 6.8349 16.875 8.14811 16.875H11.8518C13.165 16.875 14.1037 16.8743 14.8324 16.8015C15.5513 16.7297 15.9965 16.5928 16.3444 16.3646C16.6807 16.144 16.9687 15.861 17.1924 15.5323C17.4225 15.1941 17.5608 14.7617 17.6336 14.0594C17.7075 13.346 17.7083 12.4264 17.7083 11.1364C17.7083 9.84633 17.7075 8.92672 17.6336 8.21337C17.5608 7.51104 17.4225 7.07862 17.1924 6.74047C16.9687 6.41175 16.6807 6.12876 16.3444 5.90815C15.8955 5.61363 15.2935 5.47558 14.1697 5.42565C13.3158 5.41822 12.6061 4.78883 12.4431 3.98839C12.3424 3.49416 11.8956 3.125 11.3613 3.125H8.63858ZM9.99996 7.70833C10.3451 7.70833 10.625 7.98816 10.625 8.33333V10.2083H12.5C12.8451 10.2083 13.125 10.4882 13.125 10.8333C13.125 11.1785 12.8451 11.4583 12.5 11.4583H10.625V13.3333C10.625 13.6785 10.3451 13.9583 9.99996 13.9583C9.65478 13.9583 9.37496 13.6785 9.37496 13.3333V11.4583H7.49996C7.15478 11.4583 6.87496 11.1785 6.87496 10.8333C6.87496 10.4882 7.15478 10.2083 7.49996 10.2083H9.37496V8.33333C9.37496 7.98816 9.65478 7.70833 9.99996 7.70833ZM14.375 8.33333C14.375 7.98816 14.6548 7.70833 15 7.70833H15.8333C16.1785 7.70833 16.4583 7.98816 16.4583 8.33333C16.4583 8.67851 16.1785 8.95833 15.8333 8.95833H15C14.6548 8.95833 14.375 8.67851 14.375 8.33333Z" fill="#696778"/>
</svg>