
<svg width="15" height="14" viewBox="0 0 15 14" fill="none" xmlns="http://www.w3.org/2000/svg">
  <path d="M8.79607 1.92841C9.26181 1.4238 9.49468 1.1715 9.74213 1.02433C10.3392 0.669224 11.0744 0.658182 11.6815 0.995201C11.9331 1.13487 12.1731 1.38008 12.6531 1.87048C13.1332 2.36088 13.3732 2.60608 13.51 2.86308C13.8399 3.4832 13.8291 4.23424 13.4815 4.84419C13.3374 5.09697 13.0904 5.33486 12.5964 5.81063L6.71914 11.4714C5.78305 12.373 5.315 12.8239 4.73004 13.0523C4.14508 13.2808 3.502 13.264 2.21585 13.2304L2.04086 13.2258C1.64932 13.2155 1.45354 13.2104 1.33974 13.0813C1.22594 12.9521 1.24148 12.7527 1.27255 12.3539L1.28942 12.1373C1.37688 11.0147 1.42061 10.4534 1.63982 9.94889C1.85903 9.44434 2.23715 9.03466 2.99339 8.21531L8.79607 1.92841Z" stroke="#017EF3" stroke-width="1.5" stroke-linejoin="round"/>
  <path d="M8.125 2L12.5 6.375" stroke="#017EF3" stroke-width="1.5" stroke-linejoin="round"/>
  <path d="M8.75 13.25L13.75 13.25" stroke="#017EF3" stroke-width="1.5" stroke-linecap="round" stroke-linejoin="round"/>
</svg>