
<svg width="14" height="14" viewBox="0 0 14 14" fill="none" xmlns="http://www.w3.org/2000/svg">
  <path d="M1 13L5.33333 8.66671M5.53565 11L5.65272 9.06137C5.67412 8.70706 5.68482 8.52991 5.57749 8.42258C5.47017 8.31524 5.29301 8.32592 4.9387 8.34728L3 8.46415" stroke="#565865" stroke-linecap="round" stroke-linejoin="round"/>
  <path d="M12.9999 13L8.66659 8.66671M8.46264 11L8.34695 9.06066C8.32584 8.70676 8.31528 8.52982 8.42252 8.42259C8.52975 8.31537 8.7067 8.32595 9.06058 8.34712L10.9999 8.46311" stroke="#565865" stroke-linecap="round" stroke-linejoin="round"/>
  <path d="M12.9999 1L8.66659 5.33333M10.9999 5.50196L9.06594 5.64784C8.7123 5.67452 8.53548 5.68785 8.4268 5.58167C8.31812 5.47549 8.32646 5.29755 8.34314 4.94167L8.43414 3" stroke="#565865" stroke-linecap="round" stroke-linejoin="round"/>
  <path d="M1 1L5.33333 5.33333M5.53886 3L5.65334 4.94364C5.67397 5.29383 5.68428 5.46892 5.57821 5.5757C5.47214 5.68248 5.29674 5.67359 4.94592 5.6558L3 5.55711" stroke="#565865" stroke-linecap="round" stroke-linejoin="round"/>
</svg>