<svg width="14" height="16" viewBox="0 0 14 16" fill="none" xmlns="http://www.w3.org/2000/svg">
  <path d="M8.0785 14.2448C7.78937 14.5155 7.40293 14.6668 7.00075 14.6668C6.59856 14.6668 6.21212 14.5155 5.92299 14.2448C3.27535 11.7508 -0.272825 8.96478 1.45751 4.91994C2.39309 2.73293 4.6389 1.3335 7.00075 1.3335C9.36259 1.3335 11.6084 2.73293 12.544 4.91994C14.2721 8.95968 10.7327 11.7594 8.0785 14.2448Z" stroke="#565865" stroke-width="1.25"/>
  <path d="M9.33317 7.33333C9.33317 8.622 8.2885 9.66667 6.99984 9.66667C5.71117 9.66667 4.6665 8.622 4.6665 7.33333C4.6665 6.04467 5.71117 5 6.99984 5C8.2885 5 9.33317 6.04467 9.33317 7.33333Z" stroke="#565865" stroke-width="1.25"/>
</svg>
