<svg width="14" height="14" viewBox="0 0 14 14" fill="none" xmlns="http://www.w3.org/2000/svg">
  <path d="M1.594 12.4055C0.666504 11.478 0.666504 9.98524 0.666504 6.99967C0.666503 4.01411 0.666503 2.52133 1.594 1.59384C2.52149 0.666341 4.01427 0.666341 6.99984 0.666341C9.9854 0.666341 11.4782 0.666341 12.4057 1.59384C13.3332 2.52133 13.3332 4.01411 13.3332 6.99967C13.3332 9.98524 13.3332 11.478 12.4057 12.4055C11.4782 13.333 9.9854 13.333 6.99984 13.333C4.01428 13.333 2.52149 13.333 1.594 12.4055Z" stroke="#565865" stroke-width="1.25" stroke-linecap="round" stroke-linejoin="round"/>
  <path d="M0.666504 5L13.3332 5" stroke="#565865" stroke-width="1.25"/>
  <path d="M7 13.333L7 4.99967" stroke="#565865" stroke-width="1.25"/>
</svg>
