<svg width="14" height="14" viewBox="0 0 14 14" fill="none" xmlns="http://www.w3.org/2000/svg">
  <path d="M9.66667 5.6665L10.4844 6.3713C10.8281 6.66759 11 6.81574 11 6.99984C11 7.18393 10.8281 7.33208 10.4844 7.62838L9.66667 8.33317" stroke="#565865" stroke-width="1.25" stroke-linecap="round" stroke-linejoin="round"/>
  <path d="M4.33333 5.6665L3.51564 6.3713C3.17188 6.66759 3 6.81574 3 6.99984C3 7.18393 3.17188 7.33208 3.51564 7.62838L4.33333 8.33317" stroke="#565865" stroke-width="1.25" stroke-linecap="round" stroke-linejoin="round"/>
  <path d="M7.66634 5L6.33301 9" stroke="#565865" stroke-width="1.25" stroke-linecap="round" stroke-linejoin="round"/>
  <path d="M0.666504 6.99984C0.666504 4.01428 0.666504 2.52149 1.594 1.594C2.52149 0.666504 4.01428 0.666504 6.99984 0.666504C9.9854 0.666504 11.4782 0.666504 12.4057 1.594C13.3332 2.52149 13.3332 4.01428 13.3332 6.99984C13.3332 9.9854 13.3332 11.4782 12.4057 12.4057C11.4782 13.3332 9.9854 13.3332 6.99984 13.3332C4.01428 13.3332 2.52149 13.3332 1.594 12.4057C0.666504 11.4782 0.666504 9.9854 0.666504 6.99984Z" stroke="#565865" stroke-width="1.25"/>
</svg>
