<svg width="16" height="14" viewBox="0 0 16 14" fill="none" xmlns="http://www.w3.org/2000/svg">
  <path d="M1.3335 3L5.94218 5.61131C7.64123 6.57401 8.3591 6.57401 10.0581 5.61131L14.6668 3" stroke="#565865" stroke-width="1.25" stroke-linejoin="round"/>
  <path d="M1.34401 7.98391C1.38759 10.0276 1.40938 11.0494 2.16347 11.8064C2.91755 12.5634 3.96705 12.5897 6.06605 12.6425C7.3597 12.675 8.64063 12.675 9.93428 12.6425C12.0333 12.5897 13.0828 12.5634 13.8369 11.8064C14.5909 11.0494 14.6127 10.0276 14.6563 7.98391C14.6703 7.32679 14.6703 6.67355 14.6563 6.01643C14.6127 3.97274 14.5909 2.95089 13.8369 2.19394C13.0828 1.43698 12.0333 1.41061 9.93428 1.35788C8.64063 1.32537 7.3597 1.32537 6.06604 1.35787C3.96705 1.41061 2.91755 1.43697 2.16346 2.19393C1.40938 2.95088 1.38759 3.97273 1.34401 6.01642C1.32999 6.67354 1.32999 7.32679 1.34401 7.98391Z" stroke="#565865" stroke-width="1.25" stroke-linejoin="round"/>
</svg>
