<svg width="14" height="16" viewBox="0 0 14 16" fill="none" xmlns="http://www.w3.org/2000/svg">
  <path d="M11 1.3335V2.66683M3 1.3335V2.66683" stroke="#565865" stroke-width="1.25" stroke-linecap="round" stroke-linejoin="round"/>
  <path d="M6.99668 8.66699H7.00267M6.99668 11.3337H7.00267M9.66036 8.66699H9.66634M4.33301 8.66699H4.33899M4.33301 11.3337H4.33899" stroke="#565865" stroke-width="1.5" stroke-linecap="round" stroke-linejoin="round"/>
  <path d="M1.33301 5.3335H12.6663" stroke="#565865" stroke-width="1.25" stroke-linecap="round" stroke-linejoin="round"/>
  <path d="M0.666504 8.16216C0.666504 5.25729 0.666504 3.80486 1.50125 2.90243C2.336 2 3.6795 2 6.3665 2H7.63317C10.3202 2 11.6637 2 12.4984 2.90243C13.3332 3.80486 13.3332 5.25729 13.3332 8.16216V8.5045C13.3332 11.4094 13.3332 12.8618 12.4984 13.7642C11.6637 14.6667 10.3202 14.6667 7.63317 14.6667H6.3665C3.6795 14.6667 2.336 14.6667 1.50125 13.7642C0.666504 12.8618 0.666504 11.4094 0.666504 8.5045V8.16216Z" stroke="#565865" stroke-width="1.25" stroke-linecap="round" stroke-linejoin="round"/>
  <path d="M1 5.3335H13" stroke="#565865" stroke-width="1.25" stroke-linecap="round" stroke-linejoin="round"/>
</svg>
