<svg width="14" height="16" viewBox="0 0 14 16" fill="none" xmlns="http://www.w3.org/2000/svg">
  <path d="M7.3335 1.3335H7.51531C9.68945 1.3335 10.7765 1.3335 11.5314 1.86539C11.7477 2.01778 11.9398 2.19851 12.1017 2.40209C12.6668 3.11261 12.6668 4.13573 12.6668 6.18198V7.87895C12.6668 9.8544 12.6668 10.8421 12.3542 11.631C11.8516 12.8992 10.7887 13.8996 9.44126 14.3726C8.60308 14.6668 7.55362 14.6668 5.45471 14.6668C4.25533 14.6668 3.65564 14.6668 3.17668 14.4987C2.40669 14.2284 1.79933 13.6568 1.51214 12.9321C1.3335 12.4813 1.3335 11.9169 1.3335 10.788V8.00016" stroke="#565865" stroke-width="1.25" stroke-linecap="round" stroke-linejoin="round"/>
  <path d="M12.6667 8C12.6667 9.2273 11.6717 10.2222 10.4444 10.2222C10.0006 10.2222 9.47731 10.1444 9.04576 10.2601C8.66232 10.3628 8.36282 10.6623 8.26008 11.0458C8.14445 11.4773 8.22222 12.0006 8.22222 12.4444C8.22222 13.6717 7.2273 14.6667 6 14.6667" stroke="#565865" stroke-width="1.25" stroke-linecap="round" stroke-linejoin="round"/>
  <path d="M2 3.00016C2.32769 2.66303 3.19985 1.3335 3.66667 1.3335M5.33333 3.00016C5.00565 2.66303 4.13349 1.3335 3.66667 1.3335M3.66667 1.3335L3.66667 6.66683" stroke="#565865" stroke-width="1.25" stroke-linecap="round" stroke-linejoin="round"/>
</svg>
