<svg width="12" height="16" viewBox="0 0 12 16" fill="none" xmlns="http://www.w3.org/2000/svg">
  <path d="M7.66036 10.3335H7.66634M4.33301 10.3335H4.33899" stroke="#565865" stroke-width="1.5" stroke-linecap="round" stroke-linejoin="round"/>
  <path d="M0.845045 12.5632C0.994965 13.6767 1.91726 14.549 3.03961 14.6006C3.98402 14.644 4.94337 14.6667 5.99984 14.6667C7.0563 14.6667 8.01566 14.644 8.96007 14.6006C10.0824 14.549 11.0047 13.6767 11.1546 12.5632C11.2525 11.8365 11.3332 11.0917 11.3332 10.3333C11.3332 9.57492 11.2525 8.83021 11.1546 8.1035C11.0047 6.99001 10.0824 6.11766 8.96007 6.06606C8.01566 6.02265 7.0563 6 5.99984 6C4.94337 6 3.98402 6.02265 3.03961 6.06606C1.91726 6.11766 0.994964 6.99001 0.845044 8.1035C0.747201 8.83021 0.666504 9.57492 0.666504 10.3333C0.666504 11.0917 0.747201 11.8365 0.845045 12.5632Z" stroke="#565865" stroke-width="1.25"/>
  <path d="M3 6.00016V4.3335C3 2.67664 4.34315 1.3335 6 1.3335C7.65685 1.3335 9 2.67664 9 4.3335V6.00016" stroke="#565865" stroke-width="1.25" stroke-linecap="round" stroke-linejoin="round"/>
</svg>
