<svg width="16" height="16" viewBox="0 0 16 16" fill="none" xmlns="http://www.w3.org/2000/svg">
  <path d="M2.51858 7.96173C1.88656 6.8597 1.58139 5.95982 1.39739 5.04764C1.12524 3.69855 1.74804 2.3807 2.77975 1.53981C3.21579 1.18442 3.71565 1.30584 3.9735 1.76843L4.55562 2.81277C5.01702 3.64054 5.24772 4.05443 5.20197 4.49322C5.15621 4.93202 4.84508 5.2894 4.22281 6.00417L2.51858 7.96173ZM2.51858 7.96173C3.79783 10.1923 5.80539 12.201 8.03859 13.4817M8.03859 13.4817C9.14063 14.1138 10.0405 14.4189 10.9527 14.6029C12.3018 14.8751 13.6196 14.2523 14.4605 13.2206C14.8159 12.7845 14.6945 12.2847 14.2319 12.0268L13.1876 11.4447C12.3598 10.9833 11.9459 10.7526 11.5071 10.7984C11.0683 10.8441 10.7109 11.1553 9.99616 11.7775L8.03859 13.4817Z" stroke="#565865" stroke-width="1.25" stroke-linejoin="round"/>
</svg>
