<svg width="15" height="14" viewBox="0 0 15 14" fill="none" xmlns="http://www.w3.org/2000/svg">
  <path d="M1.5 6.99984C1.5 4.01428 1.5 2.52149 2.4275 1.594C3.35499 0.666504 4.84777 0.666504 7.83333 0.666504C10.8189 0.666504 12.3117 0.666504 13.2392 1.594C14.1667 2.52149 14.1667 4.01428 14.1667 6.99984C14.1667 9.9854 14.1667 11.4782 13.2392 12.4057C12.3117 13.3332 10.8189 13.3332 7.83333 13.3332C4.84777 13.3332 3.35499 13.3332 2.4275 12.4057C1.5 11.4782 1.5 9.9854 1.5 6.99984Z" stroke="#565865" stroke-width="1.25"/>
  <path d="M4.6665 5.6665L7.58337 8.08483C7.78306 8.25039 7.88291 8.33317 7.99984 8.33317C8.11676 8.33317 8.21661 8.25039 8.4163 8.08483L11.3332 5.6665" stroke="#565865" stroke-width="1.25" stroke-linecap="round" stroke-linejoin="round"/>
</svg>
