<svg width="16" height="12" viewBox="0 0 16 12" fill="none" xmlns="http://www.w3.org/2000/svg">
  <path d="M9.66683 0.666504H6.3335C4.14184 0.666504 3.04601 0.666504 2.30845 1.27181C2.17342 1.38262 2.04961 1.50643 1.9388 1.64146C1.3335 2.37902 1.3335 3.47485 1.3335 5.6665C1.3335 7.85816 1.3335 8.95399 1.9388 9.69155C2.04961 9.82658 2.17342 9.95039 2.30845 10.0612C3.04601 10.6665 4.14184 10.6665 6.3335 10.6665H9.66683C11.8585 10.6665 12.9543 10.6665 13.6919 10.0612C13.8269 9.95039 13.9507 9.82658 14.0615 9.69155C14.6668 8.95399 14.6668 7.85816 14.6668 5.6665C14.6668 3.47485 14.6668 2.37902 14.0615 1.64146C13.9507 1.50643 13.8269 1.38262 13.6919 1.27181C12.9543 0.666504 11.8585 0.666504 9.66683 0.666504Z" stroke="#565865" stroke-width="1.25" stroke-linecap="round"/>
  <path d="M4.66699 4L5.33366 4" stroke="#565865" stroke-width="1.25" stroke-linecap="round" stroke-linejoin="round"/>
  <path d="M7.66699 4L8.33366 4" stroke="#565865" stroke-width="1.25" stroke-linecap="round" stroke-linejoin="round"/>
  <path d="M10.667 4L11.3337 4" stroke="#565865" stroke-width="1.25" stroke-linecap="round" stroke-linejoin="round"/>
  <path d="M4.66699 7.33301L11.3337 7.33301" stroke="#565865" stroke-width="1.25" stroke-linecap="round" stroke-linejoin="round"/>
</svg>
