<svg width="14" height="16" viewBox="0 0 14 16" fill="none" xmlns="http://www.w3.org/2000/svg">
  <path d="M7.35294 1.3335C10.015 1.3335 11.346 1.3335 12.173 2.11454C13 2.89559 13 4.15267 13 6.66683V9.3335C13 11.8477 13 13.1047 12.173 13.8858C11.346 14.6668 10.015 14.6668 7.35294 14.6668H6.64706C3.98501 14.6668 2.65399 14.6668 1.82699 13.8858C1 13.1047 1 11.8477 1 9.3335L1 6.66683C1 4.15267 1 2.89559 1.82699 2.11454C2.65399 1.3335 3.98501 1.3335 6.64706 1.3335L7.35294 1.3335Z" stroke="#565865" stroke-width="1.25" stroke-linecap="round"/>
  <path d="M4.3335 4.66699H9.66683" stroke="#565865" stroke-width="1.25" stroke-linecap="round"/>
  <path d="M4.3335 8H9.66683" stroke="#565865" stroke-width="1.25" stroke-linecap="round"/>
  <path d="M4.3335 11.3335L7.00016 11.3335" stroke="#565865" stroke-width="1.25" stroke-linecap="round"/>
</svg>
