<svg width="16" height="16" viewBox="0 0 16 16" fill="none" xmlns="http://www.w3.org/2000/svg">
  <path d="M13.3337 12.0003L13.3337 4.00033M4.00033 13.3337H12.0003M12.0003 2.66699H4.00033M2.66699 4.00033V12.0003" stroke="#565865" stroke-width="1.25" stroke-linecap="round" stroke-linejoin="round"/>
  <path d="M9.93674 5.5542L10.0785 4.9455V4.9455L9.93674 5.5542ZM6.06358 5.5542L6.20536 6.16291L6.06358 5.5542ZM5.52279 5.7605L5.94814 6.21843L5.94814 6.21843L5.52279 5.7605ZM4.7085 6.51868C4.7085 6.86386 4.98832 7.14368 5.3335 7.14368C5.67867 7.14368 5.9585 6.86386 5.9585 6.51868H4.7085ZM5.41174 5.90038L4.86926 5.58999L4.86926 5.58999L5.41174 5.90038ZM10.4775 5.7605L10.9029 5.30257L10.9029 5.30257L10.4775 5.7605ZM10.0418 6.51868C10.0418 6.86386 10.3217 7.14368 10.6668 7.14368C11.012 7.14368 11.2918 6.86386 11.2918 6.51868H10.0418ZM10.5886 5.90038L10.0461 6.21077L10.0461 6.21078L10.5886 5.90038ZM7.37516 10.6668C7.37516 11.012 7.65498 11.2918 8.00016 11.2918C8.34534 11.2918 8.62516 11.012 8.62516 10.6668H7.37516ZM8.88905 11.2918C9.23423 11.2918 9.51405 11.012 9.51405 10.6668C9.51405 10.3217 9.23423 10.0418 8.88905 10.0418V11.2918ZM7.11127 10.0418C6.7661 10.0418 6.48627 10.3217 6.48627 10.6668C6.48627 11.012 6.7661 11.2918 7.11127 11.2918V10.0418ZM8.00016 5.9585C8.62153 5.9585 9.223 6.0297 9.79497 6.16291L10.0785 4.9455C9.41375 4.79067 8.71715 4.7085 8.00016 4.7085V5.9585ZM6.20536 6.16291C6.77732 6.0297 7.37879 5.9585 8.00016 5.9585V4.7085C7.28317 4.7085 6.58657 4.79067 5.92181 4.9455L6.20536 6.16291ZM5.92181 4.9455C5.69507 4.99831 5.36077 5.05797 5.09743 5.30257L5.94814 6.21843C5.9265 6.23853 5.90864 6.24163 5.93692 6.23171C5.95534 6.22525 5.98375 6.2167 6.03054 6.20473C6.07766 6.19268 6.13259 6.17986 6.20536 6.16291L5.92181 4.9455ZM5.9585 6.51868C5.9585 6.43666 5.95852 6.37308 5.9596 6.31812C5.96067 6.26333 5.96265 6.2277 5.96515 6.2029C5.96957 6.15886 5.97292 6.17808 5.95422 6.21078L4.86926 5.58999C4.77231 5.75943 4.73654 5.92728 4.72141 6.07795C4.70777 6.21366 4.7085 6.37043 4.7085 6.51868H5.9585ZM5.09743 5.30257C5.01031 5.3835 4.92832 5.48678 4.86926 5.58999L5.95422 6.21078C5.95293 6.21303 5.95197 6.21459 5.9514 6.21549C5.95082 6.21641 5.9505 6.21688 5.95045 6.21695C5.95043 6.21698 5.95094 6.21625 5.95183 6.21512C5.95273 6.21399 5.95333 6.21333 5.9533 6.21336C5.95324 6.21342 5.95286 6.21384 5.9521 6.21461C5.95135 6.21537 5.95005 6.21666 5.94814 6.21843L5.09743 5.30257ZM9.79497 6.16291C9.86774 6.17986 9.92266 6.19268 9.96979 6.20473C10.0166 6.2167 10.045 6.22525 10.0634 6.23171C10.0917 6.24163 10.0738 6.23853 10.0522 6.21843L10.9029 5.30257C10.6396 5.05797 10.3053 4.99831 10.0785 4.9455L9.79497 6.16291ZM11.2918 6.51868C11.2918 6.37043 11.2926 6.21366 11.2789 6.07795C11.2638 5.92728 11.228 5.75943 11.1311 5.58999L10.0461 6.21078C10.0274 6.17808 10.0308 6.15886 10.0352 6.2029C10.0377 6.2277 10.0397 6.26333 10.0407 6.31812C10.0418 6.37308 10.0418 6.43666 10.0418 6.51868H11.2918ZM10.0522 6.21842C10.0503 6.21666 10.049 6.21537 10.0482 6.21461C10.0475 6.21384 10.0471 6.21342 10.047 6.21336C10.047 6.21333 10.0476 6.21399 10.0485 6.21512C10.0494 6.21625 10.0499 6.21698 10.0499 6.21695C10.0498 6.21688 10.0495 6.21641 10.0489 6.21549C10.0484 6.21459 10.0474 6.21303 10.0461 6.21077L11.1311 5.58999C11.072 5.48678 10.99 5.3835 10.9029 5.30257L10.0522 6.21842ZM7.37516 5.3335V10.6668H8.62516V5.3335H7.37516ZM8.88905 10.0418H7.11127V11.2918H8.88905V10.0418Z" fill="#565865"/>
  <rect x="12" y="1.3335" width="2.66667" height="2.66667" rx="1" stroke="#565865" stroke-width="1.25"/>
  <rect x="1.3335" y="1.3335" width="2.66667" height="2.66667" rx="1" stroke="#565865" stroke-width="1.25"/>
  <rect x="12" y="12" width="2.66667" height="2.66667" rx="1" stroke="#565865" stroke-width="1.25"/>
  <rect x="1.3335" y="12" width="2.66667" height="2.66667" rx="1" stroke="#565865" stroke-width="1.25"/>
</svg>
