<svg width="16" height="14" viewBox="0 0 16 14" fill="none" xmlns="http://www.w3.org/2000/svg">
  <path d="M5.00016 9H3.00016M4.00016 1V9M4.00016 1C3.47164 1 2.79272 1.07632 2.2522 1.15149C2.02359 1.18328 1.90928 1.19918 1.80811 1.25524C1.59766 1.37186 1.42803 1.62754 1.36419 1.92435C1.3335 2.06704 1.3335 2.22988 1.3335 2.55556M4.00016 1C4.52869 1 5.2076 1.07632 5.74812 1.15149C5.97674 1.18328 6.09104 1.19918 6.19222 1.25524C6.40266 1.37186 6.57229 1.62754 6.63614 1.92435C6.66683 2.06704 6.66683 2.22988 6.66683 2.55556" stroke="#565865" stroke-width="1.25" stroke-linecap="round"/>
  <path d="M13.0002 9H11.0002M12.0002 1V9M12.0002 1C11.4716 1 10.7927 1.07632 10.2522 1.15149C10.0236 1.18328 9.90928 1.19918 9.80811 1.25524C9.59767 1.37186 9.42803 1.62754 9.36419 1.92435C9.3335 2.06704 9.3335 2.22988 9.3335 2.55556M12.0002 1C12.5287 1 13.2076 1.07632 13.7481 1.15149C13.9767 1.18328 14.091 1.19918 14.1922 1.25524C14.4027 1.37186 14.5723 1.62754 14.6361 1.92435C14.6668 2.06704 14.6668 2.22988 14.6668 2.55556" stroke="#565865" stroke-width="1.25" stroke-linecap="round"/>
  <path d="M1.3335 11.6665H6.66683" stroke="#565865" stroke-width="1.25" stroke-linecap="round" stroke-linejoin="round"/>
  <path d="M9.3335 11.6665L14.6668 11.6665" stroke="#565865" stroke-width="1.25" stroke-linecap="round" stroke-linejoin="round"/>
  <ellipse cx="8.00033" cy="11.6668" rx="1.33333" ry="1.33333" stroke="#565865" stroke-width="1.25" stroke-linecap="round" stroke-linejoin="round"/>
</svg>
