<svg width="32" height="32" viewBox="0 0 32 32" fill="none" xmlns="http://www.w3.org/2000/svg">
<rect width="32" height="32" rx="16" fill="#C6C6C6"/>
<rect x="6.5" y="6.5" width="19" height="19" rx="3.5" stroke="white"/>
<path d="M6 10C6 7.79086 7.79086 6 10 6H22C24.2091 6 26 7.79086 26 10V11H6V10Z" fill="white"/>
<line x1="12.5" y1="10" x2="12.5" y2="26" stroke="white"/>
<path d="M8.5 13.8889C8.5 13.398 8.89797 13 9.38889 13H9.61111C10.102 13 10.5 13.398 10.5 13.8889V22.1111C10.5 22.602 10.102 23 9.61111 23H9.38889C8.89797 23 8.5 22.602 8.5 22.1111V13.8889Z" fill="white"/>
<rect x="15" y="13" width="2" height="10" rx="0.888889" fill="white"/>
<path d="M21.5 13.8889C21.5 13.398 21.898 13 22.3889 13H22.6111C23.102 13 23.5 13.398 23.5 13.8889V22.1111C23.5 22.602 23.102 23 22.6111 23H22.3889C21.898 23 21.5 22.602 21.5 22.1111V13.8889Z" fill="white"/>
<line x1="19.5" y1="10" x2="19.5" y2="26" stroke="white"/>
</svg>
