<svg width="12" height="12" viewBox="0 0 12 12" fill="none" xmlns="http://www.w3.org/2000/svg">
  <circle cx="6.00137" cy="5.99941" r="5.6" fill="#3883F3"/>
  <path d="M2.80469 3.59961H4.51367C5.31666 3.59961 6.19047 3.77612 6.19047 4.81983C6.19047 5.35548 5.87326 5.72137 5.40094 5.87765V5.89113C6.0026 5.9708 6.4041 6.44026 6.4041 7.06355C6.4041 8.06743 5.4981 8.39961 4.68223 8.39961H2.80469V3.59961ZM3.81486 5.51789H4.54645C4.85723 5.51789 5.18088 5.38245 5.18088 4.99634C5.18088 4.59614 4.81801 4.4944 4.5008 4.4944H3.81486V5.51789ZM3.81486 7.50421H4.72086C5.03808 7.50421 5.39451 7.36202 5.39451 6.94159C5.39451 6.48745 4.90873 6.4133 4.57864 6.4133H3.81779L3.81486 7.50421Z" fill="white"/>
  <path d="M6.72949 7.24822L8.36122 5.78534H6.76871V4.97461H9.48787V5.95006L7.7783 7.45335H9.5265V8.26653H6.72949V7.24822Z" fill="white"/>
</svg>
