
<svg width="16" height="14" viewBox="0 0 16 14" fill="none" xmlns="http://www.w3.org/2000/svg">
  <path d="M0 3.05924C0 2.14975 0.24529 1.37572 0.77221 0.824219L1.68069 1.79176C0.672277 2.86574 1.55351 6.20376 4.4334 9.27088C7.31329 12.338 10.4476 13.2765 11.456 12.2025L12.3645 13.1701C10.6565 14.9891 6.77728 13.6926 3.52491 10.2384C1.27188 7.82924 0 5.11044 0 3.05924Z" fill="#009A46"/>
  <path d="M5.73141 14.0003C4.87743 14.0003 4.15065 13.7391 3.63281 13.1779L4.5413 12.2103C5.54971 13.2843 8.68398 12.3458 11.5639 9.27869C14.4438 6.21158 15.325 2.87355 14.3166 1.79958L15.2251 0.832031C16.933 2.65101 15.7156 6.78243 12.4724 10.2462C10.2102 12.6457 7.64831 14.0003 5.73141 14.0003Z" fill="#FF5805"/>
  <path d="M12.7611 8.86379C12.2069 7.17059 11.0804 5.36128 9.59046 3.77451C6.33809 0.310701 2.45887 -0.976132 0.750921 0.833175C0.632818 0.968631 0.741836 1.28792 0.987127 1.54916C1.23242 1.81039 1.5413 1.9265 1.6594 1.80072C2.66782 0.726745 5.80208 1.66526 8.68197 4.73238C10.0447 6.18369 11.0622 7.80917 11.5528 9.30886C11.9798 10.6247 11.9434 11.689 11.4438 12.2212C11.3257 12.3469 11.4256 12.6662 11.68 12.9372C11.9343 13.2081 12.2341 13.3145 12.3522 13.1887C13.2244 12.2502 13.3697 10.7118 12.7611 8.86379Z" fill="#F5AFCB"/>
  <path d="M15.2162 0.831825C14.3441 -0.0970177 12.8996 -0.251825 11.1644 0.386754C9.57455 0.976956 7.87569 2.17671 6.38578 3.76348C3.13341 7.22729 1.92513 11.3587 3.63307 13.1777C3.75118 13.3035 4.06006 13.197 4.30535 12.9261C4.55064 12.6552 4.65966 12.3359 4.54156 12.2101C3.53314 11.1362 4.41437 7.79814 7.29426 4.73103C8.65698 3.27971 10.1832 2.19606 11.5823 1.67359C12.8178 1.21884 13.8172 1.25754 14.3168 1.78969C14.4349 1.91547 14.7347 1.80904 14.9891 1.53813C15.2435 1.26722 15.3434 0.967281 15.2162 0.831825Z" fill="#FF9B00"/>
</svg>
