<svg width="12" height="12" viewBox="0 0 12 12" fill="none" xmlns="http://www.w3.org/2000/svg">
  <circle cx="6.00137" cy="5.99941" r="5.6" fill="black"/>
  <path fill-rule="evenodd" clip-rule="evenodd" d="M7.51766 3.60667C7.4641 3.59961 7.41055 3.59961 7.35699 3.59961C6.84151 3.59961 6.3528 3.81855 6.00469 4.21406C5.65657 3.82561 5.16787 3.59961 4.65908 3.59961C3.63481 3.59961 2.80469 4.47537 2.80469 5.54182V7.99255H3.80218V5.57714C3.80218 5.13219 4.15029 4.72256 4.55866 4.68019C4.58544 4.68019 4.61891 4.67312 4.64569 4.67312C5.10762 4.67312 5.48251 5.06863 5.48251 5.55595V7.99961H6.50009V5.57007C6.50009 5.12513 6.8482 4.7155 7.25657 4.67312C7.28335 4.67312 7.31682 4.66606 7.3436 4.66606C7.80552 4.66606 8.18042 5.06157 8.18711 5.54182V7.99255H9.20469V5.57714C9.20469 5.08276 9.03063 4.61662 8.72268 4.24937C8.40803 3.87505 7.97958 3.64905 7.51766 3.60667Z" fill="white"/>
</svg>
