<svg width="10" height="12" viewBox="0 0 10 12" fill="none" xmlns="http://www.w3.org/2000/svg">
  <path d="M0.193848 3.10499C0.193848 2.91771 0.299656 2.74651 0.46716 2.66276L4.27831 0.757185C4.72875 0.531963 5.25895 0.531963 5.70939 0.757185L9.52054 2.66276C9.68804 2.74651 9.79385 2.91771 9.79385 3.10499C9.79385 3.37805 9.57248 3.59941 9.29942 3.59941H0.688274C0.41521 3.59941 0.193848 3.37805 0.193848 3.10499Z" fill="#565865"/>
  <rect x="0.193848" y="3.99951" width="9.6" height="0.8" rx="0.4" fill="#565865"/>
  <rect x="0.193848" y="10.3994" width="9.6" height="1.2" rx="0.32" fill="#565865"/>
  <rect x="0.99707" y="5.2002" width="0.8" height="4.8" rx="0.4" fill="#565865"/>
  <rect x="0.99707" y="5.2002" width="1" height="0.8" rx="0.4" fill="#565865"/>
  <rect x="0.99707" y="9.2002" width="1" height="0.8" rx="0.4" fill="#565865"/>
  <rect x="0.796875" y="5.2002" width="1.2" height="0.8" rx="0.4" fill="#565865"/>
  <rect x="0.796875" y="9.2002" width="1.2" height="0.8" rx="0.4" fill="#565865"/>
  <rect x="3.39111" y="5.2002" width="0.8" height="4.8" rx="0.4" fill="#565865"/>
  <rect x="3.39111" y="5.2002" width="1" height="0.8" rx="0.4" fill="#565865"/>
  <rect x="3.39111" y="9.2002" width="1" height="0.8" rx="0.4" fill="#565865"/>
  <rect x="3.19092" y="5.2002" width="1.2" height="0.8" rx="0.4" fill="#565865"/>
  <rect x="3.19092" y="9.2002" width="1.2" height="0.8" rx="0.4" fill="#565865"/>
  <rect x="5.79248" y="5.2002" width="0.8" height="4.8" rx="0.4" fill="#565865"/>
  <rect x="5.79248" y="5.2002" width="1" height="0.8" rx="0.4" fill="#565865"/>
  <rect x="5.79248" y="9.2002" width="1" height="0.8" rx="0.4" fill="#565865"/>
  <rect x="5.59229" y="5.2002" width="1.2" height="0.8" rx="0.4" fill="#565865"/>
  <rect x="5.59229" y="9.2002" width="1.2" height="0.8" rx="0.4" fill="#565865"/>
  <rect x="8.19385" y="5.2002" width="0.8" height="4.8" rx="0.4" fill="#565865"/>
  <rect x="8.19385" y="5.2002" width="1" height="0.8" rx="0.4" fill="#565865"/>
  <rect x="8.19385" y="9.2002" width="1" height="0.8" rx="0.4" fill="#565865"/>
  <rect x="7.99365" y="5.2002" width="1.2" height="0.8" rx="0.4" fill="#565865"/>
  <rect x="7.99365" y="9.2002" width="1.2" height="0.8" rx="0.4" fill="#565865"/>
</svg>
