<svg width="10" height="12" viewBox="0 0 10 12" fill="none" xmlns="http://www.w3.org/2000/svg">
  <path d="M2.92622 11.2207L3.12257 9.98783L2.68519 9.97781H0.59668L2.04809 0.880225C2.05259 0.852762 2.06724 0.827153 2.08864 0.808968C2.11004 0.790782 2.13744 0.780762 2.16597 0.780762H5.6875C6.85659 0.780762 7.66339 1.02126 8.08462 1.49593C8.28209 1.71861 8.40786 1.95131 8.46868 2.2074C8.53251 2.4761 8.53363 2.79713 8.47131 3.18867L8.46681 3.21725V3.46814L8.66428 3.57873C8.8306 3.66595 8.96275 3.76578 9.06411 3.88009C9.23306 4.07048 9.34231 4.31246 9.38848 4.59935C9.43616 4.8944 9.4204 5.24549 9.34231 5.64297C9.2522 6.10021 9.10654 6.49844 8.90981 6.82429C8.72886 7.12454 8.49834 7.37357 8.22465 7.56656C7.96335 7.7499 7.65287 7.88907 7.30185 7.97814C6.96171 8.06573 6.57389 8.10989 6.14853 8.10989H5.87447C5.67849 8.10989 5.48815 8.17967 5.33873 8.30474C5.18893 8.43241 5.08982 8.60684 5.05941 8.7976L5.03876 8.90857L4.69186 11.0816L4.6761 11.1613C4.67197 11.1866 4.66483 11.1992 4.65432 11.2077C4.64494 11.2155 4.63142 11.2207 4.61828 11.2207H2.92622Z" fill="#253B80"/>
  <path d="M8.84524 3.24609C8.83473 3.31253 8.82271 3.38044 8.8092 3.45022C8.34479 5.80728 6.75597 6.62155 4.72678 6.62155H3.6936C3.44544 6.62155 3.23632 6.79969 3.19766 7.04167L2.66868 10.3581L2.51888 11.2982C2.49372 11.457 2.61762 11.6003 2.7798 11.6003H4.61227C4.82927 11.6003 5.01361 11.4444 5.04777 11.2329L5.06579 11.1408L5.41081 8.97639L5.43296 8.85762C5.46675 8.64534 5.65146 8.48946 5.86846 8.48946H6.14252C7.91793 8.48946 9.30777 7.77689 9.71398 5.71487C9.88368 4.85347 9.79583 4.13421 9.34681 3.62836C9.21091 3.47582 9.04234 3.34927 8.84524 3.24609Z" fill="#179BD7"/>
  <path d="M8.3649 3.05492C8.29395 3.03451 8.22074 3.01595 8.14565 2.99925C8.07019 2.98292 7.99285 2.96845 7.91326 2.95583C7.63469 2.91129 7.32947 2.89014 7.00247 2.89014H4.24231C4.17436 2.89014 4.10979 2.90535 4.05197 2.93282C3.9247 2.99331 3.83009 3.11245 3.80719 3.2583L3.22002 6.93474L3.20312 7.042C3.24179 6.80002 3.45091 6.62188 3.69907 6.62188H4.73225C6.76144 6.62188 8.35026 5.80724 8.81467 3.45055C8.82856 3.38077 8.8402 3.31286 8.85071 3.24642C8.7332 3.18482 8.60593 3.13212 8.4689 3.08721C8.43511 3.07607 8.40019 3.06531 8.3649 3.05492Z" fill="#222D65"/>
  <path d="M3.80615 3.25677C3.82905 3.11091 3.92366 2.99178 4.05093 2.93165C4.10912 2.90419 4.17332 2.88897 4.24127 2.88897H7.00143C7.32843 2.88897 7.63365 2.91013 7.91222 2.95466C7.99181 2.96728 8.06915 2.98176 8.14461 2.99809C8.2197 3.01479 8.29291 3.03334 8.36386 3.05376C8.39915 3.06415 8.43407 3.07491 8.46823 3.08567C8.60526 3.13058 8.73254 3.18365 8.85004 3.24489C8.9882 2.37384 8.84892 1.78077 8.3725 1.24374C7.84727 0.652527 6.89931 0.399414 5.6863 0.399414H2.16477C1.91699 0.399414 1.70562 0.577558 1.66733 0.819908L0.200527 10.011C0.171619 10.1929 0.313532 10.3569 0.498994 10.3569H2.67311L3.21898 6.93321L3.80615 3.25677Z" fill="#253B80"/>
</svg>
