<svg width="12" height="12" viewBox="0 0 12 12" fill="none" xmlns="http://www.w3.org/2000/svg">
  <circle cx="6.00137" cy="5.99941" r="5.6" fill="#00AFF0"/>
  <path d="M6.28733 2.79933C5.49531 2.7972 4.73366 3.1196 4.16401 3.69813V3.00807H3.14502V11.5993H4.16401V8.804C4.73718 9.37512 5.49764 9.69208 6.28733 9.689C8.07153 9.689 9.43073 8.15764 9.43073 6.26975C9.43073 4.35599 8.07153 2.79933 6.28733 2.79933ZM6.28733 8.69359C5.13488 8.69359 4.18808 7.60905 4.18808 6.26975C4.18808 4.90459 5.13488 3.79704 6.28733 3.79704C7.45236 3.79704 8.39916 4.90689 8.39916 6.26975C8.39916 7.60905 7.45236 8.69359 6.28733 8.69359Z" fill="white"/>
</svg>
