<svg width="12" height="12" viewBox="0 0 12 12" fill="none" xmlns="http://www.w3.org/2000/svg">
  <path d="M10.427 0.399414H0.98835C0.671379 0.399414 0.401367 0.670573 0.401367 1.00068V2.07352C0.401367 2.40362 0.671379 2.67478 0.98835 2.67478H10.427C10.7557 2.67478 11.014 2.40362 11.0258 2.07352V1.01247C11.0258 0.670572 10.7557 0.399414 10.427 0.399414ZM10.427 6.3531H0.98835C0.835734 6.3531 0.683119 6.41205 0.577462 6.52994C0.460065 6.64784 0.401367 6.78931 0.401367 6.95436V8.0272C0.401367 8.35731 0.671379 8.62847 0.98835 8.62847H10.427C10.7557 8.62847 11.014 8.3691 11.0258 8.0272V6.95436C11.014 6.61246 10.7557 6.3531 10.427 6.3531ZM6.30641 9.32404H0.98835C0.835734 9.32404 0.683119 9.38299 0.577462 9.50089C0.471805 9.61878 0.401367 9.76025 0.401367 9.92531V10.9982C0.401367 11.3283 0.671379 11.5994 0.98835 11.5994H6.29467C6.62338 11.5994 6.88166 11.3283 6.88166 11.0099V9.9371C6.8934 9.58341 6.63512 9.31225 6.30641 9.32404ZM11.0258 3.37036H0.98835C0.835734 3.37036 0.683119 3.42931 0.577462 3.5472C0.471805 3.6651 0.401367 3.80657 0.401367 3.97162V5.04447C0.401367 5.37457 0.671379 5.64573 0.98835 5.64573H11.014C11.3427 5.64573 11.601 5.37457 11.601 5.04447V3.97162C11.6127 3.64152 11.3427 3.38215 11.0258 3.37036Z" fill="#00C3F7"/>
</svg>
