<svg width="12" height="12" viewBox="0 0 12 12" fill="none" xmlns="http://www.w3.org/2000/svg">
  <path d="M9.72982 0.399414H2.27291C1.23917 0.399414 0.401367 1.23722 0.401367 2.27096V9.72787C0.401367 10.7616 1.23917 11.5994 2.27291 11.5994H9.72982C10.7636 11.5994 11.6014 10.7616 11.6014 9.72787V2.27096C11.6014 1.23722 10.7636 0.399414 9.72982 0.399414ZM9.56541 8.97227C9.56541 9.29883 9.30078 9.56346 8.97422 9.56346H3.02851C2.70195 9.56346 2.43732 9.29883 2.43732 8.97227V3.02656C2.43732 2.7 2.70195 2.43537 3.02851 2.43537H8.97422C9.30078 2.43537 9.56541 2.7 9.56541 3.02656V8.97227ZM4.81335 7.51962C4.6253 7.51962 4.4744 7.3676 4.4744 7.17955V4.80577C4.4744 4.61771 4.6253 4.46457 4.81335 4.46457H7.19051C7.37744 4.46457 7.52946 4.61659 7.52946 4.80577V7.17842C7.52946 7.36648 7.37744 7.5185 7.19051 7.5185H4.81335V7.51962Z" fill="#1A1A1A"/>
</svg>
