<svg width="12" height="12" viewBox="0 0 12 12" fill="none" xmlns="http://www.w3.org/2000/svg">
  <rect x="0.401367" y="0.399414" width="11.2" height="11.2" rx="2.4" fill="#285AA3"/>
  <path d="M5.04858 7.10293L7.60863 6.96319L7.0078 6.29242L9.03364 3.99598C9.14221 3.8729 9.20213 3.71442 9.20213 3.55029V3.38575C9.16572 3.05468 8.90206 2.88334 8.72532 2.82002C8.67844 2.80322 8.62841 2.79883 8.57861 2.79883H3.74598C3.67441 2.79883 3.60135 2.80694 3.53925 2.84252C3.34925 2.95135 3.29834 3.14546 3.29834 3.21806V3.72114C3.32839 3.96225 3.43225 4.10225 3.52061 4.17229C3.57538 4.2157 3.6474 4.22421 3.71728 4.22421H6.45922L5.7539 5.03472L5.04858 4.36396V7.10293Z" fill="white"/>
  <path d="M3.32466 9.19776H8.7462C8.82331 9.19776 8.90246 9.1867 8.9614 9.13698C9.04117 9.06968 9.13382 8.94723 9.17624 8.75058V8.1357C9.16917 8.06767 9.1151 7.92604 8.96099 7.81531C8.88423 7.76016 8.78779 7.74442 8.69327 7.74442H5.54515L5.96312 7.29724H4.78758V6.03955L2.91259 8.12578C2.85748 8.18711 2.81842 8.26233 2.81046 8.3444C2.75433 8.92311 3.12102 9.15418 3.32466 9.19776Z" fill="white"/>
</svg>
