<svg width="16" height="16" viewBox="0 0 16 16" fill="none" xmlns="http://www.w3.org/2000/svg">
  <rect width="16" height="16" rx="3.2" fill="#EAECF0"/>
  <path fill-rule="evenodd" clip-rule="evenodd" d="M7.18565 5.73026C7.18565 5.25077 7.59462 5.06527 8.25543 5.06527C9.34909 5.08832 10.4223 5.35924 11.3901 5.85661V2.96215C10.3921 2.5795 9.32768 2.38875 8.25543 2.40041C5.70834 2.40041 4 3.70204 4 5.87551C4 9.27606 8.78637 8.72377 8.78637 10.1895C8.78637 10.7628 8.28413 10.9406 7.5774 10.9406C6.53525 10.9406 5.18924 10.5199 4.13345 9.95995V12.8922C5.22045 13.3536 6.39233 13.5944 7.57776 13.5999C10.1955 13.5999 12 12.3382 12 10.1269C12 6.45685 7.18565 7.11239 7.18565 5.73096V5.73026Z" fill="#6772E5"/>
</svg>
