<svg width="140" height="114" viewBox="0 0 140 114" fill="none" xmlns="http://www.w3.org/2000/svg">
<g id="Web Page">
<g id="Group 47083">
<g id="Group 47051">
<g id="Group 47042">
<g id="Group 821">
<path id="Vector" d="M70.092 91C94.6829 91 114.619 70.8917 114.619 46C114.619 21.1083 94.5951 1 70.092 1C45.5012 1 25.565 21.1083 25.565 46C25.565 70.8917 45.5012 91 70.092 91Z" fill="#EAEEF9"/>
<path id="Vector_2" d="M120.272 31.7403C122.26 31.7403 123.873 30.1143 123.873 28.1085C123.873 26.1026 122.26 24.4766 120.272 24.4766C118.283 24.4766 116.671 26.1026 116.671 28.1085C116.671 30.1143 118.283 31.7403 120.272 31.7403Z" fill="#EAEEF9"/>
<path id="Vector_3" d="M125.541 17.57C126.899 17.57 128 16.4595 128 15.0897C128 13.7198 126.899 12.6094 125.541 12.6094C124.183 12.6094 123.082 13.7198 123.082 15.0897C123.082 16.4595 124.183 17.57 125.541 17.57Z" fill="#EAEEF9"/>
<path id="Vector_4" d="M27.5848 16.5036C28.9429 16.5036 30.0439 15.3931 30.0439 14.0233C30.0439 12.6534 28.9429 11.543 27.5848 11.543C26.2267 11.543 25.1257 12.6534 25.1257 14.0233C25.1257 15.3931 26.2267 16.5036 27.5848 16.5036Z" fill="#F1F3F9"/>
<path id="Vector_5" d="M12.5669 64.3376C15.0891 64.3376 17.1338 62.2753 17.1338 59.7313C17.1338 57.1873 15.0891 55.125 12.5669 55.125C10.0447 55.125 8 57.1873 8 59.7313C8 62.2753 10.0447 64.3376 12.5669 64.3376Z" fill="#EAEEF9"/>
</g>
</g>
</g>
</g>
<g id="Group 47084">
<g id="Vector_6" filter="url(#filter0_d_4464_75199)">
<path d="M117.877 15.879V76.1644C117.877 78.8039 115.757 80.9682 113.141 80.9682H27.2285C24.6117 80.9682 22.4658 78.8303 22.4658 76.1644V15.879C22.4658 13.2395 24.5855 11.1016 27.2285 11.1016H113.141C115.757 11.1016 117.877 13.2395 117.877 15.879Z" fill="url(#paint0_linear_4464_75199)"/>
</g>
<path id="Vector_7" d="M117.877 15.879V20.8676H22.4658V15.879C22.4658 13.2395 24.5855 11.1016 27.2285 11.1016H113.141C115.757 11.1016 117.877 13.2395 117.877 15.879Z" fill="#D5DDEA"/>
<path id="Vector_8" d="M27.6212 17.2762C28.3438 17.2762 28.9296 16.6853 28.9296 15.9565C28.9296 15.2276 28.3438 14.6367 27.6212 14.6367C26.8986 14.6367 26.3127 15.2276 26.3127 15.9565C26.3127 16.6853 26.8986 17.2762 27.6212 17.2762Z" fill="#989FB0"/>
<path id="Vector_9" d="M31.5465 17.2762C32.2691 17.2762 32.8549 16.6853 32.8549 15.9565C32.8549 15.2276 32.2691 14.6367 31.5465 14.6367C30.8238 14.6367 30.238 15.2276 30.238 15.9565C30.238 16.6853 30.8238 17.2762 31.5465 17.2762Z" fill="#989FB0"/>
<path id="Vector_10" d="M35.4459 17.2762C36.1685 17.2762 36.7543 16.6853 36.7543 15.9565C36.7543 15.2276 36.1685 14.6367 35.4459 14.6367C34.7233 14.6367 34.1375 15.2276 34.1375 15.9565C34.1375 16.6853 34.7233 17.2762 35.4459 17.2762Z" fill="#989FB0"/>
<path id="Vector_11" d="M103.997 28L109.997 28" stroke="#D6DCE8" stroke-width="4" stroke-miterlimit="10" stroke-linecap="round" stroke-linejoin="round"/>
<path id="Vector_12" d="M103.997 37L109.997 37" stroke="#D6DCE8" stroke-width="4" stroke-miterlimit="10" stroke-linecap="round" stroke-linejoin="round"/>
<path id="Vector_13" d="M103.997 46L109.997 46" stroke="#D6DCE8" stroke-width="4" stroke-miterlimit="10" stroke-linecap="round" stroke-linejoin="round"/>
<path id="Vector_14" d="M103.997 55L109.997 55" stroke="#D6DCE8" stroke-width="4" stroke-miterlimit="10" stroke-linecap="round" stroke-linejoin="round"/>
<path id="Vector_15" d="M103.997 64L109.997 64" stroke="#D6DCE8" stroke-width="4" stroke-miterlimit="10" stroke-linecap="round" stroke-linejoin="round"/>
<path id="Vector_16" d="M29.9971 28H37.9971" stroke="#D6DCE8" stroke-width="4" stroke-miterlimit="10" stroke-linecap="round" stroke-linejoin="round"/>
<path id="Vector_17" d="M29.9971 37H37.9971" stroke="#D6DCE8" stroke-width="4" stroke-miterlimit="10" stroke-linecap="round" stroke-linejoin="round"/>
<path id="Vector_18" d="M29.9971 46H37.9971" stroke="#D6DCE8" stroke-width="4" stroke-miterlimit="10" stroke-linecap="round" stroke-linejoin="round"/>
<path id="Vector_19" d="M29.9971 55H37.9971" stroke="#D6DCE8" stroke-width="4" stroke-miterlimit="10" stroke-linecap="round" stroke-linejoin="round"/>
<path id="Vector_20" d="M29.9971 64H37.9971" stroke="#D6DCE8" stroke-width="4" stroke-miterlimit="10" stroke-linecap="round" stroke-linejoin="round"/>
<path id="Vector_21" d="M44.9971 28H58.9971" stroke="#D6DCE8" stroke-width="4" stroke-miterlimit="10" stroke-linecap="round" stroke-linejoin="round"/>
<path id="Vector_22" d="M44.9971 37H58.9971" stroke="#D6DCE8" stroke-width="4" stroke-miterlimit="10" stroke-linecap="round" stroke-linejoin="round"/>
<path id="Vector_23" d="M44.9971 46H58.9971" stroke="#D6DCE8" stroke-width="4" stroke-miterlimit="10" stroke-linecap="round" stroke-linejoin="round"/>
<path id="Vector_24" d="M44.9971 55H58.9971" stroke="#D6DCE8" stroke-width="4" stroke-miterlimit="10" stroke-linecap="round" stroke-linejoin="round"/>
<path id="Vector_25" d="M44.9971 64H58.9971" stroke="#D6DCE8" stroke-width="4" stroke-miterlimit="10" stroke-linecap="round" stroke-linejoin="round"/>
<path id="Vector_26" d="M65.9971 28H79.9971" stroke="#D6DCE8" stroke-width="4" stroke-miterlimit="10" stroke-linecap="round" stroke-linejoin="round"/>
<path id="Vector_27" d="M65.9971 37H79.9971" stroke="#D6DCE8" stroke-width="4" stroke-miterlimit="10" stroke-linecap="round" stroke-linejoin="round"/>
<path id="Vector_28" d="M65.9971 46H79.9971" stroke="#D6DCE8" stroke-width="4" stroke-miterlimit="10" stroke-linecap="round" stroke-linejoin="round"/>
<path id="Vector_29" d="M65.9971 55H79.9971" stroke="#D6DCE8" stroke-width="4" stroke-miterlimit="10" stroke-linecap="round" stroke-linejoin="round"/>
<path id="Vector_30" d="M65.9971 64H79.9971" stroke="#D6DCE8" stroke-width="4" stroke-miterlimit="10" stroke-linecap="round" stroke-linejoin="round"/>
<path id="Vector_31" d="M83.9971 73L109.997 73" stroke="#D6DCE8" stroke-width="4" stroke-miterlimit="10" stroke-linecap="round" stroke-linejoin="round"/>
<path id="Vector_32" d="M29.8096 72.5859H47.6136" stroke="#D6DCE8" stroke-width="4" stroke-miterlimit="10" stroke-linecap="round" stroke-linejoin="round"/>
</g>
</g>
<defs>
<filter id="filter0_d_4464_75199" x="0.46582" y="0.101562" width="139.411" height="113.867" filterUnits="userSpaceOnUse" color-interpolation-filters="sRGB">
<feFlood flood-opacity="0" result="BackgroundImageFix"/>
<feColorMatrix in="SourceAlpha" type="matrix" values="0 0 0 0 0 0 0 0 0 0 0 0 0 0 0 0 0 0 127 0" result="hardAlpha"/>
<feOffset dy="11"/>
<feGaussianBlur stdDeviation="11"/>
<feColorMatrix type="matrix" values="0 0 0 0 0.397708 0 0 0 0 0.47749 0 0 0 0 0.575 0 0 0 0.27 0"/>
<feBlend mode="normal" in2="BackgroundImageFix" result="effect1_dropShadow_4464_75199"/>
<feBlend mode="normal" in="SourceGraphic" in2="effect1_dropShadow_4464_75199" result="shape"/>
</filter>
<linearGradient id="paint0_linear_4464_75199" x1="70.1404" y1="9.48548" x2="70.1404" y2="81.7215" gradientUnits="userSpaceOnUse">
<stop stop-color="#FDFEFF"/>
<stop offset="0.9964" stop-color="#ECF0F5"/>
</linearGradient>
</defs>
</svg>
