<svg width="18" height="18" viewBox="0 0 18 18" fill="none" xmlns="http://www.w3.org/2000/svg">
  <path d="M9.375 16.5H4.94315C3.78412 16.5 2.86223 15.936 2.0345 15.1474C0.340023 13.5331 3.1221 12.243 4.18318 11.6112C5.98259 10.5397 8.13188 10.2431 10.125 10.7214" stroke="#565865" stroke-width="1.25" stroke-linecap="round" stroke-linejoin="round"/>
  <path d="M12.375 4.875C12.375 6.73896 10.864 8.25 9 8.25C7.13604 8.25 5.625 6.73896 5.625 4.875C5.625 3.01104 7.13604 1.5 9 1.5C10.864 1.5 12.375 3.01104 12.375 4.875Z" stroke="#565865" stroke-width="1.25"/>
  <path d="M12.0602 16.393L11.8067 16.9642H11.8067L12.0602 16.393ZM11.3499 15.6319L10.767 15.8573H10.767L11.3499 15.6319ZM16.4001 15.6319L16.983 15.8573V15.8573L16.4001 15.6319ZM15.6898 16.393L15.9433 16.9642L15.9433 16.9642L15.6898 16.393ZM15.6898 12.3883L15.9433 11.817L15.6898 12.3883ZM16.4001 13.1494L16.983 12.924V12.924L16.4001 13.1494ZM12.0602 12.3883L11.8067 11.817L11.8067 11.817L12.0602 12.3883ZM11.3499 13.1494L10.767 12.924H10.767L11.3499 13.1494ZM11.9375 12.2812C11.9375 12.6264 12.2173 12.9062 12.5625 12.9062C12.9077 12.9062 13.1875 12.6264 13.1875 12.2812H11.9375ZM14.5625 12.2812C14.5625 12.6264 14.8423 12.9062 15.1875 12.9062C15.5327 12.9062 15.8125 12.6264 15.8125 12.2812H14.5625ZM13.2188 12.9062H14.5312V11.6562H13.2188V12.9062ZM14.5312 15.875H13.2188V17.125H14.5312V15.875ZM13.2188 15.875C12.9038 15.875 12.7011 15.8746 12.5462 15.8633C12.3977 15.8524 12.3414 15.834 12.3138 15.8217L11.8067 16.9642C12.0202 17.059 12.2374 17.094 12.455 17.11C12.6661 17.1254 12.9221 17.125 13.2188 17.125V15.875ZM10.625 14.3906C10.625 14.7103 10.6247 14.9792 10.6388 15.1998C10.6531 15.4252 10.6843 15.6434 10.767 15.8573L11.9329 15.4065C11.9157 15.362 11.8968 15.2871 11.8862 15.1203C11.8753 14.9487 11.875 14.7262 11.875 14.3906H10.625ZM12.3138 15.8217C12.1516 15.7497 12.0097 15.6053 11.9329 15.4065L10.767 15.8573C10.9565 16.3476 11.3256 16.7507 11.8067 16.9642L12.3138 15.8217ZM15.875 14.3906C15.875 14.7262 15.8747 14.9487 15.8638 15.1203C15.8532 15.2871 15.8343 15.362 15.8171 15.4065L16.983 15.8573C17.0657 15.6434 17.0969 15.4252 17.1112 15.1998C17.1253 14.9792 17.125 14.7103 17.125 14.3906H15.875ZM14.5312 17.125C14.8279 17.125 15.0839 17.1254 15.295 17.11C15.5126 17.094 15.7298 17.059 15.9433 16.9642L15.4362 15.8217C15.4086 15.834 15.3523 15.8524 15.2038 15.8633C15.0489 15.8746 14.8462 15.875 14.5312 15.875V17.125ZM15.8171 15.4065C15.7403 15.6053 15.5984 15.7497 15.4362 15.8217L15.9433 16.9642C16.4244 16.7507 16.7935 16.3476 16.983 15.8573L15.8171 15.4065ZM14.5312 12.9062C14.8462 12.9062 15.0489 12.9066 15.2038 12.918C15.3523 12.9288 15.4086 12.9473 15.4362 12.9596L15.9433 11.817C15.7298 11.7223 15.5126 11.6872 15.295 11.6713C15.0839 11.6559 14.8279 11.6562 14.5312 11.6562V12.9062ZM17.125 14.3906C17.125 14.071 17.1253 13.8021 17.1112 13.5815C17.0969 13.356 17.0657 13.1379 16.983 12.924L15.8171 13.3747C15.8343 13.4192 15.8532 13.4941 15.8638 13.6609C15.8747 13.8325 15.875 14.055 15.875 14.3906H17.125ZM15.4362 12.9596C15.5984 13.0315 15.7403 13.1759 15.8171 13.3747L16.983 12.924C16.7935 12.4336 16.4244 12.0305 15.9433 11.817L15.4362 12.9596ZM13.2188 11.6562C12.9221 11.6562 12.6661 11.6559 12.455 11.6713C12.2374 11.6872 12.0202 11.7223 11.8067 11.817L12.3138 12.9596C12.3414 12.9473 12.3977 12.9288 12.5462 12.918C12.7011 12.9066 12.9038 12.9062 13.2188 12.9062V11.6562ZM11.875 14.3906C11.875 14.055 11.8753 13.8325 11.8862 13.6609C11.8968 13.4941 11.9157 13.4192 11.9329 13.3747L10.767 12.924C10.6843 13.1379 10.6531 13.356 10.6388 13.5815C10.6247 13.8021 10.625 14.071 10.625 14.3906H11.875ZM11.8067 11.817C11.3256 12.0305 10.9565 12.4336 10.767 12.924L11.9329 13.3747C12.0097 13.1759 12.1516 13.0315 12.3138 12.9596L11.8067 11.817ZM13.1875 12.2812V11.0156H11.9375V12.2812H13.1875ZM14.5625 11.0156V12.2812H15.8125V11.0156H14.5625ZM13.875 10.375C14.2763 10.375 14.5625 10.683 14.5625 11.0156H15.8125C15.8125 9.95023 14.9234 9.125 13.875 9.125V10.375ZM13.1875 11.0156C13.1875 10.683 13.4737 10.375 13.875 10.375V9.125C12.8266 9.125 11.9375 9.95023 11.9375 11.0156H13.1875Z" fill="#565865"/>
</svg>