<svg xmlns="http://www.w3.org/2000/svg" width="38" height="38" viewBox="0 0 38 38" fill="none">
    <path d="M29.8885 6.08418C30.2684 7.00296 30.9976 7.73328 31.9158 8.11456L35.1355 9.44821C36.0544 9.82881 36.7844 10.5588 37.165 11.4777C37.5456 12.3966 37.5456 13.429 37.165 14.3478L35.8323 17.5652C35.4516 18.4845 35.451 19.518 35.8335 20.4368L37.1639 23.6532C37.3526 24.1083 37.4498 24.5961 37.4498 25.0888C37.4499 25.5815 37.3529 26.0693 37.1644 26.5245C36.9758 26.9796 36.6995 27.3932 36.3511 27.7415C36.0026 28.0898 35.589 28.366 35.1338 28.5544L31.9164 29.8871C30.9976 30.267 30.2673 30.9962 29.886 31.9144L28.5523 35.1342C28.1717 36.053 27.4417 36.783 26.5229 37.1636C25.604 37.5442 24.5716 37.5442 23.6527 37.1636L20.4353 35.8309C19.5164 35.4513 18.4844 35.4521 17.5661 35.8331L14.3464 37.1648C13.428 37.5446 12.3965 37.5442 11.4784 37.1639C10.5603 36.7837 9.83067 36.0545 9.4498 35.1366L8.11575 31.9159C7.73585 30.9972 7.00664 30.2668 6.08843 29.8856L2.86871 28.5519C1.95025 28.1715 1.22044 27.4419 0.839697 26.5236C0.458955 25.6053 0.458438 24.5733 0.838262 23.6546L2.17096 20.4372C2.55062 19.5183 2.54985 18.4863 2.1688 17.568L0.83802 14.3459C0.649341 13.8908 0.552187 13.403 0.552108 12.9104C0.552029 12.4177 0.649027 11.9299 0.83756 11.4747C1.02609 11.0195 1.30246 10.606 1.65088 10.2577C1.9993 9.90938 2.41294 9.63314 2.86816 9.44475L6.08557 8.11206C7.00355 7.73249 7.73343 7.00419 8.11499 6.08704L9.44864 2.86732C9.82924 1.94846 10.5593 1.21843 11.4781 0.837832C12.397 0.45723 13.4294 0.45723 14.3483 0.837832L17.5657 2.17053C18.4845 2.55019 19.5166 2.54942 20.4349 2.16837L23.656 0.839899C24.5747 0.45951 25.6069 0.459588 26.5256 0.840115C27.4442 1.22064 28.1742 1.95046 28.5548 2.86908L29.8889 6.08975L29.8885 6.08418Z" fill="currentColor"/>
</svg>