<svg width="16" height="16" viewBox="0 0 16 16" fill="none" xmlns="http://www.w3.org/2000/svg">
  <path d="M14.2688 9.01755C13.3767 9.9095 11.6981 9.87482 9.12437 9.87482C7.46857 9.87482 6.12603 8.5303 6.12518 6.8745C6.12518 4.30251 6.0905 2.62299 6.98259 1.73104C7.87469 0.839088 8.26869 0.875203 12.2205 0.875203C12.6024 0.873568 12.7946 1.33542 12.5246 1.60546L10.4899 3.64035C9.97344 4.15687 9.97202 4.99424 10.4885 5.51069C11.0051 6.02714 11.8425 6.02719 12.3591 5.51082L14.3944 3.47641C14.6645 3.20644 15.1264 3.39862 15.1248 3.78046C15.1248 7.73166 15.1609 8.1256 14.2688 9.01755Z" stroke="#565865" stroke-width="1.25"/>
  <path d="M9.125 9.875L4.49632 14.5037C3.66789 15.3321 2.32475 15.3321 1.49632 14.5037C0.667893 13.6753 0.667893 12.3321 1.49632 11.5037L6.125 6.875" stroke="#565865" stroke-width="1.25" stroke-linecap="round"/>
  <path d="M3.13172 12.875H3.125" stroke="#565865" stroke-width="1.25" stroke-linecap="round" stroke-linejoin="round"/>
</svg>