<svg width="18" height="18" viewBox="0 0 18 18" fill="none" xmlns="http://www.w3.org/2000/svg">
  <path d="M1.5 4.5C1.5 3.08579 1.5 2.37868 1.93934 1.93934C2.37868 1.5 3.08579 1.5 4.5 1.5C5.91421 1.5 6.62132 1.5 7.06066 1.93934C7.5 2.37868 7.5 3.08579 7.5 4.5V6C7.5 7.41421 7.5 8.12132 7.06066 8.56066C6.62132 9 5.91421 9 4.5 9C3.08579 9 2.37868 9 1.93934 8.56066C1.5 8.12132 1.5 7.41421 1.5 6V4.5Z" stroke="#565865" stroke-width="1.25"/>
  <path d="M1.5 14.25C1.5 13.5511 1.5 13.2016 1.61418 12.926C1.76642 12.5584 2.05843 12.2664 2.42597 12.1142C2.70163 12 3.05109 12 3.75 12H5.25C5.94891 12 6.29837 12 6.57403 12.1142C6.94157 12.2664 7.23358 12.5584 7.38582 12.926C7.5 13.2016 7.5 13.5511 7.5 14.25C7.5 14.9489 7.5 15.2984 7.38582 15.574C7.23358 15.9416 6.94157 16.2336 6.57403 16.3858C6.29837 16.5 5.94891 16.5 5.25 16.5H3.75C3.05109 16.5 2.70163 16.5 2.42597 16.3858C2.05843 16.2336 1.76642 15.9416 1.61418 15.574C1.5 15.2984 1.5 14.9489 1.5 14.25Z" stroke="#565865" stroke-width="1.25"/>
  <path d="M10.5 12C10.5 10.5858 10.5 9.87868 10.9393 9.43934C11.3787 9 12.0858 9 13.5 9C14.9142 9 15.6213 9 16.0607 9.43934C16.5 9.87868 16.5 10.5858 16.5 12V13.5C16.5 14.9142 16.5 15.6213 16.0607 16.0607C15.6213 16.5 14.9142 16.5 13.5 16.5C12.0858 16.5 11.3787 16.5 10.9393 16.0607C10.5 15.6213 10.5 14.9142 10.5 13.5V12Z" stroke="#565865" stroke-width="1.25"/>
  <path d="M10.5 3.75C10.5 3.05109 10.5 2.70163 10.6142 2.42597C10.7664 2.05843 11.0584 1.76642 11.426 1.61418C11.7016 1.5 12.0511 1.5 12.75 1.5H14.25C14.9489 1.5 15.2984 1.5 15.574 1.61418C15.9416 1.76642 16.2336 2.05843 16.3858 2.42597C16.5 2.70163 16.5 3.05109 16.5 3.75C16.5 4.44891 16.5 4.79837 16.3858 5.07403C16.2336 5.44157 15.9416 5.73358 15.574 5.88582C15.2984 6 14.9489 6 14.25 6H12.75C12.0511 6 11.7016 6 11.426 5.88582C11.0584 5.73358 10.7664 5.44157 10.6142 5.07403C10.5 4.79837 10.5 4.44891 10.5 3.75Z" stroke="#565865" stroke-width="1.25"/>
</svg>